<svg xmlns="http://www.w3.org/2000/svg" xmlns:xlink="http://www.w3.org/1999/xlink" width="1024" zoomAndPan="magnify" viewBox="0 0 768 149.999998" height="200" preserveAspectRatio="xMidYMid meet" version="1.0"><defs><g/><clipPath id="f6486e89e3"><rect x="0" width="362" y="0" height="150"/></clipPath><clipPath id="2a9ed237b5"><path d="M 195 64 L 227 64 L 227 87 L 195 87 Z M 195 64 " clip-rule="nonzero"/></clipPath><clipPath id="6d8d3c7314"><path d="M 226.515625 79.265625 L 199.015625 86.746094 L 195.078125 72.273438 L 222.578125 64.792969 Z M 226.515625 79.265625 " clip-rule="nonzero"/></clipPath><clipPath id="4a087f1f5b"><path d="M 4 0.558594 L 31.558594 0.558594 L 31.558594 22.398438 L 4 22.398438 Z M 4 0.558594 " clip-rule="nonzero"/></clipPath><clipPath id="2776b8a570"><path d="M 31.515625 15.265625 L 4.015625 22.746094 L 0.078125 8.273438 L 27.578125 0.792969 Z M 31.515625 15.265625 " clip-rule="nonzero"/></clipPath><clipPath id="e58d90690a"><path d="M 4.273438 22.675781 L 134.542969 -12.757812 L 130.605469 -27.230469 L 0.335938 8.203125 Z M 4.273438 22.675781 " clip-rule="nonzero"/></clipPath><clipPath id="dbedc22422"><rect x="0" width="32" y="0" height="23"/></clipPath><clipPath id="dceae9b2ee"><path d="M 542 58 L 587 58 L 587 76 L 542 76 Z M 542 58 " clip-rule="nonzero"/></clipPath><clipPath id="29c9f93a16"><path d="M 542.726562 69.335938 L 585.300781 54.761719 L 587.488281 61.148438 L 544.914062 75.722656 Z M 542.726562 69.335938 " clip-rule="nonzero"/></clipPath><clipPath id="399a049ae3"><path d="M 527.214844 74.644531 L 584.691406 54.972656 L 586.875 61.359375 L 529.398438 81.03125 Z M 527.214844 74.644531 " clip-rule="nonzero"/></clipPath></defs><g transform="matrix(1, 0, 0, 1, 217, -0.000000000000007527)"><g clip-path="url(#f6486e89e3)"><g fill="#252b39" fill-opacity="1"><g transform="translate(1.160751, 81.509635)"><g><path d="M 2.828125 -12.65625 C 2.429688 -12.457031 2.054688 -12.535156 1.703125 -12.890625 C 1.390625 -13.203125 1.410156 -13.554688 1.765625 -13.953125 C 1.960938 -14.222656 2.175781 -14.457031 2.40625 -14.65625 C 2.644531 -14.851562 2.882812 -15.03125 3.125 -15.1875 C 5.195312 -16.757812 7.410156 -17.75 9.765625 -18.15625 C 12.128906 -18.570312 14.566406 -18.625 17.078125 -18.3125 C 18.960938 -18.03125 20.773438 -17.546875 22.515625 -16.859375 C 24.265625 -16.179688 26.003906 -15.46875 27.734375 -14.71875 C 28.671875 -14.320312 29.609375 -13.90625 30.546875 -13.46875 C 31.492188 -13.039062 32.4375 -12.613281 33.375 -12.1875 C 34.164062 -11.832031 34.796875 -12.007812 35.265625 -12.71875 C 37.734375 -16.09375 40.125 -19.523438 42.4375 -23.015625 C 44.757812 -26.515625 47 -30.050781 49.15625 -33.625 C 52.769531 -39.425781 56.546875 -45.09375 60.484375 -50.625 C 64.429688 -56.164062 68.46875 -61.625 72.59375 -67 C 73.019531 -67.550781 73.46875 -68.085938 73.9375 -68.609375 C 74.414062 -69.140625 74.910156 -69.660156 75.421875 -70.171875 C 75.734375 -70.566406 76.101562 -70.84375 76.53125 -71 C 76.96875 -71.15625 77.441406 -71.117188 77.953125 -70.890625 C 78.503906 -70.648438 78.867188 -70.320312 79.046875 -69.90625 C 79.222656 -69.5 79.3125 -69.019531 79.3125 -68.46875 C 79.34375 -67.289062 79.222656 -66.140625 78.953125 -65.015625 C 78.679688 -63.898438 78.382812 -62.773438 78.0625 -61.640625 C 76.769531 -57.484375 75.316406 -53.378906 73.703125 -49.328125 C 72.097656 -45.285156 70.507812 -41.242188 68.9375 -37.203125 C 67.050781 -32.335938 65.1875 -27.441406 63.34375 -22.515625 C 61.5 -17.585938 59.695312 -12.671875 57.9375 -7.765625 C 57.738281 -7.222656 57.664062 -6.898438 57.71875 -6.796875 C 57.78125 -6.703125 58.109375 -6.65625 58.703125 -6.65625 C 60.773438 -6.613281 62.8125 -6.804688 64.8125 -7.234375 C 66.820312 -7.671875 68.804688 -8.179688 70.765625 -8.765625 C 71.234375 -8.929688 71.691406 -9.070312 72.140625 -9.1875 C 72.597656 -9.300781 73.0625 -9.4375 73.53125 -9.59375 C 73.65625 -9.632812 73.773438 -9.664062 73.890625 -9.6875 C 74.003906 -9.707031 74.140625 -9.71875 74.296875 -9.71875 C 74.609375 -9.632812 74.804688 -9.476562 74.890625 -9.25 C 74.929688 -9.050781 74.878906 -8.929688 74.734375 -8.890625 C 74.597656 -8.847656 74.472656 -8.804688 74.359375 -8.765625 C 72.117188 -7.785156 69.832031 -7 67.5 -6.40625 C 65.164062 -5.820312 62.757812 -5.492188 60.28125 -5.421875 C 60.09375 -5.378906 59.878906 -5.359375 59.640625 -5.359375 C 59.398438 -5.359375 59.1875 -5.359375 59 -5.359375 C 58.363281 -5.316406 57.898438 -5.265625 57.609375 -5.203125 C 57.316406 -5.148438 57.097656 -4.992188 56.953125 -4.734375 C 56.816406 -4.484375 56.65625 -4.046875 56.46875 -3.421875 C 55.789062 -1.410156 55.117188 0.59375 54.453125 2.59375 C 53.785156 4.59375 53.238281 6.632812 52.8125 8.71875 C 52.695312 9.300781 52.585938 9.882812 52.484375 10.46875 C 52.390625 11.0625 52.363281 11.65625 52.40625 12.25 C 52.4375 12.832031 52.316406 13.203125 52.046875 13.359375 C 51.773438 13.515625 51.382812 13.457031 50.875 13.1875 C 50.082031 12.71875 49.648438 11.992188 49.578125 11.015625 C 49.535156 9.835938 49.640625 8.6875 49.890625 7.5625 C 50.148438 6.445312 50.4375 5.335938 50.75 4.234375 C 51.175781 2.742188 51.613281 1.265625 52.0625 -0.203125 C 52.519531 -1.671875 52.984375 -3.132812 53.453125 -4.59375 C 53.535156 -4.863281 53.578125 -5.078125 53.578125 -5.234375 C 53.578125 -5.390625 53.378906 -5.488281 52.984375 -5.53125 C 50.078125 -5.8125 47.25 -6.375 44.5 -7.21875 C 41.757812 -8.0625 39.015625 -8.929688 36.265625 -9.828125 C 35.597656 -10.023438 35.066406 -9.867188 34.671875 -9.359375 C 32.984375 -7.117188 31.265625 -4.890625 29.515625 -2.671875 C 27.773438 -0.460938 25.882812 1.625 23.84375 3.59375 C 22.976562 4.457031 22.070312 5.238281 21.125 5.9375 C 20.1875 6.644531 19.148438 7.273438 18.015625 7.828125 C 15.703125 8.929688 13.515625 9.109375 11.453125 8.359375 C 9.390625 7.609375 7.789062 6.097656 6.65625 3.828125 C 6.0625 2.566406 5.675781 1.296875 5.5 0.015625 C 5.320312 -1.253906 5.3125 -2.554688 5.46875 -3.890625 C 5.507812 -4.316406 5.671875 -4.785156 5.953125 -5.296875 C 6.222656 -5.765625 6.632812 -5.898438 7.1875 -5.703125 C 7.613281 -5.546875 7.789062 -5.210938 7.71875 -4.703125 C 7.5625 -3.335938 7.519531 -1.976562 7.59375 -0.625 C 7.675781 0.726562 8.007812 2.035156 8.59375 3.296875 C 9.300781 4.867188 10 5.976562 10.6875 6.625 C 11.375 7.269531 12.164062 7.5625 13.0625 7.5 C 13.96875 7.445312 15.070312 7.1875 16.375 6.71875 C 17.738281 6.207031 18.976562 5.5 20.09375 4.59375 C 21.21875 3.6875 22.289062 2.742188 23.3125 1.765625 C 25.15625 -0.0351562 26.890625 -1.9375 28.515625 -3.9375 C 30.148438 -5.945312 31.753906 -7.972656 33.328125 -10.015625 C 33.441406 -10.203125 33.546875 -10.375 33.640625 -10.53125 C 33.742188 -10.695312 33.597656 -10.859375 33.203125 -11.015625 C 31.285156 -11.753906 29.375 -12.566406 27.46875 -13.453125 C 25.5625 -14.335938 23.609375 -15.054688 21.609375 -15.609375 C 20.742188 -15.835938 19.890625 -16.019531 19.046875 -16.15625 C 18.203125 -16.300781 17.347656 -16.390625 16.484375 -16.421875 C 12.203125 -16.734375 8.257812 -15.832031 4.65625 -13.71875 C 4.375 -13.5625 4.078125 -13.394531 3.765625 -13.21875 C 3.453125 -13.039062 3.140625 -12.851562 2.828125 -12.65625 Z M 37.15625 -12.71875 C 36.601562 -11.9375 36.363281 -11.457031 36.4375 -11.28125 C 36.519531 -11.101562 36.992188 -10.851562 37.859375 -10.53125 C 40.367188 -9.675781 42.910156 -8.910156 45.484375 -8.234375 C 48.054688 -7.566406 50.675781 -7.140625 53.34375 -6.953125 C 53.65625 -6.910156 53.898438 -6.925781 54.078125 -7 C 54.253906 -7.082031 54.398438 -7.28125 54.515625 -7.59375 C 56.597656 -13.5625 58.835938 -19.457031 61.234375 -25.28125 C 63.628906 -31.113281 66.003906 -36.9375 68.359375 -42.75 C 69.847656 -46.351562 71.285156 -49.941406 72.671875 -53.515625 C 74.066406 -57.085938 75.335938 -60.71875 76.484375 -64.40625 C 76.710938 -65.269531 76.914062 -66.132812 77.09375 -67 C 77.269531 -67.863281 77.335938 -68.785156 77.296875 -69.765625 C 76.671875 -69.335938 76.128906 -68.867188 75.671875 -68.359375 C 75.222656 -67.847656 74.785156 -67.335938 74.359375 -66.828125 C 70.785156 -62.347656 67.320312 -57.789062 63.96875 -53.15625 C 60.613281 -48.53125 57.382812 -43.785156 54.28125 -38.921875 C 51.5 -34.523438 48.710938 -30.117188 45.921875 -25.703125 C 43.140625 -21.285156 40.21875 -16.957031 37.15625 -12.71875 Z M 37.15625 -12.71875 "/></g></g></g><g fill="#252b39" fill-opacity="1"><g transform="translate(70.509503, 81.509635)"><g><path d="M 26.5 -10.125 C 26.769531 -10.28125 27.0625 -10.382812 27.375 -10.4375 C 27.6875 -10.5 28.039062 -10.394531 28.4375 -10.125 C 25.800781 -8.945312 23.503906 -7.492188 21.546875 -5.765625 C 20.679688 -5.023438 19.835938 -4.25 19.015625 -3.4375 C 18.191406 -2.632812 17.367188 -1.84375 16.546875 -1.0625 C 14.859375 0.582031 13.148438 2.21875 11.421875 3.84375 C 9.691406 5.476562 7.90625 7.039062 6.0625 8.53125 C 5.4375 9.039062 4.804688 9.53125 4.171875 10 C 3.546875 10.476562 2.863281 10.894531 2.125 11.25 C 1.882812 11.320312 1.644531 11.40625 1.40625 11.5 C 1.175781 11.601562 0.941406 11.695312 0.703125 11.78125 C -0.515625 12.09375 -1.632812 12.003906 -2.65625 11.515625 C -3.675781 11.023438 -4.421875 10.191406 -4.890625 9.015625 C -5.429688 7.710938 -5.703125 6.394531 -5.703125 5.0625 C -5.703125 3.21875 -5.515625 1.429688 -5.140625 -0.296875 C -4.773438 -2.023438 -4.296875 -3.734375 -3.703125 -5.421875 C -3.078125 -7.179688 -2.378906 -8.90625 -1.609375 -10.59375 C -0.847656 -12.28125 -0.0351562 -13.953125 0.828125 -15.609375 C 2.078125 -18.148438 3.378906 -20.675781 4.734375 -23.1875 C 6.085938 -25.707031 7.492188 -28.203125 8.953125 -30.671875 C 10.203125 -32.867188 11.492188 -35.035156 12.828125 -37.171875 C 14.171875 -39.316406 15.507812 -41.46875 16.84375 -43.625 C 18.21875 -45.707031 19.609375 -47.757812 21.015625 -49.78125 C 22.429688 -51.800781 23.925781 -53.773438 25.5 -55.703125 C 26.832031 -57.347656 28.179688 -58.960938 29.546875 -60.546875 C 30.921875 -62.140625 32.316406 -63.722656 33.734375 -65.296875 C 33.929688 -65.523438 34.15625 -65.75 34.40625 -65.96875 C 34.664062 -66.1875 34.910156 -66.394531 35.140625 -66.59375 C 35.492188 -66.863281 35.835938 -66.867188 36.171875 -66.609375 C 36.503906 -66.359375 36.757812 -66.003906 36.9375 -65.546875 C 37.113281 -65.097656 37.144531 -64.71875 37.03125 -64.40625 C 36.988281 -63.695312 36.546875 -62.457031 35.703125 -60.6875 C 34.859375 -58.925781 33.707031 -56.789062 32.25 -54.28125 C 30.800781 -51.769531 29.101562 -49.003906 27.15625 -45.984375 C 25.21875 -42.960938 23.101562 -39.832031 20.8125 -36.59375 C 18.519531 -33.351562 16.113281 -30.132812 13.59375 -26.9375 C 11.082031 -23.738281 8.550781 -20.707031 6 -17.84375 L 5.953125 -17.84375 C 5.628906 -17.207031 5.289062 -16.578125 4.9375 -15.953125 C 4.59375 -15.328125 4.257812 -14.679688 3.9375 -14.015625 C 2.882812 -11.972656 1.894531 -9.878906 0.96875 -7.734375 C 0.0507812 -5.597656 -0.78125 -3.410156 -1.53125 -1.171875 C -1.925781 0.117188 -2.289062 1.429688 -2.625 2.765625 C -2.957031 4.097656 -3.101562 5.472656 -3.0625 6.890625 C -3.0625 7.398438 -3.03125 7.898438 -2.96875 8.390625 C -2.914062 8.878906 -2.789062 9.359375 -2.59375 9.828125 C -2.351562 10.335938 -2.125 10.640625 -1.90625 10.734375 C -1.695312 10.835938 -1.316406 10.851562 -0.765625 10.78125 C 0.453125 10.5 1.609375 9.988281 2.703125 9.25 C 4.078125 8.34375 5.351562 7.347656 6.53125 6.265625 C 7.707031 5.191406 8.867188 4.101562 10.015625 3 C 11.503906 1.625 12.984375 0.242188 14.453125 -1.140625 C 15.921875 -2.535156 17.421875 -3.882812 18.953125 -5.1875 C 20.097656 -6.207031 21.304688 -7.117188 22.578125 -7.921875 C 23.847656 -8.722656 25.15625 -9.457031 26.5 -10.125 Z M 10.296875 -25.84375 C 10.023438 -25.332031 9.734375 -24.789062 9.421875 -24.21875 C 9.109375 -23.65625 8.796875 -23.097656 8.484375 -22.546875 C 11.503906 -26.160156 14.601562 -30.144531 17.78125 -34.5 C 20.957031 -38.851562 24 -43.328125 26.90625 -47.921875 C 29.0625 -51.296875 30.835938 -54.207031 32.234375 -56.65625 C 33.628906 -59.113281 34.660156 -61.070312 35.328125 -62.53125 C 34.972656 -62.09375 34.617188 -61.648438 34.265625 -61.203125 C 33.910156 -60.753906 33.554688 -60.3125 33.203125 -59.875 C 31.359375 -57.476562 29.503906 -55.09375 27.640625 -52.71875 C 25.773438 -50.34375 24 -47.898438 22.3125 -45.390625 C 20.195312 -42.171875 18.132812 -38.941406 16.125 -35.703125 C 14.125 -32.460938 12.179688 -29.175781 10.296875 -25.84375 Z M 10.296875 -25.84375 "/></g></g></g><g fill="#252b39" fill-opacity="1"><g transform="translate(91.937804, 81.509635)"><g><path d="M 3.65625 -5.234375 C 3.65625 -5.234375 3.65625 -5.210938 3.65625 -5.171875 C 3.65625 -5.140625 3.632812 -5.066406 3.59375 -4.953125 C 3.59375 -4.953125 4.171875 -4.929688 5.328125 -4.890625 C 6.484375 -4.847656 8.203125 -5.039062 10.484375 -5.46875 C 10.753906 -5.550781 11.332031 -5.71875 12.21875 -5.96875 C 13.101562 -6.226562 14.132812 -6.570312 15.3125 -7 C 16.488281 -7.4375 17.703125 -7.921875 18.953125 -8.453125 C 20.210938 -8.984375 21.332031 -9.539062 22.3125 -10.125 C 22.550781 -10.28125 22.765625 -10.316406 22.953125 -10.234375 C 23.148438 -10.160156 23.289062 -10.101562 23.375 -10.0625 C 20.707031 -8.414062 18.023438 -7.0625 15.328125 -6 C 12.640625 -4.945312 10.207031 -4.253906 8.03125 -3.921875 C 5.851562 -3.585938 4.195312 -3.632812 3.0625 -4.0625 C 2.789062 -4.101562 2.535156 -4.003906 2.296875 -3.765625 C 1.941406 -3.410156 1.566406 -3.085938 1.171875 -2.796875 C 0.785156 -2.503906 0.394531 -2.203125 0 -1.890625 C -0.0820312 -1.847656 -0.160156 -1.796875 -0.234375 -1.734375 C -0.316406 -1.679688 -0.394531 -1.632812 -0.46875 -1.59375 C -1.21875 -1.125 -1.9375 -1.082031 -2.625 -1.46875 C -3.3125 -1.863281 -3.671875 -2.515625 -3.703125 -3.421875 C -3.703125 -3.960938 -3.625 -4.488281 -3.46875 -5 C -3.3125 -5.507812 -3.097656 -6 -2.828125 -6.46875 C -2.546875 -6.945312 -2.566406 -7.421875 -2.890625 -7.890625 C -3.828125 -9.335938 -4.257812 -10.96875 -4.1875 -12.78125 C -4.144531 -13.320312 -4.015625 -13.847656 -3.796875 -14.359375 C -3.578125 -14.867188 -3.289062 -15.34375 -2.9375 -15.78125 C -1.570312 -17.539062 0.226562 -18.582031 2.46875 -18.90625 C 3.800781 -19.09375 4.9375 -18.800781 5.875 -18.03125 C 6.820312 -17.269531 7.375 -16.222656 7.53125 -14.890625 C 7.613281 -14.023438 7.578125 -13.203125 7.421875 -12.421875 C 7.265625 -11.640625 7.03125 -10.851562 6.71875 -10.0625 C 6.363281 -9.195312 5.957031 -8.390625 5.5 -7.640625 C 5.050781 -6.898438 4.492188 -6.195312 3.828125 -5.53125 C 3.785156 -5.488281 3.753906 -5.445312 3.734375 -5.40625 C 3.710938 -5.375 3.6875 -5.316406 3.65625 -5.234375 Z M 0.53125 -4.359375 C 0.6875 -4.515625 0.664062 -4.671875 0.46875 -4.828125 C 0.3125 -4.910156 0.15625 -5 0 -5.09375 C -0.15625 -5.1875 -0.3125 -5.273438 -0.46875 -5.359375 C -0.75 -5.554688 -0.96875 -5.515625 -1.125 -5.234375 C -1.507812 -4.535156 -1.800781 -3.789062 -2 -3 C -2.039062 -2.84375 -2.019531 -2.707031 -1.9375 -2.59375 C -1.394531 -2.75 -0.9375 -2.984375 -0.5625 -3.296875 C -0.1875 -3.609375 0.175781 -3.960938 0.53125 -4.359375 Z M 2.0625 -6.0625 C 2.84375 -6.925781 3.457031 -7.878906 3.90625 -8.921875 C 4.363281 -9.960938 4.710938 -11.03125 4.953125 -12.125 C 5.265625 -13.539062 5.234375 -14.570312 4.859375 -15.21875 C 4.484375 -15.863281 4.066406 -16.273438 3.609375 -16.453125 C 3.160156 -16.628906 2.9375 -16.71875 2.9375 -16.71875 C 1.84375 -16.800781 0.863281 -16.546875 0 -15.953125 C -0.863281 -15.367188 -1.539062 -14.613281 -2.03125 -13.6875 C -2.519531 -12.769531 -2.773438 -11.804688 -2.796875 -10.796875 C -2.816406 -9.796875 -2.53125 -8.90625 -1.9375 -8.125 C -1.75 -8.4375 -1.546875 -8.71875 -1.328125 -8.96875 C -1.109375 -9.226562 -0.921875 -9.476562 -0.765625 -9.71875 C -0.296875 -10.382812 0.269531 -10.929688 0.9375 -11.359375 C 1.644531 -11.796875 2.273438 -11.617188 2.828125 -10.828125 C 3.023438 -10.554688 3.101562 -10.34375 3.0625 -10.1875 C 3.019531 -10.03125 2.800781 -9.796875 2.40625 -9.484375 C 2.019531 -9.171875 1.640625 -8.835938 1.265625 -8.484375 C 0.890625 -8.128906 0.546875 -7.734375 0.234375 -7.296875 C -0.00390625 -6.941406 -0.125 -6.722656 -0.125 -6.640625 C -0.125 -6.566406 0.25 -6.335938 1 -5.953125 C 1.3125 -5.785156 1.5 -5.691406 1.5625 -5.671875 C 1.625 -5.660156 1.691406 -5.671875 1.765625 -5.703125 C 1.847656 -5.742188 1.90625 -5.800781 1.9375 -5.875 C 1.976562 -5.957031 2.019531 -6.019531 2.0625 -6.0625 Z M 2.0625 -6.0625 "/></g></g></g><g fill="#252b39" fill-opacity="1"><g transform="translate(109.362929, 81.509635)"><g><path d="M -46.453125 57.640625 C -47.671875 57.484375 -48.789062 57.128906 -49.8125 56.578125 C -50.832031 56.023438 -51.773438 55.316406 -52.640625 54.453125 C -55.222656 51.984375 -56.703125 49.285156 -57.078125 46.359375 C -57.453125 43.441406 -57.050781 40.390625 -55.875 37.203125 C -55.082031 35.085938 -54.007812 33.15625 -52.65625 31.40625 C -51.300781 29.664062 -49.863281 28.007812 -48.34375 26.4375 C -46.101562 24.125 -43.664062 22.128906 -41.03125 20.453125 C -38.40625 18.785156 -35.660156 17.285156 -32.796875 15.953125 C -29.691406 14.503906 -26.53125 13.363281 -23.3125 12.53125 C -20.09375 11.707031 -16.796875 11.160156 -13.421875 10.890625 C -12.597656 10.773438 -12.03125 10.363281 -11.71875 9.65625 C -10.8125 7.695312 -9.90625 5.734375 -9 3.765625 C -8.101562 1.804688 -7.125 -0.132812 -6.0625 -2.0625 C -5.15625 -3.664062 -4.203125 -5.265625 -3.203125 -6.859375 C -2.203125 -8.453125 -1.15625 -9.992188 -0.0625 -11.484375 C 0.289062 -11.953125 0.664062 -12.410156 1.0625 -12.859375 C 1.457031 -13.316406 1.90625 -13.722656 2.40625 -14.078125 C 3.039062 -14.460938 3.648438 -14.398438 4.234375 -13.890625 C 4.628906 -13.578125 4.648438 -13.242188 4.296875 -12.890625 C 2.960938 -11.441406 1.804688 -9.875 0.828125 -8.1875 C -0.148438 -6.5 -1.113281 -4.789062 -2.0625 -3.0625 C -3.238281 -0.9375 -4.347656 1.210938 -5.390625 3.390625 C -6.429688 5.566406 -7.460938 7.753906 -8.484375 9.953125 C -8.515625 10.066406 -8.59375 10.320312 -8.71875 10.71875 C -7.570312 10.71875 -6.488281 10.71875 -5.46875 10.71875 C -4.445312 10.71875 -3.425781 10.71875 -2.40625 10.71875 C -1.394531 10.757812 -0.398438 10.828125 0.578125 10.921875 C 1.566406 11.015625 2.550781 11.203125 3.53125 11.484375 C 4 11.640625 4.46875 11.804688 4.9375 11.984375 C 5.414062 12.160156 5.8125 12.460938 6.125 12.890625 C 6.195312 12.972656 6.269531 13.082031 6.34375 13.21875 C 6.425781 13.351562 6.429688 13.476562 6.359375 13.59375 C 6.242188 13.75 6.097656 13.828125 5.921875 13.828125 C 5.742188 13.828125 5.59375 13.769531 5.46875 13.65625 C 4.84375 12.945312 4.097656 12.550781 3.234375 12.46875 C 2.367188 12.394531 1.503906 12.320312 0.640625 12.25 C -0.847656 12.125 -2.359375 12.070312 -3.890625 12.09375 C -5.421875 12.113281 -6.953125 12.144531 -8.484375 12.1875 C -9.148438 12.226562 -9.617188 12.5625 -9.890625 13.1875 C -11.535156 16.71875 -13.179688 20.25 -14.828125 23.78125 C -16.484375 27.3125 -18.175781 30.828125 -19.90625 34.328125 C -21 36.441406 -22.132812 38.539062 -23.3125 40.625 C -24.488281 42.707031 -25.820312 44.6875 -27.3125 46.5625 C -28.769531 48.375 -30.332031 50.0625 -32 51.625 C -33.664062 53.195312 -35.519531 54.570312 -37.5625 55.75 C -38.894531 56.539062 -40.304688 57.109375 -41.796875 57.453125 C -43.285156 57.804688 -44.835938 57.867188 -46.453125 57.640625 Z M -54.6875 39.921875 C -55.363281 42.273438 -55.5625 44.550781 -55.28125 46.75 C -55.007812 48.945312 -54.109375 51.046875 -52.578125 53.046875 C -50.648438 55.484375 -48.195312 56.5625 -45.21875 56.28125 C -44.082031 56.207031 -43.007812 55.972656 -42 55.578125 C -41 55.179688 -40.007812 54.710938 -39.03125 54.171875 C -37.625 53.304688 -36.300781 52.332031 -35.0625 51.25 C -33.820312 50.164062 -32.65625 49.019531 -31.5625 47.8125 C -29.632812 45.6875 -27.953125 43.40625 -26.515625 40.96875 C -25.085938 38.539062 -23.765625 36.070312 -22.546875 33.5625 C -21.210938 30.894531 -19.957031 28.207031 -18.78125 25.5 C -17.601562 22.789062 -16.425781 20.082031 -15.25 17.375 C -14.9375 16.664062 -14.59375 15.9375 -14.21875 15.1875 C -13.84375 14.445312 -13.519531 13.601562 -13.25 12.65625 C -14.34375 12.8125 -15.390625 12.96875 -16.390625 13.125 C -17.390625 13.28125 -18.382812 13.457031 -19.375 13.65625 C -23.289062 14.476562 -27.019531 15.65625 -30.5625 17.1875 C -34.289062 18.800781 -37.78125 20.742188 -41.03125 23.015625 C -44.289062 25.296875 -47.238281 28.003906 -49.875 31.140625 C -50.925781 32.472656 -51.882812 33.851562 -52.75 35.28125 C -53.613281 36.71875 -54.257812 38.265625 -54.6875 39.921875 Z M 1.65625 -18.609375 C 1.375 -19.117188 1.644531 -19.628906 2.46875 -20.140625 C 2.9375 -20.410156 3.414062 -20.644531 3.90625 -20.84375 C 4.40625 -21.039062 4.910156 -21.15625 5.421875 -21.1875 C 5.847656 -21.269531 6.25 -21.242188 6.625 -21.109375 C 7 -20.972656 7.34375 -20.6875 7.65625 -20.25 C 6.945312 -20.050781 6.296875 -19.753906 5.703125 -19.359375 C 5.117188 -18.972656 4.550781 -18.601562 4 -18.25 C 3.925781 -18.207031 3.828125 -18.164062 3.703125 -18.125 C 3.585938 -18.09375 3.492188 -18.054688 3.421875 -18.015625 C 3.066406 -17.972656 2.710938 -18.007812 2.359375 -18.125 C 2.003906 -18.25 1.769531 -18.410156 1.65625 -18.609375 Z M 1.65625 -18.609375 "/></g></g></g><g fill="#252b39" fill-opacity="1"><g transform="translate(114.189799, 81.509635)"><g><path d="M 4.125 -1.890625 C 4.082031 -2.078125 4.0625 -2.296875 4.0625 -2.546875 C 4.0625 -2.804688 4.003906 -3.078125 3.890625 -3.359375 C 3.535156 -3.003906 3.191406 -2.671875 2.859375 -2.359375 C 2.523438 -2.046875 2.203125 -1.726562 1.890625 -1.40625 C 1.453125 -0.9375 0.941406 -0.546875 0.359375 -0.234375 C -0.390625 0.117188 -1.144531 0.0976562 -1.90625 -0.296875 C -2.675781 -0.691406 -3.0625 -1.300781 -3.0625 -2.125 C -3.101562 -4.550781 -2.628906 -6.742188 -1.640625 -8.703125 C -0.660156 -10.671875 0.882812 -12.320312 3 -13.65625 C 3.90625 -14.207031 4.796875 -14.453125 5.671875 -14.390625 C 6.554688 -14.335938 7.429688 -14.054688 8.296875 -13.546875 C 8.535156 -13.390625 8.757812 -13.25 8.96875 -13.125 C 9.1875 -13.007812 9.453125 -13.007812 9.765625 -13.125 C 9.960938 -13.207031 10.148438 -13.195312 10.328125 -13.09375 C 10.503906 -13 10.671875 -12.910156 10.828125 -12.828125 C 11.460938 -12.554688 11.816406 -12.273438 11.890625 -11.984375 C 11.972656 -11.691406 11.859375 -11.226562 11.546875 -10.59375 C 11.109375 -9.851562 10.65625 -9.097656 10.1875 -8.328125 C 9.71875 -7.566406 9.328125 -6.773438 9.015625 -5.953125 C 8.179688 -3.910156 7.785156 -1.867188 7.828125 0.171875 C 7.828125 1.117188 8.003906 2.003906 8.359375 2.828125 C 8.671875 3.566406 9.28125 3.976562 10.1875 4.0625 C 11.09375 4.0625 11.9375 3.921875 12.71875 3.640625 C 13.5 3.367188 14.265625 3.039062 15.015625 2.65625 C 15.992188 2.175781 17.265625 1.472656 18.828125 0.546875 C 20.398438 -0.367188 22.109375 -1.382812 23.953125 -2.5 C 25.804688 -3.625 27.664062 -4.722656 29.53125 -5.796875 C 31.394531 -6.878906 33.128906 -7.84375 34.734375 -8.6875 C 36.347656 -9.53125 37.722656 -10.128906 38.859375 -10.484375 C 39.992188 -10.835938 40.71875 -10.816406 41.03125 -10.421875 C 41.03125 -10.421875 41.070312 -10.285156 41.15625 -10.015625 C 39.695312 -9.847656 38.054688 -9.320312 36.234375 -8.4375 C 34.410156 -7.5625 32.503906 -6.492188 30.515625 -5.234375 C 28.535156 -3.984375 26.566406 -2.691406 24.609375 -1.359375 C 22.648438 -0.0234375 20.796875 1.195312 19.046875 2.3125 C 17.296875 3.4375 15.734375 4.296875 14.359375 4.890625 C 12.671875 5.597656 10.941406 5.710938 9.171875 5.234375 C 7.410156 4.765625 6.019531 3.585938 5 1.703125 C 4.726562 1.160156 4.53125 0.585938 4.40625 -0.015625 C 4.289062 -0.628906 4.195312 -1.253906 4.125 -1.890625 Z M 0.828125 -2.59375 C 2.203125 -3.769531 3.378906 -5.09375 4.359375 -6.5625 C 5.335938 -8.03125 6.296875 -9.515625 7.234375 -11.015625 C 7.398438 -11.242188 7.441406 -11.445312 7.359375 -11.625 C 7.273438 -11.800781 7.175781 -11.96875 7.0625 -12.125 C 6.945312 -12.320312 6.800781 -12.421875 6.625 -12.421875 C 6.445312 -12.421875 6.28125 -12.382812 6.125 -12.3125 C 5.882812 -12.144531 5.632812 -12.003906 5.375 -11.890625 C 5.125 -11.773438 4.898438 -11.617188 4.703125 -11.421875 C 3.609375 -10.484375 2.664062 -9.441406 1.875 -8.296875 C 1.09375 -7.160156 0.425781 -5.90625 -0.125 -4.53125 C -0.28125 -4.132812 -0.414062 -3.691406 -0.53125 -3.203125 C -0.644531 -2.710938 -0.703125 -2.132812 -0.703125 -1.46875 C -0.390625 -1.707031 -0.109375 -1.914062 0.140625 -2.09375 C 0.398438 -2.269531 0.628906 -2.4375 0.828125 -2.59375 Z M 0.828125 -2.59375 "/></g></g></g><g fill="#252b39" fill-opacity="1"><g transform="translate(149.21715, 81.509635)"><g><path d="M 50.6875 -10.25 C 50.96875 -10.363281 51.164062 -10.320312 51.28125 -10.125 C 51.4375 -9.882812 51.378906 -9.648438 51.109375 -9.421875 C 50.472656 -9.023438 49.84375 -8.628906 49.21875 -8.234375 C 48.59375 -7.847656 47.945312 -7.4375 47.28125 -7 C 46.0625 -6.257812 44.820312 -5.503906 43.5625 -4.734375 C 42.3125 -3.972656 41.054688 -3.238281 39.796875 -2.53125 C 38.421875 -1.75 37 -1.0625 35.53125 -0.46875 C 34.0625 0.113281 32.519531 0.566406 30.90625 0.890625 C 30.007812 1.078125 29.164062 0.972656 28.375 0.578125 C 27.59375 0.191406 26.960938 -0.367188 26.484375 -1.109375 C 26.015625 -1.859375 25.820312 -2.644531 25.90625 -3.46875 C 25.945312 -3.90625 25.972656 -4.316406 25.984375 -4.703125 C 26.003906 -5.097656 26.035156 -5.53125 26.078125 -6 C 25.765625 -6.082031 25.46875 -6.050781 25.1875 -5.90625 C 24.914062 -5.769531 24.664062 -5.625 24.4375 -5.46875 C 23.414062 -4.957031 22.429688 -4.359375 21.484375 -3.671875 C 20.546875 -2.992188 19.625 -2.28125 18.71875 -1.53125 C 18.488281 -1.375 18.265625 -1.1875 18.046875 -0.96875 C 17.828125 -0.75 17.539062 -0.722656 17.1875 -0.890625 C 16.800781 -1.078125 16.476562 -1.316406 16.21875 -1.609375 C 15.96875 -1.910156 15.820312 -2.296875 15.78125 -2.765625 C 15.738281 -3.160156 15.765625 -3.535156 15.859375 -3.890625 C 15.960938 -4.242188 16.070312 -4.578125 16.1875 -4.890625 C 16.851562 -6.804688 17.640625 -8.644531 18.546875 -10.40625 C 19.453125 -12.175781 20.453125 -13.910156 21.546875 -15.609375 C 22.609375 -17.210938 23.71875 -18.769531 24.875 -20.28125 C 26.03125 -21.789062 27.082031 -23.390625 28.03125 -25.078125 C 28.257812 -25.515625 28.5 -25.9375 28.75 -26.34375 C 29.007812 -26.757812 29.238281 -27.160156 29.4375 -27.546875 C 29.59375 -27.867188 29.726562 -28.195312 29.84375 -28.53125 C 29.96875 -28.863281 30.046875 -29.222656 30.078125 -29.609375 C 29.535156 -29.691406 29.035156 -29.671875 28.578125 -29.546875 C 28.128906 -29.429688 27.691406 -29.296875 27.265625 -29.140625 C 25.648438 -28.554688 24.125 -27.800781 22.6875 -26.875 C 21.257812 -25.957031 19.859375 -24.96875 18.484375 -23.90625 C 15.378906 -21.425781 12.617188 -18.664062 10.203125 -15.625 C 7.796875 -12.582031 5.550781 -9.375 3.46875 -6 C 3.082031 -5.375 2.703125 -4.738281 2.328125 -4.09375 C 1.953125 -3.445312 1.550781 -2.804688 1.125 -2.171875 C 0.6875 -1.546875 0.191406 -1.46875 -0.359375 -1.9375 C -0.628906 -2.21875 -0.851562 -2.523438 -1.03125 -2.859375 C -1.207031 -3.191406 -1.273438 -3.570312 -1.234375 -4 C -1.035156 -5.53125 -0.804688 -7.050781 -0.546875 -8.5625 C -0.296875 -10.070312 0.140625 -11.554688 0.765625 -13.015625 C 0.960938 -13.398438 1.164062 -13.757812 1.375 -14.09375 C 1.59375 -14.425781 1.820312 -14.753906 2.0625 -15.078125 C 2.488281 -15.660156 2.957031 -15.796875 3.46875 -15.484375 C 3.820312 -15.285156 4.078125 -15.007812 4.234375 -14.65625 C 4.390625 -14.300781 4.375 -13.96875 4.1875 -13.65625 C 3.90625 -13.1875 3.65625 -12.707031 3.4375 -12.21875 C 3.226562 -11.726562 3.003906 -11.226562 2.765625 -10.71875 C 2.648438 -10.4375 2.53125 -10.140625 2.40625 -9.828125 C 2.289062 -9.515625 2.234375 -9.160156 2.234375 -8.765625 C 2.546875 -8.929688 2.769531 -9.117188 2.90625 -9.328125 C 3.050781 -9.546875 3.203125 -9.753906 3.359375 -9.953125 C 4.378906 -11.441406 5.398438 -12.910156 6.421875 -14.359375 C 7.441406 -15.816406 8.539062 -17.210938 9.71875 -18.546875 C 11.445312 -20.472656 13.210938 -22.347656 15.015625 -24.171875 C 16.816406 -25.992188 18.757812 -27.648438 20.84375 -29.140625 C 23 -30.628906 25.3125 -31.671875 27.78125 -32.265625 C 28.769531 -32.492188 29.664062 -32.382812 30.46875 -31.9375 C 31.269531 -31.488281 31.882812 -30.84375 32.3125 -30 C 32.75 -29.15625 32.847656 -28.257812 32.609375 -27.3125 C 32.421875 -26.488281 32.140625 -25.710938 31.765625 -24.984375 C 31.390625 -24.265625 30.988281 -23.570312 30.5625 -22.90625 C 29.695312 -21.601562 28.820312 -20.3125 27.9375 -19.03125 C 27.050781 -17.757812 26.15625 -16.5 25.25 -15.25 C 24.425781 -14.070312 23.671875 -12.863281 22.984375 -11.625 C 22.296875 -10.382812 21.660156 -9.140625 21.078125 -7.890625 C 20.878906 -7.421875 20.632812 -6.988281 20.34375 -6.59375 C 20.050781 -6.195312 19.863281 -5.742188 19.78125 -5.234375 C 20.019531 -5.117188 20.195312 -5.117188 20.3125 -5.234375 C 20.425781 -5.359375 20.546875 -5.4375 20.671875 -5.46875 C 21.410156 -5.945312 22.144531 -6.441406 22.875 -6.953125 C 23.601562 -7.460938 24.335938 -7.910156 25.078125 -8.296875 C 25.515625 -8.492188 25.925781 -8.660156 26.3125 -8.796875 C 26.707031 -8.941406 27.140625 -8.851562 27.609375 -8.53125 C 28.554688 -7.832031 29.007812 -6.890625 28.96875 -5.703125 C 28.925781 -5.359375 28.851562 -5.007812 28.75 -4.65625 C 28.65625 -4.300781 28.570312 -3.945312 28.5 -3.59375 C 28.457031 -3.476562 28.425781 -3.359375 28.40625 -3.234375 C 28.382812 -3.117188 28.351562 -3.003906 28.3125 -2.890625 C 28.15625 -2.097656 28.164062 -1.570312 28.34375 -1.3125 C 28.519531 -1.0625 29.039062 -0.9375 29.90625 -0.9375 C 31.238281 -0.90625 32.523438 -1.046875 33.765625 -1.359375 C 35.003906 -1.671875 36.226562 -2.082031 37.4375 -2.59375 C 39.007812 -3.257812 40.507812 -4.03125 41.9375 -4.90625 C 43.375 -5.789062 44.820312 -6.664062 46.28125 -7.53125 C 46.945312 -7.96875 47.625 -8.390625 48.3125 -8.796875 C 49 -9.210938 49.675781 -9.617188 50.34375 -10.015625 C 50.414062 -10.085938 50.53125 -10.164062 50.6875 -10.25 Z M 50.6875 -10.25 "/></g></g></g><g fill="#252b39" fill-opacity="1"><g transform="translate(195.253253, 81.509635)"><g><path d="M 4.703125 -14.1875 C 5.410156 -13.601562 5.507812 -12.878906 5 -12.015625 C 4.488281 -11.148438 3.957031 -10.3125 3.40625 -9.5 C 2.863281 -8.695312 2.316406 -7.847656 1.765625 -6.953125 C 0.585938 -4.984375 -0.410156 -2.945312 -1.234375 -0.84375 C -2.054688 1.25 -2.585938 3.453125 -2.828125 5.765625 C -2.867188 6.398438 -2.890625 7.019531 -2.890625 7.625 C -2.890625 8.226562 -2.8125 8.847656 -2.65625 9.484375 C -2.53125 9.992188 -2.359375 10.328125 -2.140625 10.484375 C -1.929688 10.640625 -1.570312 10.695312 -1.0625 10.65625 C -0.351562 10.613281 0.28125 10.4375 0.84375 10.125 C 1.414062 9.8125 1.976562 9.457031 2.53125 9.0625 C 3.507812 8.394531 4.390625 7.640625 5.171875 6.796875 C 5.960938 5.953125 6.769531 5.117188 7.59375 4.296875 C 9.039062 2.765625 10.539062 1.304688 12.09375 -0.078125 C 13.644531 -1.472656 15.320312 -2.722656 17.125 -3.828125 C 18.382812 -4.609375 19.671875 -5.300781 20.984375 -5.90625 C 22.304688 -6.519531 23.613281 -7.140625 24.90625 -7.765625 C 25.570312 -8.085938 26.238281 -8.40625 26.90625 -8.71875 C 27.570312 -9.03125 28.238281 -9.320312 28.90625 -9.59375 C 29.101562 -9.675781 29.289062 -9.753906 29.46875 -9.828125 C 29.644531 -9.910156 29.847656 -9.929688 30.078125 -9.890625 C 30.398438 -9.890625 30.5625 -9.769531 30.5625 -9.53125 C 30.59375 -9.34375 30.453125 -9.207031 30.140625 -9.125 C 28.847656 -8.65625 27.601562 -8.113281 26.40625 -7.5 C 25.207031 -6.894531 23.976562 -6.296875 22.71875 -5.703125 C 20.5625 -4.648438 18.5625 -3.394531 16.71875 -1.9375 C 14.875 -0.488281 13.128906 1.097656 11.484375 2.828125 C 10.148438 4.242188 8.796875 5.65625 7.421875 7.0625 C 6.046875 8.476562 4.613281 9.8125 3.125 11.0625 C 2.96875 11.21875 2.800781 11.375 2.625 11.53125 C 2.445312 11.695312 2.257812 11.835938 2.0625 11.953125 C -0.0625 13.285156 -1.925781 13.007812 -3.53125 11.125 C -3.925781 10.570312 -4.257812 10 -4.53125 9.40625 C -4.8125 8.820312 -5.03125 8.21875 -5.1875 7.59375 C -5.53125 5.988281 -5.585938 4.398438 -5.359375 2.828125 C -5.046875 -0.234375 -4.25 -3.078125 -2.96875 -5.703125 C -1.695312 -8.335938 -0.15625 -10.851562 1.65625 -13.25 C 1.8125 -13.40625 1.957031 -13.550781 2.09375 -13.6875 C 2.226562 -13.820312 2.375 -13.96875 2.53125 -14.125 C 3.238281 -14.789062 3.960938 -14.8125 4.703125 -14.1875 Z M 7.421875 -17.078125 C 7.023438 -17.234375 6.660156 -17.457031 6.328125 -17.75 C 5.992188 -18.039062 5.75 -18.40625 5.59375 -18.84375 C 5.507812 -19.113281 5.523438 -19.328125 5.640625 -19.484375 C 5.765625 -19.640625 5.960938 -19.703125 6.234375 -19.671875 C 6.742188 -19.628906 7.207031 -19.410156 7.625 -19.015625 C 8.039062 -18.617188 8.25 -18.207031 8.25 -17.78125 C 8.28125 -17.507812 8.21875 -17.300781 8.0625 -17.15625 C 7.90625 -17.019531 7.691406 -16.992188 7.421875 -17.078125 Z M 7.421875 -17.078125 "/></g></g></g><g fill="#252b39" fill-opacity="1"><g transform="translate(220.272639, 81.509635)"><g><path d="M 11.296875 2.40625 C 8.671875 3.394531 6.445312 3.546875 4.625 2.859375 C 2.800781 2.171875 1.160156 0.648438 -0.296875 -1.703125 C -1.742188 -4.140625 -1.976562 -6.691406 -1 -9.359375 C -0.175781 -11.554688 1.046875 -13.332031 2.671875 -14.6875 C 4.304688 -16.039062 6.222656 -17.03125 8.421875 -17.65625 C 9.285156 -17.9375 10.097656 -17.957031 10.859375 -17.71875 C 11.628906 -17.488281 12.363281 -17.117188 13.0625 -16.609375 C 13.96875 -15.941406 14.164062 -15.097656 13.65625 -14.078125 C 13.457031 -13.679688 13.242188 -13.363281 13.015625 -13.125 C 12.148438 -12.300781 11.234375 -11.554688 10.265625 -10.890625 C 9.304688 -10.222656 8.257812 -9.691406 7.125 -9.296875 C 5.988281 -8.941406 4.867188 -8.90625 3.765625 -9.1875 C 3.367188 -9.300781 3.0625 -9.28125 2.84375 -9.125 C 2.632812 -8.96875 2.453125 -8.734375 2.296875 -8.421875 C 1.546875 -6.804688 1.238281 -5.242188 1.375 -3.734375 C 1.519531 -2.222656 2.140625 -0.742188 3.234375 0.703125 C 3.703125 1.253906 4.238281 1.617188 4.84375 1.796875 C 5.457031 1.972656 6.097656 2.039062 6.765625 2 C 7.710938 1.925781 8.617188 1.757812 9.484375 1.5 C 10.347656 1.25 11.191406 0.925781 12.015625 0.53125 C 12.753906 0.175781 13.8125 -0.390625 15.1875 -1.171875 C 16.5625 -1.960938 18.148438 -2.847656 19.953125 -3.828125 C 21.765625 -4.804688 23.691406 -5.773438 25.734375 -6.734375 C 27.773438 -7.703125 29.832031 -8.535156 31.90625 -9.234375 C 33.988281 -9.941406 35.992188 -10.394531 37.921875 -10.59375 C 38.148438 -10.59375 38.390625 -10.5625 38.640625 -10.5 C 38.898438 -10.445312 39.109375 -10.222656 39.265625 -9.828125 C 36.515625 -9.472656 33.773438 -8.738281 31.046875 -7.625 C 28.328125 -6.507812 25.71875 -5.273438 23.21875 -3.921875 C 20.726562 -2.566406 18.460938 -1.296875 16.421875 -0.109375 C 14.378906 1.066406 12.671875 1.90625 11.296875 2.40625 Z M 11.1875 -15.421875 C 10.476562 -15.460938 9.640625 -15.253906 8.671875 -14.796875 C 7.710938 -14.347656 6.820312 -13.789062 6 -13.125 C 5.175781 -12.457031 4.609375 -11.769531 4.296875 -11.0625 C 5.078125 -10.988281 5.957031 -11.164062 6.9375 -11.59375 C 7.925781 -12.03125 8.820312 -12.597656 9.625 -13.296875 C 10.425781 -14.003906 10.945312 -14.710938 11.1875 -15.421875 Z M 11.1875 -15.421875 "/></g></g></g><g fill="#252b39" fill-opacity="1"><g transform="translate(253.945963, 81.509635)"><g><path d="M 37.96875 -11.125 C 38.289062 -11.125 38.53125 -10.945312 38.6875 -10.59375 C 38.757812 -10.363281 38.71875 -10.207031 38.5625 -10.125 C 38.40625 -10.050781 38.269531 -9.972656 38.15625 -9.890625 C 37.332031 -9.421875 36.503906 -8.945312 35.671875 -8.46875 C 34.847656 -8 34.003906 -7.53125 33.140625 -7.0625 C 31.492188 -6.082031 29.863281 -5.09375 28.25 -4.09375 C 26.644531 -3.09375 24.976562 -2.140625 23.25 -1.234375 C 22.382812 -0.722656 21.484375 -0.265625 20.546875 0.140625 C 19.609375 0.554688 18.644531 0.941406 17.65625 1.296875 C 16.519531 1.691406 15.53125 1.738281 14.6875 1.4375 C 13.84375 1.144531 13.1875 0.628906 12.71875 -0.109375 C 12.25 -0.859375 11.972656 -1.6875 11.890625 -2.59375 C 11.617188 -5.726562 12.304688 -8.726562 13.953125 -11.59375 C 14.378906 -12.34375 14.828125 -13.097656 15.296875 -13.859375 C 15.773438 -14.628906 16.210938 -15.484375 16.609375 -16.421875 C 15.617188 -16.109375 14.789062 -15.695312 14.125 -15.1875 C 13.457031 -14.675781 12.789062 -14.144531 12.125 -13.59375 C 10.550781 -12.257812 9.066406 -10.847656 7.671875 -9.359375 C 6.285156 -7.867188 4.867188 -6.398438 3.421875 -4.953125 C 3.253906 -4.785156 3.0625 -4.625 2.84375 -4.46875 C 2.632812 -4.3125 2.429688 -4.15625 2.234375 -4 C 1.296875 -3.289062 0.429688 -3.390625 -0.359375 -4.296875 C -1.097656 -5.160156 -1.488281 -6.125 -1.53125 -7.1875 C -1.570312 -8.988281 -1.238281 -10.601562 -0.53125 -12.03125 C 0.175781 -13.46875 1.140625 -14.796875 2.359375 -16.015625 C 2.785156 -16.441406 3.296875 -16.476562 3.890625 -16.125 C 5.296875 -15.226562 5.488281 -14.128906 4.46875 -12.828125 C 3.957031 -12.085938 3.457031 -11.3125 2.96875 -10.5 C 2.476562 -9.695312 2.039062 -8.863281 1.65625 -8 C 1.488281 -7.6875 1.347656 -7.363281 1.234375 -7.03125 C 1.117188 -6.695312 1.039062 -6.316406 1 -5.890625 C 1.46875 -6.003906 1.847656 -6.1875 2.140625 -6.4375 C 2.441406 -6.695312 2.726562 -6.960938 3 -7.234375 C 4.488281 -8.734375 5.988281 -10.226562 7.5 -11.71875 C 9.007812 -13.207031 10.550781 -14.660156 12.125 -16.078125 C 12.5625 -16.503906 13.015625 -16.90625 13.484375 -17.28125 C 13.953125 -17.65625 14.441406 -17.976562 14.953125 -18.25 C 15.421875 -18.519531 15.890625 -18.703125 16.359375 -18.796875 C 16.835938 -18.898438 17.332031 -18.738281 17.84375 -18.3125 C 18.351562 -17.875 18.722656 -17.378906 18.953125 -16.828125 C 19.191406 -16.285156 19.210938 -15.679688 19.015625 -15.015625 C 18.703125 -13.953125 18.328125 -12.988281 17.890625 -12.125 C 17.421875 -11.226562 16.953125 -10.316406 16.484375 -9.390625 C 16.015625 -8.460938 15.5625 -7.53125 15.125 -6.59375 C 14.8125 -5.96875 14.535156 -5.3125 14.296875 -4.625 C 14.066406 -3.9375 13.894531 -3.21875 13.78125 -2.46875 C 13.78125 -2.425781 13.78125 -2.363281 13.78125 -2.28125 C 13.78125 -2.207031 13.78125 -2.132812 13.78125 -2.0625 C 13.695312 -1.113281 13.789062 -0.503906 14.0625 -0.234375 C 14.34375 0.0351562 14.972656 0.09375 15.953125 -0.0625 C 16.859375 -0.21875 17.742188 -0.476562 18.609375 -0.84375 C 19.472656 -1.21875 20.316406 -1.601562 21.140625 -2 C 22.785156 -2.78125 24.382812 -3.632812 25.9375 -4.5625 C 27.488281 -5.488281 29.03125 -6.421875 30.5625 -7.359375 C 31.65625 -8.023438 32.769531 -8.648438 33.90625 -9.234375 C 35.050781 -9.828125 36.191406 -10.398438 37.328125 -10.953125 C 37.398438 -10.992188 37.492188 -11.03125 37.609375 -11.0625 C 37.734375 -11.101562 37.851562 -11.125 37.96875 -11.125 Z M 37.96875 -11.125 "/></g></g></g><g fill="#252b39" fill-opacity="1"><g transform="translate(286.324179, 81.509635)"><g><path d="M 30.609375 -9.359375 C 27.035156 -7.273438 23.59375 -4.96875 20.28125 -2.4375 C 16.96875 0.09375 13.625 2.535156 10.25 4.890625 C 9.5 5.398438 8.722656 5.898438 7.921875 6.390625 C 7.117188 6.878906 6.300781 7.335938 5.46875 7.765625 C 3.90625 8.515625 2.445312 8.75 1.09375 8.46875 C -0.257812 8.195312 -1.328125 7.5 -2.109375 6.375 C -2.898438 5.257812 -3.273438 3.84375 -3.234375 2.125 C -3.117188 -1.0625 -2.695312 -4.179688 -1.96875 -7.234375 C -1.25 -10.296875 -0.28125 -13.28125 0.9375 -16.1875 C 3.0625 -21.375 5.523438 -26.378906 8.328125 -31.203125 C 11.140625 -36.035156 14.035156 -40.804688 17.015625 -45.515625 C 17.878906 -46.890625 18.742188 -48.253906 19.609375 -49.609375 C 20.472656 -50.960938 21.335938 -52.304688 22.203125 -53.640625 C 22.316406 -53.867188 22.429688 -54.09375 22.546875 -54.3125 C 22.660156 -54.53125 22.445312 -54.675781 21.90625 -54.75 C 16.488281 -55.769531 11.0625 -56.457031 5.625 -56.8125 C 0.1875 -57.164062 -5.28125 -56.910156 -10.78125 -56.046875 C -11.832031 -55.890625 -12.878906 -55.664062 -13.921875 -55.375 C -14.960938 -55.082031 -15.992188 -54.757812 -17.015625 -54.40625 C -17.765625 -54.164062 -18.472656 -53.867188 -19.140625 -53.515625 C -19.804688 -53.160156 -20.410156 -52.707031 -20.953125 -52.15625 C -21.078125 -52.039062 -21.207031 -51.925781 -21.34375 -51.8125 C -21.476562 -51.695312 -21.523438 -51.597656 -21.484375 -51.515625 C -21.367188 -50.847656 -21.457031 -50.53125 -21.75 -50.5625 C -22.050781 -50.601562 -22.359375 -50.664062 -22.671875 -50.75 C -23.847656 -51.144531 -24.179688 -51.773438 -23.671875 -52.640625 C -23.359375 -53.304688 -22.945312 -53.820312 -22.4375 -54.1875 C -21.925781 -54.5625 -21.375 -54.90625 -20.78125 -55.21875 C -19.09375 -56.082031 -17.34375 -56.738281 -15.53125 -57.1875 C -13.726562 -57.644531 -11.90625 -57.992188 -10.0625 -58.234375 C -5.976562 -58.773438 -1.925781 -58.945312 2.09375 -58.75 C 6.113281 -58.5625 10.144531 -58.132812 14.1875 -57.46875 C 15.5625 -57.226562 16.941406 -56.976562 18.328125 -56.71875 C 19.722656 -56.46875 21.128906 -56.1875 22.546875 -55.875 C 23.210938 -55.757812 23.722656 -55.972656 24.078125 -56.515625 C 24.742188 -57.535156 25.429688 -58.535156 26.140625 -59.515625 C 26.847656 -60.503906 27.570312 -61.46875 28.3125 -62.40625 C 28.507812 -62.644531 28.722656 -62.867188 28.953125 -63.078125 C 29.191406 -63.296875 29.488281 -63.425781 29.84375 -63.46875 C 30.195312 -63.507812 30.539062 -63.476562 30.875 -63.375 C 31.207031 -63.28125 31.472656 -63.09375 31.671875 -62.8125 C 31.910156 -62.539062 31.953125 -62.265625 31.796875 -61.984375 C 31.640625 -61.710938 31.484375 -61.460938 31.328125 -61.234375 C 30.691406 -60.328125 30.0625 -59.421875 29.4375 -58.515625 C 28.8125 -57.617188 28.179688 -56.71875 27.546875 -55.8125 C 27.359375 -55.539062 27.265625 -55.316406 27.265625 -55.140625 C 27.265625 -54.960938 27.476562 -54.8125 27.90625 -54.6875 C 31.988281 -53.90625 36.078125 -53.140625 40.171875 -52.390625 C 44.273438 -51.648438 48.429688 -51.203125 52.640625 -51.046875 C 55.066406 -50.960938 57.503906 -50.988281 59.953125 -51.125 C 62.410156 -51.269531 64.859375 -51.535156 67.296875 -51.921875 C 67.960938 -52.003906 68.597656 -52.160156 69.203125 -52.390625 C 69.816406 -52.628906 70.4375 -52.828125 71.0625 -52.984375 C 71.488281 -53.140625 71.863281 -53.472656 72.1875 -53.984375 C 72.457031 -54.421875 72.882812 -54.738281 73.46875 -54.9375 C 73.632812 -55.007812 73.800781 -55.046875 73.96875 -55.046875 C 74.144531 -55.046875 74.296875 -54.96875 74.421875 -54.8125 C 74.578125 -54.613281 74.578125 -54.460938 74.421875 -54.359375 C 74.265625 -54.265625 74.144531 -54.140625 74.0625 -53.984375 C 73.4375 -53.003906 72.671875 -52.269531 71.765625 -51.78125 C 70.867188 -51.289062 69.910156 -50.957031 68.890625 -50.78125 C 67.867188 -50.601562 66.847656 -50.4375 65.828125 -50.28125 C 60.953125 -49.53125 56.109375 -49.390625 51.296875 -49.859375 C 46.492188 -50.335938 41.703125 -51.007812 36.921875 -51.875 C 35.347656 -52.1875 33.753906 -52.5 32.140625 -52.8125 C 30.535156 -53.125 28.925781 -53.4375 27.3125 -53.75 C 27 -53.832031 26.710938 -53.832031 26.453125 -53.75 C 26.203125 -53.675781 25.960938 -53.484375 25.734375 -53.171875 C 21.097656 -46.253906 16.796875 -39.175781 12.828125 -31.9375 C 8.867188 -24.695312 5.300781 -17.210938 2.125 -9.484375 C 1.332031 -7.554688 0.703125 -5.550781 0.234375 -3.46875 C -0.234375 -1.394531 -0.585938 0.703125 -0.828125 2.828125 C -0.867188 3.410156 -0.867188 4 -0.828125 4.59375 C -0.671875 5.96875 -0.160156 6.910156 0.703125 7.421875 C 1.566406 7.929688 2.628906 7.910156 3.890625 7.359375 C 5.691406 6.535156 7.367188 5.535156 8.921875 4.359375 C 10.472656 3.179688 12.015625 2.003906 13.546875 0.828125 C 15.742188 -0.828125 17.945312 -2.414062 20.15625 -3.9375 C 22.375 -5.46875 24.625 -6.960938 26.90625 -8.421875 C 27.257812 -8.648438 27.617188 -8.863281 27.984375 -9.0625 C 28.359375 -9.257812 28.742188 -9.4375 29.140625 -9.59375 C 29.378906 -9.675781 29.613281 -9.734375 29.84375 -9.765625 C 30.082031 -9.804688 30.335938 -9.671875 30.609375 -9.359375 Z M 30.609375 -9.359375 "/></g></g></g><g fill="#252b39" fill-opacity="1"><g transform="translate(310.695982, 81.509635)"><g><path d="M 3.65625 -5.234375 C 3.65625 -5.234375 3.65625 -5.210938 3.65625 -5.171875 C 3.65625 -5.140625 3.632812 -5.066406 3.59375 -4.953125 C 3.59375 -4.953125 4.171875 -4.929688 5.328125 -4.890625 C 6.484375 -4.847656 8.203125 -5.039062 10.484375 -5.46875 C 10.753906 -5.550781 11.332031 -5.71875 12.21875 -5.96875 C 13.101562 -6.226562 14.132812 -6.570312 15.3125 -7 C 16.488281 -7.4375 17.703125 -7.921875 18.953125 -8.453125 C 20.210938 -8.984375 21.332031 -9.539062 22.3125 -10.125 C 22.550781 -10.28125 22.765625 -10.316406 22.953125 -10.234375 C 23.148438 -10.160156 23.289062 -10.101562 23.375 -10.0625 C 20.707031 -8.414062 18.023438 -7.0625 15.328125 -6 C 12.640625 -4.945312 10.207031 -4.253906 8.03125 -3.921875 C 5.851562 -3.585938 4.195312 -3.632812 3.0625 -4.0625 C 2.789062 -4.101562 2.535156 -4.003906 2.296875 -3.765625 C 1.941406 -3.410156 1.566406 -3.085938 1.171875 -2.796875 C 0.785156 -2.503906 0.394531 -2.203125 0 -1.890625 C -0.0820312 -1.847656 -0.160156 -1.796875 -0.234375 -1.734375 C -0.316406 -1.679688 -0.394531 -1.632812 -0.46875 -1.59375 C -1.21875 -1.125 -1.9375 -1.082031 -2.625 -1.46875 C -3.3125 -1.863281 -3.671875 -2.515625 -3.703125 -3.421875 C -3.703125 -3.960938 -3.625 -4.488281 -3.46875 -5 C -3.3125 -5.507812 -3.097656 -6 -2.828125 -6.46875 C -2.546875 -6.945312 -2.566406 -7.421875 -2.890625 -7.890625 C -3.828125 -9.335938 -4.257812 -10.96875 -4.1875 -12.78125 C -4.144531 -13.320312 -4.015625 -13.847656 -3.796875 -14.359375 C -3.578125 -14.867188 -3.289062 -15.34375 -2.9375 -15.78125 C -1.570312 -17.539062 0.226562 -18.582031 2.46875 -18.90625 C 3.800781 -19.09375 4.9375 -18.800781 5.875 -18.03125 C 6.820312 -17.269531 7.375 -16.222656 7.53125 -14.890625 C 7.613281 -14.023438 7.578125 -13.203125 7.421875 -12.421875 C 7.265625 -11.640625 7.03125 -10.851562 6.71875 -10.0625 C 6.363281 -9.195312 5.957031 -8.390625 5.5 -7.640625 C 5.050781 -6.898438 4.492188 -6.195312 3.828125 -5.53125 C 3.785156 -5.488281 3.753906 -5.445312 3.734375 -5.40625 C 3.710938 -5.375 3.6875 -5.316406 3.65625 -5.234375 Z M 0.53125 -4.359375 C 0.6875 -4.515625 0.664062 -4.671875 0.46875 -4.828125 C 0.3125 -4.910156 0.15625 -5 0 -5.09375 C -0.15625 -5.1875 -0.3125 -5.273438 -0.46875 -5.359375 C -0.75 -5.554688 -0.96875 -5.515625 -1.125 -5.234375 C -1.507812 -4.535156 -1.800781 -3.789062 -2 -3 C -2.039062 -2.84375 -2.019531 -2.707031 -1.9375 -2.59375 C -1.394531 -2.75 -0.9375 -2.984375 -0.5625 -3.296875 C -0.1875 -3.609375 0.175781 -3.960938 0.53125 -4.359375 Z M 2.0625 -6.0625 C 2.84375 -6.925781 3.457031 -7.878906 3.90625 -8.921875 C 4.363281 -9.960938 4.710938 -11.03125 4.953125 -12.125 C 5.265625 -13.539062 5.234375 -14.570312 4.859375 -15.21875 C 4.484375 -15.863281 4.066406 -16.273438 3.609375 -16.453125 C 3.160156 -16.628906 2.9375 -16.71875 2.9375 -16.71875 C 1.84375 -16.800781 0.863281 -16.546875 0 -15.953125 C -0.863281 -15.367188 -1.539062 -14.613281 -2.03125 -13.6875 C -2.519531 -12.769531 -2.773438 -11.804688 -2.796875 -10.796875 C -2.816406 -9.796875 -2.53125 -8.90625 -1.9375 -8.125 C -1.75 -8.4375 -1.546875 -8.71875 -1.328125 -8.96875 C -1.109375 -9.226562 -0.921875 -9.476562 -0.765625 -9.71875 C -0.296875 -10.382812 0.269531 -10.929688 0.9375 -11.359375 C 1.644531 -11.796875 2.273438 -11.617188 2.828125 -10.828125 C 3.023438 -10.554688 3.101562 -10.34375 3.0625 -10.1875 C 3.019531 -10.03125 2.800781 -9.796875 2.40625 -9.484375 C 2.019531 -9.171875 1.640625 -8.835938 1.265625 -8.484375 C 0.890625 -8.128906 0.546875 -7.734375 0.234375 -7.296875 C -0.00390625 -6.941406 -0.125 -6.722656 -0.125 -6.640625 C -0.125 -6.566406 0.25 -6.335938 1 -5.953125 C 1.3125 -5.785156 1.5 -5.691406 1.5625 -5.671875 C 1.625 -5.660156 1.691406 -5.671875 1.765625 -5.703125 C 1.847656 -5.742188 1.90625 -5.800781 1.9375 -5.875 C 1.976562 -5.957031 2.019531 -6.019531 2.0625 -6.0625 Z M 2.0625 -6.0625 "/></g></g></g></g></g><g clip-path="url(#2a9ed237b5)"><g clip-path="url(#6d8d3c7314)"><g transform="matrix(1, 0, 0, 1, 195, 64)"><g clip-path="url(#dbedc22422)"><g clip-path="url(#4a087f1f5b)"><g clip-path="url(#2776b8a570)"><g clip-path="url(#e58d90690a)"><path fill="#252b39" d="M 4.144531 22.203125 C 4.984375 21.199219 4.726562 20.828125 5.320312 20.4375 C 8.75 18.238281 12.710938 13.519531 14.273438 11.777344 C 39.933594 -16.382812 84.539062 7.179688 131.117188 -21.269531 C 131.515625 -21.507812 132.894531 -21.574219 132.425781 -20.257812 C 126.191406 -15.359375 119.296875 -10.511719 103.640625 -5.972656 C 86.386719 -0.941406 49.230469 -2.613281 34.449219 1.820312 C 15.277344 7.578125 11.746094 20.988281 4.164062 22.171875 Z M 4.144531 22.203125 " fill-opacity="1" fill-rule="evenodd"/></g></g></g></g></g></g></g><g clip-path="url(#dceae9b2ee)"><g clip-path="url(#29c9f93a16)"><g clip-path="url(#399a049ae3)"><path fill="#252b39" d="M 527.285156 74.851562 C 527.851562 75.015625 527.847656 75.21875 528.167969 75.214844 C 530.007812 75.167969 532.683594 75.929688 533.710938 76.183594 C 550.4375 80.214844 561.148438 60.109375 585.765625 58.949219 C 585.976562 58.9375 586.507812 58.613281 586 58.242188 C 582.425781 57.988281 578.621094 57.921875 571.617188 60.1875 C 563.894531 62.679688 550.425781 72.710938 543.777344 74.796875 C 535.148438 77.5 530.433594 73.382812 527.296875 74.859375 Z M 527.285156 74.851562 " fill-opacity="1" fill-rule="evenodd"/></g></g></g></svg>