<svg xmlns="http://www.w3.org/2000/svg" xmlns:xlink="http://www.w3.org/1999/xlink" width="1024" zoomAndPan="magnify" viewBox="0 0 768 112.499997" height="150" preserveAspectRatio="xMidYMid meet" version="1.0"><defs><g/><clipPath id="4bd2a08ff7"><path d="M 136 0 L 687 0 L 687 112.003906 L 136 112.003906 Z M 136 0 " clip-rule="nonzero"/></clipPath><clipPath id="2c61f81a80"><path d="M 451 6 L 550.972656 6 L 550.972656 79 L 451 79 Z M 451 6 " clip-rule="nonzero"/></clipPath><clipPath id="bc6feaa471"><rect x="0" width="551" y="0" height="113"/></clipPath><clipPath id="dd45e5709d"><path d="M 67 16 L 171 16 L 171 77 L 67 77 Z M 67 16 " clip-rule="nonzero"/></clipPath><clipPath id="8e4d35b1c2"><path d="M 67.628906 65.371094 L 165.246094 16.839844 L 170.566406 27.535156 L 72.949219 76.066406 Z M 67.628906 65.371094 " clip-rule="nonzero"/></clipPath><clipPath id="7d2546f356"><path d="M 3 1 L 99 1 L 99 56 L 3 56 Z M 3 1 " clip-rule="nonzero"/></clipPath><clipPath id="32bdb8542d"><path d="M 0.628906 49.371094 L 98.246094 0.839844 L 103.566406 11.535156 L 5.949219 60.066406 Z M 0.628906 49.371094 " clip-rule="nonzero"/></clipPath><clipPath id="966cf1d09c"><path d="M 98.425781 0.75 L 0.808594 49.28125 L 6.125 59.980469 L 103.742188 11.449219 Z M 98.425781 0.75 " clip-rule="nonzero"/></clipPath><clipPath id="e1a71bd8b5"><rect x="0" width="104" y="0" height="61"/></clipPath><clipPath id="ea0e1e4a1c"><path d="M 638 52 L 698 52 L 698 67 L 638 67 Z M 638 52 " clip-rule="nonzero"/></clipPath><clipPath id="3f7707c3b8"><path d="M 638.046875 58.3125 L 697.210938 50.09375 L 698.34375 58.230469 L 639.175781 66.449219 Z M 638.046875 58.3125 " clip-rule="nonzero"/></clipPath><clipPath id="12efb572e4"><path d="M 622.320312 60.496094 L 697.019531 50.121094 L 698.148438 58.257812 L 623.453125 68.632812 Z M 622.320312 60.496094 " clip-rule="nonzero"/></clipPath></defs><g clip-path="url(#4bd2a08ff7)"><g transform="matrix(1, 0, 0, 1, 136, 0)"><g clip-path="url(#bc6feaa471)"><g fill="#252b39" fill-opacity="1"><g transform="translate(1.363472, 69.687779)"><g><path d="M 3.75 20.984375 C 2.769531 19.617188 2.046875 18.148438 1.578125 16.578125 C 1.109375 15.015625 0.796875 13.394531 0.640625 11.71875 C 0.210938 7.113281 0.398438 2.625 1.203125 -1.75 C 2.003906 -6.132812 3.242188 -10.4375 4.921875 -14.65625 C 7.617188 -21.53125 10.800781 -28.101562 14.46875 -34.375 C 18.144531 -40.644531 22.347656 -46.613281 27.078125 -52.28125 C 29.109375 -54.695312 31.316406 -56.941406 33.703125 -59.015625 C 36.085938 -61.085938 38.6875 -62.867188 41.5 -64.359375 C 42.976562 -65.140625 44.5 -65.722656 46.0625 -66.109375 C 47.625 -66.503906 49.25 -66.523438 50.9375 -66.171875 C 53.59375 -65.617188 55.625 -64.515625 57.03125 -62.859375 C 58.4375 -61.203125 59.394531 -59.101562 59.90625 -56.5625 C 60.375 -54.132812 60.390625 -51.773438 59.953125 -49.484375 C 59.523438 -47.203125 58.800781 -44.988281 57.78125 -42.84375 C 55.632812 -38.3125 52.921875 -34.285156 49.640625 -30.765625 C 46.359375 -27.253906 42.507812 -24.285156 38.09375 -21.859375 C 36.925781 -21.234375 35.707031 -20.734375 34.4375 -20.359375 C 33.164062 -19.992188 31.847656 -19.832031 30.484375 -19.875 C 28.410156 -19.90625 26.707031 -20.800781 25.375 -22.5625 C 25.21875 -22.800781 25.0625 -23.078125 24.90625 -23.390625 C 24.75 -23.703125 24.828125 -23.972656 25.140625 -24.203125 C 25.453125 -24.398438 25.742188 -24.398438 26.015625 -24.203125 C 26.296875 -24.003906 26.53125 -23.769531 26.71875 -23.5 C 26.875 -23.226562 27.03125 -22.972656 27.1875 -22.734375 C 27.5 -22.304688 27.867188 -21.972656 28.296875 -21.734375 C 28.734375 -21.503906 29.242188 -21.410156 29.828125 -21.453125 C 30.921875 -21.566406 31.972656 -21.769531 32.984375 -22.0625 C 34.003906 -22.351562 34.984375 -22.753906 35.921875 -23.265625 C 40.890625 -25.878906 45.0625 -29.179688 48.4375 -33.171875 C 51.820312 -37.160156 54.429688 -41.769531 56.265625 -47 C 56.929688 -48.957031 57.3125 -50.921875 57.40625 -52.890625 C 57.5 -54.867188 57.234375 -56.875 56.609375 -58.90625 C 54.890625 -64.257812 51.414062 -65.921875 46.1875 -63.890625 C 44.1875 -63.140625 42.304688 -62.160156 40.546875 -60.953125 C 38.796875 -59.742188 37.117188 -58.4375 35.515625 -57.03125 C 32.191406 -54.175781 29.210938 -51.03125 26.578125 -47.59375 C 23.941406 -44.15625 21.472656 -40.578125 19.171875 -36.859375 C 16.429688 -32.453125 13.914062 -27.929688 11.625 -23.296875 C 9.34375 -18.671875 7.421875 -13.851562 5.859375 -8.84375 C 5.003906 -6.113281 4.34375 -3.378906 3.875 -0.640625 C 3.40625 2.085938 3.148438 4.664062 3.109375 7.09375 C 3.148438 9.039062 3.238281 10.796875 3.375 12.359375 C 3.507812 13.929688 3.769531 15.4375 4.15625 16.875 C 4.351562 17.625 4.628906 18.347656 4.984375 19.046875 C 5.335938 19.753906 5.726562 20.4375 6.15625 21.09375 C 7.445312 23.09375 9.28125 23.859375 11.65625 23.390625 C 13.570312 22.953125 15.582031 22.039062 17.6875 20.65625 C 19.800781 19.269531 21.972656 17.609375 24.203125 15.671875 C 26.429688 13.742188 28.695312 11.765625 31 9.734375 C 33.3125 7.703125 35.628906 5.804688 37.953125 4.046875 C 40.273438 2.285156 42.578125 0.890625 44.859375 -0.140625 C 47.148438 -1.179688 49.390625 -1.625 51.578125 -1.46875 C 51.773438 -1.425781 51.953125 -1.382812 52.109375 -1.34375 C 52.265625 -1.3125 52.421875 -1.234375 52.578125 -1.109375 C 52.921875 -0.835938 52.878906 -0.664062 52.453125 -0.59375 C 50.191406 -0.75 47.945312 -0.335938 45.71875 0.640625 C 43.488281 1.617188 41.289062 2.957031 39.125 4.65625 C 36.957031 6.351562 34.828125 8.21875 32.734375 10.25 C 30.640625 12.28125 28.566406 14.273438 26.515625 16.234375 C 24.460938 18.191406 22.429688 19.910156 20.421875 21.390625 C 18.410156 22.878906 16.425781 23.9375 14.46875 24.5625 C 12.476562 25.1875 10.492188 25.164062 8.515625 24.5 C 6.546875 23.832031 4.957031 22.660156 3.75 20.984375 Z M 3.75 20.984375 "/></g></g></g><g fill="#252b39" fill-opacity="1"><g transform="translate(56.397617, 69.687779)"><g><path d="M 4.109375 -1.875 C 4.066406 -2.070312 4.046875 -2.296875 4.046875 -2.546875 C 4.046875 -2.804688 3.988281 -3.070312 3.875 -3.34375 C 3.519531 -2.988281 3.175781 -2.65625 2.84375 -2.34375 C 2.507812 -2.03125 2.1875 -1.71875 1.875 -1.40625 C 1.445312 -0.9375 0.941406 -0.546875 0.359375 -0.234375 C -0.390625 0.117188 -1.144531 0.101562 -1.90625 -0.28125 C -2.664062 -0.675781 -3.046875 -1.285156 -3.046875 -2.109375 C -3.085938 -4.535156 -2.617188 -6.722656 -1.640625 -8.671875 C -0.660156 -10.628906 0.878906 -12.269531 2.984375 -13.59375 C 3.890625 -14.144531 4.78125 -14.390625 5.65625 -14.328125 C 6.53125 -14.265625 7.398438 -13.984375 8.265625 -13.484375 C 8.492188 -13.328125 8.71875 -13.1875 8.9375 -13.0625 C 9.15625 -12.945312 9.421875 -12.945312 9.734375 -13.0625 C 9.921875 -13.144531 10.101562 -13.132812 10.28125 -13.03125 C 10.457031 -12.9375 10.625 -12.851562 10.78125 -12.78125 C 11.40625 -12.5 11.753906 -12.210938 11.828125 -11.921875 C 11.910156 -11.628906 11.796875 -11.171875 11.484375 -10.546875 C 11.054688 -9.804688 10.609375 -9.054688 10.140625 -8.296875 C 9.671875 -7.535156 9.28125 -6.742188 8.96875 -5.921875 C 8.144531 -3.890625 7.753906 -1.859375 7.796875 0.171875 C 7.796875 1.109375 7.972656 1.988281 8.328125 2.8125 C 8.640625 3.550781 9.242188 3.960938 10.140625 4.046875 C 11.035156 4.046875 11.875 3.90625 12.65625 3.625 C 13.4375 3.351562 14.203125 3.023438 14.953125 2.640625 C 15.921875 2.171875 17.1875 1.472656 18.75 0.546875 C 20.3125 -0.367188 22.007812 -1.378906 23.84375 -2.484375 C 25.6875 -3.597656 27.535156 -4.691406 29.390625 -5.765625 C 31.242188 -6.847656 32.972656 -7.804688 34.578125 -8.640625 C 36.179688 -9.484375 37.546875 -10.078125 38.671875 -10.421875 C 39.804688 -10.773438 40.53125 -10.757812 40.84375 -10.375 C 40.84375 -10.375 40.882812 -10.238281 40.96875 -9.96875 C 39.519531 -9.8125 37.882812 -9.289062 36.0625 -8.40625 C 34.25 -7.53125 32.351562 -6.46875 30.375 -5.21875 C 28.40625 -3.96875 26.441406 -2.675781 24.484375 -1.34375 C 22.535156 -0.0195312 20.691406 1.195312 18.953125 2.3125 C 17.222656 3.425781 15.671875 4.273438 14.296875 4.859375 C 12.617188 5.566406 10.898438 5.6875 9.140625 5.21875 C 7.378906 4.75 5.992188 3.578125 4.984375 1.703125 C 4.710938 1.148438 4.515625 0.570312 4.390625 -0.03125 C 4.273438 -0.632812 4.179688 -1.25 4.109375 -1.875 Z M 0.828125 -2.578125 C 2.191406 -3.753906 3.359375 -5.070312 4.328125 -6.53125 C 5.304688 -8 6.265625 -9.472656 7.203125 -10.953125 C 7.359375 -11.191406 7.394531 -11.398438 7.3125 -11.578125 C 7.238281 -11.753906 7.144531 -11.921875 7.03125 -12.078125 C 6.914062 -12.265625 6.769531 -12.359375 6.59375 -12.359375 C 6.414062 -12.359375 6.25 -12.320312 6.09375 -12.25 C 5.863281 -12.09375 5.617188 -11.953125 5.359375 -11.828125 C 5.109375 -11.710938 4.882812 -11.5625 4.6875 -11.375 C 3.59375 -10.4375 2.65625 -9.398438 1.875 -8.265625 C 1.09375 -7.128906 0.425781 -5.878906 -0.125 -4.515625 C -0.28125 -4.117188 -0.414062 -3.675781 -0.53125 -3.1875 C -0.644531 -2.707031 -0.703125 -2.132812 -0.703125 -1.46875 C -0.390625 -1.695312 -0.109375 -1.898438 0.140625 -2.078125 C 0.398438 -2.253906 0.628906 -2.421875 0.828125 -2.578125 Z M 0.828125 -2.578125 "/></g></g></g><g fill="#252b39" fill-opacity="1"><g transform="translate(91.26998, 69.687779)"><g><path d="M 17.875 -17.234375 C 18.8125 -16.648438 19.515625 -16.0625 19.984375 -15.46875 C 20.453125 -14.882812 20.53125 -14.023438 20.21875 -12.890625 C 19.832031 -11.566406 19.316406 -10.285156 18.671875 -9.046875 C 18.023438 -7.816406 17.269531 -6.65625 16.40625 -5.5625 C 15.625 -4.550781 14.789062 -3.554688 13.90625 -2.578125 C 13.03125 -1.597656 12.144531 -0.660156 11.25 0.234375 C 11.09375 0.390625 10.957031 0.535156 10.84375 0.671875 C 10.726562 0.804688 10.628906 1.015625 10.546875 1.296875 C 12.734375 1.296875 14.898438 0.921875 17.046875 0.171875 C 19.203125 -0.566406 21.234375 -1.484375 23.140625 -2.578125 C 25.054688 -3.671875 26.773438 -4.773438 28.296875 -5.890625 C 29.828125 -7.003906 31.082031 -7.96875 32.0625 -8.78125 C 33.039062 -9.601562 33.644531 -10.078125 33.875 -10.203125 C 34.1875 -10.359375 34.390625 -10.335938 34.484375 -10.140625 C 34.585938 -9.941406 34.441406 -9.6875 34.046875 -9.375 C 31.828125 -7.582031 29.863281 -5.988281 28.15625 -4.59375 C 26.457031 -3.207031 24.796875 -2.015625 23.171875 -1.015625 C 21.554688 -0.0234375 19.820312 0.800781 17.96875 1.46875 C 16.113281 2.132812 13.914062 2.640625 11.375 2.984375 C 10.394531 3.140625 9.394531 3.257812 8.375 3.34375 C 7.832031 3.382812 7.285156 3.597656 6.734375 3.984375 C 5.523438 4.722656 4.285156 5.382812 3.015625 5.96875 C 1.742188 6.5625 0.425781 6.992188 -0.9375 7.265625 C -1.40625 7.347656 -1.738281 7.660156 -1.9375 8.203125 C -2.675781 10.585938 -3.382812 12.960938 -4.0625 15.328125 C -4.75 17.691406 -5.484375 20.046875 -6.265625 22.390625 C -7.441406 26.179688 -9.082031 29.738281 -11.1875 33.0625 C -11.738281 33.914062 -12.304688 34.78125 -12.890625 35.65625 C -13.472656 36.539062 -14.160156 37.332031 -14.953125 38.03125 C -15.140625 38.1875 -15.332031 38.34375 -15.53125 38.5 C -15.726562 38.65625 -15.941406 38.8125 -16.171875 38.96875 C -16.523438 39.207031 -16.882812 39.363281 -17.25 39.4375 C -17.625 39.519531 -18.007812 39.425781 -18.40625 39.15625 C -18.789062 38.84375 -19.128906 38.5 -19.421875 38.125 C -19.722656 37.75 -19.851562 37.3125 -19.8125 36.8125 C -19.769531 36.03125 -19.671875 35.273438 -19.515625 34.546875 C -19.359375 33.828125 -19.164062 33.113281 -18.9375 32.40625 C -18.269531 30.65625 -17.570312 28.925781 -16.84375 27.21875 C -16.125 25.519531 -15.332031 23.851562 -14.46875 22.21875 C -13.257812 19.875 -12 17.554688 -10.6875 15.265625 C -9.382812 12.984375 -8.085938 10.707031 -6.796875 8.4375 C -6.722656 8.320312 -6.644531 8.203125 -6.5625 8.078125 C -6.488281 7.960938 -6.429688 7.847656 -6.390625 7.734375 C -6.148438 7.347656 -6.207031 7.054688 -6.5625 6.859375 C -6.875 6.660156 -7.164062 6.429688 -7.4375 6.171875 C -7.71875 5.921875 -7.972656 5.660156 -8.203125 5.390625 C -8.828125 4.609375 -9.019531 3.796875 -8.78125 2.953125 C -8.550781 2.117188 -7.929688 1.601562 -6.921875 1.40625 C -6.609375 1.363281 -6.300781 1.3125 -6 1.25 C -5.707031 1.195312 -5.425781 1.171875 -5.15625 1.171875 C -4.375 1.128906 -3.941406 1.0625 -3.859375 0.96875 C -3.785156 0.875 -3.671875 0.507812 -3.515625 -0.125 C -2.890625 -2.5 -2.117188 -4.816406 -1.203125 -7.078125 C -0.285156 -9.347656 0.71875 -11.5625 1.8125 -13.71875 C 2.675781 -15.476562 3.753906 -16.984375 5.046875 -18.234375 C 5.203125 -18.390625 5.359375 -18.535156 5.515625 -18.671875 C 5.671875 -18.804688 5.828125 -18.910156 5.984375 -18.984375 C 6.453125 -19.265625 6.820312 -19.394531 7.09375 -19.375 C 7.363281 -19.351562 7.695312 -19.1875 8.09375 -18.875 C 8.476562 -18.5625 8.617188 -18.265625 8.515625 -17.984375 C 8.421875 -17.710938 8.257812 -17.363281 8.03125 -16.9375 C 7.945312 -16.820312 7.59375 -16.300781 6.96875 -15.375 C 6.34375 -14.457031 5.59375 -13.25 4.71875 -11.75 C 3.84375 -10.25 2.925781 -8.550781 1.96875 -6.65625 C 1.007812 -4.757812 0.175781 -2.753906 -0.53125 -0.640625 C -0.488281 -0.640625 -0.15625 -1.117188 0.46875 -2.078125 C 1.09375 -3.035156 1.929688 -4.242188 2.984375 -5.703125 C 4.046875 -7.171875 5.226562 -8.695312 6.53125 -10.28125 C 7.84375 -11.863281 9.179688 -13.289062 10.546875 -14.5625 C 11.910156 -15.832031 13.226562 -16.75 14.5 -17.3125 C 15.769531 -17.882812 16.894531 -17.859375 17.875 -17.234375 Z M 17.34375 -15.828125 C 16.71875 -15.785156 16.171875 -15.617188 15.703125 -15.328125 C 15.234375 -15.035156 14.785156 -14.75 14.359375 -14.46875 C 12.640625 -13.300781 10.988281 -11.945312 9.40625 -10.40625 C 7.820312 -8.863281 6.40625 -7.359375 5.15625 -5.890625 C 3.90625 -4.421875 2.910156 -3.175781 2.171875 -2.15625 C 1.429688 -1.144531 1.019531 -0.582031 0.9375 -0.46875 C 0.820312 -0.3125 0.710938 -0.117188 0.609375 0.109375 C 0.515625 0.347656 0.429688 0.566406 0.359375 0.765625 C 0.203125 1.148438 0.359375 1.382812 0.828125 1.46875 C 2.421875 1.851562 3.640625 1.910156 4.484375 1.640625 C 5.328125 1.367188 6.296875 0.625 7.390625 -0.59375 C 8.753906 -2.070312 10.050781 -3.613281 11.28125 -5.21875 C 12.507812 -6.820312 13.671875 -8.460938 14.765625 -10.140625 C 15.316406 -10.992188 15.835938 -11.878906 16.328125 -12.796875 C 16.816406 -13.722656 17.15625 -14.734375 17.34375 -15.828125 Z M -18.046875 36.75 C -17.816406 36.820312 -17.476562 36.65625 -17.03125 36.25 C -16.582031 35.84375 -16.316406 35.617188 -16.234375 35.578125 C -14.984375 34.328125 -13.828125 32.6875 -12.765625 30.65625 C -11.710938 28.625 -10.753906 26.4375 -9.890625 24.09375 C -9.035156 21.75 -8.265625 19.460938 -7.578125 17.234375 C -6.898438 15.003906 -6.335938 13.03125 -5.890625 11.3125 C -5.441406 9.59375 -5.117188 8.363281 -4.921875 7.625 C -5.273438 8.125 -5.632812 8.765625 -6 9.546875 C -6.375 10.328125 -6.695312 11.039062 -6.96875 11.6875 C -7.25 12.332031 -7.425781 12.710938 -7.5 12.828125 C -8.28125 14.273438 -9.070312 15.703125 -9.875 17.109375 C -10.675781 18.515625 -11.445312 19.960938 -12.1875 21.453125 C -13.164062 23.367188 -14.082031 25.300781 -14.9375 27.25 C -15.800781 29.207031 -16.566406 31.222656 -17.234375 33.296875 C -17.390625 33.835938 -17.554688 34.398438 -17.734375 34.984375 C -17.910156 35.578125 -18.015625 36.164062 -18.046875 36.75 Z M -4.578125 3.171875 C -4.960938 3.203125 -5.4375 3.195312 -6 3.15625 C -6.570312 3.125 -7.015625 3.222656 -7.328125 3.453125 C -7.484375 3.609375 -7.5625 3.796875 -7.5625 4.015625 C -7.5625 4.234375 -7.539062 4.457031 -7.5 4.6875 C -7.425781 4.882812 -7.269531 5.117188 -7.03125 5.390625 C -6.800781 5.660156 -6.609375 5.816406 -6.453125 5.859375 C -5.859375 5.972656 -5.453125 5.921875 -5.234375 5.703125 C -5.023438 5.492188 -4.84375 5.078125 -4.6875 4.453125 C -4.613281 4.253906 -4.554688 4.054688 -4.515625 3.859375 C -4.472656 3.671875 -4.492188 3.441406 -4.578125 3.171875 Z M -0.765625 4.625 C -0.296875 4.46875 0.125 4.320312 0.5 4.1875 C 0.875 4.050781 1.234375 3.847656 1.578125 3.578125 C 0.640625 3.265625 0.0546875 3.15625 -0.171875 3.25 C -0.410156 3.351562 -0.609375 3.8125 -0.765625 4.625 Z M -0.765625 4.625 "/></g></g></g><g fill="#252b39" fill-opacity="1"><g transform="translate(120.398573, 69.687779)"><g><path d="M 30.484375 -9.3125 C 26.921875 -7.25 23.488281 -4.957031 20.1875 -2.4375 C 16.882812 0.0820312 13.554688 2.515625 10.203125 4.859375 C 9.453125 5.367188 8.675781 5.867188 7.875 6.359375 C 7.082031 6.847656 6.273438 7.304688 5.453125 7.734375 C 3.890625 8.472656 2.429688 8.707031 1.078125 8.4375 C -0.265625 8.164062 -1.328125 7.472656 -2.109375 6.359375 C -2.890625 5.242188 -3.257812 3.828125 -3.21875 2.109375 C -3.101562 -1.054688 -2.679688 -4.160156 -1.953125 -7.203125 C -1.234375 -10.253906 -0.269531 -13.226562 0.9375 -16.125 C 3.050781 -21.28125 5.503906 -26.257812 8.296875 -31.0625 C 11.085938 -35.863281 13.96875 -40.613281 16.9375 -45.3125 C 17.800781 -46.675781 18.660156 -48.03125 19.515625 -49.375 C 20.378906 -50.726562 21.238281 -52.066406 22.09375 -53.390625 C 22.207031 -53.628906 22.320312 -53.851562 22.4375 -54.0625 C 22.5625 -54.28125 22.347656 -54.425781 21.796875 -54.5 C 16.410156 -55.519531 11.007812 -56.203125 5.59375 -56.546875 C 0.1875 -56.898438 -5.25 -56.648438 -10.71875 -55.796875 C -11.78125 -55.640625 -12.828125 -55.414062 -13.859375 -55.125 C -14.898438 -54.832031 -15.925781 -54.507812 -16.9375 -54.15625 C -17.675781 -53.914062 -18.378906 -53.617188 -19.046875 -53.265625 C -19.710938 -52.921875 -20.316406 -52.472656 -20.859375 -51.921875 C -20.984375 -51.804688 -21.113281 -51.691406 -21.25 -51.578125 C -21.382812 -51.460938 -21.429688 -51.363281 -21.390625 -51.28125 C -21.273438 -50.613281 -21.363281 -50.300781 -21.65625 -50.34375 C -21.945312 -50.382812 -22.25 -50.441406 -22.5625 -50.515625 C -23.738281 -50.910156 -24.070312 -51.535156 -23.5625 -52.390625 C -23.25 -53.054688 -22.835938 -53.570312 -22.328125 -53.9375 C -21.816406 -54.3125 -21.269531 -54.65625 -20.6875 -54.96875 C -19.007812 -55.832031 -17.269531 -56.488281 -15.46875 -56.9375 C -13.675781 -57.382812 -11.859375 -57.726562 -10.015625 -57.96875 C -5.953125 -58.507812 -1.921875 -58.679688 2.078125 -58.484375 C 6.085938 -58.296875 10.101562 -57.867188 14.125 -57.203125 C 15.488281 -56.960938 16.863281 -56.71875 18.25 -56.46875 C 19.644531 -56.21875 21.046875 -55.9375 22.453125 -55.625 C 23.109375 -55.5 23.613281 -55.710938 23.96875 -56.265625 C 24.632812 -57.273438 25.316406 -58.269531 26.015625 -59.25 C 26.722656 -60.226562 27.445312 -61.1875 28.1875 -62.125 C 28.382812 -62.363281 28.597656 -62.585938 28.828125 -62.796875 C 29.066406 -63.015625 29.363281 -63.144531 29.71875 -63.1875 C 30.070312 -63.21875 30.410156 -63.1875 30.734375 -63.09375 C 31.066406 -63 31.332031 -62.8125 31.53125 -62.53125 C 31.769531 -62.257812 31.8125 -61.988281 31.65625 -61.71875 C 31.5 -61.445312 31.34375 -61.191406 31.1875 -60.953125 C 30.5625 -60.054688 29.929688 -59.15625 29.296875 -58.25 C 28.671875 -57.351562 28.046875 -56.457031 27.421875 -55.5625 C 27.234375 -55.289062 27.140625 -55.066406 27.140625 -54.890625 C 27.140625 -54.710938 27.351562 -54.566406 27.78125 -54.453125 C 31.84375 -53.671875 35.914062 -52.90625 40 -52.15625 C 44.082031 -51.414062 48.210938 -50.96875 52.390625 -50.8125 C 54.816406 -50.738281 57.25 -50.769531 59.6875 -50.90625 C 62.132812 -51.039062 64.566406 -51.300781 66.984375 -51.6875 C 67.648438 -51.769531 68.285156 -51.925781 68.890625 -52.15625 C 69.492188 -52.394531 70.109375 -52.59375 70.734375 -52.75 C 71.171875 -52.90625 71.546875 -53.238281 71.859375 -53.75 C 72.128906 -54.175781 72.554688 -54.488281 73.140625 -54.6875 C 73.296875 -54.757812 73.460938 -54.796875 73.640625 -54.796875 C 73.816406 -54.796875 73.960938 -54.71875 74.078125 -54.5625 C 74.234375 -54.363281 74.234375 -54.21875 74.078125 -54.125 C 73.921875 -54.03125 73.804688 -53.90625 73.734375 -53.75 C 73.109375 -52.769531 72.34375 -52.035156 71.4375 -51.546875 C 70.539062 -51.054688 69.582031 -50.722656 68.5625 -50.546875 C 67.550781 -50.367188 66.539062 -50.203125 65.53125 -50.046875 C 60.6875 -49.304688 55.867188 -49.171875 51.078125 -49.640625 C 46.296875 -50.109375 41.519531 -50.773438 36.75 -51.640625 C 35.1875 -51.953125 33.601562 -52.265625 32 -52.578125 C 30.394531 -52.890625 28.789062 -53.203125 27.1875 -53.515625 C 26.875 -53.585938 26.59375 -53.582031 26.34375 -53.5 C 26.09375 -53.425781 25.847656 -53.234375 25.609375 -52.921875 C 21.003906 -46.046875 16.726562 -39.003906 12.78125 -31.796875 C 8.832031 -24.585938 5.273438 -17.132812 2.109375 -9.4375 C 1.328125 -7.519531 0.703125 -5.523438 0.234375 -3.453125 C -0.234375 -1.390625 -0.585938 0.695312 -0.828125 2.8125 C -0.859375 3.394531 -0.859375 3.984375 -0.828125 4.578125 C -0.671875 5.941406 -0.160156 6.875 0.703125 7.375 C 1.566406 7.882812 2.625 7.867188 3.875 7.328125 C 5.664062 6.503906 7.332031 5.503906 8.875 4.328125 C 10.414062 3.160156 11.953125 1.992188 13.484375 0.828125 C 15.671875 -0.816406 17.867188 -2.398438 20.078125 -3.921875 C 22.285156 -5.453125 24.519531 -6.9375 26.78125 -8.375 C 27.132812 -8.613281 27.492188 -8.828125 27.859375 -9.015625 C 28.234375 -9.210938 28.617188 -9.390625 29.015625 -9.546875 C 29.242188 -9.628906 29.472656 -9.6875 29.703125 -9.71875 C 29.941406 -9.757812 30.203125 -9.625 30.484375 -9.3125 Z M 30.484375 -9.3125 "/></g></g></g><g fill="#252b39" fill-opacity="1"><g transform="translate(144.662551, 69.687779)"><g><path d="M 20.15625 -18.46875 C 20.59375 -18.1875 20.59375 -17.851562 20.15625 -17.46875 C 18.5625 -16.019531 17.117188 -14.4375 15.828125 -12.71875 C 14.535156 -11 13.34375 -9.203125 12.25 -7.328125 C 11 -5.179688 9.90625 -2.953125 8.96875 -0.640625 C 8.03125 1.660156 7.304688 4.0625 6.796875 6.5625 C 6.523438 7.96875 6.398438 9.363281 6.421875 10.75 C 6.441406 12.132812 6.644531 13.515625 7.03125 14.890625 C 7.1875 15.359375 7.351562 15.804688 7.53125 16.234375 C 7.707031 16.660156 7.988281 17.03125 8.375 17.34375 C 8.726562 17.582031 8.804688 17.816406 8.609375 18.046875 C 8.535156 18.203125 8.429688 18.238281 8.296875 18.15625 C 8.160156 18.082031 8.03125 18.03125 7.90625 18 C 7.363281 17.800781 6.90625 17.484375 6.53125 17.046875 C 6.164062 16.617188 5.828125 16.15625 5.515625 15.65625 C 4.890625 14.476562 4.476562 13.265625 4.28125 12.015625 C 4.082031 10.765625 4.023438 9.472656 4.109375 8.140625 C 4.179688 6.304688 4.441406 4.507812 4.890625 2.75 C 5.335938 1 5.894531 -0.71875 6.5625 -2.40625 C 6.644531 -2.601562 6.710938 -2.78125 6.765625 -2.9375 C 6.828125 -3.09375 6.878906 -3.25 6.921875 -3.40625 C 6.921875 -3.4375 6.898438 -3.59375 6.859375 -3.875 C 6.390625 -3.363281 5.9375 -2.863281 5.5 -2.375 C 5.070312 -1.882812 4.625 -1.425781 4.15625 -1 C 3.414062 -0.375 2.578125 -0.0820312 1.640625 -0.125 C -0.234375 -0.195312 -1.347656 -1.132812 -1.703125 -2.9375 C -1.773438 -3.40625 -1.820312 -3.875 -1.84375 -4.34375 C -1.863281 -4.8125 -1.835938 -5.28125 -1.765625 -5.75 C -1.484375 -7.625 -1 -9.390625 -0.3125 -11.046875 C 0.363281 -12.703125 1.347656 -14.238281 2.640625 -15.65625 C 3.304688 -16.351562 4.125 -16.644531 5.09375 -16.53125 C 5.644531 -16.445312 5.988281 -16.285156 6.125 -16.046875 C 6.257812 -15.816406 6.171875 -15.453125 5.859375 -14.953125 C 5.503906 -14.316406 5.128906 -13.675781 4.734375 -13.03125 C 4.347656 -12.394531 3.984375 -11.742188 3.640625 -11.078125 C 2.503906 -8.890625 1.738281 -6.625 1.34375 -4.28125 C 1.226562 -3.65625 1.210938 -2.972656 1.296875 -2.234375 C 1.367188 -1.765625 1.472656 -1.5 1.609375 -1.4375 C 1.742188 -1.375 2.007812 -1.484375 2.40625 -1.765625 C 3.070312 -2.304688 3.664062 -2.898438 4.1875 -3.546875 C 4.71875 -4.191406 5.253906 -4.828125 5.796875 -5.453125 C 6.578125 -6.347656 7.289062 -7.289062 7.9375 -8.28125 C 8.582031 -9.28125 9.273438 -10.234375 10.015625 -11.140625 C 11.148438 -12.460938 12.34375 -13.726562 13.59375 -14.9375 C 14.84375 -16.15625 16.15625 -17.3125 17.53125 -18.40625 C 18 -18.757812 18.425781 -18.9375 18.8125 -18.9375 C 19.207031 -18.9375 19.65625 -18.78125 20.15625 -18.46875 Z M 20.15625 -18.46875 "/></g></g></g><g fill="#252b39" fill-opacity="1"><g transform="translate(163.124167, 69.687779)"><g><path d="M -4.28125 18.578125 C -5.132812 18.535156 -5.929688 18.234375 -6.671875 17.671875 C -7.421875 17.109375 -7.929688 16.414062 -8.203125 15.59375 C -8.597656 14.300781 -8.734375 13.03125 -8.609375 11.78125 C -8.492188 10.53125 -8.222656 9.300781 -7.796875 8.09375 C -7.242188 6.644531 -6.585938 5.253906 -5.828125 3.921875 C -5.066406 2.597656 -4.257812 1.269531 -3.40625 -0.0625 C -2.9375 -0.800781 -2.46875 -1.550781 -2 -2.3125 C -1.53125 -3.070312 -1.0625 -3.828125 -0.59375 -4.578125 C -0.28125 -5.046875 -0.0234375 -5.53125 0.171875 -6.03125 C 0.367188 -6.539062 0.488281 -7.070312 0.53125 -7.625 C 0.601562 -7.9375 0.597656 -8.207031 0.515625 -8.4375 C 0.441406 -8.675781 0.25 -8.890625 -0.0625 -9.078125 C -0.445312 -9.359375 -0.707031 -9.722656 -0.84375 -10.171875 C -0.988281 -10.617188 -1 -11.078125 -0.875 -11.546875 C -0.601562 -12.679688 0.132812 -13.363281 1.34375 -13.59375 C 2.25 -13.75 3.015625 -13.457031 3.640625 -12.71875 C 3.910156 -12.519531 3.96875 -12.207031 3.8125 -11.78125 C 3.769531 -11.625 3.707031 -11.457031 3.625 -11.28125 C 3.550781 -11.101562 3.457031 -10.976562 3.34375 -10.90625 C 2.832031 -10.46875 2.476562 -10.023438 2.28125 -9.578125 C 2.09375 -9.128906 2.3125 -8.59375 2.9375 -7.96875 C 3.25 -7.695312 3.363281 -7.34375 3.28125 -6.90625 C 3.207031 -6.476562 3.109375 -6.070312 2.984375 -5.6875 C 2.796875 -4.976562 2.535156 -4.3125 2.203125 -3.6875 C 1.867188 -3.0625 1.503906 -2.4375 1.109375 -1.8125 C 0.015625 -0.132812 -1.085938 1.5625 -2.203125 3.28125 C -3.316406 5 -4.320312 6.796875 -5.21875 8.671875 C -5.644531 9.609375 -6.015625 10.566406 -6.328125 11.546875 C -6.640625 12.523438 -6.796875 13.519531 -6.796875 14.53125 C -6.835938 16.0625 -6.476562 17.078125 -5.71875 17.578125 C -4.957031 18.085938 -3.890625 18.03125 -2.515625 17.40625 C -1.972656 17.175781 -1.4375 16.910156 -0.90625 16.609375 C -0.382812 16.316406 0.113281 15.976562 0.59375 15.59375 C 0.707031 15.476562 0.84375 15.390625 1 15.328125 C 1.15625 15.265625 1.3125 15.332031 1.46875 15.53125 C 1.625 15.6875 1.632812 15.820312 1.5 15.9375 C 1.363281 16.0625 1.253906 16.160156 1.171875 16.234375 C 0.785156 16.628906 0.25 17.019531 -0.4375 17.40625 C -1.125 17.800781 -1.816406 18.101562 -2.515625 18.3125 C -3.222656 18.53125 -3.8125 18.617188 -4.28125 18.578125 Z M -4.28125 18.578125 "/></g></g></g><g fill="#252b39" fill-opacity="1"><g transform="translate(173.966482, 69.687779)"><g><path d="M 4.109375 -1.875 C 4.066406 -2.070312 4.046875 -2.296875 4.046875 -2.546875 C 4.046875 -2.804688 3.988281 -3.070312 3.875 -3.34375 C 3.519531 -2.988281 3.175781 -2.65625 2.84375 -2.34375 C 2.507812 -2.03125 2.1875 -1.71875 1.875 -1.40625 C 1.445312 -0.9375 0.941406 -0.546875 0.359375 -0.234375 C -0.390625 0.117188 -1.144531 0.101562 -1.90625 -0.28125 C -2.664062 -0.675781 -3.046875 -1.285156 -3.046875 -2.109375 C -3.085938 -4.535156 -2.617188 -6.722656 -1.640625 -8.671875 C -0.660156 -10.628906 0.878906 -12.269531 2.984375 -13.59375 C 3.890625 -14.144531 4.78125 -14.390625 5.65625 -14.328125 C 6.53125 -14.265625 7.398438 -13.984375 8.265625 -13.484375 C 8.492188 -13.328125 8.71875 -13.1875 8.9375 -13.0625 C 9.15625 -12.945312 9.421875 -12.945312 9.734375 -13.0625 C 9.921875 -13.144531 10.101562 -13.132812 10.28125 -13.03125 C 10.457031 -12.9375 10.625 -12.851562 10.78125 -12.78125 C 11.40625 -12.5 11.753906 -12.210938 11.828125 -11.921875 C 11.910156 -11.628906 11.796875 -11.171875 11.484375 -10.546875 C 11.054688 -9.804688 10.609375 -9.054688 10.140625 -8.296875 C 9.671875 -7.535156 9.28125 -6.742188 8.96875 -5.921875 C 8.144531 -3.890625 7.753906 -1.859375 7.796875 0.171875 C 7.796875 1.109375 7.972656 1.988281 8.328125 2.8125 C 8.640625 3.550781 9.242188 3.960938 10.140625 4.046875 C 11.035156 4.046875 11.875 3.90625 12.65625 3.625 C 13.4375 3.351562 14.203125 3.023438 14.953125 2.640625 C 15.921875 2.171875 17.1875 1.472656 18.75 0.546875 C 20.3125 -0.367188 22.007812 -1.378906 23.84375 -2.484375 C 25.6875 -3.597656 27.535156 -4.691406 29.390625 -5.765625 C 31.242188 -6.847656 32.972656 -7.804688 34.578125 -8.640625 C 36.179688 -9.484375 37.546875 -10.078125 38.671875 -10.421875 C 39.804688 -10.773438 40.53125 -10.757812 40.84375 -10.375 C 40.84375 -10.375 40.882812 -10.238281 40.96875 -9.96875 C 39.519531 -9.8125 37.882812 -9.289062 36.0625 -8.40625 C 34.25 -7.53125 32.351562 -6.46875 30.375 -5.21875 C 28.40625 -3.96875 26.441406 -2.675781 24.484375 -1.34375 C 22.535156 -0.0195312 20.691406 1.195312 18.953125 2.3125 C 17.222656 3.425781 15.671875 4.273438 14.296875 4.859375 C 12.617188 5.566406 10.898438 5.6875 9.140625 5.21875 C 7.378906 4.75 5.992188 3.578125 4.984375 1.703125 C 4.710938 1.148438 4.515625 0.570312 4.390625 -0.03125 C 4.273438 -0.632812 4.179688 -1.25 4.109375 -1.875 Z M 0.828125 -2.578125 C 2.191406 -3.753906 3.359375 -5.070312 4.328125 -6.53125 C 5.304688 -8 6.265625 -9.472656 7.203125 -10.953125 C 7.359375 -11.191406 7.394531 -11.398438 7.3125 -11.578125 C 7.238281 -11.753906 7.144531 -11.921875 7.03125 -12.078125 C 6.914062 -12.265625 6.769531 -12.359375 6.59375 -12.359375 C 6.414062 -12.359375 6.25 -12.320312 6.09375 -12.25 C 5.863281 -12.09375 5.617188 -11.953125 5.359375 -11.828125 C 5.109375 -11.710938 4.882812 -11.5625 4.6875 -11.375 C 3.59375 -10.4375 2.65625 -9.398438 1.875 -8.265625 C 1.09375 -7.128906 0.425781 -5.878906 -0.125 -4.515625 C -0.28125 -4.117188 -0.414062 -3.675781 -0.53125 -3.1875 C -0.644531 -2.707031 -0.703125 -2.132812 -0.703125 -1.46875 C -0.390625 -1.695312 -0.109375 -1.898438 0.140625 -2.078125 C 0.398438 -2.253906 0.628906 -2.421875 0.828125 -2.578125 Z M 0.828125 -2.578125 "/></g></g></g><g fill="#252b39" fill-opacity="1"><g transform="translate(208.838851, 69.687779)"><g/></g></g><g fill="#252b39" fill-opacity="1"><g transform="translate(227.593516, 69.687779)"><g><path d="M 11.25 2.40625 C 8.632812 3.382812 6.414062 3.53125 4.59375 2.84375 C 2.78125 2.15625 1.148438 0.640625 -0.296875 -1.703125 C -1.742188 -4.117188 -1.976562 -6.65625 -1 -9.3125 C -0.175781 -11.5 1.039062 -13.265625 2.65625 -14.609375 C 4.28125 -15.960938 6.1875 -16.953125 8.375 -17.578125 C 9.238281 -17.859375 10.050781 -17.878906 10.8125 -17.640625 C 11.570312 -17.410156 12.304688 -17.039062 13.015625 -16.53125 C 13.910156 -15.863281 14.101562 -15.019531 13.59375 -14 C 13.394531 -13.613281 13.179688 -13.300781 12.953125 -13.0625 C 12.085938 -12.25 11.175781 -11.507812 10.21875 -10.84375 C 9.269531 -10.175781 8.226562 -9.648438 7.09375 -9.265625 C 5.957031 -8.910156 4.84375 -8.867188 3.75 -9.140625 C 3.363281 -9.253906 3.0625 -9.234375 2.84375 -9.078125 C 2.625 -8.921875 2.4375 -8.6875 2.28125 -8.375 C 1.539062 -6.78125 1.238281 -5.226562 1.375 -3.71875 C 1.507812 -2.21875 2.125 -0.742188 3.21875 0.703125 C 3.6875 1.253906 4.222656 1.613281 4.828125 1.78125 C 5.441406 1.957031 6.078125 2.03125 6.734375 2 C 7.671875 1.914062 8.566406 1.742188 9.421875 1.484375 C 10.285156 1.234375 11.128906 0.914062 11.953125 0.53125 C 12.691406 0.175781 13.742188 -0.390625 15.109375 -1.171875 C 16.484375 -1.953125 18.066406 -2.832031 19.859375 -3.8125 C 21.660156 -4.789062 23.578125 -5.753906 25.609375 -6.703125 C 27.640625 -7.660156 29.691406 -8.488281 31.765625 -9.1875 C 33.835938 -9.894531 35.832031 -10.347656 37.75 -10.546875 C 37.976562 -10.546875 38.21875 -10.515625 38.46875 -10.453125 C 38.726562 -10.398438 38.9375 -10.175781 39.09375 -9.78125 C 36.351562 -9.4375 33.625 -8.707031 30.90625 -7.59375 C 28.195312 -6.476562 25.601562 -5.242188 23.125 -3.890625 C 20.644531 -2.546875 18.382812 -1.285156 16.34375 -0.109375 C 14.3125 1.054688 12.613281 1.894531 11.25 2.40625 Z M 11.140625 -15.359375 C 10.429688 -15.398438 9.597656 -15.191406 8.640625 -14.734375 C 7.679688 -14.285156 6.789062 -13.726562 5.96875 -13.0625 C 5.15625 -12.40625 4.59375 -11.722656 4.28125 -11.015625 C 5.0625 -10.941406 5.9375 -11.117188 6.90625 -11.546875 C 7.882812 -11.972656 8.773438 -12.535156 9.578125 -13.234375 C 10.378906 -13.941406 10.898438 -14.648438 11.140625 -15.359375 Z M 11.140625 -15.359375 "/></g></g></g><g fill="#252b39" fill-opacity="1"><g transform="translate(261.117843, 69.687779)"><g><path d="M 26.375 -10.078125 C 26.644531 -10.234375 26.9375 -10.335938 27.25 -10.390625 C 27.5625 -10.453125 27.914062 -10.347656 28.3125 -10.078125 C 25.6875 -8.910156 23.398438 -7.46875 21.453125 -5.75 C 20.585938 -5 19.742188 -4.222656 18.921875 -3.421875 C 18.109375 -2.628906 17.289062 -1.84375 16.46875 -1.0625 C 14.789062 0.582031 13.09375 2.210938 11.375 3.828125 C 9.65625 5.453125 7.875 7.007812 6.03125 8.5 C 5.40625 9.007812 4.78125 9.5 4.15625 9.96875 C 3.53125 10.4375 2.847656 10.84375 2.109375 11.1875 C 1.878906 11.269531 1.644531 11.359375 1.40625 11.453125 C 1.175781 11.554688 0.941406 11.644531 0.703125 11.71875 C -0.503906 12.03125 -1.613281 11.941406 -2.625 11.453125 C -3.644531 10.960938 -4.390625 10.132812 -4.859375 8.96875 C -5.410156 7.675781 -5.6875 6.367188 -5.6875 5.046875 C -5.6875 3.203125 -5.5 1.421875 -5.125 -0.296875 C -4.757812 -2.015625 -4.28125 -3.710938 -3.6875 -5.390625 C -3.0625 -7.148438 -2.367188 -8.867188 -1.609375 -10.546875 C -0.847656 -12.222656 -0.0351562 -13.882812 0.828125 -15.53125 C 2.078125 -18.070312 3.375 -20.59375 4.71875 -23.09375 C 6.0625 -25.59375 7.457031 -28.070312 8.90625 -30.53125 C 10.15625 -32.71875 11.441406 -34.875 12.765625 -37 C 14.097656 -39.132812 15.429688 -41.273438 16.765625 -43.421875 C 18.128906 -45.492188 19.515625 -47.535156 20.921875 -49.546875 C 22.328125 -51.566406 23.8125 -53.53125 25.375 -55.4375 C 26.707031 -57.082031 28.054688 -58.695312 29.421875 -60.28125 C 30.785156 -61.863281 32.171875 -63.4375 33.578125 -65 C 33.773438 -65.226562 34 -65.453125 34.25 -65.671875 C 34.507812 -65.890625 34.753906 -66.09375 34.984375 -66.28125 C 35.335938 -66.5625 35.679688 -66.570312 36.015625 -66.3125 C 36.347656 -66.0625 36.601562 -65.710938 36.78125 -65.265625 C 36.957031 -64.816406 36.984375 -64.4375 36.859375 -64.125 C 36.828125 -63.414062 36.390625 -62.179688 35.546875 -60.421875 C 34.703125 -58.660156 33.554688 -56.53125 32.109375 -54.03125 C 30.671875 -51.53125 28.984375 -48.773438 27.046875 -45.765625 C 25.109375 -42.765625 23 -39.648438 20.71875 -36.421875 C 18.4375 -33.203125 16.039062 -30 13.53125 -26.8125 C 11.03125 -23.625 8.515625 -20.609375 5.984375 -17.765625 L 5.921875 -17.765625 C 5.609375 -17.140625 5.273438 -16.515625 4.921875 -15.890625 C 4.566406 -15.265625 4.234375 -14.617188 3.921875 -13.953125 C 2.867188 -11.921875 1.882812 -9.835938 0.96875 -7.703125 C 0.0507812 -5.578125 -0.78125 -3.398438 -1.53125 -1.171875 C -1.914062 0.117188 -2.273438 1.425781 -2.609375 2.75 C -2.941406 4.082031 -3.085938 5.453125 -3.046875 6.859375 C -3.046875 7.367188 -3.015625 7.863281 -2.953125 8.34375 C -2.898438 8.832031 -2.773438 9.3125 -2.578125 9.78125 C -2.347656 10.289062 -2.125 10.59375 -1.90625 10.6875 C -1.6875 10.789062 -1.304688 10.800781 -0.765625 10.71875 C 0.453125 10.445312 1.609375 9.941406 2.703125 9.203125 C 4.066406 8.304688 5.332031 7.316406 6.5 6.234375 C 7.675781 5.160156 8.832031 4.078125 9.96875 2.984375 C 11.445312 1.617188 12.921875 0.242188 14.390625 -1.140625 C 15.859375 -2.523438 17.351562 -3.863281 18.875 -5.15625 C 20.007812 -6.175781 21.207031 -7.082031 22.46875 -7.875 C 23.738281 -8.675781 25.039062 -9.410156 26.375 -10.078125 Z M 10.25 -25.734375 C 9.976562 -25.222656 9.6875 -24.679688 9.375 -24.109375 C 9.0625 -23.546875 8.75 -22.992188 8.4375 -22.453125 C 11.445312 -26.046875 14.535156 -30.007812 17.703125 -34.34375 C 20.867188 -38.675781 23.894531 -43.128906 26.78125 -47.703125 C 28.9375 -51.066406 30.707031 -53.96875 32.09375 -56.40625 C 33.476562 -58.851562 34.503906 -60.800781 35.171875 -62.25 C 34.816406 -61.8125 34.460938 -61.367188 34.109375 -60.921875 C 33.753906 -60.472656 33.40625 -60.035156 33.0625 -59.609375 C 31.21875 -57.222656 29.367188 -54.847656 27.515625 -52.484375 C 25.660156 -50.117188 23.894531 -47.6875 22.21875 -45.1875 C 20.101562 -41.976562 18.046875 -38.765625 16.046875 -35.546875 C 14.054688 -32.328125 12.125 -29.054688 10.25 -25.734375 Z M 10.25 -25.734375 "/></g></g></g><g fill="#252b39" fill-opacity="1"><g transform="translate(282.451321, 69.687779)"><g/></g></g><g fill="#252b39" fill-opacity="1"><g transform="translate(301.205986, 69.687779)"><g><path d="M 50.46875 -10.203125 C 50.738281 -10.316406 50.929688 -10.273438 51.046875 -10.078125 C 51.203125 -9.847656 51.144531 -9.613281 50.875 -9.375 C 50.25 -8.988281 49.625 -8.597656 49 -8.203125 C 48.375 -7.816406 47.726562 -7.40625 47.0625 -6.96875 C 45.851562 -6.226562 44.625 -5.476562 43.375 -4.71875 C 42.125 -3.957031 40.875 -3.222656 39.625 -2.515625 C 38.25 -1.734375 36.828125 -1.050781 35.359375 -0.46875 C 33.898438 0.113281 32.367188 0.5625 30.765625 0.875 C 29.867188 1.070312 29.03125 0.972656 28.25 0.578125 C 27.46875 0.191406 26.84375 -0.367188 26.375 -1.109375 C 25.90625 -1.859375 25.707031 -2.640625 25.78125 -3.453125 C 25.820312 -3.890625 25.851562 -4.300781 25.875 -4.6875 C 25.894531 -5.082031 25.925781 -5.515625 25.96875 -5.984375 C 25.65625 -6.054688 25.359375 -6.023438 25.078125 -5.890625 C 24.804688 -5.753906 24.554688 -5.609375 24.328125 -5.453125 C 23.304688 -4.941406 22.328125 -4.34375 21.390625 -3.65625 C 20.453125 -2.976562 19.535156 -2.269531 18.640625 -1.53125 C 18.398438 -1.375 18.171875 -1.1875 17.953125 -0.96875 C 17.742188 -0.75 17.460938 -0.71875 17.109375 -0.875 C 16.722656 -1.070312 16.398438 -1.316406 16.140625 -1.609375 C 15.890625 -1.898438 15.742188 -2.28125 15.703125 -2.75 C 15.671875 -3.144531 15.703125 -3.515625 15.796875 -3.859375 C 15.890625 -4.210938 16 -4.546875 16.125 -4.859375 C 16.78125 -6.773438 17.554688 -8.613281 18.453125 -10.375 C 19.359375 -12.132812 20.359375 -13.851562 21.453125 -15.53125 C 22.503906 -17.132812 23.601562 -18.6875 24.75 -20.1875 C 25.90625 -21.695312 26.953125 -23.289062 27.890625 -24.96875 C 28.128906 -25.394531 28.375 -25.8125 28.625 -26.21875 C 28.882812 -26.632812 29.113281 -27.035156 29.3125 -27.421875 C 29.46875 -27.734375 29.601562 -28.054688 29.71875 -28.390625 C 29.832031 -28.722656 29.910156 -29.085938 29.953125 -29.484375 C 29.398438 -29.554688 28.898438 -29.535156 28.453125 -29.421875 C 28.003906 -29.304688 27.566406 -29.171875 27.140625 -29.015625 C 25.535156 -28.421875 24.019531 -27.664062 22.59375 -26.75 C 21.164062 -25.832031 19.769531 -24.847656 18.40625 -23.796875 C 15.3125 -21.335938 12.5625 -18.59375 10.15625 -15.5625 C 7.757812 -12.53125 5.523438 -9.335938 3.453125 -5.984375 C 3.066406 -5.359375 2.6875 -4.722656 2.3125 -4.078125 C 1.945312 -3.429688 1.546875 -2.796875 1.109375 -2.171875 C 0.679688 -1.546875 0.191406 -1.46875 -0.359375 -1.9375 C -0.628906 -2.207031 -0.851562 -2.507812 -1.03125 -2.84375 C -1.207031 -3.175781 -1.273438 -3.554688 -1.234375 -3.984375 C -1.035156 -5.503906 -0.804688 -7.015625 -0.546875 -8.515625 C -0.296875 -10.023438 0.140625 -11.503906 0.765625 -12.953125 C 0.960938 -13.335938 1.164062 -13.695312 1.375 -14.03125 C 1.59375 -14.363281 1.816406 -14.6875 2.046875 -15 C 2.484375 -15.59375 2.953125 -15.734375 3.453125 -15.421875 C 3.804688 -15.222656 4.0625 -14.945312 4.21875 -14.59375 C 4.375 -14.238281 4.351562 -13.90625 4.15625 -13.59375 C 3.882812 -13.125 3.640625 -12.644531 3.421875 -12.15625 C 3.210938 -11.664062 2.988281 -11.171875 2.75 -10.671875 C 2.632812 -10.390625 2.519531 -10.09375 2.40625 -9.78125 C 2.289062 -9.46875 2.234375 -9.117188 2.234375 -8.734375 C 2.546875 -8.890625 2.769531 -9.070312 2.90625 -9.28125 C 3.039062 -9.5 3.1875 -9.707031 3.34375 -9.90625 C 4.351562 -11.382812 5.363281 -12.847656 6.375 -14.296875 C 7.394531 -15.742188 8.492188 -17.132812 9.671875 -18.46875 C 11.390625 -20.375 13.144531 -22.234375 14.9375 -24.046875 C 16.738281 -25.867188 18.675781 -27.523438 20.75 -29.015625 C 22.894531 -30.492188 25.195312 -31.53125 27.65625 -32.125 C 28.632812 -32.351562 29.523438 -32.242188 30.328125 -31.796875 C 31.128906 -31.347656 31.742188 -30.703125 32.171875 -29.859375 C 32.609375 -29.015625 32.707031 -28.125 32.46875 -27.1875 C 32.269531 -26.375 31.984375 -25.601562 31.609375 -24.875 C 31.242188 -24.15625 30.847656 -23.460938 30.421875 -22.796875 C 29.554688 -21.503906 28.679688 -20.222656 27.796875 -18.953125 C 26.921875 -17.691406 26.035156 -16.4375 25.140625 -15.1875 C 24.316406 -14.007812 23.5625 -12.804688 22.875 -11.578125 C 22.195312 -10.347656 21.566406 -9.109375 20.984375 -7.859375 C 20.785156 -7.390625 20.539062 -6.957031 20.25 -6.5625 C 19.957031 -6.175781 19.769531 -5.726562 19.6875 -5.21875 C 19.925781 -5.101562 20.101562 -5.101562 20.21875 -5.21875 C 20.332031 -5.332031 20.453125 -5.410156 20.578125 -5.453125 C 21.316406 -5.921875 22.046875 -6.40625 22.765625 -6.90625 C 23.492188 -7.414062 24.226562 -7.867188 24.96875 -8.265625 C 25.394531 -8.460938 25.800781 -8.628906 26.1875 -8.765625 C 26.582031 -8.898438 27.015625 -8.8125 27.484375 -8.5 C 28.421875 -7.789062 28.867188 -6.851562 28.828125 -5.6875 C 28.796875 -5.332031 28.726562 -4.976562 28.625 -4.625 C 28.53125 -4.28125 28.441406 -3.929688 28.359375 -3.578125 C 28.328125 -3.460938 28.300781 -3.34375 28.28125 -3.21875 C 28.257812 -3.101562 28.226562 -2.988281 28.1875 -2.875 C 28.03125 -2.09375 28.039062 -1.570312 28.21875 -1.3125 C 28.394531 -1.0625 28.914062 -0.9375 29.78125 -0.9375 C 31.101562 -0.894531 32.378906 -1.03125 33.609375 -1.34375 C 34.835938 -1.65625 36.0625 -2.066406 37.28125 -2.578125 C 38.84375 -3.242188 40.335938 -4.015625 41.765625 -4.890625 C 43.191406 -5.773438 44.625 -6.644531 46.0625 -7.5 C 46.726562 -7.925781 47.398438 -8.34375 48.078125 -8.75 C 48.765625 -9.164062 49.441406 -9.570312 50.109375 -9.96875 C 50.191406 -10.039062 50.3125 -10.117188 50.46875 -10.203125 Z M 50.46875 -10.203125 "/></g></g></g><g fill="#252b39" fill-opacity="1"><g transform="translate(347.038403, 69.687779)"><g><path d="M 3.640625 -5.21875 C 3.640625 -5.21875 3.640625 -5.195312 3.640625 -5.15625 C 3.640625 -5.113281 3.617188 -5.035156 3.578125 -4.921875 C 3.578125 -4.921875 4.148438 -4.898438 5.296875 -4.859375 C 6.453125 -4.828125 8.164062 -5.023438 10.4375 -5.453125 C 10.707031 -5.523438 11.28125 -5.6875 12.15625 -5.9375 C 13.039062 -6.195312 14.066406 -6.539062 15.234375 -6.96875 C 16.410156 -7.40625 17.625 -7.882812 18.875 -8.40625 C 20.125 -8.9375 21.238281 -9.492188 22.21875 -10.078125 C 22.445312 -10.234375 22.660156 -10.269531 22.859375 -10.1875 C 23.054688 -10.113281 23.191406 -10.054688 23.265625 -10.015625 C 20.609375 -8.378906 17.941406 -7.03125 15.265625 -5.96875 C 12.585938 -4.914062 10.164062 -4.222656 8 -3.890625 C 5.832031 -3.566406 4.179688 -3.617188 3.046875 -4.046875 C 2.773438 -4.085938 2.519531 -3.988281 2.28125 -3.75 C 1.9375 -3.394531 1.566406 -3.070312 1.171875 -2.78125 C 0.785156 -2.488281 0.394531 -2.1875 0 -1.875 C -0.0820312 -1.832031 -0.160156 -1.78125 -0.234375 -1.71875 C -0.316406 -1.664062 -0.394531 -1.617188 -0.46875 -1.578125 C -1.207031 -1.109375 -1.921875 -1.066406 -2.609375 -1.453125 C -3.296875 -1.847656 -3.65625 -2.5 -3.6875 -3.40625 C -3.6875 -3.945312 -3.609375 -4.472656 -3.453125 -4.984375 C -3.296875 -5.492188 -3.082031 -5.984375 -2.8125 -6.453125 C -2.539062 -6.921875 -2.5625 -7.390625 -2.875 -7.859375 C -3.8125 -9.296875 -4.238281 -10.914062 -4.15625 -12.71875 C -4.125 -13.257812 -4 -13.785156 -3.78125 -14.296875 C -3.5625 -14.804688 -3.28125 -15.273438 -2.9375 -15.703125 C -1.5625 -17.460938 0.238281 -18.5 2.46875 -18.8125 C 3.789062 -19.007812 4.921875 -18.726562 5.859375 -17.96875 C 6.796875 -17.207031 7.34375 -16.160156 7.5 -14.828125 C 7.582031 -13.960938 7.546875 -13.140625 7.390625 -12.359375 C 7.234375 -11.578125 7 -10.796875 6.6875 -10.015625 C 6.332031 -9.160156 5.929688 -8.359375 5.484375 -7.609375 C 5.035156 -6.867188 4.476562 -6.171875 3.8125 -5.515625 C 3.769531 -5.472656 3.738281 -5.429688 3.71875 -5.390625 C 3.695312 -5.347656 3.671875 -5.289062 3.640625 -5.21875 Z M 0.53125 -4.34375 C 0.6875 -4.5 0.664062 -4.65625 0.46875 -4.8125 C 0.3125 -4.882812 0.15625 -4.96875 0 -5.0625 C -0.15625 -5.164062 -0.3125 -5.253906 -0.46875 -5.328125 C -0.738281 -5.523438 -0.953125 -5.488281 -1.109375 -5.21875 C -1.503906 -4.507812 -1.800781 -3.765625 -2 -2.984375 C -2.03125 -2.828125 -2.007812 -2.691406 -1.9375 -2.578125 C -1.382812 -2.734375 -0.921875 -2.96875 -0.546875 -3.28125 C -0.179688 -3.59375 0.175781 -3.945312 0.53125 -4.34375 Z M 2.046875 -6.03125 C 2.828125 -6.894531 3.441406 -7.84375 3.890625 -8.875 C 4.347656 -9.914062 4.691406 -10.984375 4.921875 -12.078125 C 5.234375 -13.484375 5.203125 -14.507812 4.828125 -15.15625 C 4.460938 -15.800781 4.054688 -16.207031 3.609375 -16.375 C 3.160156 -16.550781 2.9375 -16.640625 2.9375 -16.640625 C 1.84375 -16.722656 0.863281 -16.46875 0 -15.875 C -0.863281 -15.289062 -1.535156 -14.539062 -2.015625 -13.625 C -2.503906 -12.707031 -2.757812 -11.75 -2.78125 -10.75 C -2.800781 -9.757812 -2.519531 -8.875 -1.9375 -8.09375 C -1.738281 -8.40625 -1.53125 -8.6875 -1.3125 -8.9375 C -1.101562 -9.1875 -0.921875 -9.429688 -0.765625 -9.671875 C -0.296875 -10.335938 0.269531 -10.882812 0.9375 -11.3125 C 1.644531 -11.738281 2.269531 -11.5625 2.8125 -10.78125 C 3.007812 -10.507812 3.085938 -10.296875 3.046875 -10.140625 C 3.003906 -9.984375 2.789062 -9.75 2.40625 -9.4375 C 2.007812 -9.125 1.625 -8.789062 1.25 -8.4375 C 0.882812 -8.082031 0.546875 -7.691406 0.234375 -7.265625 C -0.00390625 -6.910156 -0.125 -6.691406 -0.125 -6.609375 C -0.125 -6.535156 0.25 -6.304688 1 -5.921875 C 1.3125 -5.765625 1.492188 -5.675781 1.546875 -5.65625 C 1.609375 -5.632812 1.679688 -5.644531 1.765625 -5.6875 C 1.835938 -5.726562 1.894531 -5.785156 1.9375 -5.859375 C 1.976562 -5.941406 2.015625 -6 2.046875 -6.03125 Z M 2.046875 -6.03125 "/></g></g></g><g fill="#252b39" fill-opacity="1"><g transform="translate(364.386418, 69.687779)"><g><path d="M 50.46875 -10.203125 C 50.738281 -10.316406 50.929688 -10.273438 51.046875 -10.078125 C 51.203125 -9.847656 51.144531 -9.613281 50.875 -9.375 C 50.25 -8.988281 49.625 -8.597656 49 -8.203125 C 48.375 -7.816406 47.726562 -7.40625 47.0625 -6.96875 C 45.851562 -6.226562 44.625 -5.476562 43.375 -4.71875 C 42.125 -3.957031 40.875 -3.222656 39.625 -2.515625 C 38.25 -1.734375 36.828125 -1.050781 35.359375 -0.46875 C 33.898438 0.113281 32.367188 0.5625 30.765625 0.875 C 29.867188 1.070312 29.03125 0.972656 28.25 0.578125 C 27.46875 0.191406 26.84375 -0.367188 26.375 -1.109375 C 25.90625 -1.859375 25.707031 -2.640625 25.78125 -3.453125 C 25.820312 -3.890625 25.851562 -4.300781 25.875 -4.6875 C 25.894531 -5.082031 25.925781 -5.515625 25.96875 -5.984375 C 25.65625 -6.054688 25.359375 -6.023438 25.078125 -5.890625 C 24.804688 -5.753906 24.554688 -5.609375 24.328125 -5.453125 C 23.304688 -4.941406 22.328125 -4.34375 21.390625 -3.65625 C 20.453125 -2.976562 19.535156 -2.269531 18.640625 -1.53125 C 18.398438 -1.375 18.171875 -1.1875 17.953125 -0.96875 C 17.742188 -0.75 17.460938 -0.71875 17.109375 -0.875 C 16.722656 -1.070312 16.398438 -1.316406 16.140625 -1.609375 C 15.890625 -1.898438 15.742188 -2.28125 15.703125 -2.75 C 15.671875 -3.144531 15.703125 -3.515625 15.796875 -3.859375 C 15.890625 -4.210938 16 -4.546875 16.125 -4.859375 C 16.78125 -6.773438 17.554688 -8.613281 18.453125 -10.375 C 19.359375 -12.132812 20.359375 -13.851562 21.453125 -15.53125 C 22.503906 -17.132812 23.601562 -18.6875 24.75 -20.1875 C 25.90625 -21.695312 26.953125 -23.289062 27.890625 -24.96875 C 28.128906 -25.394531 28.375 -25.8125 28.625 -26.21875 C 28.882812 -26.632812 29.113281 -27.035156 29.3125 -27.421875 C 29.46875 -27.734375 29.601562 -28.054688 29.71875 -28.390625 C 29.832031 -28.722656 29.910156 -29.085938 29.953125 -29.484375 C 29.398438 -29.554688 28.898438 -29.535156 28.453125 -29.421875 C 28.003906 -29.304688 27.566406 -29.171875 27.140625 -29.015625 C 25.535156 -28.421875 24.019531 -27.664062 22.59375 -26.75 C 21.164062 -25.832031 19.769531 -24.847656 18.40625 -23.796875 C 15.3125 -21.335938 12.5625 -18.59375 10.15625 -15.5625 C 7.757812 -12.53125 5.523438 -9.335938 3.453125 -5.984375 C 3.066406 -5.359375 2.6875 -4.722656 2.3125 -4.078125 C 1.945312 -3.429688 1.546875 -2.796875 1.109375 -2.171875 C 0.679688 -1.546875 0.191406 -1.46875 -0.359375 -1.9375 C -0.628906 -2.207031 -0.851562 -2.507812 -1.03125 -2.84375 C -1.207031 -3.175781 -1.273438 -3.554688 -1.234375 -3.984375 C -1.035156 -5.503906 -0.804688 -7.015625 -0.546875 -8.515625 C -0.296875 -10.023438 0.140625 -11.503906 0.765625 -12.953125 C 0.960938 -13.335938 1.164062 -13.695312 1.375 -14.03125 C 1.59375 -14.363281 1.816406 -14.6875 2.046875 -15 C 2.484375 -15.59375 2.953125 -15.734375 3.453125 -15.421875 C 3.804688 -15.222656 4.0625 -14.945312 4.21875 -14.59375 C 4.375 -14.238281 4.351562 -13.90625 4.15625 -13.59375 C 3.882812 -13.125 3.640625 -12.644531 3.421875 -12.15625 C 3.210938 -11.664062 2.988281 -11.171875 2.75 -10.671875 C 2.632812 -10.390625 2.519531 -10.09375 2.40625 -9.78125 C 2.289062 -9.46875 2.234375 -9.117188 2.234375 -8.734375 C 2.546875 -8.890625 2.769531 -9.070312 2.90625 -9.28125 C 3.039062 -9.5 3.1875 -9.707031 3.34375 -9.90625 C 4.351562 -11.382812 5.363281 -12.847656 6.375 -14.296875 C 7.394531 -15.742188 8.492188 -17.132812 9.671875 -18.46875 C 11.390625 -20.375 13.144531 -22.234375 14.9375 -24.046875 C 16.738281 -25.867188 18.675781 -27.523438 20.75 -29.015625 C 22.894531 -30.492188 25.195312 -31.53125 27.65625 -32.125 C 28.632812 -32.351562 29.523438 -32.242188 30.328125 -31.796875 C 31.128906 -31.347656 31.742188 -30.703125 32.171875 -29.859375 C 32.609375 -29.015625 32.707031 -28.125 32.46875 -27.1875 C 32.269531 -26.375 31.984375 -25.601562 31.609375 -24.875 C 31.242188 -24.15625 30.847656 -23.460938 30.421875 -22.796875 C 29.554688 -21.503906 28.679688 -20.222656 27.796875 -18.953125 C 26.921875 -17.691406 26.035156 -16.4375 25.140625 -15.1875 C 24.316406 -14.007812 23.5625 -12.804688 22.875 -11.578125 C 22.195312 -10.347656 21.566406 -9.109375 20.984375 -7.859375 C 20.785156 -7.390625 20.539062 -6.957031 20.25 -6.5625 C 19.957031 -6.175781 19.769531 -5.726562 19.6875 -5.21875 C 19.925781 -5.101562 20.101562 -5.101562 20.21875 -5.21875 C 20.332031 -5.332031 20.453125 -5.410156 20.578125 -5.453125 C 21.316406 -5.921875 22.046875 -6.40625 22.765625 -6.90625 C 23.492188 -7.414062 24.226562 -7.867188 24.96875 -8.265625 C 25.394531 -8.460938 25.800781 -8.628906 26.1875 -8.765625 C 26.582031 -8.898438 27.015625 -8.8125 27.484375 -8.5 C 28.421875 -7.789062 28.867188 -6.851562 28.828125 -5.6875 C 28.796875 -5.332031 28.726562 -4.976562 28.625 -4.625 C 28.53125 -4.28125 28.441406 -3.929688 28.359375 -3.578125 C 28.328125 -3.460938 28.300781 -3.34375 28.28125 -3.21875 C 28.257812 -3.101562 28.226562 -2.988281 28.1875 -2.875 C 28.03125 -2.09375 28.039062 -1.570312 28.21875 -1.3125 C 28.394531 -1.0625 28.914062 -0.9375 29.78125 -0.9375 C 31.101562 -0.894531 32.378906 -1.03125 33.609375 -1.34375 C 34.835938 -1.65625 36.0625 -2.066406 37.28125 -2.578125 C 38.84375 -3.242188 40.335938 -4.015625 41.765625 -4.890625 C 43.191406 -5.773438 44.625 -6.644531 46.0625 -7.5 C 46.726562 -7.925781 47.398438 -8.34375 48.078125 -8.75 C 48.765625 -9.164062 49.441406 -9.570312 50.109375 -9.96875 C 50.191406 -10.039062 50.3125 -10.117188 50.46875 -10.203125 Z M 50.46875 -10.203125 "/></g></g></g><g fill="#252b39" fill-opacity="1"><g transform="translate(410.218807, 69.687779)"><g><path d="M 11.25 2.40625 C 8.632812 3.382812 6.414062 3.53125 4.59375 2.84375 C 2.78125 2.15625 1.148438 0.640625 -0.296875 -1.703125 C -1.742188 -4.117188 -1.976562 -6.65625 -1 -9.3125 C -0.175781 -11.5 1.039062 -13.265625 2.65625 -14.609375 C 4.28125 -15.960938 6.1875 -16.953125 8.375 -17.578125 C 9.238281 -17.859375 10.050781 -17.878906 10.8125 -17.640625 C 11.570312 -17.410156 12.304688 -17.039062 13.015625 -16.53125 C 13.910156 -15.863281 14.101562 -15.019531 13.59375 -14 C 13.394531 -13.613281 13.179688 -13.300781 12.953125 -13.0625 C 12.085938 -12.25 11.175781 -11.507812 10.21875 -10.84375 C 9.269531 -10.175781 8.226562 -9.648438 7.09375 -9.265625 C 5.957031 -8.910156 4.84375 -8.867188 3.75 -9.140625 C 3.363281 -9.253906 3.0625 -9.234375 2.84375 -9.078125 C 2.625 -8.921875 2.4375 -8.6875 2.28125 -8.375 C 1.539062 -6.78125 1.238281 -5.226562 1.375 -3.71875 C 1.507812 -2.21875 2.125 -0.742188 3.21875 0.703125 C 3.6875 1.253906 4.222656 1.613281 4.828125 1.78125 C 5.441406 1.957031 6.078125 2.03125 6.734375 2 C 7.671875 1.914062 8.566406 1.742188 9.421875 1.484375 C 10.285156 1.234375 11.128906 0.914062 11.953125 0.53125 C 12.691406 0.175781 13.742188 -0.390625 15.109375 -1.171875 C 16.484375 -1.953125 18.066406 -2.832031 19.859375 -3.8125 C 21.660156 -4.789062 23.578125 -5.753906 25.609375 -6.703125 C 27.640625 -7.660156 29.691406 -8.488281 31.765625 -9.1875 C 33.835938 -9.894531 35.832031 -10.347656 37.75 -10.546875 C 37.976562 -10.546875 38.21875 -10.515625 38.46875 -10.453125 C 38.726562 -10.398438 38.9375 -10.175781 39.09375 -9.78125 C 36.351562 -9.4375 33.625 -8.707031 30.90625 -7.59375 C 28.195312 -6.476562 25.601562 -5.242188 23.125 -3.890625 C 20.644531 -2.546875 18.382812 -1.285156 16.34375 -0.109375 C 14.3125 1.054688 12.613281 1.894531 11.25 2.40625 Z M 11.140625 -15.359375 C 10.429688 -15.398438 9.597656 -15.191406 8.640625 -14.734375 C 7.679688 -14.285156 6.789062 -13.726562 5.96875 -13.0625 C 5.15625 -12.40625 4.59375 -11.722656 4.28125 -11.015625 C 5.0625 -10.941406 5.9375 -11.117188 6.90625 -11.546875 C 7.882812 -11.972656 8.773438 -12.535156 9.578125 -13.234375 C 10.378906 -13.941406 10.898438 -14.648438 11.140625 -15.359375 Z M 11.140625 -15.359375 "/></g></g></g><g fill="#252b39" fill-opacity="1"><g transform="translate(443.743134, 69.687779)"><g><path d="M 37.796875 -11.078125 C 38.109375 -11.078125 38.34375 -10.898438 38.5 -10.546875 C 38.582031 -10.316406 38.546875 -10.160156 38.390625 -10.078125 C 38.234375 -10.003906 38.097656 -9.925781 37.984375 -9.84375 C 37.160156 -9.375 36.335938 -8.90625 35.515625 -8.4375 C 34.691406 -7.96875 33.851562 -7.5 33 -7.03125 C 31.351562 -6.050781 29.726562 -5.0625 28.125 -4.0625 C 26.53125 -3.070312 24.875 -2.128906 23.15625 -1.234375 C 22.289062 -0.722656 21.390625 -0.265625 20.453125 0.140625 C 19.515625 0.554688 18.554688 0.941406 17.578125 1.296875 C 16.453125 1.679688 15.46875 1.726562 14.625 1.4375 C 13.78125 1.144531 13.125 0.628906 12.65625 -0.109375 C 12.1875 -0.859375 11.914062 -1.679688 11.84375 -2.578125 C 11.5625 -5.703125 12.242188 -8.691406 13.890625 -11.546875 C 14.316406 -12.285156 14.765625 -13.035156 15.234375 -13.796875 C 15.703125 -14.566406 16.132812 -15.421875 16.53125 -16.359375 C 15.550781 -16.046875 14.726562 -15.632812 14.0625 -15.125 C 13.394531 -14.613281 12.734375 -14.082031 12.078125 -13.53125 C 10.515625 -12.207031 9.035156 -10.800781 7.640625 -9.3125 C 6.253906 -7.832031 4.84375 -6.367188 3.40625 -4.921875 C 3.25 -4.765625 3.0625 -4.609375 2.84375 -4.453125 C 2.625 -4.296875 2.421875 -4.140625 2.234375 -3.984375 C 1.296875 -3.285156 0.429688 -3.382812 -0.359375 -4.28125 C -1.097656 -5.132812 -1.488281 -6.09375 -1.53125 -7.15625 C -1.5625 -8.945312 -1.222656 -10.554688 -0.515625 -11.984375 C 0.179688 -13.410156 1.132812 -14.726562 2.34375 -15.9375 C 2.769531 -16.375 3.28125 -16.414062 3.875 -16.0625 C 5.28125 -15.164062 5.472656 -14.070312 4.453125 -12.78125 C 3.941406 -12.03125 3.441406 -11.253906 2.953125 -10.453125 C 2.472656 -9.660156 2.035156 -8.832031 1.640625 -7.96875 C 1.484375 -7.65625 1.347656 -7.332031 1.234375 -7 C 1.117188 -6.664062 1.039062 -6.285156 1 -5.859375 C 1.46875 -5.972656 1.847656 -6.15625 2.140625 -6.40625 C 2.429688 -6.664062 2.710938 -6.929688 2.984375 -7.203125 C 4.472656 -8.691406 5.96875 -10.175781 7.46875 -11.65625 C 8.976562 -13.144531 10.515625 -14.59375 12.078125 -16 C 12.503906 -16.425781 12.953125 -16.828125 13.421875 -17.203125 C 13.890625 -17.578125 14.378906 -17.898438 14.890625 -18.171875 C 15.359375 -18.441406 15.828125 -18.625 16.296875 -18.71875 C 16.765625 -18.820312 17.253906 -18.660156 17.765625 -18.234375 C 18.265625 -17.796875 18.628906 -17.300781 18.859375 -16.75 C 19.097656 -16.207031 19.125 -15.609375 18.9375 -14.953125 C 18.625 -13.890625 18.25 -12.929688 17.8125 -12.078125 C 17.34375 -11.171875 16.875 -10.257812 16.40625 -9.34375 C 15.9375 -8.425781 15.488281 -7.5 15.0625 -6.5625 C 14.75 -5.9375 14.472656 -5.28125 14.234375 -4.59375 C 14.003906 -3.914062 13.832031 -3.207031 13.71875 -2.46875 C 13.71875 -2.425781 13.71875 -2.363281 13.71875 -2.28125 C 13.71875 -2.207031 13.71875 -2.128906 13.71875 -2.046875 C 13.632812 -1.109375 13.726562 -0.503906 14 -0.234375 C 14.28125 0.0351562 14.910156 0.09375 15.890625 -0.0625 C 16.785156 -0.21875 17.660156 -0.476562 18.515625 -0.84375 C 19.378906 -1.21875 20.222656 -1.601562 21.046875 -2 C 22.679688 -2.78125 24.269531 -3.628906 25.8125 -4.546875 C 27.351562 -5.460938 28.890625 -6.390625 30.421875 -7.328125 C 31.515625 -7.992188 32.625 -8.617188 33.75 -9.203125 C 34.882812 -9.785156 36.019531 -10.351562 37.15625 -10.90625 C 37.238281 -10.9375 37.335938 -10.972656 37.453125 -11.015625 C 37.566406 -11.054688 37.679688 -11.078125 37.796875 -11.078125 Z M 37.796875 -11.078125 "/></g></g></g><g clip-path="url(#2c61f81a80)"><g fill="#252b39" fill-opacity="1"><g transform="translate(475.978082, 69.687779)"><g><path d="M 30.484375 -9.3125 C 26.921875 -7.25 23.488281 -4.957031 20.1875 -2.4375 C 16.882812 0.0820312 13.554688 2.515625 10.203125 4.859375 C 9.453125 5.367188 8.675781 5.867188 7.875 6.359375 C 7.082031 6.847656 6.273438 7.304688 5.453125 7.734375 C 3.890625 8.472656 2.429688 8.707031 1.078125 8.4375 C -0.265625 8.164062 -1.328125 7.472656 -2.109375 6.359375 C -2.890625 5.242188 -3.257812 3.828125 -3.21875 2.109375 C -3.101562 -1.054688 -2.679688 -4.160156 -1.953125 -7.203125 C -1.234375 -10.253906 -0.269531 -13.226562 0.9375 -16.125 C 3.050781 -21.28125 5.503906 -26.257812 8.296875 -31.0625 C 11.085938 -35.863281 13.96875 -40.613281 16.9375 -45.3125 C 17.800781 -46.675781 18.660156 -48.03125 19.515625 -49.375 C 20.378906 -50.726562 21.238281 -52.066406 22.09375 -53.390625 C 22.207031 -53.628906 22.320312 -53.851562 22.4375 -54.0625 C 22.5625 -54.28125 22.347656 -54.425781 21.796875 -54.5 C 16.410156 -55.519531 11.007812 -56.203125 5.59375 -56.546875 C 0.1875 -56.898438 -5.25 -56.648438 -10.71875 -55.796875 C -11.78125 -55.640625 -12.828125 -55.414062 -13.859375 -55.125 C -14.898438 -54.832031 -15.925781 -54.507812 -16.9375 -54.15625 C -17.675781 -53.914062 -18.378906 -53.617188 -19.046875 -53.265625 C -19.710938 -52.921875 -20.316406 -52.472656 -20.859375 -51.921875 C -20.984375 -51.804688 -21.113281 -51.691406 -21.25 -51.578125 C -21.382812 -51.460938 -21.429688 -51.363281 -21.390625 -51.28125 C -21.273438 -50.613281 -21.363281 -50.300781 -21.65625 -50.34375 C -21.945312 -50.382812 -22.25 -50.441406 -22.5625 -50.515625 C -23.738281 -50.910156 -24.070312 -51.535156 -23.5625 -52.390625 C -23.25 -53.054688 -22.835938 -53.570312 -22.328125 -53.9375 C -21.816406 -54.3125 -21.269531 -54.65625 -20.6875 -54.96875 C -19.007812 -55.832031 -17.269531 -56.488281 -15.46875 -56.9375 C -13.675781 -57.382812 -11.859375 -57.726562 -10.015625 -57.96875 C -5.953125 -58.507812 -1.921875 -58.679688 2.078125 -58.484375 C 6.085938 -58.296875 10.101562 -57.867188 14.125 -57.203125 C 15.488281 -56.960938 16.863281 -56.71875 18.25 -56.46875 C 19.644531 -56.21875 21.046875 -55.9375 22.453125 -55.625 C 23.109375 -55.5 23.613281 -55.710938 23.96875 -56.265625 C 24.632812 -57.273438 25.316406 -58.269531 26.015625 -59.25 C 26.722656 -60.226562 27.445312 -61.1875 28.1875 -62.125 C 28.382812 -62.363281 28.597656 -62.585938 28.828125 -62.796875 C 29.066406 -63.015625 29.363281 -63.144531 29.71875 -63.1875 C 30.070312 -63.21875 30.410156 -63.1875 30.734375 -63.09375 C 31.066406 -63 31.332031 -62.8125 31.53125 -62.53125 C 31.769531 -62.257812 31.8125 -61.988281 31.65625 -61.71875 C 31.5 -61.445312 31.34375 -61.191406 31.1875 -60.953125 C 30.5625 -60.054688 29.929688 -59.15625 29.296875 -58.25 C 28.671875 -57.351562 28.046875 -56.457031 27.421875 -55.5625 C 27.234375 -55.289062 27.140625 -55.066406 27.140625 -54.890625 C 27.140625 -54.710938 27.351562 -54.566406 27.78125 -54.453125 C 31.84375 -53.671875 35.914062 -52.90625 40 -52.15625 C 44.082031 -51.414062 48.210938 -50.96875 52.390625 -50.8125 C 54.816406 -50.738281 57.25 -50.769531 59.6875 -50.90625 C 62.132812 -51.039062 64.566406 -51.300781 66.984375 -51.6875 C 67.648438 -51.769531 68.285156 -51.925781 68.890625 -52.15625 C 69.492188 -52.394531 70.109375 -52.59375 70.734375 -52.75 C 71.171875 -52.90625 71.546875 -53.238281 71.859375 -53.75 C 72.128906 -54.175781 72.554688 -54.488281 73.140625 -54.6875 C 73.296875 -54.757812 73.460938 -54.796875 73.640625 -54.796875 C 73.816406 -54.796875 73.960938 -54.71875 74.078125 -54.5625 C 74.234375 -54.363281 74.234375 -54.21875 74.078125 -54.125 C 73.921875 -54.03125 73.804688 -53.90625 73.734375 -53.75 C 73.109375 -52.769531 72.34375 -52.035156 71.4375 -51.546875 C 70.539062 -51.054688 69.582031 -50.722656 68.5625 -50.546875 C 67.550781 -50.367188 66.539062 -50.203125 65.53125 -50.046875 C 60.6875 -49.304688 55.867188 -49.171875 51.078125 -49.640625 C 46.296875 -50.109375 41.519531 -50.773438 36.75 -51.640625 C 35.1875 -51.953125 33.601562 -52.265625 32 -52.578125 C 30.394531 -52.890625 28.789062 -53.203125 27.1875 -53.515625 C 26.875 -53.585938 26.59375 -53.582031 26.34375 -53.5 C 26.09375 -53.425781 25.847656 -53.234375 25.609375 -52.921875 C 21.003906 -46.046875 16.726562 -39.003906 12.78125 -31.796875 C 8.832031 -24.585938 5.273438 -17.132812 2.109375 -9.4375 C 1.328125 -7.519531 0.703125 -5.523438 0.234375 -3.453125 C -0.234375 -1.390625 -0.585938 0.695312 -0.828125 2.8125 C -0.859375 3.394531 -0.859375 3.984375 -0.828125 4.578125 C -0.671875 5.941406 -0.160156 6.875 0.703125 7.375 C 1.566406 7.882812 2.625 7.867188 3.875 7.328125 C 5.664062 6.503906 7.332031 5.503906 8.875 4.328125 C 10.414062 3.160156 11.953125 1.992188 13.484375 0.828125 C 15.671875 -0.816406 17.867188 -2.398438 20.078125 -3.921875 C 22.285156 -5.453125 24.519531 -6.9375 26.78125 -8.375 C 27.132812 -8.613281 27.492188 -8.828125 27.859375 -9.015625 C 28.234375 -9.210938 28.617188 -9.390625 29.015625 -9.546875 C 29.242188 -9.628906 29.472656 -9.6875 29.703125 -9.71875 C 29.941406 -9.757812 30.203125 -9.625 30.484375 -9.3125 Z M 30.484375 -9.3125 "/></g></g></g></g><g fill="#252b39" fill-opacity="1"><g transform="translate(500.242045, 69.687779)"><g><path d="M 3.640625 -5.21875 C 3.640625 -5.21875 3.640625 -5.195312 3.640625 -5.15625 C 3.640625 -5.113281 3.617188 -5.035156 3.578125 -4.921875 C 3.578125 -4.921875 4.148438 -4.898438 5.296875 -4.859375 C 6.453125 -4.828125 8.164062 -5.023438 10.4375 -5.453125 C 10.707031 -5.523438 11.28125 -5.6875 12.15625 -5.9375 C 13.039062 -6.195312 14.066406 -6.539062 15.234375 -6.96875 C 16.410156 -7.40625 17.625 -7.882812 18.875 -8.40625 C 20.125 -8.9375 21.238281 -9.492188 22.21875 -10.078125 C 22.445312 -10.234375 22.660156 -10.269531 22.859375 -10.1875 C 23.054688 -10.113281 23.191406 -10.054688 23.265625 -10.015625 C 20.609375 -8.378906 17.941406 -7.03125 15.265625 -5.96875 C 12.585938 -4.914062 10.164062 -4.222656 8 -3.890625 C 5.832031 -3.566406 4.179688 -3.617188 3.046875 -4.046875 C 2.773438 -4.085938 2.519531 -3.988281 2.28125 -3.75 C 1.9375 -3.394531 1.566406 -3.070312 1.171875 -2.78125 C 0.785156 -2.488281 0.394531 -2.1875 0 -1.875 C -0.0820312 -1.832031 -0.160156 -1.78125 -0.234375 -1.71875 C -0.316406 -1.664062 -0.394531 -1.617188 -0.46875 -1.578125 C -1.207031 -1.109375 -1.921875 -1.066406 -2.609375 -1.453125 C -3.296875 -1.847656 -3.65625 -2.5 -3.6875 -3.40625 C -3.6875 -3.945312 -3.609375 -4.472656 -3.453125 -4.984375 C -3.296875 -5.492188 -3.082031 -5.984375 -2.8125 -6.453125 C -2.539062 -6.921875 -2.5625 -7.390625 -2.875 -7.859375 C -3.8125 -9.296875 -4.238281 -10.914062 -4.15625 -12.71875 C -4.125 -13.257812 -4 -13.785156 -3.78125 -14.296875 C -3.5625 -14.804688 -3.28125 -15.273438 -2.9375 -15.703125 C -1.5625 -17.460938 0.238281 -18.5 2.46875 -18.8125 C 3.789062 -19.007812 4.921875 -18.726562 5.859375 -17.96875 C 6.796875 -17.207031 7.34375 -16.160156 7.5 -14.828125 C 7.582031 -13.960938 7.546875 -13.140625 7.390625 -12.359375 C 7.234375 -11.578125 7 -10.796875 6.6875 -10.015625 C 6.332031 -9.160156 5.929688 -8.359375 5.484375 -7.609375 C 5.035156 -6.867188 4.476562 -6.171875 3.8125 -5.515625 C 3.769531 -5.472656 3.738281 -5.429688 3.71875 -5.390625 C 3.695312 -5.347656 3.671875 -5.289062 3.640625 -5.21875 Z M 0.53125 -4.34375 C 0.6875 -4.5 0.664062 -4.65625 0.46875 -4.8125 C 0.3125 -4.882812 0.15625 -4.96875 0 -5.0625 C -0.15625 -5.164062 -0.3125 -5.253906 -0.46875 -5.328125 C -0.738281 -5.523438 -0.953125 -5.488281 -1.109375 -5.21875 C -1.503906 -4.507812 -1.800781 -3.765625 -2 -2.984375 C -2.03125 -2.828125 -2.007812 -2.691406 -1.9375 -2.578125 C -1.382812 -2.734375 -0.921875 -2.96875 -0.546875 -3.28125 C -0.179688 -3.59375 0.175781 -3.945312 0.53125 -4.34375 Z M 2.046875 -6.03125 C 2.828125 -6.894531 3.441406 -7.84375 3.890625 -8.875 C 4.347656 -9.914062 4.691406 -10.984375 4.921875 -12.078125 C 5.234375 -13.484375 5.203125 -14.507812 4.828125 -15.15625 C 4.460938 -15.800781 4.054688 -16.207031 3.609375 -16.375 C 3.160156 -16.550781 2.9375 -16.640625 2.9375 -16.640625 C 1.84375 -16.722656 0.863281 -16.46875 0 -15.875 C -0.863281 -15.289062 -1.535156 -14.539062 -2.015625 -13.625 C -2.503906 -12.707031 -2.757812 -11.75 -2.78125 -10.75 C -2.800781 -9.757812 -2.519531 -8.875 -1.9375 -8.09375 C -1.738281 -8.40625 -1.53125 -8.6875 -1.3125 -8.9375 C -1.101562 -9.1875 -0.921875 -9.429688 -0.765625 -9.671875 C -0.296875 -10.335938 0.269531 -10.882812 0.9375 -11.3125 C 1.644531 -11.738281 2.269531 -11.5625 2.8125 -10.78125 C 3.007812 -10.507812 3.085938 -10.296875 3.046875 -10.140625 C 3.003906 -9.984375 2.789062 -9.75 2.40625 -9.4375 C 2.007812 -9.125 1.625 -8.789062 1.25 -8.4375 C 0.882812 -8.082031 0.546875 -7.691406 0.234375 -7.265625 C -0.00390625 -6.910156 -0.125 -6.691406 -0.125 -6.609375 C -0.125 -6.535156 0.25 -6.304688 1 -5.921875 C 1.3125 -5.765625 1.492188 -5.675781 1.546875 -5.65625 C 1.609375 -5.632812 1.679688 -5.644531 1.765625 -5.6875 C 1.835938 -5.726562 1.894531 -5.785156 1.9375 -5.859375 C 1.976562 -5.941406 2.015625 -6 2.046875 -6.03125 Z M 2.046875 -6.03125 "/></g></g></g></g></g></g><g clip-path="url(#dd45e5709d)"><g clip-path="url(#8e4d35b1c2)"><g transform="matrix(1, 0, 0, 1, 67, 16)"><g clip-path="url(#e1a71bd8b5)"><g clip-path="url(#7d2546f356)"><g clip-path="url(#32bdb8542d)"><g clip-path="url(#966cf1d09c)"><path fill="#252b39" d="M 98.601562 1.105469 C 98.09375 2.03125 98.355469 2.285156 97.949219 2.6875 C 95.574219 4.972656 93.179688 9.332031 92.210938 10.960938 C 76.304688 37.308594 37.25 25.648438 4.808594 55.515625 C 4.53125 55.765625 3.449219 56.035156 3.613281 54.917969 C 7.785156 50.054688 12.488281 45.132812 24.179688 39.070312 C 37.0625 32.375 66.769531 27.859375 77.789062 22.023438 C 92.078125 14.445312 92.769531 3.261719 98.59375 1.132812 Z M 98.601562 1.105469 " fill-opacity="1" fill-rule="evenodd"/></g></g></g></g></g></g></g><g clip-path="url(#ea0e1e4a1c)"><g clip-path="url(#3f7707c3b8)"><g clip-path="url(#12efb572e4)"><path fill="#252b39" d="M 622.359375 60.765625 C 623.007812 61.097656 622.957031 61.34375 623.347656 61.414062 C 625.589844 61.789062 628.652344 63.34375 629.835938 63.894531 C 649.15625 72.710938 666.867188 50.867188 696.972656 55.257812 C 697.230469 55.289062 697.949219 55.023438 697.421875 54.449219 C 693.152344 53.304688 688.558594 52.328125 679.535156 53.429688 C 669.589844 54.628906 650.90625 63.617188 642.359375 64.582031 C 631.269531 65.828125 626.519531 59.726562 622.375 60.777344 Z M 622.359375 60.765625 " fill-opacity="1" fill-rule="evenodd"/></g></g></g></svg>