<svg xmlns="http://www.w3.org/2000/svg" xmlns:xlink="http://www.w3.org/1999/xlink" width="600" zoomAndPan="magnify" viewBox="0 0 450 112.499997" height="150" preserveAspectRatio="xMidYMid meet" version="1.0"><defs><g/><clipPath id="7a73fb0f52"><path d="M 56 0 L 415 0 L 415 112.003906 L 56 112.003906 Z M 56 0 " clip-rule="nonzero"/></clipPath><clipPath id="e84b6cb441"><path d="M 337 52 L 358.835938 52 L 358.835938 66 L 337 66 Z M 337 52 " clip-rule="nonzero"/></clipPath><clipPath id="a8710dd5f3"><rect x="0" width="359" y="0" height="113"/></clipPath><clipPath id="18c9a31111"><path d="M 4 30 L 81 30 L 81 75 L 4 75 Z M 4 30 " clip-rule="nonzero"/></clipPath><clipPath id="0b9337ecf7"><path d="M 4.121094 66.050781 L 76.328125 30.148438 L 80.320312 38.171875 L 8.109375 74.074219 Z M 4.121094 66.050781 " clip-rule="nonzero"/></clipPath><clipPath id="896c30be40"><path d="M 2 0.105469 L 73 0.105469 L 73 41 L 2 41 Z M 2 0.105469 " clip-rule="nonzero"/></clipPath><clipPath id="4b845919a3"><path d="M 0.121094 36.050781 L 72.328125 0.148438 L 76.320312 8.171875 L 4.109375 44.074219 Z M 0.121094 36.050781 " clip-rule="nonzero"/></clipPath><clipPath id="97e4d36a3b"><path d="M 72.445312 0.09375 L 0.234375 35.992188 L 4.222656 44.015625 L 76.433594 8.117188 Z M 72.445312 0.09375 " clip-rule="nonzero"/></clipPath><clipPath id="42f8ba9e04"><rect x="0" width="77" y="0" height="45"/></clipPath><clipPath id="981d286022"><path d="M 398 38 L 445 38 L 445 64 L 398 64 Z M 398 38 " clip-rule="nonzero"/></clipPath><clipPath id="baee073e85"><path d="M 398.058594 62.269531 L 442.128906 35.585938 L 445.222656 40.695312 L 401.152344 67.378906 Z M 398.058594 62.269531 " clip-rule="nonzero"/></clipPath><clipPath id="cc7bd44b48"><path d="M 395.871094 63.59375 L 442.5 35.363281 L 445.59375 40.472656 L 398.964844 68.703125 Z M 395.871094 63.59375 " clip-rule="nonzero"/></clipPath></defs><g clip-path="url(#7a73fb0f52)"><g transform="matrix(1, 0, 0, 1, 56, 0)"><g clip-path="url(#a8710dd5f3)"><g fill="#252b39" fill-opacity="1"><g transform="translate(1.323889, 66.316537)"><g><path d="M 2.78125 15.515625 C 2.050781 14.503906 1.515625 13.421875 1.171875 12.265625 C 0.828125 11.109375 0.597656 9.910156 0.484375 8.671875 C 0.160156 5.253906 0.296875 1.929688 0.890625 -1.296875 C 1.484375 -4.535156 2.398438 -7.71875 3.640625 -10.84375 C 5.628906 -15.925781 7.984375 -20.785156 10.703125 -25.421875 C 13.421875 -30.054688 16.53125 -34.46875 20.03125 -38.65625 C 21.53125 -40.445312 23.160156 -42.109375 24.921875 -43.640625 C 26.679688 -45.171875 28.601562 -46.488281 30.6875 -47.59375 C 31.78125 -48.164062 32.90625 -48.597656 34.0625 -48.890625 C 35.21875 -49.179688 36.421875 -49.195312 37.671875 -48.9375 C 39.628906 -48.53125 41.128906 -47.710938 42.171875 -46.484375 C 43.210938 -45.253906 43.921875 -43.703125 44.296875 -41.828125 C 44.640625 -40.035156 44.648438 -38.289062 44.328125 -36.59375 C 44.015625 -34.90625 43.484375 -33.269531 42.734375 -31.6875 C 41.148438 -28.332031 39.144531 -25.351562 36.71875 -22.75 C 34.289062 -20.15625 31.441406 -17.960938 28.171875 -16.171875 C 27.304688 -15.703125 26.40625 -15.332031 25.46875 -15.0625 C 24.53125 -14.789062 23.550781 -14.664062 22.53125 -14.6875 C 21 -14.71875 19.742188 -15.382812 18.765625 -16.6875 C 18.648438 -16.863281 18.535156 -17.066406 18.421875 -17.296875 C 18.304688 -17.523438 18.363281 -17.726562 18.59375 -17.90625 C 18.820312 -18.050781 19.035156 -18.050781 19.234375 -17.90625 C 19.441406 -17.757812 19.617188 -17.582031 19.765625 -17.375 C 19.878906 -17.175781 19.992188 -16.988281 20.109375 -16.8125 C 20.335938 -16.5 20.609375 -16.253906 20.921875 -16.078125 C 21.242188 -15.910156 21.625 -15.835938 22.0625 -15.859375 C 22.875 -15.953125 23.65625 -16.101562 24.40625 -16.3125 C 25.15625 -16.53125 25.875 -16.828125 26.5625 -17.203125 C 30.238281 -19.140625 33.328125 -21.582031 35.828125 -24.53125 C 38.328125 -27.476562 40.253906 -30.890625 41.609375 -34.765625 C 42.097656 -36.203125 42.378906 -37.648438 42.453125 -39.109375 C 42.523438 -40.578125 42.332031 -42.0625 41.875 -43.5625 C 40.601562 -47.519531 38.03125 -48.75 34.15625 -47.25 C 32.675781 -46.695312 31.285156 -45.972656 29.984375 -45.078125 C 28.691406 -44.179688 27.453125 -43.210938 26.265625 -42.171875 C 23.804688 -40.066406 21.601562 -37.738281 19.65625 -35.1875 C 17.707031 -32.644531 15.878906 -30.003906 14.171875 -27.265625 C 12.148438 -23.992188 10.289062 -20.644531 8.59375 -17.21875 C 6.90625 -13.800781 5.484375 -10.242188 4.328125 -6.546875 C 3.691406 -4.523438 3.203125 -2.5 2.859375 -0.46875 C 2.515625 1.550781 2.328125 3.457031 2.296875 5.25 C 2.328125 6.6875 2.390625 7.984375 2.484375 9.140625 C 2.585938 10.296875 2.785156 11.410156 3.078125 12.484375 C 3.222656 13.035156 3.425781 13.566406 3.6875 14.078125 C 3.945312 14.597656 4.234375 15.109375 4.546875 15.609375 C 5.503906 17.078125 6.863281 17.640625 8.625 17.296875 C 10.039062 16.972656 11.53125 16.296875 13.09375 15.265625 C 14.65625 14.242188 16.257812 13.019531 17.90625 11.59375 C 19.550781 10.164062 21.222656 8.695312 22.921875 7.1875 C 24.628906 5.6875 26.34375 4.285156 28.0625 2.984375 C 29.78125 1.691406 31.484375 0.664062 33.171875 -0.09375 C 34.867188 -0.863281 36.523438 -1.191406 38.140625 -1.078125 C 38.285156 -1.054688 38.414062 -1.03125 38.53125 -1 C 38.644531 -0.96875 38.757812 -0.910156 38.875 -0.828125 C 39.132812 -0.617188 39.109375 -0.488281 38.796875 -0.4375 C 37.117188 -0.550781 35.457031 -0.25 33.8125 0.46875 C 32.164062 1.195312 30.539062 2.1875 28.9375 3.4375 C 27.332031 4.695312 25.753906 6.078125 24.203125 7.578125 C 22.660156 9.085938 21.128906 10.5625 19.609375 12 C 18.097656 13.445312 16.597656 14.71875 15.109375 15.8125 C 13.617188 16.914062 12.148438 17.695312 10.703125 18.15625 C 9.234375 18.625 7.769531 18.609375 6.3125 18.109375 C 4.851562 17.617188 3.675781 16.753906 2.78125 15.515625 Z M 2.78125 15.515625 "/></g></g></g><g fill="#252b39" fill-opacity="1"><g transform="translate(42.026169, 66.316537)"><g><path d="M 2.6875 -3.859375 C 2.6875 -3.859375 2.6875 -3.84375 2.6875 -3.8125 C 2.6875 -3.78125 2.671875 -3.722656 2.640625 -3.640625 C 2.640625 -3.640625 3.066406 -3.625 3.921875 -3.59375 C 4.773438 -3.5625 6.039062 -3.707031 7.71875 -4.03125 C 7.914062 -4.09375 8.335938 -4.21875 8.984375 -4.40625 C 9.640625 -4.59375 10.398438 -4.84375 11.265625 -5.15625 C 12.128906 -5.476562 13.023438 -5.832031 13.953125 -6.21875 C 14.878906 -6.613281 15.703125 -7.023438 16.421875 -7.453125 C 16.597656 -7.566406 16.757812 -7.59375 16.90625 -7.53125 C 17.050781 -7.476562 17.148438 -7.4375 17.203125 -7.40625 C 15.242188 -6.195312 13.273438 -5.203125 11.296875 -4.421875 C 9.316406 -3.640625 7.523438 -3.125 5.921875 -2.875 C 4.316406 -2.632812 3.09375 -2.671875 2.25 -2.984375 C 2.050781 -3.015625 1.863281 -2.945312 1.6875 -2.78125 C 1.425781 -2.519531 1.148438 -2.28125 0.859375 -2.0625 C 0.578125 -1.84375 0.289062 -1.617188 0 -1.390625 C -0.0625 -1.359375 -0.117188 -1.320312 -0.171875 -1.28125 C -0.234375 -1.238281 -0.289062 -1.203125 -0.34375 -1.171875 C -0.894531 -0.828125 -1.421875 -0.796875 -1.921875 -1.078125 C -2.429688 -1.367188 -2.703125 -1.847656 -2.734375 -2.515625 C -2.734375 -2.921875 -2.675781 -3.3125 -2.5625 -3.6875 C -2.445312 -4.0625 -2.285156 -4.421875 -2.078125 -4.765625 C -1.878906 -5.109375 -1.894531 -5.457031 -2.125 -5.8125 C -2.820312 -6.875 -3.140625 -8.070312 -3.078125 -9.40625 C -3.046875 -9.8125 -2.953125 -10.203125 -2.796875 -10.578125 C -2.640625 -10.953125 -2.429688 -11.296875 -2.171875 -11.609375 C -1.160156 -12.910156 0.171875 -13.675781 1.828125 -13.90625 C 2.804688 -14.050781 3.640625 -13.84375 4.328125 -13.28125 C 5.023438 -12.71875 5.429688 -11.945312 5.546875 -10.96875 C 5.609375 -10.332031 5.578125 -9.722656 5.453125 -9.140625 C 5.335938 -8.566406 5.164062 -7.988281 4.9375 -7.40625 C 4.675781 -6.769531 4.378906 -6.175781 4.046875 -5.625 C 3.710938 -5.082031 3.300781 -4.566406 2.8125 -4.078125 C 2.789062 -4.046875 2.769531 -4.015625 2.75 -3.984375 C 2.738281 -3.953125 2.71875 -3.910156 2.6875 -3.859375 Z M 0.390625 -3.203125 C 0.503906 -3.316406 0.488281 -3.429688 0.34375 -3.546875 C 0.226562 -3.609375 0.113281 -3.675781 0 -3.75 C -0.113281 -3.820312 -0.226562 -3.882812 -0.34375 -3.9375 C -0.550781 -4.082031 -0.710938 -4.054688 -0.828125 -3.859375 C -1.109375 -3.335938 -1.320312 -2.785156 -1.46875 -2.203125 C -1.5 -2.085938 -1.488281 -1.988281 -1.4375 -1.90625 C -1.03125 -2.019531 -0.6875 -2.191406 -0.40625 -2.421875 C -0.132812 -2.660156 0.128906 -2.921875 0.390625 -3.203125 Z M 1.515625 -4.46875 C 2.097656 -5.101562 2.550781 -5.800781 2.875 -6.5625 C 3.207031 -7.332031 3.460938 -8.117188 3.640625 -8.921875 C 3.867188 -9.960938 3.847656 -10.722656 3.578125 -11.203125 C 3.304688 -11.679688 3.003906 -11.984375 2.671875 -12.109375 C 2.335938 -12.242188 2.171875 -12.3125 2.171875 -12.3125 C 1.359375 -12.363281 0.632812 -12.171875 0 -11.734375 C -0.632812 -11.304688 -1.128906 -10.753906 -1.484375 -10.078125 C -1.847656 -9.398438 -2.035156 -8.691406 -2.046875 -7.953125 C -2.066406 -7.210938 -1.863281 -6.554688 -1.4375 -5.984375 C -1.289062 -6.210938 -1.132812 -6.421875 -0.96875 -6.609375 C -0.8125 -6.796875 -0.675781 -6.976562 -0.5625 -7.15625 C -0.21875 -7.644531 0.195312 -8.046875 0.6875 -8.359375 C 1.207031 -8.679688 1.671875 -8.550781 2.078125 -7.96875 C 2.222656 -7.769531 2.28125 -7.613281 2.25 -7.5 C 2.21875 -7.382812 2.0625 -7.210938 1.78125 -6.984375 C 1.488281 -6.742188 1.203125 -6.492188 0.921875 -6.234375 C 0.648438 -5.972656 0.398438 -5.6875 0.171875 -5.375 C -0.00390625 -5.113281 -0.09375 -4.953125 -0.09375 -4.890625 C -0.09375 -4.835938 0.179688 -4.664062 0.734375 -4.375 C 0.960938 -4.257812 1.097656 -4.191406 1.140625 -4.171875 C 1.191406 -4.160156 1.242188 -4.171875 1.296875 -4.203125 C 1.359375 -4.234375 1.398438 -4.273438 1.421875 -4.328125 C 1.453125 -4.390625 1.484375 -4.4375 1.515625 -4.46875 Z M 2.390625 -16.6875 C 2.097656 -16.71875 1.847656 -16.753906 1.640625 -16.796875 C 1.441406 -16.835938 1.3125 -16.945312 1.25 -17.125 C 1.195312 -17.269531 1.21875 -17.40625 1.3125 -17.53125 C 1.414062 -17.664062 1.523438 -17.789062 1.640625 -17.90625 C 2.109375 -18.394531 2.578125 -18.875 3.046875 -19.34375 C 3.523438 -19.820312 4.039062 -20.265625 4.59375 -20.671875 C 4.851562 -20.878906 5.132812 -21.023438 5.4375 -21.109375 C 5.738281 -21.191406 6.066406 -21.175781 6.421875 -21.0625 C 7.023438 -20.863281 7.082031 -20.585938 6.59375 -20.234375 C 5.957031 -19.773438 5.351562 -19.269531 4.78125 -18.71875 C 4.21875 -18.175781 3.664062 -17.613281 3.125 -17.03125 C 2.832031 -16.738281 2.585938 -16.625 2.390625 -16.6875 Z M 2.390625 -16.6875 "/></g></g></g><g fill="#252b39" fill-opacity="1"><g transform="translate(54.856459, 66.316537)"><g><path d="M 37.3125 -7.546875 C 37.519531 -7.628906 37.664062 -7.597656 37.75 -7.453125 C 37.863281 -7.273438 37.820312 -7.101562 37.625 -6.9375 C 37.15625 -6.644531 36.691406 -6.351562 36.234375 -6.0625 C 35.773438 -5.78125 35.300781 -5.476562 34.8125 -5.15625 C 33.914062 -4.601562 33.003906 -4.046875 32.078125 -3.484375 C 31.148438 -2.921875 30.222656 -2.378906 29.296875 -1.859375 C 28.285156 -1.285156 27.238281 -0.78125 26.15625 -0.34375 C 25.070312 0.0820312 23.9375 0.414062 22.75 0.65625 C 22.09375 0.789062 21.472656 0.710938 20.890625 0.421875 C 20.316406 0.140625 19.851562 -0.269531 19.5 -0.8125 C 19.15625 -1.363281 19.015625 -1.945312 19.078125 -2.5625 C 19.097656 -2.875 19.113281 -3.175781 19.125 -3.46875 C 19.144531 -3.757812 19.171875 -4.078125 19.203125 -4.421875 C 18.972656 -4.472656 18.753906 -4.445312 18.546875 -4.34375 C 18.347656 -4.25 18.160156 -4.144531 17.984375 -4.03125 C 17.234375 -3.65625 16.507812 -3.210938 15.8125 -2.703125 C 15.125 -2.203125 14.445312 -1.675781 13.78125 -1.125 C 13.601562 -1.007812 13.4375 -0.875 13.28125 -0.71875 C 13.125 -0.5625 12.914062 -0.539062 12.65625 -0.65625 C 12.363281 -0.789062 12.125 -0.96875 11.9375 -1.1875 C 11.75 -1.40625 11.640625 -1.6875 11.609375 -2.03125 C 11.585938 -2.320312 11.613281 -2.597656 11.6875 -2.859375 C 11.757812 -3.117188 11.835938 -3.363281 11.921875 -3.59375 C 12.410156 -5.007812 12.988281 -6.367188 13.65625 -7.671875 C 14.320312 -8.972656 15.054688 -10.242188 15.859375 -11.484375 C 16.640625 -12.671875 17.457031 -13.816406 18.3125 -14.921875 C 19.164062 -16.035156 19.9375 -17.21875 20.625 -18.46875 C 20.800781 -18.78125 20.984375 -19.085938 21.171875 -19.390625 C 21.359375 -19.691406 21.523438 -19.988281 21.671875 -20.28125 C 21.785156 -20.507812 21.882812 -20.75 21.96875 -21 C 22.0625 -21.25 22.125 -21.515625 22.15625 -21.796875 C 21.75 -21.859375 21.378906 -21.84375 21.046875 -21.75 C 20.710938 -21.664062 20.382812 -21.566406 20.0625 -21.453125 C 18.882812 -21.023438 17.765625 -20.46875 16.703125 -19.78125 C 15.648438 -19.101562 14.617188 -18.375 13.609375 -17.59375 C 11.328125 -15.769531 9.296875 -13.738281 7.515625 -11.5 C 5.742188 -9.269531 4.09375 -6.910156 2.5625 -4.421875 C 2.269531 -3.960938 1.984375 -3.492188 1.703125 -3.015625 C 1.429688 -2.535156 1.140625 -2.066406 0.828125 -1.609375 C 0.503906 -1.140625 0.140625 -1.082031 -0.265625 -1.4375 C -0.460938 -1.632812 -0.625 -1.851562 -0.75 -2.09375 C -0.882812 -2.34375 -0.9375 -2.628906 -0.90625 -2.953125 C -0.757812 -4.078125 -0.59375 -5.191406 -0.40625 -6.296875 C -0.21875 -7.410156 0.101562 -8.503906 0.5625 -9.578125 C 0.707031 -9.867188 0.859375 -10.132812 1.015625 -10.375 C 1.171875 -10.625 1.335938 -10.863281 1.515625 -11.09375 C 1.835938 -11.53125 2.1875 -11.632812 2.5625 -11.40625 C 2.820312 -11.257812 3.007812 -11.054688 3.125 -10.796875 C 3.238281 -10.535156 3.222656 -10.289062 3.078125 -10.0625 C 2.878906 -9.707031 2.695312 -9.347656 2.53125 -8.984375 C 2.375 -8.628906 2.207031 -8.265625 2.03125 -7.890625 C 1.945312 -7.679688 1.859375 -7.460938 1.765625 -7.234375 C 1.679688 -7.003906 1.640625 -6.742188 1.640625 -6.453125 C 1.878906 -6.566406 2.046875 -6.703125 2.140625 -6.859375 C 2.242188 -7.023438 2.351562 -7.179688 2.46875 -7.328125 C 3.21875 -8.421875 3.96875 -9.5 4.71875 -10.5625 C 5.46875 -11.632812 6.28125 -12.664062 7.15625 -13.65625 C 8.425781 -15.070312 9.722656 -16.453125 11.046875 -17.796875 C 12.378906 -19.140625 13.8125 -20.359375 15.34375 -21.453125 C 16.9375 -22.554688 18.640625 -23.320312 20.453125 -23.75 C 21.179688 -23.925781 21.835938 -23.847656 22.421875 -23.515625 C 23.015625 -23.179688 23.46875 -22.703125 23.78125 -22.078125 C 24.101562 -21.460938 24.179688 -20.804688 24.015625 -20.109375 C 23.867188 -19.503906 23.65625 -18.929688 23.375 -18.390625 C 23.101562 -17.859375 22.8125 -17.347656 22.5 -16.859375 C 21.863281 -15.910156 21.21875 -14.960938 20.5625 -14.015625 C 19.914062 -13.078125 19.257812 -12.144531 18.59375 -11.21875 C 17.988281 -10.351562 17.429688 -9.460938 16.921875 -8.546875 C 16.421875 -7.640625 15.953125 -6.726562 15.515625 -5.8125 C 15.367188 -5.457031 15.1875 -5.132812 14.96875 -4.84375 C 14.757812 -4.5625 14.625 -4.234375 14.5625 -3.859375 C 14.738281 -3.773438 14.867188 -3.773438 14.953125 -3.859375 C 15.035156 -3.941406 15.125 -4 15.21875 -4.03125 C 15.757812 -4.375 16.296875 -4.734375 16.828125 -5.109375 C 17.367188 -5.484375 17.914062 -5.816406 18.46875 -6.109375 C 18.78125 -6.253906 19.082031 -6.375 19.375 -6.46875 C 19.664062 -6.570312 19.984375 -6.507812 20.328125 -6.28125 C 21.023438 -5.757812 21.359375 -5.066406 21.328125 -4.203125 C 21.296875 -3.941406 21.242188 -3.679688 21.171875 -3.421875 C 21.097656 -3.160156 21.035156 -2.898438 20.984375 -2.640625 C 20.953125 -2.554688 20.925781 -2.46875 20.90625 -2.375 C 20.894531 -2.289062 20.875 -2.207031 20.84375 -2.125 C 20.726562 -1.539062 20.734375 -1.15625 20.859375 -0.96875 C 20.992188 -0.78125 21.378906 -0.6875 22.015625 -0.6875 C 23.003906 -0.664062 23.953125 -0.769531 24.859375 -1 C 25.765625 -1.226562 26.664062 -1.53125 27.5625 -1.90625 C 28.71875 -2.394531 29.820312 -2.960938 30.875 -3.609375 C 31.9375 -4.265625 33 -4.910156 34.0625 -5.546875 C 34.5625 -5.867188 35.0625 -6.179688 35.5625 -6.484375 C 36.070312 -6.785156 36.570312 -7.082031 37.0625 -7.375 C 37.113281 -7.425781 37.195312 -7.484375 37.3125 -7.546875 Z M 37.3125 -7.546875 "/></g></g></g><g fill="#252b39" fill-opacity="1"><g transform="translate(88.753293, 66.316537)"><g><path d="M 2.6875 -3.859375 C 2.6875 -3.859375 2.6875 -3.84375 2.6875 -3.8125 C 2.6875 -3.78125 2.671875 -3.722656 2.640625 -3.640625 C 2.640625 -3.640625 3.066406 -3.625 3.921875 -3.59375 C 4.773438 -3.5625 6.039062 -3.707031 7.71875 -4.03125 C 7.914062 -4.09375 8.335938 -4.21875 8.984375 -4.40625 C 9.640625 -4.59375 10.398438 -4.84375 11.265625 -5.15625 C 12.128906 -5.476562 13.023438 -5.832031 13.953125 -6.21875 C 14.878906 -6.613281 15.703125 -7.023438 16.421875 -7.453125 C 16.597656 -7.566406 16.757812 -7.59375 16.90625 -7.53125 C 17.050781 -7.476562 17.148438 -7.4375 17.203125 -7.40625 C 15.242188 -6.195312 13.273438 -5.203125 11.296875 -4.421875 C 9.316406 -3.640625 7.523438 -3.125 5.921875 -2.875 C 4.316406 -2.632812 3.09375 -2.671875 2.25 -2.984375 C 2.050781 -3.015625 1.863281 -2.945312 1.6875 -2.78125 C 1.425781 -2.519531 1.148438 -2.28125 0.859375 -2.0625 C 0.578125 -1.84375 0.289062 -1.617188 0 -1.390625 C -0.0625 -1.359375 -0.117188 -1.320312 -0.171875 -1.28125 C -0.234375 -1.238281 -0.289062 -1.203125 -0.34375 -1.171875 C -0.894531 -0.828125 -1.421875 -0.796875 -1.921875 -1.078125 C -2.429688 -1.367188 -2.703125 -1.847656 -2.734375 -2.515625 C -2.734375 -2.921875 -2.675781 -3.3125 -2.5625 -3.6875 C -2.445312 -4.0625 -2.285156 -4.421875 -2.078125 -4.765625 C -1.878906 -5.109375 -1.894531 -5.457031 -2.125 -5.8125 C -2.820312 -6.875 -3.140625 -8.070312 -3.078125 -9.40625 C -3.046875 -9.8125 -2.953125 -10.203125 -2.796875 -10.578125 C -2.640625 -10.953125 -2.429688 -11.296875 -2.171875 -11.609375 C -1.160156 -12.910156 0.171875 -13.675781 1.828125 -13.90625 C 2.804688 -14.050781 3.640625 -13.84375 4.328125 -13.28125 C 5.023438 -12.71875 5.429688 -11.945312 5.546875 -10.96875 C 5.609375 -10.332031 5.578125 -9.722656 5.453125 -9.140625 C 5.335938 -8.566406 5.164062 -7.988281 4.9375 -7.40625 C 4.675781 -6.769531 4.378906 -6.175781 4.046875 -5.625 C 3.710938 -5.082031 3.300781 -4.566406 2.8125 -4.078125 C 2.789062 -4.046875 2.769531 -4.015625 2.75 -3.984375 C 2.738281 -3.953125 2.71875 -3.910156 2.6875 -3.859375 Z M 0.390625 -3.203125 C 0.503906 -3.316406 0.488281 -3.429688 0.34375 -3.546875 C 0.226562 -3.609375 0.113281 -3.675781 0 -3.75 C -0.113281 -3.820312 -0.226562 -3.882812 -0.34375 -3.9375 C -0.550781 -4.082031 -0.710938 -4.054688 -0.828125 -3.859375 C -1.109375 -3.335938 -1.320312 -2.785156 -1.46875 -2.203125 C -1.5 -2.085938 -1.488281 -1.988281 -1.4375 -1.90625 C -1.03125 -2.019531 -0.6875 -2.191406 -0.40625 -2.421875 C -0.132812 -2.660156 0.128906 -2.921875 0.390625 -3.203125 Z M 1.515625 -4.46875 C 2.097656 -5.101562 2.550781 -5.800781 2.875 -6.5625 C 3.207031 -7.332031 3.460938 -8.117188 3.640625 -8.921875 C 3.867188 -9.960938 3.847656 -10.722656 3.578125 -11.203125 C 3.304688 -11.679688 3.003906 -11.984375 2.671875 -12.109375 C 2.335938 -12.242188 2.171875 -12.3125 2.171875 -12.3125 C 1.359375 -12.363281 0.632812 -12.171875 0 -11.734375 C -0.632812 -11.304688 -1.128906 -10.753906 -1.484375 -10.078125 C -1.847656 -9.398438 -2.035156 -8.691406 -2.046875 -7.953125 C -2.066406 -7.210938 -1.863281 -6.554688 -1.4375 -5.984375 C -1.289062 -6.210938 -1.132812 -6.421875 -0.96875 -6.609375 C -0.8125 -6.796875 -0.675781 -6.976562 -0.5625 -7.15625 C -0.21875 -7.644531 0.195312 -8.046875 0.6875 -8.359375 C 1.207031 -8.679688 1.671875 -8.550781 2.078125 -7.96875 C 2.222656 -7.769531 2.28125 -7.613281 2.25 -7.5 C 2.21875 -7.382812 2.0625 -7.210938 1.78125 -6.984375 C 1.488281 -6.742188 1.203125 -6.492188 0.921875 -6.234375 C 0.648438 -5.972656 0.398438 -5.6875 0.171875 -5.375 C -0.00390625 -5.113281 -0.09375 -4.953125 -0.09375 -4.890625 C -0.09375 -4.835938 0.179688 -4.664062 0.734375 -4.375 C 0.960938 -4.257812 1.097656 -4.191406 1.140625 -4.171875 C 1.191406 -4.160156 1.242188 -4.171875 1.296875 -4.203125 C 1.359375 -4.234375 1.398438 -4.273438 1.421875 -4.328125 C 1.453125 -4.390625 1.484375 -4.4375 1.515625 -4.46875 Z M 1.515625 -4.46875 "/></g></g></g><g fill="#252b39" fill-opacity="1"><g transform="translate(101.583583, 66.316537)"><g/></g></g><g fill="#252b39" fill-opacity="1"><g transform="translate(115.454201, 66.316537)"><g><path d="M 8.328125 1.78125 C 6.390625 2.5 4.75 2.601562 3.40625 2.09375 C 2.0625 1.59375 0.851562 0.476562 -0.21875 -1.25 C -1.289062 -3.039062 -1.460938 -4.921875 -0.734375 -6.890625 C -0.128906 -8.503906 0.769531 -9.8125 1.96875 -10.8125 C 3.164062 -11.8125 4.578125 -12.539062 6.203125 -13 C 6.835938 -13.207031 7.4375 -13.222656 8 -13.046875 C 8.5625 -12.867188 9.101562 -12.59375 9.625 -12.21875 C 10.289062 -11.726562 10.4375 -11.109375 10.0625 -10.359375 C 9.914062 -10.066406 9.753906 -9.835938 9.578125 -9.671875 C 8.941406 -9.054688 8.269531 -8.503906 7.5625 -8.015625 C 6.851562 -7.523438 6.082031 -7.132812 5.25 -6.84375 C 4.40625 -6.582031 3.582031 -6.554688 2.78125 -6.765625 C 2.488281 -6.847656 2.257812 -6.832031 2.09375 -6.71875 C 1.9375 -6.601562 1.800781 -6.429688 1.6875 -6.203125 C 1.132812 -5.015625 0.910156 -3.863281 1.015625 -2.75 C 1.117188 -1.632812 1.578125 -0.546875 2.390625 0.515625 C 2.734375 0.921875 3.128906 1.1875 3.578125 1.3125 C 4.023438 1.445312 4.492188 1.5 4.984375 1.46875 C 5.679688 1.414062 6.347656 1.296875 6.984375 1.109375 C 7.617188 0.921875 8.238281 0.679688 8.84375 0.390625 C 9.394531 0.128906 10.175781 -0.285156 11.1875 -0.859375 C 12.195312 -1.441406 13.363281 -2.09375 14.6875 -2.8125 C 16.019531 -3.539062 17.4375 -4.257812 18.9375 -4.96875 C 20.4375 -5.675781 21.953125 -6.285156 23.484375 -6.796875 C 25.023438 -7.316406 26.5 -7.648438 27.90625 -7.796875 C 28.082031 -7.796875 28.265625 -7.773438 28.453125 -7.734375 C 28.640625 -7.691406 28.789062 -7.523438 28.90625 -7.234375 C 26.882812 -6.972656 24.867188 -6.429688 22.859375 -5.609375 C 20.847656 -4.785156 18.925781 -3.875 17.09375 -2.875 C 15.257812 -1.882812 13.59375 -0.953125 12.09375 -0.078125 C 10.59375 0.785156 9.335938 1.40625 8.328125 1.78125 Z M 8.234375 -11.359375 C 7.710938 -11.390625 7.097656 -11.238281 6.390625 -10.90625 C 5.679688 -10.570312 5.023438 -10.15625 4.421875 -9.65625 C 3.816406 -9.164062 3.398438 -8.664062 3.171875 -8.15625 C 3.742188 -8.09375 4.390625 -8.21875 5.109375 -8.53125 C 5.835938 -8.851562 6.492188 -9.273438 7.078125 -9.796875 C 7.671875 -10.316406 8.054688 -10.835938 8.234375 -11.359375 Z M 8.234375 -11.359375 "/></g></g></g><g fill="#252b39" fill-opacity="1"><g transform="translate(140.248199, 66.316537)"><g><path d="M 37.3125 -7.546875 C 37.519531 -7.628906 37.664062 -7.597656 37.75 -7.453125 C 37.863281 -7.273438 37.820312 -7.101562 37.625 -6.9375 C 37.15625 -6.644531 36.691406 -6.351562 36.234375 -6.0625 C 35.773438 -5.78125 35.300781 -5.476562 34.8125 -5.15625 C 33.914062 -4.601562 33.003906 -4.046875 32.078125 -3.484375 C 31.148438 -2.921875 30.222656 -2.378906 29.296875 -1.859375 C 28.285156 -1.285156 27.238281 -0.78125 26.15625 -0.34375 C 25.070312 0.0820312 23.9375 0.414062 22.75 0.65625 C 22.09375 0.789062 21.472656 0.710938 20.890625 0.421875 C 20.316406 0.140625 19.851562 -0.269531 19.5 -0.8125 C 19.15625 -1.363281 19.015625 -1.945312 19.078125 -2.5625 C 19.097656 -2.875 19.113281 -3.175781 19.125 -3.46875 C 19.144531 -3.757812 19.171875 -4.078125 19.203125 -4.421875 C 18.972656 -4.472656 18.753906 -4.445312 18.546875 -4.34375 C 18.347656 -4.25 18.160156 -4.144531 17.984375 -4.03125 C 17.234375 -3.65625 16.507812 -3.210938 15.8125 -2.703125 C 15.125 -2.203125 14.445312 -1.675781 13.78125 -1.125 C 13.601562 -1.007812 13.4375 -0.875 13.28125 -0.71875 C 13.125 -0.5625 12.914062 -0.539062 12.65625 -0.65625 C 12.363281 -0.789062 12.125 -0.96875 11.9375 -1.1875 C 11.75 -1.40625 11.640625 -1.6875 11.609375 -2.03125 C 11.585938 -2.320312 11.613281 -2.597656 11.6875 -2.859375 C 11.757812 -3.117188 11.835938 -3.363281 11.921875 -3.59375 C 12.410156 -5.007812 12.988281 -6.367188 13.65625 -7.671875 C 14.320312 -8.972656 15.054688 -10.242188 15.859375 -11.484375 C 16.640625 -12.671875 17.457031 -13.816406 18.3125 -14.921875 C 19.164062 -16.035156 19.9375 -17.21875 20.625 -18.46875 C 20.800781 -18.78125 20.984375 -19.085938 21.171875 -19.390625 C 21.359375 -19.691406 21.523438 -19.988281 21.671875 -20.28125 C 21.785156 -20.507812 21.882812 -20.75 21.96875 -21 C 22.0625 -21.25 22.125 -21.515625 22.15625 -21.796875 C 21.75 -21.859375 21.378906 -21.84375 21.046875 -21.75 C 20.710938 -21.664062 20.382812 -21.566406 20.0625 -21.453125 C 18.882812 -21.023438 17.765625 -20.46875 16.703125 -19.78125 C 15.648438 -19.101562 14.617188 -18.375 13.609375 -17.59375 C 11.328125 -15.769531 9.296875 -13.738281 7.515625 -11.5 C 5.742188 -9.269531 4.09375 -6.910156 2.5625 -4.421875 C 2.269531 -3.960938 1.984375 -3.492188 1.703125 -3.015625 C 1.429688 -2.535156 1.140625 -2.066406 0.828125 -1.609375 C 0.503906 -1.140625 0.140625 -1.082031 -0.265625 -1.4375 C -0.460938 -1.632812 -0.625 -1.851562 -0.75 -2.09375 C -0.882812 -2.34375 -0.9375 -2.628906 -0.90625 -2.953125 C -0.757812 -4.078125 -0.59375 -5.191406 -0.40625 -6.296875 C -0.21875 -7.410156 0.101562 -8.503906 0.5625 -9.578125 C 0.707031 -9.867188 0.859375 -10.132812 1.015625 -10.375 C 1.171875 -10.625 1.335938 -10.863281 1.515625 -11.09375 C 1.835938 -11.53125 2.1875 -11.632812 2.5625 -11.40625 C 2.820312 -11.257812 3.007812 -11.054688 3.125 -10.796875 C 3.238281 -10.535156 3.222656 -10.289062 3.078125 -10.0625 C 2.878906 -9.707031 2.695312 -9.347656 2.53125 -8.984375 C 2.375 -8.628906 2.207031 -8.265625 2.03125 -7.890625 C 1.945312 -7.679688 1.859375 -7.460938 1.765625 -7.234375 C 1.679688 -7.003906 1.640625 -6.742188 1.640625 -6.453125 C 1.878906 -6.566406 2.046875 -6.703125 2.140625 -6.859375 C 2.242188 -7.023438 2.351562 -7.179688 2.46875 -7.328125 C 3.21875 -8.421875 3.96875 -9.5 4.71875 -10.5625 C 5.46875 -11.632812 6.28125 -12.664062 7.15625 -13.65625 C 8.425781 -15.070312 9.722656 -16.453125 11.046875 -17.796875 C 12.378906 -19.140625 13.8125 -20.359375 15.34375 -21.453125 C 16.9375 -22.554688 18.640625 -23.320312 20.453125 -23.75 C 21.179688 -23.925781 21.835938 -23.847656 22.421875 -23.515625 C 23.015625 -23.179688 23.46875 -22.703125 23.78125 -22.078125 C 24.101562 -21.460938 24.179688 -20.804688 24.015625 -20.109375 C 23.867188 -19.503906 23.65625 -18.929688 23.375 -18.390625 C 23.101562 -17.859375 22.8125 -17.347656 22.5 -16.859375 C 21.863281 -15.910156 21.21875 -14.960938 20.5625 -14.015625 C 19.914062 -13.078125 19.257812 -12.144531 18.59375 -11.21875 C 17.988281 -10.351562 17.429688 -9.460938 16.921875 -8.546875 C 16.421875 -7.640625 15.953125 -6.726562 15.515625 -5.8125 C 15.367188 -5.457031 15.1875 -5.132812 14.96875 -4.84375 C 14.757812 -4.5625 14.625 -4.234375 14.5625 -3.859375 C 14.738281 -3.773438 14.867188 -3.773438 14.953125 -3.859375 C 15.035156 -3.941406 15.125 -4 15.21875 -4.03125 C 15.757812 -4.375 16.296875 -4.734375 16.828125 -5.109375 C 17.367188 -5.484375 17.914062 -5.816406 18.46875 -6.109375 C 18.78125 -6.253906 19.082031 -6.375 19.375 -6.46875 C 19.664062 -6.570312 19.984375 -6.507812 20.328125 -6.28125 C 21.023438 -5.757812 21.359375 -5.066406 21.328125 -4.203125 C 21.296875 -3.941406 21.242188 -3.679688 21.171875 -3.421875 C 21.097656 -3.160156 21.035156 -2.898438 20.984375 -2.640625 C 20.953125 -2.554688 20.925781 -2.46875 20.90625 -2.375 C 20.894531 -2.289062 20.875 -2.207031 20.84375 -2.125 C 20.726562 -1.539062 20.734375 -1.15625 20.859375 -0.96875 C 20.992188 -0.78125 21.378906 -0.6875 22.015625 -0.6875 C 23.003906 -0.664062 23.953125 -0.769531 24.859375 -1 C 25.765625 -1.226562 26.664062 -1.53125 27.5625 -1.90625 C 28.71875 -2.394531 29.820312 -2.960938 30.875 -3.609375 C 31.9375 -4.265625 33 -4.910156 34.0625 -5.546875 C 34.5625 -5.867188 35.0625 -6.179688 35.5625 -6.484375 C 36.070312 -6.785156 36.570312 -7.082031 37.0625 -7.375 C 37.113281 -7.425781 37.195312 -7.484375 37.3125 -7.546875 Z M 37.3125 -7.546875 "/></g></g></g><g fill="#252b39" fill-opacity="1"><g transform="translate(174.145033, 66.316537)"><g><path d="M 13.21875 -12.75 C 13.914062 -12.3125 14.4375 -11.875 14.78125 -11.4375 C 15.125 -11.007812 15.179688 -10.375 14.953125 -9.53125 C 14.660156 -8.550781 14.273438 -7.601562 13.796875 -6.6875 C 13.328125 -5.78125 12.773438 -4.925781 12.140625 -4.125 C 11.554688 -3.363281 10.9375 -2.625 10.28125 -1.90625 C 9.632812 -1.1875 8.984375 -0.492188 8.328125 0.171875 C 8.210938 0.285156 8.109375 0.394531 8.015625 0.5 C 7.929688 0.601562 7.859375 0.753906 7.796875 0.953125 C 9.421875 0.953125 11.023438 0.675781 12.609375 0.125 C 14.203125 -0.414062 15.707031 -1.09375 17.125 -1.90625 C 18.539062 -2.71875 19.8125 -3.535156 20.9375 -4.359375 C 22.0625 -5.179688 22.984375 -5.894531 23.703125 -6.5 C 24.429688 -7.101562 24.878906 -7.453125 25.046875 -7.546875 C 25.285156 -7.660156 25.4375 -7.644531 25.5 -7.5 C 25.570312 -7.351562 25.46875 -7.164062 25.1875 -6.9375 C 23.539062 -5.601562 22.085938 -4.421875 20.828125 -3.390625 C 19.566406 -2.367188 18.335938 -1.488281 17.140625 -0.75 C 15.941406 -0.0195312 14.65625 0.585938 13.28125 1.078125 C 11.90625 1.578125 10.28125 1.953125 8.40625 2.203125 C 7.6875 2.328125 6.953125 2.414062 6.203125 2.46875 C 5.796875 2.5 5.390625 2.660156 4.984375 2.953125 C 4.085938 3.492188 3.171875 3.984375 2.234375 4.421875 C 1.296875 4.859375 0.320312 5.175781 -0.6875 5.375 C -1.039062 5.4375 -1.289062 5.664062 -1.4375 6.0625 C -1.976562 7.832031 -2.5 9.585938 -3 11.328125 C -3.507812 13.078125 -4.054688 14.820312 -4.640625 16.5625 C -5.503906 19.363281 -6.71875 21.992188 -8.28125 24.453125 C -8.6875 25.085938 -9.101562 25.726562 -9.53125 26.375 C -9.96875 27.019531 -10.472656 27.601562 -11.046875 28.125 C -11.191406 28.238281 -11.335938 28.351562 -11.484375 28.46875 C -11.628906 28.59375 -11.789062 28.710938 -11.96875 28.828125 C -12.226562 28.992188 -12.492188 29.101562 -12.765625 29.15625 C -13.035156 29.21875 -13.316406 29.148438 -13.609375 28.953125 C -13.898438 28.722656 -14.148438 28.46875 -14.359375 28.1875 C -14.578125 27.914062 -14.675781 27.59375 -14.65625 27.21875 C -14.625 26.644531 -14.550781 26.085938 -14.4375 25.546875 C -14.320312 25.015625 -14.175781 24.488281 -14 23.96875 C -13.507812 22.664062 -12.992188 21.382812 -12.453125 20.125 C -11.921875 18.875 -11.335938 17.640625 -10.703125 16.421875 C -9.804688 14.691406 -8.875 12.976562 -7.90625 11.28125 C -6.9375 9.59375 -5.976562 7.910156 -5.03125 6.234375 C -4.96875 6.148438 -4.90625 6.0625 -4.84375 5.96875 C -4.789062 5.882812 -4.75 5.800781 -4.71875 5.71875 C -4.550781 5.425781 -4.597656 5.210938 -4.859375 5.078125 C -5.085938 4.929688 -5.300781 4.765625 -5.5 4.578125 C -5.707031 4.390625 -5.894531 4.191406 -6.0625 3.984375 C -6.53125 3.410156 -6.675781 2.8125 -6.5 2.1875 C -6.320312 1.5625 -5.859375 1.179688 -5.109375 1.046875 C -4.878906 1.015625 -4.65625 0.972656 -4.4375 0.921875 C -4.226562 0.878906 -4.019531 0.859375 -3.8125 0.859375 C -3.238281 0.835938 -2.921875 0.789062 -2.859375 0.71875 C -2.804688 0.644531 -2.71875 0.375 -2.59375 -0.09375 C -2.132812 -1.851562 -1.566406 -3.570312 -0.890625 -5.25 C -0.210938 -6.925781 0.53125 -8.554688 1.34375 -10.140625 C 1.976562 -11.441406 2.773438 -12.554688 3.734375 -13.484375 C 3.847656 -13.597656 3.960938 -13.703125 4.078125 -13.796875 C 4.191406 -13.898438 4.304688 -13.984375 4.421875 -14.046875 C 4.765625 -14.242188 5.035156 -14.332031 5.234375 -14.3125 C 5.441406 -14.300781 5.691406 -14.179688 5.984375 -13.953125 C 6.273438 -13.722656 6.382812 -13.503906 6.3125 -13.296875 C 6.238281 -13.097656 6.113281 -12.84375 5.9375 -12.53125 C 5.875 -12.4375 5.613281 -12.050781 5.15625 -11.375 C 4.695312 -10.695312 4.140625 -9.800781 3.484375 -8.6875 C 2.835938 -7.570312 2.160156 -6.3125 1.453125 -4.90625 C 0.742188 -3.507812 0.128906 -2.035156 -0.390625 -0.484375 C -0.359375 -0.484375 -0.113281 -0.832031 0.34375 -1.53125 C 0.8125 -2.238281 1.429688 -3.132812 2.203125 -4.21875 C 2.984375 -5.300781 3.859375 -6.425781 4.828125 -7.59375 C 5.796875 -8.769531 6.785156 -9.828125 7.796875 -10.765625 C 8.804688 -11.703125 9.78125 -12.378906 10.71875 -12.796875 C 11.664062 -13.222656 12.5 -13.207031 13.21875 -12.75 Z M 12.828125 -11.703125 C 12.367188 -11.671875 11.960938 -11.546875 11.609375 -11.328125 C 11.265625 -11.117188 10.9375 -10.910156 10.625 -10.703125 C 9.351562 -9.835938 8.128906 -8.832031 6.953125 -7.6875 C 5.785156 -6.550781 4.738281 -5.441406 3.8125 -4.359375 C 2.882812 -3.273438 2.144531 -2.359375 1.59375 -1.609375 C 1.050781 -0.859375 0.75 -0.4375 0.6875 -0.34375 C 0.601562 -0.226562 0.523438 -0.0859375 0.453125 0.078125 C 0.378906 0.253906 0.316406 0.414062 0.265625 0.5625 C 0.148438 0.851562 0.265625 1.023438 0.609375 1.078125 C 1.796875 1.367188 2.695312 1.410156 3.3125 1.203125 C 3.9375 1.003906 4.65625 0.457031 5.46875 -0.4375 C 6.476562 -1.53125 7.4375 -2.671875 8.34375 -3.859375 C 9.25 -5.046875 10.109375 -6.257812 10.921875 -7.5 C 11.328125 -8.132812 11.707031 -8.789062 12.0625 -9.46875 C 12.425781 -10.144531 12.679688 -10.890625 12.828125 -11.703125 Z M -13.34375 27.171875 C -13.175781 27.234375 -12.925781 27.113281 -12.59375 26.8125 C -12.257812 26.507812 -12.0625 26.34375 -12 26.3125 C -11.082031 25.382812 -10.234375 24.171875 -9.453125 22.671875 C -8.671875 21.171875 -7.960938 19.550781 -7.328125 17.8125 C -6.691406 16.082031 -6.117188 14.390625 -5.609375 12.734375 C -5.109375 11.085938 -4.691406 9.628906 -4.359375 8.359375 C -4.023438 7.085938 -3.785156 6.179688 -3.640625 5.640625 C -3.898438 6.015625 -4.164062 6.488281 -4.4375 7.0625 C -4.71875 7.644531 -4.957031 8.171875 -5.15625 8.640625 C -5.363281 9.117188 -5.492188 9.40625 -5.546875 9.5 C -6.128906 10.5625 -6.710938 11.613281 -7.296875 12.65625 C -7.890625 13.695312 -8.460938 14.765625 -9.015625 15.859375 C -9.734375 17.273438 -10.410156 18.707031 -11.046875 20.15625 C -11.679688 21.601562 -12.25 23.09375 -12.75 24.625 C -12.863281 25.019531 -12.984375 25.4375 -13.109375 25.875 C -13.242188 26.3125 -13.320312 26.742188 -13.34375 27.171875 Z M -3.375 2.34375 C -3.664062 2.375 -4.019531 2.375 -4.4375 2.34375 C -4.863281 2.3125 -5.191406 2.382812 -5.421875 2.5625 C -5.535156 2.675781 -5.59375 2.8125 -5.59375 2.96875 C -5.59375 3.125 -5.578125 3.289062 -5.546875 3.46875 C -5.492188 3.613281 -5.378906 3.785156 -5.203125 3.984375 C -5.023438 4.191406 -4.878906 4.304688 -4.765625 4.328125 C -4.335938 4.421875 -4.039062 4.382812 -3.875 4.21875 C -3.71875 4.0625 -3.582031 3.753906 -3.46875 3.296875 C -3.40625 3.148438 -3.359375 3.003906 -3.328125 2.859375 C -3.304688 2.710938 -3.320312 2.539062 -3.375 2.34375 Z M -0.5625 3.421875 C -0.21875 3.304688 0.0859375 3.195312 0.359375 3.09375 C 0.640625 3 0.910156 2.847656 1.171875 2.640625 C 0.472656 2.410156 0.0390625 2.332031 -0.125 2.40625 C -0.300781 2.476562 -0.445312 2.816406 -0.5625 3.421875 Z M -0.5625 3.421875 "/></g></g></g><g fill="#252b39" fill-opacity="1"><g transform="translate(195.688031, 66.316537)"><g><path d="M 8.328125 1.78125 C 6.390625 2.5 4.75 2.601562 3.40625 2.09375 C 2.0625 1.59375 0.851562 0.476562 -0.21875 -1.25 C -1.289062 -3.039062 -1.460938 -4.921875 -0.734375 -6.890625 C -0.128906 -8.503906 0.769531 -9.8125 1.96875 -10.8125 C 3.164062 -11.8125 4.578125 -12.539062 6.203125 -13 C 6.835938 -13.207031 7.4375 -13.222656 8 -13.046875 C 8.5625 -12.867188 9.101562 -12.59375 9.625 -12.21875 C 10.289062 -11.726562 10.4375 -11.109375 10.0625 -10.359375 C 9.914062 -10.066406 9.753906 -9.835938 9.578125 -9.671875 C 8.941406 -9.054688 8.269531 -8.503906 7.5625 -8.015625 C 6.851562 -7.523438 6.082031 -7.132812 5.25 -6.84375 C 4.40625 -6.582031 3.582031 -6.554688 2.78125 -6.765625 C 2.488281 -6.847656 2.257812 -6.832031 2.09375 -6.71875 C 1.9375 -6.601562 1.800781 -6.429688 1.6875 -6.203125 C 1.132812 -5.015625 0.910156 -3.863281 1.015625 -2.75 C 1.117188 -1.632812 1.578125 -0.546875 2.390625 0.515625 C 2.734375 0.921875 3.128906 1.1875 3.578125 1.3125 C 4.023438 1.445312 4.492188 1.5 4.984375 1.46875 C 5.679688 1.414062 6.347656 1.296875 6.984375 1.109375 C 7.617188 0.921875 8.238281 0.679688 8.84375 0.390625 C 9.394531 0.128906 10.175781 -0.285156 11.1875 -0.859375 C 12.195312 -1.441406 13.363281 -2.09375 14.6875 -2.8125 C 16.019531 -3.539062 17.4375 -4.257812 18.9375 -4.96875 C 20.4375 -5.675781 21.953125 -6.285156 23.484375 -6.796875 C 25.023438 -7.316406 26.5 -7.648438 27.90625 -7.796875 C 28.082031 -7.796875 28.265625 -7.773438 28.453125 -7.734375 C 28.640625 -7.691406 28.789062 -7.523438 28.90625 -7.234375 C 26.882812 -6.972656 24.867188 -6.429688 22.859375 -5.609375 C 20.847656 -4.785156 18.925781 -3.875 17.09375 -2.875 C 15.257812 -1.882812 13.59375 -0.953125 12.09375 -0.078125 C 10.59375 0.785156 9.335938 1.40625 8.328125 1.78125 Z M 8.234375 -11.359375 C 7.710938 -11.390625 7.097656 -11.238281 6.390625 -10.90625 C 5.679688 -10.570312 5.023438 -10.15625 4.421875 -9.65625 C 3.816406 -9.164062 3.398438 -8.664062 3.171875 -8.15625 C 3.742188 -8.09375 4.390625 -8.21875 5.109375 -8.53125 C 5.835938 -8.851562 6.492188 -9.273438 7.078125 -9.796875 C 7.671875 -10.316406 8.054688 -10.835938 8.234375 -11.359375 Z M 8.234375 -11.359375 "/></g></g></g><g fill="#252b39" fill-opacity="1"><g transform="translate(220.482029, 66.316537)"><g><path d="M 31.078125 -7.453125 C 31.335938 -7.628906 31.582031 -7.570312 31.8125 -7.28125 C 31.875 -7.164062 31.875 -7.0625 31.8125 -6.96875 C 31.757812 -6.882812 31.703125 -6.816406 31.640625 -6.765625 C 31.179688 -6.296875 30.691406 -5.832031 30.171875 -5.375 C 29.648438 -4.914062 29.113281 -4.46875 28.5625 -4.03125 C 27.78125 -3.394531 27.003906 -2.765625 26.234375 -2.140625 C 25.472656 -1.523438 24.675781 -0.957031 23.84375 -0.4375 C 22.394531 0.519531 20.875 1.335938 19.28125 2.015625 C 17.695312 2.691406 16.097656 3.320312 14.484375 3.90625 C 13.085938 4.363281 11.6875 4.800781 10.28125 5.21875 C 8.882812 5.632812 7.507812 6.132812 6.15625 6.71875 C 3.125 8.050781 0.476562 9.957031 -1.78125 12.4375 C -2.007812 12.695312 -2.21875 12.984375 -2.40625 13.296875 C -2.59375 13.617188 -2.785156 13.941406 -2.984375 14.265625 C -3.109375 14.460938 -3.226562 14.644531 -3.34375 14.8125 C -3.457031 14.988281 -3.585938 15.164062 -3.734375 15.34375 C -4.078125 15.832031 -4.492188 15.921875 -4.984375 15.609375 C -5.359375 15.398438 -5.445312 15.09375 -5.25 14.6875 C -5.070312 14.34375 -4.859375 14.003906 -4.609375 13.671875 C -4.367188 13.335938 -4.144531 13 -3.9375 12.65625 C -2.875 10.945312 -1.785156 9.253906 -0.671875 7.578125 C 0.441406 5.910156 1.617188 4.28125 2.859375 2.6875 C 4.210938 0.894531 5.648438 -0.804688 7.171875 -2.421875 C 8.691406 -4.046875 10.242188 -5.648438 11.828125 -7.234375 C 11.921875 -7.328125 12.023438 -7.421875 12.140625 -7.515625 C 12.253906 -7.617188 12.328125 -7.769531 12.359375 -7.96875 C 12.035156 -8.03125 11.722656 -8.03125 11.421875 -7.96875 C 11.117188 -7.914062 10.820312 -7.847656 10.53125 -7.765625 C 10.414062 -7.734375 10.289062 -7.691406 10.15625 -7.640625 C 10.03125 -7.597656 9.894531 -7.566406 9.75 -7.546875 C 9.601562 -7.515625 9.457031 -7.523438 9.3125 -7.578125 C 9.175781 -7.640625 9.078125 -7.742188 9.015625 -7.890625 C 8.929688 -8.117188 8.96875 -8.257812 9.125 -8.3125 C 9.28125 -8.375 9.414062 -8.4375 9.53125 -8.5 C 10 -8.695312 10.476562 -8.816406 10.96875 -8.859375 C 11.457031 -8.898438 11.929688 -8.910156 12.390625 -8.890625 C 12.859375 -8.859375 13.265625 -8.925781 13.609375 -9.09375 C 13.953125 -9.269531 14.285156 -9.503906 14.609375 -9.796875 C 15.554688 -10.628906 16.519531 -11.460938 17.5 -12.296875 C 18.488281 -13.140625 19.488281 -13.9375 20.5 -14.6875 C 20.582031 -14.75 20.675781 -14.816406 20.78125 -14.890625 C 20.882812 -14.960938 20.953125 -15.054688 20.984375 -15.171875 C 20.921875 -15.285156 20.832031 -15.3125 20.71875 -15.25 C 19.300781 -14.851562 17.875 -14.609375 16.4375 -14.515625 C 15.007812 -14.429688 13.578125 -14.375 12.140625 -14.34375 C 11.390625 -14.34375 10.632812 -14.320312 9.875 -14.28125 C 9.125 -14.238281 8.375 -14.144531 7.625 -14 C 6.820312 -13.820312 6.097656 -13.53125 5.453125 -13.125 C 4.816406 -12.726562 4.226562 -12.238281 3.6875 -11.65625 C 3.570312 -11.539062 3.457031 -11.40625 3.34375 -11.25 C 3.226562 -11.09375 3.140625 -10.894531 3.078125 -10.65625 C 3.046875 -10.226562 2.816406 -10.097656 2.390625 -10.265625 C 1.804688 -10.441406 1.601562 -10.757812 1.78125 -11.21875 C 1.925781 -11.539062 2.097656 -11.832031 2.296875 -12.09375 C 2.492188 -12.351562 2.710938 -12.597656 2.953125 -12.828125 C 3.585938 -13.429688 4.269531 -13.914062 5 -14.28125 C 5.738281 -14.644531 6.53125 -14.898438 7.375 -15.046875 C 8.175781 -15.179688 8.984375 -15.25 9.796875 -15.25 C 10.609375 -15.25 11.414062 -15.265625 12.21875 -15.296875 C 14.007812 -15.359375 15.78125 -15.53125 17.53125 -15.8125 C 19.28125 -16.101562 21.019531 -16.46875 22.75 -16.90625 C 22.863281 -16.9375 22.972656 -16.960938 23.078125 -16.984375 C 23.179688 -17.015625 23.289062 -17.03125 23.40625 -17.03125 C 23.84375 -17.09375 24.160156 -16.945312 24.359375 -16.59375 C 24.554688 -16.363281 24.640625 -16.179688 24.609375 -16.046875 C 24.585938 -15.921875 24.460938 -15.757812 24.234375 -15.5625 C 23.421875 -14.957031 22.613281 -14.347656 21.8125 -13.734375 C 21.019531 -13.128906 20.238281 -12.507812 19.46875 -11.875 C 18.914062 -11.414062 18.359375 -10.945312 17.796875 -10.46875 C 17.234375 -9.988281 16.660156 -9.503906 16.078125 -9.015625 C 16.484375 -8.722656 16.910156 -8.597656 17.359375 -8.640625 C 17.804688 -8.691406 18.175781 -8.539062 18.46875 -8.1875 C 18.4375 -8.019531 18.351562 -7.941406 18.21875 -7.953125 C 18.09375 -7.960938 17.988281 -7.96875 17.90625 -7.96875 C 17.4375 -8 16.957031 -8.050781 16.46875 -8.125 C 15.976562 -8.195312 15.515625 -8.144531 15.078125 -7.96875 C 14.679688 -7.800781 14.320312 -7.539062 14 -7.1875 C 13.675781 -6.84375 13.359375 -6.515625 13.046875 -6.203125 C 10.960938 -4.179688 8.96875 -2.082031 7.0625 0.09375 C 5.15625 2.28125 3.363281 4.578125 1.6875 6.984375 C 1.570312 7.148438 1.5 7.289062 1.46875 7.40625 C 1.46875 7.40625 1.46875 7.476562 1.46875 7.625 C 1.789062 7.476562 2.09375 7.316406 2.375 7.140625 C 2.664062 6.972656 2.957031 6.816406 3.25 6.671875 C 4.4375 6.003906 5.664062 5.46875 6.9375 5.0625 C 8.207031 4.664062 9.492188 4.28125 10.796875 3.90625 C 12.785156 3.320312 14.753906 2.664062 16.703125 1.9375 C 18.660156 1.21875 20.519531 0.3125 22.28125 -0.78125 C 23.289062 -1.351562 24.25 -1.976562 25.15625 -2.65625 C 26.070312 -3.34375 26.960938 -4.046875 27.828125 -4.765625 C 28.722656 -5.484375 29.617188 -6.25 30.515625 -7.0625 C 30.597656 -7.125 30.679688 -7.195312 30.765625 -7.28125 C 30.859375 -7.363281 30.960938 -7.421875 31.078125 -7.453125 Z M 31.078125 -7.453125 "/></g></g></g><g fill="#252b39" fill-opacity="1"><g transform="translate(247.87685, 66.316537)"><g><path d="M 2.6875 -3.859375 C 2.6875 -3.859375 2.6875 -3.84375 2.6875 -3.8125 C 2.6875 -3.78125 2.671875 -3.722656 2.640625 -3.640625 C 2.640625 -3.640625 3.066406 -3.625 3.921875 -3.59375 C 4.773438 -3.5625 6.039062 -3.707031 7.71875 -4.03125 C 7.914062 -4.09375 8.335938 -4.21875 8.984375 -4.40625 C 9.640625 -4.59375 10.398438 -4.84375 11.265625 -5.15625 C 12.128906 -5.476562 13.023438 -5.832031 13.953125 -6.21875 C 14.878906 -6.613281 15.703125 -7.023438 16.421875 -7.453125 C 16.597656 -7.566406 16.757812 -7.59375 16.90625 -7.53125 C 17.050781 -7.476562 17.148438 -7.4375 17.203125 -7.40625 C 15.242188 -6.195312 13.273438 -5.203125 11.296875 -4.421875 C 9.316406 -3.640625 7.523438 -3.125 5.921875 -2.875 C 4.316406 -2.632812 3.09375 -2.671875 2.25 -2.984375 C 2.050781 -3.015625 1.863281 -2.945312 1.6875 -2.78125 C 1.425781 -2.519531 1.148438 -2.28125 0.859375 -2.0625 C 0.578125 -1.84375 0.289062 -1.617188 0 -1.390625 C -0.0625 -1.359375 -0.117188 -1.320312 -0.171875 -1.28125 C -0.234375 -1.238281 -0.289062 -1.203125 -0.34375 -1.171875 C -0.894531 -0.828125 -1.421875 -0.796875 -1.921875 -1.078125 C -2.429688 -1.367188 -2.703125 -1.847656 -2.734375 -2.515625 C -2.734375 -2.921875 -2.675781 -3.3125 -2.5625 -3.6875 C -2.445312 -4.0625 -2.285156 -4.421875 -2.078125 -4.765625 C -1.878906 -5.109375 -1.894531 -5.457031 -2.125 -5.8125 C -2.820312 -6.875 -3.140625 -8.070312 -3.078125 -9.40625 C -3.046875 -9.8125 -2.953125 -10.203125 -2.796875 -10.578125 C -2.640625 -10.953125 -2.429688 -11.296875 -2.171875 -11.609375 C -1.160156 -12.910156 0.171875 -13.675781 1.828125 -13.90625 C 2.804688 -14.050781 3.640625 -13.84375 4.328125 -13.28125 C 5.023438 -12.71875 5.429688 -11.945312 5.546875 -10.96875 C 5.609375 -10.332031 5.578125 -9.722656 5.453125 -9.140625 C 5.335938 -8.566406 5.164062 -7.988281 4.9375 -7.40625 C 4.675781 -6.769531 4.378906 -6.175781 4.046875 -5.625 C 3.710938 -5.082031 3.300781 -4.566406 2.8125 -4.078125 C 2.789062 -4.046875 2.769531 -4.015625 2.75 -3.984375 C 2.738281 -3.953125 2.71875 -3.910156 2.6875 -3.859375 Z M 0.390625 -3.203125 C 0.503906 -3.316406 0.488281 -3.429688 0.34375 -3.546875 C 0.226562 -3.609375 0.113281 -3.675781 0 -3.75 C -0.113281 -3.820312 -0.226562 -3.882812 -0.34375 -3.9375 C -0.550781 -4.082031 -0.710938 -4.054688 -0.828125 -3.859375 C -1.109375 -3.335938 -1.320312 -2.785156 -1.46875 -2.203125 C -1.5 -2.085938 -1.488281 -1.988281 -1.4375 -1.90625 C -1.03125 -2.019531 -0.6875 -2.191406 -0.40625 -2.421875 C -0.132812 -2.660156 0.128906 -2.921875 0.390625 -3.203125 Z M 1.515625 -4.46875 C 2.097656 -5.101562 2.550781 -5.800781 2.875 -6.5625 C 3.207031 -7.332031 3.460938 -8.117188 3.640625 -8.921875 C 3.867188 -9.960938 3.847656 -10.722656 3.578125 -11.203125 C 3.304688 -11.679688 3.003906 -11.984375 2.671875 -12.109375 C 2.335938 -12.242188 2.171875 -12.3125 2.171875 -12.3125 C 1.359375 -12.363281 0.632812 -12.171875 0 -11.734375 C -0.632812 -11.304688 -1.128906 -10.753906 -1.484375 -10.078125 C -1.847656 -9.398438 -2.035156 -8.691406 -2.046875 -7.953125 C -2.066406 -7.210938 -1.863281 -6.554688 -1.4375 -5.984375 C -1.289062 -6.210938 -1.132812 -6.421875 -0.96875 -6.609375 C -0.8125 -6.796875 -0.675781 -6.976562 -0.5625 -7.15625 C -0.21875 -7.644531 0.195312 -8.046875 0.6875 -8.359375 C 1.207031 -8.679688 1.671875 -8.550781 2.078125 -7.96875 C 2.222656 -7.769531 2.28125 -7.613281 2.25 -7.5 C 2.21875 -7.382812 2.0625 -7.210938 1.78125 -6.984375 C 1.488281 -6.742188 1.203125 -6.492188 0.921875 -6.234375 C 0.648438 -5.972656 0.398438 -5.6875 0.171875 -5.375 C -0.00390625 -5.113281 -0.09375 -4.953125 -0.09375 -4.890625 C -0.09375 -4.835938 0.179688 -4.664062 0.734375 -4.375 C 0.960938 -4.257812 1.097656 -4.191406 1.140625 -4.171875 C 1.191406 -4.160156 1.242188 -4.171875 1.296875 -4.203125 C 1.359375 -4.234375 1.398438 -4.273438 1.421875 -4.328125 C 1.453125 -4.390625 1.484375 -4.4375 1.515625 -4.46875 Z M 2.390625 -16.6875 C 2.097656 -16.71875 1.847656 -16.753906 1.640625 -16.796875 C 1.441406 -16.835938 1.3125 -16.945312 1.25 -17.125 C 1.195312 -17.269531 1.21875 -17.40625 1.3125 -17.53125 C 1.414062 -17.664062 1.523438 -17.789062 1.640625 -17.90625 C 2.109375 -18.394531 2.578125 -18.875 3.046875 -19.34375 C 3.523438 -19.820312 4.039062 -20.265625 4.59375 -20.671875 C 4.851562 -20.878906 5.132812 -21.023438 5.4375 -21.109375 C 5.738281 -21.191406 6.066406 -21.175781 6.421875 -21.0625 C 7.023438 -20.863281 7.082031 -20.585938 6.59375 -20.234375 C 5.957031 -19.773438 5.351562 -19.269531 4.78125 -18.71875 C 4.21875 -18.175781 3.664062 -17.613281 3.125 -17.03125 C 2.832031 -16.738281 2.585938 -16.625 2.390625 -16.6875 Z M 2.390625 -16.6875 "/></g></g></g><g fill="#252b39" fill-opacity="1"><g transform="translate(260.707135, 66.316537)"><g/></g></g><g fill="#252b39" fill-opacity="1"><g transform="translate(274.577731, 66.316537)"><g><path d="M 22.53125 -6.890625 C 19.90625 -5.359375 17.367188 -3.660156 14.921875 -1.796875 C 12.484375 0.0664062 10.023438 1.863281 7.546875 3.59375 C 6.992188 3.96875 6.421875 4.335938 5.828125 4.703125 C 5.234375 5.066406 4.632812 5.40625 4.03125 5.71875 C 2.875 6.269531 1.796875 6.441406 0.796875 6.234375 C -0.191406 6.035156 -0.972656 5.523438 -1.546875 4.703125 C -2.128906 3.878906 -2.410156 2.832031 -2.390625 1.5625 C -2.296875 -0.78125 -1.984375 -3.078125 -1.453125 -5.328125 C -0.921875 -7.585938 -0.207031 -9.785156 0.6875 -11.921875 C 2.25 -15.734375 4.0625 -19.414062 6.125 -22.96875 C 8.195312 -26.519531 10.332031 -30.03125 12.53125 -33.5 C 13.164062 -34.507812 13.800781 -35.515625 14.4375 -36.515625 C 15.070312 -37.515625 15.707031 -38.503906 16.34375 -39.484375 C 16.425781 -39.660156 16.507812 -39.828125 16.59375 -39.984375 C 16.6875 -40.140625 16.53125 -40.25 16.125 -40.3125 C 12.132812 -41.0625 8.140625 -41.566406 4.140625 -41.828125 C 0.140625 -42.085938 -3.882812 -41.898438 -7.9375 -41.265625 C -8.71875 -41.148438 -9.488281 -40.984375 -10.25 -40.765625 C -11.019531 -40.546875 -11.78125 -40.304688 -12.53125 -40.046875 C -13.070312 -39.878906 -13.585938 -39.664062 -14.078125 -39.40625 C -14.578125 -39.144531 -15.03125 -38.8125 -15.4375 -38.40625 C -15.519531 -38.3125 -15.609375 -38.222656 -15.703125 -38.140625 C -15.804688 -38.054688 -15.847656 -37.984375 -15.828125 -37.921875 C -15.734375 -37.429688 -15.796875 -37.203125 -16.015625 -37.234375 C -16.234375 -37.265625 -16.457031 -37.304688 -16.6875 -37.359375 C -17.550781 -37.648438 -17.796875 -38.113281 -17.421875 -38.75 C -17.191406 -39.238281 -16.890625 -39.617188 -16.515625 -39.890625 C -16.140625 -40.171875 -15.734375 -40.425781 -15.296875 -40.65625 C -14.054688 -41.289062 -12.769531 -41.773438 -11.4375 -42.109375 C -10.113281 -42.441406 -8.769531 -42.691406 -7.40625 -42.859375 C -4.40625 -43.265625 -1.425781 -43.394531 1.53125 -43.25 C 4.5 -43.113281 7.472656 -42.796875 10.453125 -42.296875 C 11.460938 -42.128906 12.476562 -41.953125 13.5 -41.765625 C 14.53125 -41.578125 15.5625 -41.367188 16.59375 -41.140625 C 17.09375 -41.046875 17.472656 -41.203125 17.734375 -41.609375 C 18.222656 -42.359375 18.726562 -43.09375 19.25 -43.8125 C 19.769531 -44.539062 20.300781 -45.25 20.84375 -45.9375 C 20.988281 -46.113281 21.144531 -46.28125 21.3125 -46.4375 C 21.488281 -46.601562 21.707031 -46.695312 21.96875 -46.71875 C 22.226562 -46.75 22.484375 -46.726562 22.734375 -46.65625 C 22.984375 -46.582031 23.175781 -46.445312 23.3125 -46.25 C 23.488281 -46.039062 23.519531 -45.835938 23.40625 -45.640625 C 23.289062 -45.441406 23.175781 -45.253906 23.0625 -45.078125 C 22.59375 -44.410156 22.128906 -43.742188 21.671875 -43.078125 C 21.210938 -42.421875 20.75 -41.757812 20.28125 -41.09375 C 20.132812 -40.882812 20.0625 -40.710938 20.0625 -40.578125 C 20.0625 -40.453125 20.222656 -40.347656 20.546875 -40.265625 C 23.546875 -39.691406 26.554688 -39.128906 29.578125 -38.578125 C 32.597656 -38.023438 35.65625 -37.691406 38.75 -37.578125 C 40.539062 -37.523438 42.335938 -37.546875 44.140625 -37.640625 C 45.953125 -37.742188 47.753906 -37.941406 49.546875 -38.234375 C 50.035156 -38.285156 50.503906 -38.398438 50.953125 -38.578125 C 51.398438 -38.753906 51.851562 -38.898438 52.3125 -39.015625 C 52.632812 -39.128906 52.910156 -39.375 53.140625 -39.75 C 53.335938 -40.0625 53.65625 -40.289062 54.09375 -40.4375 C 54.207031 -40.5 54.328125 -40.53125 54.453125 -40.53125 C 54.585938 -40.53125 54.695312 -40.472656 54.78125 -40.359375 C 54.894531 -40.210938 54.894531 -40.101562 54.78125 -40.03125 C 54.664062 -39.957031 54.582031 -39.863281 54.53125 -39.75 C 54.0625 -39.019531 53.492188 -38.472656 52.828125 -38.109375 C 52.171875 -37.753906 51.460938 -37.507812 50.703125 -37.375 C 49.953125 -37.25 49.203125 -37.128906 48.453125 -37.015625 C 44.867188 -36.460938 41.304688 -36.359375 37.765625 -36.703125 C 34.234375 -37.054688 30.703125 -37.550781 27.171875 -38.1875 C 26.015625 -38.414062 24.84375 -38.644531 23.65625 -38.875 C 22.476562 -39.101562 21.296875 -39.335938 20.109375 -39.578125 C 19.878906 -39.628906 19.671875 -39.625 19.484375 -39.5625 C 19.296875 -39.507812 19.113281 -39.367188 18.9375 -39.140625 C 15.53125 -34.054688 12.367188 -28.847656 9.453125 -23.515625 C 6.535156 -18.179688 3.90625 -12.671875 1.5625 -6.984375 C 0.976562 -5.566406 0.515625 -4.09375 0.171875 -2.5625 C -0.171875 -1.03125 -0.429688 0.515625 -0.609375 2.078125 C -0.640625 2.515625 -0.640625 2.945312 -0.609375 3.375 C -0.492188 4.382812 -0.117188 5.078125 0.515625 5.453125 C 1.148438 5.835938 1.929688 5.828125 2.859375 5.421875 C 4.191406 4.804688 5.425781 4.066406 6.5625 3.203125 C 7.707031 2.335938 8.84375 1.472656 9.96875 0.609375 C 11.582031 -0.609375 13.207031 -1.78125 14.84375 -2.90625 C 16.476562 -4.03125 18.132812 -5.128906 19.8125 -6.203125 C 20.070312 -6.367188 20.335938 -6.523438 20.609375 -6.671875 C 20.878906 -6.816406 21.160156 -6.945312 21.453125 -7.0625 C 21.628906 -7.125 21.800781 -7.164062 21.96875 -7.1875 C 22.144531 -7.21875 22.332031 -7.117188 22.53125 -6.890625 Z M 22.53125 -6.890625 "/></g></g></g><g fill="#252b39" fill-opacity="1"><g transform="translate(292.52295, 66.316537)"><g><path d="M 2.6875 -3.859375 C 2.6875 -3.859375 2.6875 -3.84375 2.6875 -3.8125 C 2.6875 -3.78125 2.671875 -3.722656 2.640625 -3.640625 C 2.640625 -3.640625 3.066406 -3.625 3.921875 -3.59375 C 4.773438 -3.5625 6.039062 -3.707031 7.71875 -4.03125 C 7.914062 -4.09375 8.335938 -4.21875 8.984375 -4.40625 C 9.640625 -4.59375 10.398438 -4.84375 11.265625 -5.15625 C 12.128906 -5.476562 13.023438 -5.832031 13.953125 -6.21875 C 14.878906 -6.613281 15.703125 -7.023438 16.421875 -7.453125 C 16.597656 -7.566406 16.757812 -7.59375 16.90625 -7.53125 C 17.050781 -7.476562 17.148438 -7.4375 17.203125 -7.40625 C 15.242188 -6.195312 13.273438 -5.203125 11.296875 -4.421875 C 9.316406 -3.640625 7.523438 -3.125 5.921875 -2.875 C 4.316406 -2.632812 3.09375 -2.671875 2.25 -2.984375 C 2.050781 -3.015625 1.863281 -2.945312 1.6875 -2.78125 C 1.425781 -2.519531 1.148438 -2.28125 0.859375 -2.0625 C 0.578125 -1.84375 0.289062 -1.617188 0 -1.390625 C -0.0625 -1.359375 -0.117188 -1.320312 -0.171875 -1.28125 C -0.234375 -1.238281 -0.289062 -1.203125 -0.34375 -1.171875 C -0.894531 -0.828125 -1.421875 -0.796875 -1.921875 -1.078125 C -2.429688 -1.367188 -2.703125 -1.847656 -2.734375 -2.515625 C -2.734375 -2.921875 -2.675781 -3.3125 -2.5625 -3.6875 C -2.445312 -4.0625 -2.285156 -4.421875 -2.078125 -4.765625 C -1.878906 -5.109375 -1.894531 -5.457031 -2.125 -5.8125 C -2.820312 -6.875 -3.140625 -8.070312 -3.078125 -9.40625 C -3.046875 -9.8125 -2.953125 -10.203125 -2.796875 -10.578125 C -2.640625 -10.953125 -2.429688 -11.296875 -2.171875 -11.609375 C -1.160156 -12.910156 0.171875 -13.675781 1.828125 -13.90625 C 2.804688 -14.050781 3.640625 -13.84375 4.328125 -13.28125 C 5.023438 -12.71875 5.429688 -11.945312 5.546875 -10.96875 C 5.609375 -10.332031 5.578125 -9.722656 5.453125 -9.140625 C 5.335938 -8.566406 5.164062 -7.988281 4.9375 -7.40625 C 4.675781 -6.769531 4.378906 -6.175781 4.046875 -5.625 C 3.710938 -5.082031 3.300781 -4.566406 2.8125 -4.078125 C 2.789062 -4.046875 2.769531 -4.015625 2.75 -3.984375 C 2.738281 -3.953125 2.71875 -3.910156 2.6875 -3.859375 Z M 0.390625 -3.203125 C 0.503906 -3.316406 0.488281 -3.429688 0.34375 -3.546875 C 0.226562 -3.609375 0.113281 -3.675781 0 -3.75 C -0.113281 -3.820312 -0.226562 -3.882812 -0.34375 -3.9375 C -0.550781 -4.082031 -0.710938 -4.054688 -0.828125 -3.859375 C -1.109375 -3.335938 -1.320312 -2.785156 -1.46875 -2.203125 C -1.5 -2.085938 -1.488281 -1.988281 -1.4375 -1.90625 C -1.03125 -2.019531 -0.6875 -2.191406 -0.40625 -2.421875 C -0.132812 -2.660156 0.128906 -2.921875 0.390625 -3.203125 Z M 1.515625 -4.46875 C 2.097656 -5.101562 2.550781 -5.800781 2.875 -6.5625 C 3.207031 -7.332031 3.460938 -8.117188 3.640625 -8.921875 C 3.867188 -9.960938 3.847656 -10.722656 3.578125 -11.203125 C 3.304688 -11.679688 3.003906 -11.984375 2.671875 -12.109375 C 2.335938 -12.242188 2.171875 -12.3125 2.171875 -12.3125 C 1.359375 -12.363281 0.632812 -12.171875 0 -11.734375 C -0.632812 -11.304688 -1.128906 -10.753906 -1.484375 -10.078125 C -1.847656 -9.398438 -2.035156 -8.691406 -2.046875 -7.953125 C -2.066406 -7.210938 -1.863281 -6.554688 -1.4375 -5.984375 C -1.289062 -6.210938 -1.132812 -6.421875 -0.96875 -6.609375 C -0.8125 -6.796875 -0.675781 -6.976562 -0.5625 -7.15625 C -0.21875 -7.644531 0.195312 -8.046875 0.6875 -8.359375 C 1.207031 -8.679688 1.671875 -8.550781 2.078125 -7.96875 C 2.222656 -7.769531 2.28125 -7.613281 2.25 -7.5 C 2.21875 -7.382812 2.0625 -7.210938 1.78125 -6.984375 C 1.488281 -6.742188 1.203125 -6.492188 0.921875 -6.234375 C 0.648438 -5.972656 0.398438 -5.6875 0.171875 -5.375 C -0.00390625 -5.113281 -0.09375 -4.953125 -0.09375 -4.890625 C -0.09375 -4.835938 0.179688 -4.664062 0.734375 -4.375 C 0.960938 -4.257812 1.097656 -4.191406 1.140625 -4.171875 C 1.191406 -4.160156 1.242188 -4.171875 1.296875 -4.203125 C 1.359375 -4.234375 1.398438 -4.273438 1.421875 -4.328125 C 1.453125 -4.390625 1.484375 -4.4375 1.515625 -4.46875 Z M 1.515625 -4.46875 "/></g></g></g><g fill="#252b39" fill-opacity="1"><g transform="translate(305.353235, 66.316537)"><g><path d="M 0.4375 0.828125 C -0.144531 1.285156 -0.828125 1.441406 -1.609375 1.296875 C -2.148438 1.242188 -2.546875 1.078125 -2.796875 0.796875 C -3.046875 0.523438 -3.179688 0.113281 -3.203125 -0.4375 C -3.234375 -1.15625 -3.15625 -1.847656 -2.96875 -2.515625 C -2.78125 -3.179688 -2.539062 -3.832031 -2.25 -4.46875 C -1.84375 -5.300781 -1.378906 -6.109375 -0.859375 -6.890625 C -0.347656 -7.671875 0.253906 -8.394531 0.953125 -9.0625 C 1.617188 -9.695312 2.347656 -10.171875 3.140625 -10.484375 C 3.929688 -10.804688 4.820312 -10.894531 5.8125 -10.75 C 6.445312 -10.664062 6.992188 -10.460938 7.453125 -10.140625 C 7.742188 -9.992188 7.925781 -9.925781 8 -9.9375 C 8.070312 -9.957031 8.164062 -10.113281 8.28125 -10.40625 C 8.539062 -11.125 8.8125 -11.835938 9.09375 -12.546875 C 9.382812 -13.253906 9.675781 -13.957031 9.96875 -14.65625 C 11.269531 -17.65625 12.785156 -20.523438 14.515625 -23.265625 C 16.253906 -26.015625 18.265625 -28.585938 20.546875 -30.984375 C 21.847656 -32.347656 23.175781 -33.671875 24.53125 -34.953125 C 25.882812 -36.242188 27.328125 -37.421875 28.859375 -38.484375 C 29.816406 -39.148438 30.800781 -39.769531 31.8125 -40.34375 C 32.820312 -40.925781 33.878906 -41.40625 34.984375 -41.78125 C 36.140625 -42.1875 37.28125 -42.378906 38.40625 -42.359375 C 39.53125 -42.347656 40.640625 -42.054688 41.734375 -41.484375 C 42.890625 -40.847656 43.585938 -39.878906 43.828125 -38.578125 C 43.992188 -37.796875 44.0625 -37.015625 44.03125 -36.234375 C 44.007812 -35.453125 43.894531 -34.6875 43.6875 -33.9375 C 43.457031 -32.894531 43.101562 -31.90625 42.625 -30.96875 C 42.144531 -30.03125 41.617188 -29.113281 41.046875 -28.21875 C 39.921875 -26.476562 38.671875 -24.835938 37.296875 -23.296875 C 35.921875 -21.753906 34.484375 -20.257812 32.984375 -18.8125 C 31.648438 -17.539062 30.257812 -16.332031 28.8125 -15.1875 C 27.375 -14.050781 25.875 -12.976562 24.3125 -11.96875 C 23.007812 -11.15625 21.679688 -10.414062 20.328125 -9.75 C 18.972656 -9.082031 17.570312 -8.503906 16.125 -8.015625 C 15.226562 -7.722656 14.320312 -7.488281 13.40625 -7.3125 C 12.5 -7.144531 11.554688 -7.117188 10.578125 -7.234375 C 10.367188 -7.265625 10.1875 -7.25 10.03125 -7.1875 C 9.875 -7.132812 9.765625 -6.992188 9.703125 -6.765625 C 9.066406 -4.566406 8.503906 -2.351562 8.015625 -0.125 C 7.523438 2.09375 7.335938 4.359375 7.453125 6.671875 C 7.515625 7.453125 7.585938 8.21875 7.671875 8.96875 C 7.753906 9.71875 7.941406 10.46875 8.234375 11.21875 C 8.523438 11.882812 8.84375 12.453125 9.1875 12.921875 C 9.789062 13.753906 10.628906 14.039062 11.703125 13.78125 C 13.148438 13.4375 14.476562 12.757812 15.6875 11.75 C 16.695312 10.90625 17.664062 10.019531 18.59375 9.09375 C 19.519531 8.175781 20.429688 7.238281 21.328125 6.28125 C 22.566406 4.925781 23.828125 3.585938 25.109375 2.265625 C 26.398438 0.953125 27.710938 -0.347656 29.046875 -1.640625 C 30.484375 -3.035156 32.023438 -4.257812 33.671875 -5.3125 C 35.328125 -6.363281 37.132812 -7.191406 39.09375 -7.796875 C 39.269531 -7.859375 39.441406 -7.898438 39.609375 -7.921875 C 39.785156 -7.953125 39.972656 -7.882812 40.171875 -7.71875 C 40.085938 -7.570312 39.992188 -7.46875 39.890625 -7.40625 C 39.796875 -7.351562 39.691406 -7.3125 39.578125 -7.28125 C 37.003906 -6.238281 34.65625 -4.90625 32.53125 -3.28125 C 30.40625 -1.664062 28.40625 0.117188 26.53125 2.078125 C 25.257812 3.410156 24 4.753906 22.75 6.109375 C 21.507812 7.472656 20.285156 8.832031 19.078125 10.1875 C 18.523438 10.789062 17.957031 11.367188 17.375 11.921875 C 16.800781 12.472656 16.179688 12.992188 15.515625 13.484375 C 13.867188 14.660156 12.0625 15.109375 10.09375 14.828125 C 9.144531 14.710938 8.335938 14.40625 7.671875 13.90625 C 7.003906 13.414062 6.441406 12.769531 5.984375 11.96875 C 5.546875 11.21875 5.234375 10.441406 5.046875 9.640625 C 4.859375 8.847656 4.738281 8.03125 4.6875 7.1875 C 4.59375 5.632812 4.640625 4.082031 4.828125 2.53125 C 5.015625 0.988281 5.296875 -0.53125 5.671875 -2.03125 C 5.765625 -2.351562 5.847656 -2.65625 5.921875 -2.9375 C 5.992188 -3.226562 6.054688 -3.519531 6.109375 -3.8125 C 6.109375 -3.84375 6.082031 -3.914062 6.03125 -4.03125 C 5.675781 -3.832031 5.367188 -3.59375 5.109375 -3.3125 C 4.847656 -3.039062 4.578125 -2.789062 4.296875 -2.5625 C 3.796875 -2.15625 3.304688 -1.726562 2.828125 -1.28125 C 2.359375 -0.832031 1.878906 -0.390625 1.390625 0.046875 C 1.242188 0.191406 1.082031 0.320312 0.90625 0.4375 C 0.738281 0.550781 0.582031 0.679688 0.4375 0.828125 Z M 10.453125 -8.96875 C 10.273438 -8.507812 10.222656 -8.222656 10.296875 -8.109375 C 10.367188 -7.992188 10.664062 -7.945312 11.1875 -7.96875 C 11.90625 -8 12.601562 -8.097656 13.28125 -8.265625 C 13.957031 -8.441406 14.628906 -8.648438 15.296875 -8.890625 C 17.203125 -9.546875 19.019531 -10.34375 20.75 -11.28125 C 22.488281 -12.226562 24.171875 -13.28125 25.796875 -14.4375 C 27.203125 -15.414062 28.539062 -16.460938 29.8125 -17.578125 C 31.09375 -18.691406 32.3125 -19.851562 33.46875 -21.0625 C 34.789062 -22.425781 36.015625 -23.835938 37.140625 -25.296875 C 38.273438 -26.753906 39.285156 -28.304688 40.171875 -29.953125 C 40.722656 -30.960938 41.171875 -31.992188 41.515625 -33.046875 C 41.867188 -34.097656 42.046875 -35.203125 42.046875 -36.359375 C 42.046875 -36.878906 42.015625 -37.398438 41.953125 -37.921875 C 41.898438 -38.441406 41.753906 -38.945312 41.515625 -39.4375 C 41.234375 -40.164062 40.785156 -40.691406 40.171875 -41.015625 C 39.566406 -41.347656 38.875 -41.457031 38.09375 -41.34375 C 37.488281 -41.257812 36.910156 -41.109375 36.359375 -40.890625 C 35.816406 -40.671875 35.285156 -40.429688 34.765625 -40.171875 C 33.804688 -39.679688 32.894531 -39.132812 32.03125 -38.53125 C 31.164062 -37.925781 30.3125 -37.273438 29.46875 -36.578125 C 27.15625 -34.671875 25.015625 -32.613281 23.046875 -30.40625 C 21.085938 -28.195312 19.285156 -25.847656 17.640625 -23.359375 C 16.140625 -21.109375 14.796875 -18.78125 13.609375 -16.375 C 12.421875 -13.976562 11.367188 -11.507812 10.453125 -8.96875 Z M -1.390625 -0.34375 C -1.390625 -0.257812 -1.394531 -0.164062 -1.40625 -0.0625 C -1.425781 0.0390625 -1.375 0.117188 -1.25 0.171875 C -1.132812 0.234375 -1.035156 0.226562 -0.953125 0.15625 C -0.867188 0.0820312 -0.78125 0.015625 -0.6875 -0.046875 C -0.550781 -0.160156 -0.410156 -0.265625 -0.265625 -0.359375 C -0.117188 -0.460938 0.0078125 -0.570312 0.125 -0.6875 C 1.257812 -1.695312 2.351562 -2.726562 3.40625 -3.78125 C 4.457031 -4.84375 5.5625 -5.863281 6.71875 -6.84375 C 6.976562 -6.988281 7.066406 -7.175781 6.984375 -7.40625 C 6.921875 -7.726562 6.84375 -8.03125 6.75 -8.3125 C 6.664062 -8.601562 6.523438 -8.867188 6.328125 -9.109375 C 6.128906 -9.390625 5.957031 -9.550781 5.8125 -9.59375 C 5.664062 -9.644531 5.429688 -9.613281 5.109375 -9.5 C 4.566406 -9.320312 4.046875 -9.0625 3.546875 -8.71875 C 2.566406 -7.957031 1.738281 -7.097656 1.0625 -6.140625 C 0.382812 -5.191406 -0.195312 -4.171875 -0.6875 -3.078125 C -0.863281 -2.640625 -1.015625 -2.195312 -1.140625 -1.75 C -1.273438 -1.300781 -1.359375 -0.832031 -1.390625 -0.34375 Z M -1.390625 -0.34375 "/></g></g></g><g clip-path="url(#e84b6cb441)"><g fill="#252b39" fill-opacity="1"><g transform="translate(340.983947, 66.316537)"><g><path d="M 2.6875 -3.859375 C 2.6875 -3.859375 2.6875 -3.84375 2.6875 -3.8125 C 2.6875 -3.78125 2.671875 -3.722656 2.640625 -3.640625 C 2.640625 -3.640625 3.066406 -3.625 3.921875 -3.59375 C 4.773438 -3.5625 6.039062 -3.707031 7.71875 -4.03125 C 7.914062 -4.09375 8.335938 -4.21875 8.984375 -4.40625 C 9.640625 -4.59375 10.398438 -4.84375 11.265625 -5.15625 C 12.128906 -5.476562 13.023438 -5.832031 13.953125 -6.21875 C 14.878906 -6.613281 15.703125 -7.023438 16.421875 -7.453125 C 16.597656 -7.566406 16.757812 -7.59375 16.90625 -7.53125 C 17.050781 -7.476562 17.148438 -7.4375 17.203125 -7.40625 C 15.242188 -6.195312 13.273438 -5.203125 11.296875 -4.421875 C 9.316406 -3.640625 7.523438 -3.125 5.921875 -2.875 C 4.316406 -2.632812 3.09375 -2.671875 2.25 -2.984375 C 2.050781 -3.015625 1.863281 -2.945312 1.6875 -2.78125 C 1.425781 -2.519531 1.148438 -2.28125 0.859375 -2.0625 C 0.578125 -1.84375 0.289062 -1.617188 0 -1.390625 C -0.0625 -1.359375 -0.117188 -1.320312 -0.171875 -1.28125 C -0.234375 -1.238281 -0.289062 -1.203125 -0.34375 -1.171875 C -0.894531 -0.828125 -1.421875 -0.796875 -1.921875 -1.078125 C -2.429688 -1.367188 -2.703125 -1.847656 -2.734375 -2.515625 C -2.734375 -2.921875 -2.675781 -3.3125 -2.5625 -3.6875 C -2.445312 -4.0625 -2.285156 -4.421875 -2.078125 -4.765625 C -1.878906 -5.109375 -1.894531 -5.457031 -2.125 -5.8125 C -2.820312 -6.875 -3.140625 -8.070312 -3.078125 -9.40625 C -3.046875 -9.8125 -2.953125 -10.203125 -2.796875 -10.578125 C -2.640625 -10.953125 -2.429688 -11.296875 -2.171875 -11.609375 C -1.160156 -12.910156 0.171875 -13.675781 1.828125 -13.90625 C 2.804688 -14.050781 3.640625 -13.84375 4.328125 -13.28125 C 5.023438 -12.71875 5.429688 -11.945312 5.546875 -10.96875 C 5.609375 -10.332031 5.578125 -9.722656 5.453125 -9.140625 C 5.335938 -8.566406 5.164062 -7.988281 4.9375 -7.40625 C 4.675781 -6.769531 4.378906 -6.175781 4.046875 -5.625 C 3.710938 -5.082031 3.300781 -4.566406 2.8125 -4.078125 C 2.789062 -4.046875 2.769531 -4.015625 2.75 -3.984375 C 2.738281 -3.953125 2.71875 -3.910156 2.6875 -3.859375 Z M 0.390625 -3.203125 C 0.503906 -3.316406 0.488281 -3.429688 0.34375 -3.546875 C 0.226562 -3.609375 0.113281 -3.675781 0 -3.75 C -0.113281 -3.820312 -0.226562 -3.882812 -0.34375 -3.9375 C -0.550781 -4.082031 -0.710938 -4.054688 -0.828125 -3.859375 C -1.109375 -3.335938 -1.320312 -2.785156 -1.46875 -2.203125 C -1.5 -2.085938 -1.488281 -1.988281 -1.4375 -1.90625 C -1.03125 -2.019531 -0.6875 -2.191406 -0.40625 -2.421875 C -0.132812 -2.660156 0.128906 -2.921875 0.390625 -3.203125 Z M 1.515625 -4.46875 C 2.097656 -5.101562 2.550781 -5.800781 2.875 -6.5625 C 3.207031 -7.332031 3.460938 -8.117188 3.640625 -8.921875 C 3.867188 -9.960938 3.847656 -10.722656 3.578125 -11.203125 C 3.304688 -11.679688 3.003906 -11.984375 2.671875 -12.109375 C 2.335938 -12.242188 2.171875 -12.3125 2.171875 -12.3125 C 1.359375 -12.363281 0.632812 -12.171875 0 -11.734375 C -0.632812 -11.304688 -1.128906 -10.753906 -1.484375 -10.078125 C -1.847656 -9.398438 -2.035156 -8.691406 -2.046875 -7.953125 C -2.066406 -7.210938 -1.863281 -6.554688 -1.4375 -5.984375 C -1.289062 -6.210938 -1.132812 -6.421875 -0.96875 -6.609375 C -0.8125 -6.796875 -0.675781 -6.976562 -0.5625 -7.15625 C -0.21875 -7.644531 0.195312 -8.046875 0.6875 -8.359375 C 1.207031 -8.679688 1.671875 -8.550781 2.078125 -7.96875 C 2.222656 -7.769531 2.28125 -7.613281 2.25 -7.5 C 2.21875 -7.382812 2.0625 -7.210938 1.78125 -6.984375 C 1.488281 -6.742188 1.203125 -6.492188 0.921875 -6.234375 C 0.648438 -5.972656 0.398438 -5.6875 0.171875 -5.375 C -0.00390625 -5.113281 -0.09375 -4.953125 -0.09375 -4.890625 C -0.09375 -4.835938 0.179688 -4.664062 0.734375 -4.375 C 0.960938 -4.257812 1.097656 -4.191406 1.140625 -4.171875 C 1.191406 -4.160156 1.242188 -4.171875 1.296875 -4.203125 C 1.359375 -4.234375 1.398438 -4.273438 1.421875 -4.328125 C 1.453125 -4.390625 1.484375 -4.4375 1.515625 -4.46875 Z M 1.515625 -4.46875 "/></g></g></g></g></g></g></g><g clip-path="url(#18c9a31111)"><g clip-path="url(#0b9337ecf7)"><g transform="matrix(1, 0, 0, 1, 4, 30)"><g clip-path="url(#42f8ba9e04)"><g clip-path="url(#896c30be40)"><g clip-path="url(#4b845919a3)"><g clip-path="url(#97e4d36a3b)"><path fill="#252b39" d="M 72.574219 0.351562 C 72.199219 1.039062 72.390625 1.222656 72.089844 1.523438 C 70.335938 3.210938 68.5625 6.4375 67.847656 7.640625 C 56.082031 27.125 27.199219 18.503906 3.210938 40.589844 C 3.003906 40.777344 2.203125 40.976562 2.324219 40.148438 C 5.410156 36.554688 8.886719 32.914062 17.535156 28.429688 C 27.0625 23.476562 49.035156 20.136719 57.183594 15.820312 C 67.75 10.21875 68.261719 1.949219 72.566406 0.371094 Z M 72.574219 0.351562 " fill-opacity="1" fill-rule="evenodd"/></g></g></g></g></g></g></g><g clip-path="url(#981d286022)"><g clip-path="url(#baee073e85)"><g clip-path="url(#cc7bd44b48)"><path fill="#252b39" d="M 395.976562 63.761719 C 396.5 63.792969 396.535156 63.972656 396.816406 63.910156 C 398.410156 63.519531 400.882812 63.671875 401.824219 63.699219 C 417.15625 64.035156 422.667969 44.492188 443.890625 38.808594 C 444.070312 38.757812 444.472656 38.375 443.960938 38.144531 C 440.800781 38.601562 437.472656 39.269531 431.804688 42.570312 C 425.550781 46.207031 415.722656 57.503906 410.328125 60.582031 C 403.328125 64.574219 398.4375 61.882812 395.988281 63.761719 Z M 395.976562 63.761719 " fill-opacity="1" fill-rule="evenodd"/></g></g></g></svg>