<svg xmlns="http://www.w3.org/2000/svg" xmlns:xlink="http://www.w3.org/1999/xlink" width="1024" zoomAndPan="magnify" viewBox="0 0 768 112.499997" height="150" preserveAspectRatio="xMidYMid meet" version="1.0"><defs><g/><clipPath id="65940a2383"><path d="M 213 0 L 556 0 L 556 112.003906 L 213 112.003906 Z M 213 0 " clip-rule="nonzero"/></clipPath><clipPath id="c40be03430"><rect x="0" width="343" y="0" height="113"/></clipPath><clipPath id="609c097261"><path d="M 163 37 L 267 37 L 267 97 L 163 97 Z M 163 37 " clip-rule="nonzero"/></clipPath><clipPath id="9cb5fff7b9"><path d="M 163.675781 86.148438 L 261.289062 37.617188 L 266.609375 48.316406 L 168.992188 96.847656 Z M 163.675781 86.148438 " clip-rule="nonzero"/></clipPath><clipPath id="f5b2432a5b"><path d="M 3 0.753906 L 99 0.753906 L 99 56 L 3 56 Z M 3 0.753906 " clip-rule="nonzero"/></clipPath><clipPath id="7dfbd0ff3d"><path d="M 0.675781 49.148438 L 98.289062 0.617188 L 103.609375 11.316406 L 5.992188 59.847656 Z M 0.675781 49.148438 " clip-rule="nonzero"/></clipPath><clipPath id="e2570b4209"><path d="M 98.46875 0.527344 L 0.851562 49.058594 L 6.171875 59.757812 L 103.789062 11.226562 Z M 98.46875 0.527344 " clip-rule="nonzero"/></clipPath><clipPath id="da2c310a1c"><rect x="0" width="104" y="0" height="60"/></clipPath><clipPath id="cdb88ba6ef"><path d="M 544 66 L 582 66 L 582 77 L 544 77 Z M 544 66 " clip-rule="nonzero"/></clipPath><clipPath id="adfa6b5cf4"><path d="M 544.679688 69.207031 L 581.65625 64.070312 L 582.683594 71.46875 L 545.707031 76.601562 Z M 544.679688 69.207031 " clip-rule="nonzero"/></clipPath><clipPath id="e04d0f6f1a"><path d="M 506.683594 74.484375 L 581.378906 64.109375 L 582.511719 72.246094 L 507.8125 82.621094 Z M 506.683594 74.484375 " clip-rule="nonzero"/></clipPath></defs><g clip-path="url(#65940a2383)"><g transform="matrix(1, 0, 0, 1, 213, 0)"><g clip-path="url(#c40be03430)"><g fill="#252b39" fill-opacity="1"><g transform="translate(1.144608, 81.209911)"><g><path d="M 10.953125 17.40625 C 8.734375 16.351562 6.847656 14.9375 5.296875 13.15625 C 3.753906 11.375 2.570312 9.425781 1.75 7.3125 C 0.9375 5.207031 0.539062 3.085938 0.5625 0.953125 C 0.582031 -1.171875 1.03125 -3.148438 1.90625 -4.984375 C 2.78125 -6.816406 4.117188 -8.320312 5.921875 -9.5 C 8.421875 -11.175781 11.054688 -12.316406 13.828125 -12.921875 C 16.609375 -13.523438 19.484375 -13.726562 22.453125 -13.53125 C 22.878906 -13.53125 23.179688 -13.585938 23.359375 -13.703125 C 23.535156 -13.828125 23.679688 -14.082031 23.796875 -14.46875 C 25.898438 -20.644531 28.289062 -26.691406 30.96875 -32.609375 C 33.644531 -38.535156 36.703125 -44.269531 40.140625 -49.8125 C 42.328125 -53.375 44.710938 -56.785156 47.296875 -60.046875 C 49.878906 -63.304688 52.734375 -66.320312 55.859375 -69.09375 C 56.710938 -69.875 57.617188 -70.585938 58.578125 -71.234375 C 59.535156 -71.878906 60.5625 -72.421875 61.65625 -72.859375 C 63.019531 -73.441406 64.425781 -73.675781 65.875 -73.5625 C 66.03125 -73.5625 66.1875 -73.539062 66.34375 -73.5 C 66.5 -73.457031 66.65625 -73.414062 66.8125 -73.375 C 67.082031 -73.300781 67.332031 -73.1875 67.5625 -73.03125 C 67.800781 -72.875 67.921875 -72.617188 67.921875 -72.265625 C 67.890625 -71.953125 67.765625 -71.707031 67.546875 -71.53125 C 67.328125 -71.351562 67.101562 -71.207031 66.875 -71.09375 C 66.320312 -70.78125 65.875 -70.914062 65.53125 -71.5 C 65.375 -71.8125 65.1875 -71.957031 64.96875 -71.9375 C 64.75 -71.914062 64.523438 -71.847656 64.296875 -71.734375 C 63.085938 -71.191406 61.941406 -70.519531 60.859375 -69.71875 C 59.785156 -68.914062 58.742188 -68.046875 57.734375 -67.109375 C 55.234375 -64.679688 52.925781 -62.097656 50.8125 -59.359375 C 48.707031 -56.628906 46.734375 -53.78125 44.890625 -50.8125 C 42.316406 -46.789062 39.9375 -42.640625 37.75 -38.359375 C 35.5625 -34.078125 33.546875 -29.726562 31.703125 -25.3125 C 31.671875 -25.195312 31.625 -25.070312 31.5625 -24.9375 C 31.5 -24.800781 31.488281 -24.632812 31.53125 -24.4375 C 33.050781 -26.863281 34.894531 -29.550781 37.0625 -32.5 C 39.238281 -35.445312 41.632812 -38.453125 44.25 -41.515625 C 46.863281 -44.585938 49.613281 -47.53125 52.5 -50.34375 C 55.394531 -53.15625 58.316406 -55.613281 61.265625 -57.71875 C 64.222656 -59.832031 67.128906 -61.414062 69.984375 -62.46875 C 72.835938 -63.53125 75.53125 -63.847656 78.0625 -63.421875 C 80.957031 -62.828125 83.175781 -61.414062 84.71875 -59.1875 C 86.257812 -56.96875 87.144531 -54.144531 87.375 -50.71875 C 87.613281 -47.300781 87.234375 -43.492188 86.234375 -39.296875 C 85.242188 -35.097656 83.644531 -30.703125 81.4375 -26.109375 C 79.226562 -21.515625 76.441406 -16.941406 73.078125 -12.390625 C 69.722656 -7.835938 65.816406 -3.53125 61.359375 0.53125 C 61.285156 0.601562 61.1875 0.6875 61.0625 0.78125 C 60.945312 0.882812 60.796875 1.015625 60.609375 1.171875 C 61.660156 1.367188 62.671875 1.4375 63.640625 1.375 C 64.617188 1.320312 65.578125 1.253906 66.515625 1.171875 C 69.484375 0.859375 72.109375 0.273438 74.390625 -0.578125 C 76.679688 -1.441406 78.851562 -2.585938 80.90625 -4.015625 C 82.957031 -5.441406 85.078125 -7.148438 87.265625 -9.140625 C 87.503906 -9.335938 87.757812 -9.59375 88.03125 -9.90625 C 88.300781 -10.21875 88.59375 -10.351562 88.90625 -10.3125 C 89.5 -10.15625 89.617188 -9.882812 89.265625 -9.5 C 87.265625 -7.382812 85.160156 -5.4375 82.953125 -3.65625 C 80.753906 -1.882812 78.375 -0.441406 75.8125 0.671875 C 73.25 1.785156 70.425781 2.460938 67.34375 2.703125 C 66.050781 2.773438 64.75 2.820312 63.4375 2.84375 C 62.132812 2.863281 60.835938 2.796875 59.546875 2.640625 C 59.273438 2.597656 59.050781 2.632812 58.875 2.75 C 58.695312 2.875 58.507812 3.015625 58.3125 3.171875 C 55.769531 5.316406 53.128906 7.304688 50.390625 9.140625 C 47.660156 10.972656 44.789062 12.578125 41.78125 13.953125 C 38.695312 15.398438 35.539062 16.597656 32.3125 17.546875 C 29.09375 18.503906 25.765625 19.125 22.328125 19.40625 C 18.304688 19.75 14.515625 19.082031 10.953125 17.40625 Z M 29.0625 -13.015625 C 29.03125 -12.859375 28.953125 -12.691406 28.828125 -12.515625 C 28.710938 -12.335938 28.851562 -12.191406 29.25 -12.078125 C 31.164062 -11.453125 32.988281 -10.640625 34.71875 -9.640625 C 36.457031 -8.640625 38.226562 -7.671875 40.03125 -6.734375 C 42.570312 -5.367188 45.140625 -4.039062 47.734375 -2.75 C 50.335938 -1.46875 53.0625 -0.429688 55.90625 0.359375 C 56.570312 0.515625 57.117188 0.394531 57.546875 0 C 61.378906 -3.59375 64.914062 -7.410156 68.15625 -11.453125 C 71.40625 -15.503906 74.238281 -19.851562 76.65625 -24.5 C 78.613281 -28.25 80.164062 -32.101562 81.3125 -36.0625 C 82.46875 -40.03125 83.066406 -44.144531 83.109375 -48.40625 C 83.109375 -49.5 83.066406 -50.582031 82.984375 -51.65625 C 82.910156 -52.738281 82.738281 -53.804688 82.46875 -54.859375 C 81.289062 -59.117188 78.867188 -61.441406 75.203125 -61.828125 C 73.128906 -62.023438 70.820312 -61.546875 68.28125 -60.390625 C 65.738281 -59.242188 63.078125 -57.535156 60.296875 -55.265625 C 57.523438 -53.003906 54.710938 -50.316406 51.859375 -47.203125 C 49.015625 -44.097656 46.222656 -40.691406 43.484375 -36.984375 C 40.753906 -33.273438 38.164062 -29.382812 35.71875 -25.3125 C 33.28125 -21.25 31.0625 -17.148438 29.0625 -13.015625 Z M 9.78125 -9.3125 C 7.632812 -8.1875 6.039062 -6.703125 5 -4.859375 C 3.96875 -3.023438 3.441406 -1.035156 3.421875 1.109375 C 3.410156 3.265625 3.832031 5.382812 4.6875 7.46875 C 5.550781 9.5625 6.800781 11.445312 8.4375 13.125 C 10.082031 14.8125 12.054688 16.09375 14.359375 16.96875 C 16.660156 17.84375 19.21875 18.125 22.03125 17.8125 C 28.445312 17.15625 34.378906 15.390625 39.828125 12.515625 C 45.273438 9.640625 50.421875 6.113281 55.265625 1.9375 C 53.742188 1.46875 52.25 1 50.78125 0.53125 C 49.320312 0.0625 47.90625 -0.484375 46.53125 -1.109375 C 45.164062 -1.734375 43.796875 -2.390625 42.421875 -3.078125 C 41.054688 -3.765625 39.691406 -4.4375 38.328125 -5.09375 C 36.722656 -5.914062 35.128906 -6.773438 33.546875 -7.671875 C 31.972656 -8.578125 30.34375 -9.378906 28.65625 -10.078125 C 28.34375 -10.234375 28.097656 -10.28125 27.921875 -10.21875 C 27.742188 -10.164062 27.578125 -9.960938 27.421875 -9.609375 C 26.523438 -7.617188 25.6875 -5.609375 24.90625 -3.578125 C 24.125 -1.546875 23.398438 0.503906 22.734375 2.578125 C 22.503906 3.316406 22.28125 4.078125 22.0625 4.859375 C 21.851562 5.640625 21.53125 6.363281 21.09375 7.03125 C 20.863281 7.425781 20.601562 7.640625 20.3125 7.671875 C 20.019531 7.710938 19.695312 7.695312 19.34375 7.625 C 18.945312 7.539062 18.726562 7.390625 18.6875 7.171875 C 18.65625 6.960938 18.660156 6.722656 18.703125 6.453125 C 18.859375 4.734375 19.09375 3.015625 19.40625 1.296875 C 19.75 -0.773438 20.203125 -2.785156 20.765625 -4.734375 C 21.335938 -6.691406 21.9375 -8.671875 22.5625 -10.671875 C 22.757812 -11.210938 22.816406 -11.539062 22.734375 -11.65625 C 22.660156 -11.78125 22.3125 -11.859375 21.6875 -11.890625 C 17.46875 -12.171875 13.5 -11.3125 9.78125 -9.3125 Z M 9.78125 -9.3125 "/></g></g></g><g fill="#252b39" fill-opacity="1"><g transform="translate(82.963449, 81.209911)"><g><path d="M -4.28125 18.578125 C -5.132812 18.535156 -5.929688 18.234375 -6.671875 17.671875 C -7.421875 17.109375 -7.929688 16.414062 -8.203125 15.59375 C -8.597656 14.300781 -8.734375 13.03125 -8.609375 11.78125 C -8.492188 10.53125 -8.222656 9.300781 -7.796875 8.09375 C -7.242188 6.644531 -6.585938 5.253906 -5.828125 3.921875 C -5.066406 2.597656 -4.257812 1.269531 -3.40625 -0.0625 C -2.9375 -0.800781 -2.46875 -1.550781 -2 -2.3125 C -1.53125 -3.070312 -1.0625 -3.828125 -0.59375 -4.578125 C -0.28125 -5.046875 -0.0234375 -5.53125 0.171875 -6.03125 C 0.367188 -6.539062 0.488281 -7.070312 0.53125 -7.625 C 0.601562 -7.9375 0.597656 -8.207031 0.515625 -8.4375 C 0.441406 -8.675781 0.25 -8.890625 -0.0625 -9.078125 C -0.445312 -9.359375 -0.707031 -9.722656 -0.84375 -10.171875 C -0.988281 -10.617188 -1 -11.078125 -0.875 -11.546875 C -0.601562 -12.679688 0.132812 -13.363281 1.34375 -13.59375 C 2.25 -13.75 3.015625 -13.457031 3.640625 -12.71875 C 3.910156 -12.519531 3.96875 -12.207031 3.8125 -11.78125 C 3.769531 -11.625 3.707031 -11.457031 3.625 -11.28125 C 3.550781 -11.101562 3.457031 -10.976562 3.34375 -10.90625 C 2.832031 -10.46875 2.476562 -10.023438 2.28125 -9.578125 C 2.09375 -9.128906 2.3125 -8.59375 2.9375 -7.96875 C 3.25 -7.695312 3.363281 -7.34375 3.28125 -6.90625 C 3.207031 -6.476562 3.109375 -6.070312 2.984375 -5.6875 C 2.796875 -4.976562 2.535156 -4.3125 2.203125 -3.6875 C 1.867188 -3.0625 1.503906 -2.4375 1.109375 -1.8125 C 0.015625 -0.132812 -1.085938 1.5625 -2.203125 3.28125 C -3.316406 5 -4.320312 6.796875 -5.21875 8.671875 C -5.644531 9.609375 -6.015625 10.566406 -6.328125 11.546875 C -6.640625 12.523438 -6.796875 13.519531 -6.796875 14.53125 C -6.835938 16.0625 -6.476562 17.078125 -5.71875 17.578125 C -4.957031 18.085938 -3.890625 18.03125 -2.515625 17.40625 C -1.972656 17.175781 -1.4375 16.910156 -0.90625 16.609375 C -0.382812 16.316406 0.113281 15.976562 0.59375 15.59375 C 0.707031 15.476562 0.84375 15.390625 1 15.328125 C 1.15625 15.265625 1.3125 15.332031 1.46875 15.53125 C 1.625 15.6875 1.632812 15.820312 1.5 15.9375 C 1.363281 16.0625 1.253906 16.160156 1.171875 16.234375 C 0.785156 16.628906 0.25 17.019531 -0.4375 17.40625 C -1.125 17.800781 -1.816406 18.101562 -2.515625 18.3125 C -3.222656 18.53125 -3.8125 18.617188 -4.28125 18.578125 Z M -4.28125 18.578125 "/></g></g></g><g fill="#252b39" fill-opacity="1"><g transform="translate(93.805778, 81.209911)"><g><path d="M 11.25 2.40625 C 8.632812 3.382812 6.414062 3.53125 4.59375 2.84375 C 2.78125 2.15625 1.148438 0.640625 -0.296875 -1.703125 C -1.742188 -4.117188 -1.976562 -6.65625 -1 -9.3125 C -0.175781 -11.5 1.039062 -13.265625 2.65625 -14.609375 C 4.28125 -15.960938 6.1875 -16.953125 8.375 -17.578125 C 9.238281 -17.859375 10.050781 -17.878906 10.8125 -17.640625 C 11.570312 -17.410156 12.304688 -17.039062 13.015625 -16.53125 C 13.910156 -15.863281 14.101562 -15.019531 13.59375 -14 C 13.394531 -13.613281 13.179688 -13.300781 12.953125 -13.0625 C 12.085938 -12.25 11.175781 -11.507812 10.21875 -10.84375 C 9.269531 -10.175781 8.226562 -9.648438 7.09375 -9.265625 C 5.957031 -8.910156 4.84375 -8.867188 3.75 -9.140625 C 3.363281 -9.253906 3.0625 -9.234375 2.84375 -9.078125 C 2.625 -8.921875 2.4375 -8.6875 2.28125 -8.375 C 1.539062 -6.78125 1.238281 -5.226562 1.375 -3.71875 C 1.507812 -2.21875 2.125 -0.742188 3.21875 0.703125 C 3.6875 1.253906 4.222656 1.613281 4.828125 1.78125 C 5.441406 1.957031 6.078125 2.03125 6.734375 2 C 7.671875 1.914062 8.566406 1.742188 9.421875 1.484375 C 10.285156 1.234375 11.128906 0.914062 11.953125 0.53125 C 12.691406 0.175781 13.742188 -0.390625 15.109375 -1.171875 C 16.484375 -1.953125 18.066406 -2.832031 19.859375 -3.8125 C 21.660156 -4.789062 23.578125 -5.753906 25.609375 -6.703125 C 27.640625 -7.660156 29.691406 -8.488281 31.765625 -9.1875 C 33.835938 -9.894531 35.832031 -10.347656 37.75 -10.546875 C 37.976562 -10.546875 38.21875 -10.515625 38.46875 -10.453125 C 38.726562 -10.398438 38.9375 -10.175781 39.09375 -9.78125 C 36.351562 -9.4375 33.625 -8.707031 30.90625 -7.59375 C 28.195312 -6.476562 25.601562 -5.242188 23.125 -3.890625 C 20.644531 -2.546875 18.382812 -1.285156 16.34375 -0.109375 C 14.3125 1.054688 12.613281 1.894531 11.25 2.40625 Z M 11.140625 -15.359375 C 10.429688 -15.398438 9.597656 -15.191406 8.640625 -14.734375 C 7.679688 -14.285156 6.789062 -13.726562 5.96875 -13.0625 C 5.15625 -12.40625 4.59375 -11.722656 4.28125 -11.015625 C 5.0625 -10.941406 5.9375 -11.117188 6.90625 -11.546875 C 7.882812 -11.972656 8.773438 -12.535156 9.578125 -13.234375 C 10.378906 -13.941406 10.898438 -14.648438 11.140625 -15.359375 Z M 11.140625 -15.359375 "/></g></g></g><g fill="#252b39" fill-opacity="1"><g transform="translate(127.330112, 81.209911)"><g><path d="M 6.921875 5.921875 C 7.265625 4.941406 7.828125 4.082031 8.609375 3.34375 C 9.203125 2.789062 9.546875 2.054688 9.640625 1.140625 C 9.734375 0.222656 9.566406 -0.566406 9.140625 -1.234375 C 8.867188 -1.742188 8.457031 -1.9375 7.90625 -1.8125 C 7.164062 -1.65625 6.441406 -1.476562 5.734375 -1.28125 C 5.035156 -1.09375 4.351562 -0.878906 3.6875 -0.640625 C 2.988281 -0.410156 2.285156 -0.234375 1.578125 -0.109375 C 0.878906 0.00390625 0.15625 -0.015625 -0.59375 -0.171875 C -0.664062 -0.210938 -0.800781 -0.234375 -1 -0.234375 C -3.34375 -0.785156 -4.179688 -2.210938 -3.515625 -4.515625 C -2.691406 -7.171875 -1.460938 -9.628906 0.171875 -11.890625 C 0.722656 -12.640625 1.328125 -13.328125 1.984375 -13.953125 C 2.648438 -14.578125 3.375 -15.125 4.15625 -15.59375 C 4.976562 -16.0625 5.835938 -16.382812 6.734375 -16.5625 C 7.640625 -16.738281 8.5625 -16.726562 9.5 -16.53125 C 11.09375 -16.132812 12.113281 -15.445312 12.5625 -14.46875 C 13.019531 -13.5 13.148438 -12.3125 12.953125 -10.90625 C 12.910156 -10.664062 12.832031 -10.445312 12.71875 -10.25 C 12.601562 -10.0625 12.390625 -9.925781 12.078125 -9.84375 C 11.640625 -9.769531 11.296875 -9.847656 11.046875 -10.078125 C 10.796875 -10.316406 10.6875 -10.6875 10.71875 -11.1875 C 10.800781 -11.65625 10.8125 -12.113281 10.75 -12.5625 C 10.695312 -13.019531 10.570312 -13.441406 10.375 -13.828125 C 10.019531 -14.453125 9.664062 -14.820312 9.3125 -14.9375 C 8.96875 -15.0625 8.460938 -14.96875 7.796875 -14.65625 C 6.816406 -14.1875 5.984375 -13.585938 5.296875 -12.859375 C 4.617188 -12.140625 3.96875 -11.367188 3.34375 -10.546875 C 2.675781 -9.648438 2.085938 -8.691406 1.578125 -7.671875 C 1.078125 -6.660156 0.609375 -5.609375 0.171875 -4.515625 C 0.0546875 -4.203125 -0.0351562 -3.867188 -0.109375 -3.515625 C -0.191406 -3.160156 -0.234375 -2.789062 -0.234375 -2.40625 C -0.191406 -2.007812 -0.101562 -1.753906 0.03125 -1.640625 C 0.164062 -1.523438 0.429688 -1.503906 0.828125 -1.578125 C 1.328125 -1.734375 1.820312 -1.890625 2.3125 -2.046875 C 2.800781 -2.203125 3.300781 -2.359375 3.8125 -2.515625 C 4.164062 -2.640625 4.503906 -2.75 4.828125 -2.84375 C 5.160156 -2.9375 5.503906 -3.046875 5.859375 -3.171875 C 6.054688 -3.203125 6.257812 -3.238281 6.46875 -3.28125 C 6.6875 -3.320312 6.894531 -3.34375 7.09375 -3.34375 C 8.457031 -3.5 9.53125 -3.359375 10.3125 -2.921875 C 11.09375 -2.492188 11.796875 -1.65625 12.421875 -0.40625 C 13.085938 -1 13.734375 -1.566406 14.359375 -2.109375 C 14.984375 -2.660156 15.609375 -3.1875 16.234375 -3.6875 C 16.816406 -4.195312 17.421875 -4.6875 18.046875 -5.15625 C 18.671875 -5.625 19.296875 -6.054688 19.921875 -6.453125 C 20.117188 -6.566406 20.304688 -6.671875 20.484375 -6.765625 C 20.660156 -6.867188 20.828125 -6.957031 20.984375 -7.03125 C 21.179688 -7.113281 21.375 -7.144531 21.5625 -7.125 C 21.757812 -7.101562 21.898438 -6.992188 21.984375 -6.796875 C 22.054688 -6.597656 22.023438 -6.453125 21.890625 -6.359375 C 21.753906 -6.265625 21.628906 -6.175781 21.515625 -6.09375 C 19.867188 -4.925781 18.3125 -3.664062 16.84375 -2.3125 C 15.382812 -0.96875 13.929688 0.390625 12.484375 1.765625 C 12.328125 1.953125 12.160156 2.15625 11.984375 2.375 C 11.804688 2.59375 11.679688 2.835938 11.609375 3.109375 C 11.367188 3.804688 11.035156 4.445312 10.609375 5.03125 C 10.179688 5.625 9.734375 6.210938 9.265625 6.796875 C 9.140625 6.953125 9 7.085938 8.84375 7.203125 C 8.6875 7.328125 8.515625 7.40625 8.328125 7.4375 C 8.046875 7.476562 7.769531 7.507812 7.5 7.53125 C 7.226562 7.550781 6.992188 7.441406 6.796875 7.203125 C 6.597656 7.015625 6.546875 6.800781 6.640625 6.5625 C 6.742188 6.332031 6.835938 6.117188 6.921875 5.921875 Z M 6.921875 5.921875 "/></g></g></g><g fill="#252b39" fill-opacity="1"><g transform="translate(145.322831, 81.209911)"><g><path d="M 6.921875 5.921875 C 7.265625 4.941406 7.828125 4.082031 8.609375 3.34375 C 9.203125 2.789062 9.546875 2.054688 9.640625 1.140625 C 9.734375 0.222656 9.566406 -0.566406 9.140625 -1.234375 C 8.867188 -1.742188 8.457031 -1.9375 7.90625 -1.8125 C 7.164062 -1.65625 6.441406 -1.476562 5.734375 -1.28125 C 5.035156 -1.09375 4.351562 -0.878906 3.6875 -0.640625 C 2.988281 -0.410156 2.285156 -0.234375 1.578125 -0.109375 C 0.878906 0.00390625 0.15625 -0.015625 -0.59375 -0.171875 C -0.664062 -0.210938 -0.800781 -0.234375 -1 -0.234375 C -3.34375 -0.785156 -4.179688 -2.210938 -3.515625 -4.515625 C -2.691406 -7.171875 -1.460938 -9.628906 0.171875 -11.890625 C 0.722656 -12.640625 1.328125 -13.328125 1.984375 -13.953125 C 2.648438 -14.578125 3.375 -15.125 4.15625 -15.59375 C 4.976562 -16.0625 5.835938 -16.382812 6.734375 -16.5625 C 7.640625 -16.738281 8.5625 -16.726562 9.5 -16.53125 C 11.09375 -16.132812 12.113281 -15.445312 12.5625 -14.46875 C 13.019531 -13.5 13.148438 -12.3125 12.953125 -10.90625 C 12.910156 -10.664062 12.832031 -10.445312 12.71875 -10.25 C 12.601562 -10.0625 12.390625 -9.925781 12.078125 -9.84375 C 11.640625 -9.769531 11.296875 -9.847656 11.046875 -10.078125 C 10.796875 -10.316406 10.6875 -10.6875 10.71875 -11.1875 C 10.800781 -11.65625 10.8125 -12.113281 10.75 -12.5625 C 10.695312 -13.019531 10.570312 -13.441406 10.375 -13.828125 C 10.019531 -14.453125 9.664062 -14.820312 9.3125 -14.9375 C 8.96875 -15.0625 8.460938 -14.96875 7.796875 -14.65625 C 6.816406 -14.1875 5.984375 -13.585938 5.296875 -12.859375 C 4.617188 -12.140625 3.96875 -11.367188 3.34375 -10.546875 C 2.675781 -9.648438 2.085938 -8.691406 1.578125 -7.671875 C 1.078125 -6.660156 0.609375 -5.609375 0.171875 -4.515625 C 0.0546875 -4.203125 -0.0351562 -3.867188 -0.109375 -3.515625 C -0.191406 -3.160156 -0.234375 -2.789062 -0.234375 -2.40625 C -0.191406 -2.007812 -0.101562 -1.753906 0.03125 -1.640625 C 0.164062 -1.523438 0.429688 -1.503906 0.828125 -1.578125 C 1.328125 -1.734375 1.820312 -1.890625 2.3125 -2.046875 C 2.800781 -2.203125 3.300781 -2.359375 3.8125 -2.515625 C 4.164062 -2.640625 4.503906 -2.75 4.828125 -2.84375 C 5.160156 -2.9375 5.503906 -3.046875 5.859375 -3.171875 C 6.054688 -3.203125 6.257812 -3.238281 6.46875 -3.28125 C 6.6875 -3.320312 6.894531 -3.34375 7.09375 -3.34375 C 8.457031 -3.5 9.53125 -3.359375 10.3125 -2.921875 C 11.09375 -2.492188 11.796875 -1.65625 12.421875 -0.40625 C 13.085938 -1 13.734375 -1.566406 14.359375 -2.109375 C 14.984375 -2.660156 15.609375 -3.1875 16.234375 -3.6875 C 16.816406 -4.195312 17.421875 -4.6875 18.046875 -5.15625 C 18.671875 -5.625 19.296875 -6.054688 19.921875 -6.453125 C 20.117188 -6.566406 20.304688 -6.671875 20.484375 -6.765625 C 20.660156 -6.867188 20.828125 -6.957031 20.984375 -7.03125 C 21.179688 -7.113281 21.375 -7.144531 21.5625 -7.125 C 21.757812 -7.101562 21.898438 -6.992188 21.984375 -6.796875 C 22.054688 -6.597656 22.023438 -6.453125 21.890625 -6.359375 C 21.753906 -6.265625 21.628906 -6.175781 21.515625 -6.09375 C 19.867188 -4.925781 18.3125 -3.664062 16.84375 -2.3125 C 15.382812 -0.96875 13.929688 0.390625 12.484375 1.765625 C 12.328125 1.953125 12.160156 2.15625 11.984375 2.375 C 11.804688 2.59375 11.679688 2.835938 11.609375 3.109375 C 11.367188 3.804688 11.035156 4.445312 10.609375 5.03125 C 10.179688 5.625 9.734375 6.210938 9.265625 6.796875 C 9.140625 6.953125 9 7.085938 8.84375 7.203125 C 8.6875 7.328125 8.515625 7.40625 8.328125 7.4375 C 8.046875 7.476562 7.769531 7.507812 7.5 7.53125 C 7.226562 7.550781 6.992188 7.441406 6.796875 7.203125 C 6.597656 7.015625 6.546875 6.800781 6.640625 6.5625 C 6.742188 6.332031 6.835938 6.117188 6.921875 5.921875 Z M 6.921875 5.921875 "/></g></g></g><g fill="#252b39" fill-opacity="1"><g transform="translate(163.315564, 81.209911)"><g/></g></g><g fill="#252b39" fill-opacity="1"><g transform="translate(182.070214, 81.209911)"><g><path d="M 3.75 20.984375 C 2.769531 19.617188 2.046875 18.148438 1.578125 16.578125 C 1.109375 15.015625 0.796875 13.394531 0.640625 11.71875 C 0.210938 7.113281 0.398438 2.625 1.203125 -1.75 C 2.003906 -6.132812 3.242188 -10.4375 4.921875 -14.65625 C 7.617188 -21.53125 10.800781 -28.101562 14.46875 -34.375 C 18.144531 -40.644531 22.347656 -46.613281 27.078125 -52.28125 C 29.109375 -54.695312 31.316406 -56.941406 33.703125 -59.015625 C 36.085938 -61.085938 38.6875 -62.867188 41.5 -64.359375 C 42.976562 -65.140625 44.5 -65.722656 46.0625 -66.109375 C 47.625 -66.503906 49.25 -66.523438 50.9375 -66.171875 C 53.59375 -65.617188 55.625 -64.515625 57.03125 -62.859375 C 58.4375 -61.203125 59.394531 -59.101562 59.90625 -56.5625 C 60.375 -54.132812 60.390625 -51.773438 59.953125 -49.484375 C 59.523438 -47.203125 58.800781 -44.988281 57.78125 -42.84375 C 55.632812 -38.3125 52.921875 -34.285156 49.640625 -30.765625 C 46.359375 -27.253906 42.507812 -24.285156 38.09375 -21.859375 C 36.925781 -21.234375 35.707031 -20.734375 34.4375 -20.359375 C 33.164062 -19.992188 31.847656 -19.832031 30.484375 -19.875 C 28.410156 -19.90625 26.707031 -20.800781 25.375 -22.5625 C 25.21875 -22.800781 25.0625 -23.078125 24.90625 -23.390625 C 24.75 -23.703125 24.828125 -23.972656 25.140625 -24.203125 C 25.453125 -24.398438 25.742188 -24.398438 26.015625 -24.203125 C 26.296875 -24.003906 26.53125 -23.769531 26.71875 -23.5 C 26.875 -23.226562 27.03125 -22.972656 27.1875 -22.734375 C 27.5 -22.304688 27.867188 -21.972656 28.296875 -21.734375 C 28.734375 -21.503906 29.242188 -21.410156 29.828125 -21.453125 C 30.921875 -21.566406 31.972656 -21.769531 32.984375 -22.0625 C 34.003906 -22.351562 34.984375 -22.753906 35.921875 -23.265625 C 40.890625 -25.878906 45.0625 -29.179688 48.4375 -33.171875 C 51.820312 -37.160156 54.429688 -41.769531 56.265625 -47 C 56.929688 -48.957031 57.3125 -50.921875 57.40625 -52.890625 C 57.5 -54.867188 57.234375 -56.875 56.609375 -58.90625 C 54.890625 -64.257812 51.414062 -65.921875 46.1875 -63.890625 C 44.1875 -63.140625 42.304688 -62.160156 40.546875 -60.953125 C 38.796875 -59.742188 37.117188 -58.4375 35.515625 -57.03125 C 32.191406 -54.175781 29.210938 -51.03125 26.578125 -47.59375 C 23.941406 -44.15625 21.472656 -40.578125 19.171875 -36.859375 C 16.429688 -32.453125 13.914062 -27.929688 11.625 -23.296875 C 9.34375 -18.671875 7.421875 -13.851562 5.859375 -8.84375 C 5.003906 -6.113281 4.34375 -3.378906 3.875 -0.640625 C 3.40625 2.085938 3.148438 4.664062 3.109375 7.09375 C 3.148438 9.039062 3.238281 10.796875 3.375 12.359375 C 3.507812 13.929688 3.769531 15.4375 4.15625 16.875 C 4.351562 17.625 4.628906 18.347656 4.984375 19.046875 C 5.335938 19.753906 5.726562 20.4375 6.15625 21.09375 C 7.445312 23.09375 9.28125 23.859375 11.65625 23.390625 C 13.570312 22.953125 15.582031 22.039062 17.6875 20.65625 C 19.800781 19.269531 21.972656 17.609375 24.203125 15.671875 C 26.429688 13.742188 28.695312 11.765625 31 9.734375 C 33.3125 7.703125 35.628906 5.804688 37.953125 4.046875 C 40.273438 2.285156 42.578125 0.890625 44.859375 -0.140625 C 47.148438 -1.179688 49.390625 -1.625 51.578125 -1.46875 C 51.773438 -1.425781 51.953125 -1.382812 52.109375 -1.34375 C 52.265625 -1.3125 52.421875 -1.234375 52.578125 -1.109375 C 52.921875 -0.835938 52.878906 -0.664062 52.453125 -0.59375 C 50.191406 -0.75 47.945312 -0.335938 45.71875 0.640625 C 43.488281 1.617188 41.289062 2.957031 39.125 4.65625 C 36.957031 6.351562 34.828125 8.21875 32.734375 10.25 C 30.640625 12.28125 28.566406 14.273438 26.515625 16.234375 C 24.460938 18.191406 22.429688 19.910156 20.421875 21.390625 C 18.410156 22.878906 16.425781 23.9375 14.46875 24.5625 C 12.476562 25.1875 10.492188 25.164062 8.515625 24.5 C 6.546875 23.832031 4.957031 22.660156 3.75 20.984375 Z M 3.75 20.984375 "/></g></g></g><g fill="#252b39" fill-opacity="1"><g transform="translate(237.10436, 81.209911)"><g><path d="M 3.640625 -5.21875 C 3.640625 -5.21875 3.640625 -5.195312 3.640625 -5.15625 C 3.640625 -5.113281 3.617188 -5.035156 3.578125 -4.921875 C 3.578125 -4.921875 4.148438 -4.898438 5.296875 -4.859375 C 6.453125 -4.828125 8.164062 -5.023438 10.4375 -5.453125 C 10.707031 -5.523438 11.28125 -5.6875 12.15625 -5.9375 C 13.039062 -6.195312 14.066406 -6.539062 15.234375 -6.96875 C 16.410156 -7.40625 17.625 -7.882812 18.875 -8.40625 C 20.125 -8.9375 21.238281 -9.492188 22.21875 -10.078125 C 22.445312 -10.234375 22.660156 -10.269531 22.859375 -10.1875 C 23.054688 -10.113281 23.191406 -10.054688 23.265625 -10.015625 C 20.609375 -8.378906 17.941406 -7.03125 15.265625 -5.96875 C 12.585938 -4.914062 10.164062 -4.222656 8 -3.890625 C 5.832031 -3.566406 4.179688 -3.617188 3.046875 -4.046875 C 2.773438 -4.085938 2.519531 -3.988281 2.28125 -3.75 C 1.9375 -3.394531 1.566406 -3.070312 1.171875 -2.78125 C 0.785156 -2.488281 0.394531 -2.1875 0 -1.875 C -0.0820312 -1.832031 -0.160156 -1.78125 -0.234375 -1.71875 C -0.316406 -1.664062 -0.394531 -1.617188 -0.46875 -1.578125 C -1.207031 -1.109375 -1.921875 -1.066406 -2.609375 -1.453125 C -3.296875 -1.847656 -3.65625 -2.5 -3.6875 -3.40625 C -3.6875 -3.945312 -3.609375 -4.472656 -3.453125 -4.984375 C -3.296875 -5.492188 -3.082031 -5.984375 -2.8125 -6.453125 C -2.539062 -6.921875 -2.5625 -7.390625 -2.875 -7.859375 C -3.8125 -9.296875 -4.238281 -10.914062 -4.15625 -12.71875 C -4.125 -13.257812 -4 -13.785156 -3.78125 -14.296875 C -3.5625 -14.804688 -3.28125 -15.273438 -2.9375 -15.703125 C -1.5625 -17.460938 0.238281 -18.5 2.46875 -18.8125 C 3.789062 -19.007812 4.921875 -18.726562 5.859375 -17.96875 C 6.796875 -17.207031 7.34375 -16.160156 7.5 -14.828125 C 7.582031 -13.960938 7.546875 -13.140625 7.390625 -12.359375 C 7.234375 -11.578125 7 -10.796875 6.6875 -10.015625 C 6.332031 -9.160156 5.929688 -8.359375 5.484375 -7.609375 C 5.035156 -6.867188 4.476562 -6.171875 3.8125 -5.515625 C 3.769531 -5.472656 3.738281 -5.429688 3.71875 -5.390625 C 3.695312 -5.347656 3.671875 -5.289062 3.640625 -5.21875 Z M 0.53125 -4.34375 C 0.6875 -4.5 0.664062 -4.65625 0.46875 -4.8125 C 0.3125 -4.882812 0.15625 -4.96875 0 -5.0625 C -0.15625 -5.164062 -0.3125 -5.253906 -0.46875 -5.328125 C -0.738281 -5.523438 -0.953125 -5.488281 -1.109375 -5.21875 C -1.503906 -4.507812 -1.800781 -3.765625 -2 -2.984375 C -2.03125 -2.828125 -2.007812 -2.691406 -1.9375 -2.578125 C -1.382812 -2.734375 -0.921875 -2.96875 -0.546875 -3.28125 C -0.179688 -3.59375 0.175781 -3.945312 0.53125 -4.34375 Z M 2.046875 -6.03125 C 2.828125 -6.894531 3.441406 -7.84375 3.890625 -8.875 C 4.347656 -9.914062 4.691406 -10.984375 4.921875 -12.078125 C 5.234375 -13.484375 5.203125 -14.507812 4.828125 -15.15625 C 4.460938 -15.800781 4.054688 -16.207031 3.609375 -16.375 C 3.160156 -16.550781 2.9375 -16.640625 2.9375 -16.640625 C 1.84375 -16.722656 0.863281 -16.46875 0 -15.875 C -0.863281 -15.289062 -1.535156 -14.539062 -2.015625 -13.625 C -2.503906 -12.707031 -2.757812 -11.75 -2.78125 -10.75 C -2.800781 -9.757812 -2.519531 -8.875 -1.9375 -8.09375 C -1.738281 -8.40625 -1.53125 -8.6875 -1.3125 -8.9375 C -1.101562 -9.1875 -0.921875 -9.429688 -0.765625 -9.671875 C -0.296875 -10.335938 0.269531 -10.882812 0.9375 -11.3125 C 1.644531 -11.738281 2.269531 -11.5625 2.8125 -10.78125 C 3.007812 -10.507812 3.085938 -10.296875 3.046875 -10.140625 C 3.003906 -9.984375 2.789062 -9.75 2.40625 -9.4375 C 2.007812 -9.125 1.625 -8.789062 1.25 -8.4375 C 0.882812 -8.082031 0.546875 -7.691406 0.234375 -7.265625 C -0.00390625 -6.910156 -0.125 -6.691406 -0.125 -6.609375 C -0.125 -6.535156 0.25 -6.304688 1 -5.921875 C 1.3125 -5.765625 1.492188 -5.675781 1.546875 -5.65625 C 1.609375 -5.632812 1.679688 -5.644531 1.765625 -5.6875 C 1.835938 -5.726562 1.894531 -5.785156 1.9375 -5.859375 C 1.976562 -5.941406 2.015625 -6 2.046875 -6.03125 Z M 2.046875 -6.03125 "/></g></g></g><g fill="#252b39" fill-opacity="1"><g transform="translate(254.452404, 81.209911)"><g><path d="M 0.59375 1.109375 C -0.195312 1.734375 -1.117188 1.953125 -2.171875 1.765625 C -2.910156 1.679688 -3.445312 1.453125 -3.78125 1.078125 C -4.113281 0.710938 -4.300781 0.15625 -4.34375 -0.59375 C -4.375 -1.5625 -4.265625 -2.492188 -4.015625 -3.390625 C -3.765625 -4.296875 -3.441406 -5.175781 -3.046875 -6.03125 C -2.503906 -7.164062 -1.878906 -8.257812 -1.171875 -9.3125 C -0.472656 -10.375 0.347656 -11.351562 1.296875 -12.25 C 2.191406 -13.101562 3.175781 -13.742188 4.25 -14.171875 C 5.320312 -14.609375 6.523438 -14.726562 7.859375 -14.53125 C 8.710938 -14.414062 9.453125 -14.144531 10.078125 -13.71875 C 10.472656 -13.519531 10.71875 -13.429688 10.8125 -13.453125 C 10.90625 -13.472656 11.03125 -13.675781 11.1875 -14.0625 C 11.539062 -15.039062 11.910156 -16.007812 12.296875 -16.96875 C 12.691406 -17.925781 13.085938 -18.875 13.484375 -19.8125 C 15.242188 -23.875 17.296875 -27.757812 19.640625 -31.46875 C 21.984375 -35.1875 24.695312 -38.664062 27.78125 -41.90625 C 29.539062 -43.738281 31.335938 -45.523438 33.171875 -47.265625 C 35.003906 -49.003906 36.957031 -50.597656 39.03125 -52.046875 C 40.320312 -52.941406 41.648438 -53.78125 43.015625 -54.5625 C 44.390625 -55.34375 45.816406 -55.988281 47.296875 -56.5 C 48.859375 -57.039062 50.398438 -57.300781 51.921875 -57.28125 C 53.453125 -57.269531 54.957031 -56.875 56.4375 -56.09375 C 58 -55.226562 58.9375 -53.914062 59.25 -52.15625 C 59.488281 -51.101562 59.585938 -50.050781 59.546875 -49 C 59.503906 -47.945312 59.347656 -46.910156 59.078125 -45.890625 C 58.765625 -44.484375 58.285156 -43.144531 57.640625 -41.875 C 56.992188 -40.601562 56.28125 -39.363281 55.5 -38.15625 C 53.976562 -35.8125 52.289062 -33.59375 50.4375 -31.5 C 48.582031 -29.40625 46.640625 -27.382812 44.609375 -25.4375 C 42.804688 -23.71875 40.925781 -22.085938 38.96875 -20.546875 C 37.019531 -19.003906 34.988281 -17.546875 32.875 -16.171875 C 31.125 -15.078125 29.328125 -14.082031 27.484375 -13.1875 C 25.648438 -12.289062 23.753906 -11.507812 21.796875 -10.84375 C 20.585938 -10.445312 19.367188 -10.128906 18.140625 -9.890625 C 16.910156 -9.660156 15.628906 -9.625 14.296875 -9.78125 C 14.023438 -9.820312 13.78125 -9.800781 13.5625 -9.71875 C 13.351562 -9.644531 13.207031 -9.453125 13.125 -9.140625 C 12.269531 -6.171875 11.507812 -3.179688 10.84375 -0.171875 C 10.175781 2.835938 9.921875 5.90625 10.078125 9.03125 C 10.160156 10.082031 10.257812 11.113281 10.375 12.125 C 10.488281 13.144531 10.742188 14.164062 11.140625 15.1875 C 11.523438 16.082031 11.953125 16.84375 12.421875 17.46875 C 13.242188 18.601562 14.378906 18.992188 15.828125 18.640625 C 17.773438 18.171875 19.570312 17.253906 21.21875 15.890625 C 22.582031 14.753906 23.890625 13.5625 25.140625 12.3125 C 26.390625 11.0625 27.617188 9.789062 28.828125 8.5 C 30.515625 6.664062 32.226562 4.859375 33.96875 3.078125 C 35.707031 1.296875 37.472656 -0.472656 39.265625 -2.234375 C 41.222656 -4.109375 43.3125 -5.753906 45.53125 -7.171875 C 47.757812 -8.597656 50.203125 -9.722656 52.859375 -10.546875 C 53.097656 -10.628906 53.332031 -10.6875 53.5625 -10.71875 C 53.800781 -10.757812 54.054688 -10.664062 54.328125 -10.4375 C 54.210938 -10.238281 54.085938 -10.097656 53.953125 -10.015625 C 53.816406 -9.941406 53.671875 -9.882812 53.515625 -9.84375 C 50.035156 -8.4375 46.859375 -6.640625 43.984375 -4.453125 C 41.109375 -2.265625 38.40625 0.15625 35.875 2.8125 C 34.15625 4.613281 32.453125 6.429688 30.765625 8.265625 C 29.085938 10.097656 27.425781 11.929688 25.78125 13.765625 C 25.039062 14.585938 24.28125 15.367188 23.5 16.109375 C 22.71875 16.859375 21.878906 17.566406 20.984375 18.234375 C 18.753906 19.828125 16.3125 20.429688 13.65625 20.046875 C 12.363281 19.890625 11.269531 19.476562 10.375 18.8125 C 9.476562 18.144531 8.71875 17.265625 8.09375 16.171875 C 7.5 15.160156 7.078125 14.113281 6.828125 13.03125 C 6.578125 11.957031 6.410156 10.859375 6.328125 9.734375 C 6.210938 7.617188 6.28125 5.515625 6.53125 3.421875 C 6.789062 1.335938 7.171875 -0.71875 7.671875 -2.75 C 7.796875 -3.1875 7.90625 -3.597656 8 -3.984375 C 8.09375 -4.378906 8.179688 -4.769531 8.265625 -5.15625 C 8.265625 -5.195312 8.222656 -5.296875 8.140625 -5.453125 C 7.671875 -5.179688 7.257812 -4.859375 6.90625 -4.484375 C 6.5625 -4.109375 6.191406 -3.765625 5.796875 -3.453125 C 5.140625 -2.910156 4.488281 -2.335938 3.84375 -1.734375 C 3.195312 -1.128906 2.539062 -0.53125 1.875 0.0625 C 1.675781 0.257812 1.457031 0.4375 1.21875 0.59375 C 0.988281 0.75 0.78125 0.921875 0.59375 1.109375 Z M 14.125 -12.125 C 13.882812 -11.5 13.8125 -11.109375 13.90625 -10.953125 C 14.007812 -10.796875 14.414062 -10.738281 15.125 -10.78125 C 16.101562 -10.820312 17.050781 -10.957031 17.96875 -11.1875 C 18.882812 -11.425781 19.789062 -11.703125 20.6875 -12.015625 C 23.269531 -12.910156 25.734375 -13.992188 28.078125 -15.265625 C 30.421875 -16.535156 32.6875 -17.953125 34.875 -19.515625 C 36.789062 -20.847656 38.609375 -22.265625 40.328125 -23.765625 C 42.046875 -25.265625 43.6875 -26.835938 45.25 -28.484375 C 47.039062 -30.316406 48.695312 -32.21875 50.21875 -34.1875 C 51.75 -36.164062 53.117188 -38.269531 54.328125 -40.5 C 55.066406 -41.863281 55.671875 -43.257812 56.140625 -44.6875 C 56.609375 -46.113281 56.84375 -47.609375 56.84375 -49.171875 C 56.84375 -49.878906 56.800781 -50.582031 56.71875 -51.28125 C 56.644531 -51.988281 56.453125 -52.671875 56.140625 -53.328125 C 55.753906 -54.304688 55.148438 -55.019531 54.328125 -55.46875 C 53.503906 -55.914062 52.566406 -56.0625 51.515625 -55.90625 C 50.691406 -55.789062 49.910156 -55.585938 49.171875 -55.296875 C 48.429688 -55.003906 47.707031 -54.679688 47 -54.328125 C 45.71875 -53.660156 44.488281 -52.914062 43.3125 -52.09375 C 42.132812 -51.28125 40.984375 -50.40625 39.859375 -49.46875 C 36.734375 -46.882812 33.835938 -44.097656 31.171875 -41.109375 C 28.515625 -38.117188 26.078125 -34.945312 23.859375 -31.59375 C 21.828125 -28.539062 20.007812 -25.394531 18.40625 -22.15625 C 16.800781 -18.914062 15.375 -15.570312 14.125 -12.125 Z M -1.875 -0.46875 C -1.875 -0.351562 -1.882812 -0.222656 -1.90625 -0.078125 C -1.925781 0.0546875 -1.859375 0.160156 -1.703125 0.234375 C -1.546875 0.316406 -1.40625 0.304688 -1.28125 0.203125 C -1.164062 0.109375 -1.050781 0.0195312 -0.9375 -0.0625 C -0.738281 -0.21875 -0.539062 -0.363281 -0.34375 -0.5 C -0.15625 -0.632812 0.015625 -0.78125 0.171875 -0.9375 C 1.703125 -2.300781 3.175781 -3.695312 4.59375 -5.125 C 6.019531 -6.550781 7.515625 -7.929688 9.078125 -9.265625 C 9.429688 -9.453125 9.550781 -9.703125 9.4375 -10.015625 C 9.351562 -10.453125 9.253906 -10.863281 9.140625 -11.25 C 9.023438 -11.644531 8.832031 -12 8.5625 -12.3125 C 8.28125 -12.695312 8.039062 -12.914062 7.84375 -12.96875 C 7.65625 -13.03125 7.347656 -12.984375 6.921875 -12.828125 C 6.171875 -12.597656 5.46875 -12.25 4.8125 -11.78125 C 3.476562 -10.757812 2.351562 -9.601562 1.4375 -8.3125 C 0.519531 -7.03125 -0.269531 -5.644531 -0.9375 -4.15625 C -1.175781 -3.570312 -1.378906 -2.976562 -1.546875 -2.375 C -1.722656 -1.769531 -1.832031 -1.132812 -1.875 -0.46875 Z M -1.875 -0.46875 "/></g></g></g><g fill="#252b39" fill-opacity="1"><g transform="translate(302.629179, 81.209911)"><g><path d="M 11.25 2.40625 C 8.632812 3.382812 6.414062 3.53125 4.59375 2.84375 C 2.78125 2.15625 1.148438 0.640625 -0.296875 -1.703125 C -1.742188 -4.117188 -1.976562 -6.65625 -1 -9.3125 C -0.175781 -11.5 1.039062 -13.265625 2.65625 -14.609375 C 4.28125 -15.960938 6.1875 -16.953125 8.375 -17.578125 C 9.238281 -17.859375 10.050781 -17.878906 10.8125 -17.640625 C 11.570312 -17.410156 12.304688 -17.039062 13.015625 -16.53125 C 13.910156 -15.863281 14.101562 -15.019531 13.59375 -14 C 13.394531 -13.613281 13.179688 -13.300781 12.953125 -13.0625 C 12.085938 -12.25 11.175781 -11.507812 10.21875 -10.84375 C 9.269531 -10.175781 8.226562 -9.648438 7.09375 -9.265625 C 5.957031 -8.910156 4.84375 -8.867188 3.75 -9.140625 C 3.363281 -9.253906 3.0625 -9.234375 2.84375 -9.078125 C 2.625 -8.921875 2.4375 -8.6875 2.28125 -8.375 C 1.539062 -6.78125 1.238281 -5.226562 1.375 -3.71875 C 1.507812 -2.21875 2.125 -0.742188 3.21875 0.703125 C 3.6875 1.253906 4.222656 1.613281 4.828125 1.78125 C 5.441406 1.957031 6.078125 2.03125 6.734375 2 C 7.671875 1.914062 8.566406 1.742188 9.421875 1.484375 C 10.285156 1.234375 11.128906 0.914062 11.953125 0.53125 C 12.691406 0.175781 13.742188 -0.390625 15.109375 -1.171875 C 16.484375 -1.953125 18.066406 -2.832031 19.859375 -3.8125 C 21.660156 -4.789062 23.578125 -5.753906 25.609375 -6.703125 C 27.640625 -7.660156 29.691406 -8.488281 31.765625 -9.1875 C 33.835938 -9.894531 35.832031 -10.347656 37.75 -10.546875 C 37.976562 -10.546875 38.21875 -10.515625 38.46875 -10.453125 C 38.726562 -10.398438 38.9375 -10.175781 39.09375 -9.78125 C 36.351562 -9.4375 33.625 -8.707031 30.90625 -7.59375 C 28.195312 -6.476562 25.601562 -5.242188 23.125 -3.890625 C 20.644531 -2.546875 18.382812 -1.285156 16.34375 -0.109375 C 14.3125 1.054688 12.613281 1.894531 11.25 2.40625 Z M 11.140625 -15.359375 C 10.429688 -15.398438 9.597656 -15.191406 8.640625 -14.734375 C 7.679688 -14.285156 6.789062 -13.726562 5.96875 -13.0625 C 5.15625 -12.40625 4.59375 -11.722656 4.28125 -11.015625 C 5.0625 -10.941406 5.9375 -11.117188 6.90625 -11.546875 C 7.882812 -11.972656 8.773438 -12.535156 9.578125 -13.234375 C 10.378906 -13.941406 10.898438 -14.648438 11.140625 -15.359375 Z M 11.140625 -15.359375 "/></g></g></g></g></g></g><g clip-path="url(#609c097261)"><g clip-path="url(#9cb5fff7b9)"><g transform="matrix(1, 0, 0, 1, 163, 37)"><g clip-path="url(#da2c310a1c)"><g clip-path="url(#f5b2432a5b)"><g clip-path="url(#7dfbd0ff3d)"><g clip-path="url(#e2570b4209)"><path fill="#252b39" d="M 98.644531 0.882812 C 98.140625 1.8125 98.398438 2.0625 97.992188 2.46875 C 95.621094 4.75 93.222656 9.113281 92.257812 10.738281 C 76.347656 37.085938 37.292969 25.425781 4.855469 55.292969 C 4.574219 55.546875 3.492188 55.8125 3.65625 54.695312 C 7.828125 49.835938 12.53125 44.910156 24.222656 38.851562 C 37.109375 32.152344 66.816406 27.636719 77.832031 21.800781 C 92.121094 14.222656 92.8125 3.042969 98.636719 0.910156 Z M 98.644531 0.882812 " fill-opacity="1" fill-rule="evenodd"/></g></g></g></g></g></g></g><g clip-path="url(#cdb88ba6ef)"><g clip-path="url(#adfa6b5cf4)"><g clip-path="url(#e04d0f6f1a)"><path fill="#252b39" d="M 506.71875 74.753906 C 507.371094 75.085938 507.320312 75.332031 507.707031 75.402344 C 509.949219 75.78125 513.011719 77.332031 514.195312 77.882812 C 533.515625 86.699219 551.226562 64.855469 581.332031 69.246094 C 581.589844 69.28125 582.3125 69.011719 581.78125 68.4375 C 577.511719 67.292969 572.917969 66.316406 563.898438 67.417969 C 553.949219 68.617188 535.265625 77.605469 526.71875 78.570312 C 515.628906 79.816406 510.882812 73.714844 506.734375 74.765625 Z M 506.71875 74.753906 " fill-opacity="1" fill-rule="evenodd"/></g></g></g></svg>