<svg xmlns="http://www.w3.org/2000/svg" xmlns:xlink="http://www.w3.org/1999/xlink" width="1024" zoomAndPan="magnify" viewBox="0 0 768 149.999998" height="200" preserveAspectRatio="xMidYMid meet" version="1.0"><defs><g/><clipPath id="82ded4e378"><rect x="0" width="358" y="0" height="147"/></clipPath><clipPath id="a060399328"><path d="M 154 31 L 240 31 L 240 77 L 154 77 Z M 154 31 " clip-rule="nonzero"/></clipPath><clipPath id="f4699c179d"><path d="M 154.90625 65.292969 L 234.957031 31.21875 L 239.65625 42.261719 L 159.605469 76.332031 Z M 154.90625 65.292969 " clip-rule="nonzero"/></clipPath><clipPath id="b47eb6ff59"><path d="M 3 0.199219 L 85.761719 0.199219 L 85.761719 41 L 3 41 Z M 3 0.199219 " clip-rule="nonzero"/></clipPath><clipPath id="753a7be4b8"><path d="M 0.90625 34.292969 L 80.957031 0.21875 L 85.65625 11.261719 L 5.605469 45.332031 Z M 0.90625 34.292969 " clip-rule="nonzero"/></clipPath><clipPath id="e11810b8e9"><path d="M 101.84375 -8.671875 L 1.09375 34.210938 L 5.792969 45.253906 L 106.546875 2.371094 Z M 101.84375 -8.671875 " clip-rule="nonzero"/></clipPath><clipPath id="905a7f3462"><rect x="0" width="86" y="0" height="46"/></clipPath><clipPath id="e62330d925"><path d="M 539 57 L 596 57 L 596 81 L 539 81 Z M 539 57 " clip-rule="nonzero"/></clipPath><clipPath id="27656480af"><path d="M 539.332031 71.78125 L 593.96875 53.078125 L 596.886719 61.59375 L 542.246094 80.296875 Z M 539.332031 71.78125 " clip-rule="nonzero"/></clipPath><clipPath id="9b7ff358db"><path d="M 515.769531 79.847656 L 593.824219 53.128906 L 596.738281 61.644531 L 518.683594 88.359375 Z M 515.769531 79.847656 " clip-rule="nonzero"/></clipPath></defs><g transform="matrix(1, 0, 0, 1, 206, -0.000000000000007527)"><g clip-path="url(#82ded4e378)"><g fill="#252b39" fill-opacity="1"><g transform="translate(0.622653, 78.366483)"><g><path d="M 21.3125 15.609375 C 19.269531 16.234375 17.207031 16.613281 15.125 16.75 C 13.050781 16.882812 11.117188 16.695312 9.328125 16.1875 C 7.546875 15.675781 6.035156 14.753906 4.796875 13.421875 C 3.554688 12.085938 2.722656 10.28125 2.296875 8 C 2.253906 7.769531 2.28125 7.566406 2.375 7.390625 C 2.476562 7.210938 2.648438 7.144531 2.890625 7.1875 C 3.203125 7.1875 3.492188 7.300781 3.765625 7.53125 C 4.046875 7.769531 4.1875 8.265625 4.1875 9.015625 C 4.375 10.816406 4.898438 12.195312 5.765625 13.15625 C 6.628906 14.113281 7.71875 14.738281 9.03125 15.03125 C 10.351562 15.332031 11.816406 15.382812 13.421875 15.1875 C 15.035156 14.988281 16.722656 14.65625 18.484375 14.1875 C 21.816406 13.28125 25.050781 12.148438 28.1875 10.796875 C 31.332031 9.441406 34.515625 8.0625 37.734375 6.65625 C 36.554688 5.863281 35.445312 5.066406 34.40625 4.265625 C 33.375 3.460938 32.40625 2.628906 31.5 1.765625 C 29.53125 -0.117188 27.867188 -2.285156 26.515625 -4.734375 C 25.160156 -7.191406 24.160156 -9.773438 23.515625 -12.484375 C 22.867188 -15.191406 22.601562 -17.910156 22.71875 -20.640625 C 22.84375 -23.367188 23.394531 -25.925781 24.375 -28.3125 C 25.976562 -32.320312 28.222656 -35.660156 31.109375 -38.328125 C 33.992188 -40.992188 37.632812 -42.738281 42.03125 -43.5625 C 46.820312 -44.46875 51.257812 -43.664062 55.34375 -41.15625 C 55.582031 -41 55.757812 -40.898438 55.875 -40.859375 C 55.875 -40.816406 55.929688 -40.796875 56.046875 -40.796875 C 56.128906 -40.992188 56.140625 -41.160156 56.078125 -41.296875 C 56.015625 -41.429688 55.96875 -41.582031 55.9375 -41.75 C 55.34375 -43.78125 54.890625 -45.828125 54.578125 -47.890625 C 54.265625 -49.953125 54.285156 -52.046875 54.640625 -54.171875 C 55.109375 -56.910156 55.96875 -59.414062 57.21875 -61.6875 C 58.476562 -63.96875 60.40625 -65.796875 63 -67.171875 C 66.644531 -69.140625 70.410156 -69.21875 74.296875 -67.40625 C 75.554688 -66.820312 76.789062 -65.84375 78 -64.46875 C 79.21875 -63.09375 80.328125 -61.5 81.328125 -59.6875 C 82.335938 -57.882812 83.125 -56.007812 83.6875 -54.0625 C 84.257812 -52.125 84.546875 -50.296875 84.546875 -48.578125 C 84.503906 -48.421875 84.484375 -48.253906 84.484375 -48.078125 C 84.484375 -47.898438 84.445312 -47.710938 84.375 -47.515625 C 84.332031 -47.316406 84.28125 -47.117188 84.21875 -46.921875 C 84.15625 -46.722656 83.96875 -46.625 83.65625 -46.625 C 82.988281 -46.625 82.554688 -46.859375 82.359375 -47.328125 C 82.085938 -48.003906 81.914062 -48.710938 81.84375 -49.453125 C 81.132812 -54.710938 79.109375 -59.421875 75.765625 -63.578125 C 75.734375 -63.617188 75.71875 -63.640625 75.71875 -63.640625 C 75.71875 -63.640625 75.695312 -63.660156 75.65625 -63.703125 C 74.007812 -65.703125 72.257812 -66.828125 70.40625 -67.078125 C 68.5625 -67.335938 66.425781 -66.601562 64 -64.875 C 62.070312 -63.5 60.65625 -61.8125 59.75 -59.8125 C 58.851562 -57.8125 58.25 -55.675781 57.9375 -53.40625 C 57.65625 -51.007812 57.75 -48.671875 58.21875 -46.390625 C 58.695312 -44.117188 59.347656 -41.882812 60.171875 -39.6875 C 60.835938 -38 61.539062 -36.316406 62.28125 -34.640625 C 63.03125 -32.972656 63.78125 -31.316406 64.53125 -29.671875 C 64.601562 -29.472656 64.71875 -29.242188 64.875 -28.984375 C 65.03125 -28.734375 64.992188 -28.507812 64.765625 -28.3125 C 64.484375 -28.125 64.195312 -28.066406 63.90625 -28.140625 C 63.613281 -28.222656 63.332031 -28.359375 63.0625 -28.546875 C 62.707031 -28.742188 62.429688 -29.019531 62.234375 -29.375 C 61.484375 -30.59375 60.710938 -31.78125 59.921875 -32.9375 C 59.140625 -34.09375 58.414062 -35.300781 57.75 -36.5625 C 56.96875 -38.050781 55.898438 -39.1875 54.546875 -39.96875 C 53.191406 -40.757812 51.710938 -41.269531 50.109375 -41.5 C 45.585938 -42.164062 41.640625 -41.597656 38.265625 -39.796875 C 34.890625 -37.992188 31.945312 -35.285156 29.4375 -31.671875 C 27.863281 -29.429688 26.800781 -27.046875 26.25 -24.515625 C 25.707031 -21.984375 25.570312 -19.347656 25.84375 -16.609375 C 26.125 -13.742188 26.691406 -11.003906 27.546875 -8.390625 C 28.410156 -5.773438 29.726562 -3.3125 31.5 -1 C 32.519531 0.332031 33.664062 1.535156 34.9375 2.609375 C 36.21875 3.691406 37.546875 4.6875 38.921875 5.59375 C 39.191406 5.75 39.425781 5.804688 39.625 5.765625 C 39.820312 5.722656 40.035156 5.644531 40.265625 5.53125 C 43.210938 4.15625 46.21875 2.867188 49.28125 1.671875 C 52.34375 0.472656 55.421875 -0.59375 58.515625 -1.53125 C 60.679688 -2.195312 62.84375 -2.765625 65 -3.234375 C 67.15625 -3.703125 69.375 -3.976562 71.65625 -4.0625 C 72.945312 -4.144531 74.207031 -4.054688 75.4375 -3.796875 C 76.675781 -3.546875 77.847656 -3.023438 78.953125 -2.234375 C 80.953125 -0.785156 81.5625 1.097656 80.78125 3.421875 C 80.425781 4.398438 79.941406 5.28125 79.328125 6.0625 C 78.722656 6.84375 78.007812 7.570312 77.1875 8.25 C 75.257812 9.769531 73.195312 10.90625 71 11.65625 C 68.800781 12.40625 66.523438 12.9375 64.171875 13.25 C 60.085938 13.800781 56.140625 13.644531 52.328125 12.78125 C 48.523438 11.914062 44.820312 10.519531 41.21875 8.59375 C 40.707031 8.320312 40.097656 8.320312 39.390625 8.59375 C 36.441406 9.851562 33.472656 11.097656 30.484375 12.328125 C 27.503906 13.566406 24.445312 14.660156 21.3125 15.609375 Z M 52.578125 3.125 C 50.890625 3.75 49.191406 4.421875 47.484375 5.140625 C 45.773438 5.867188 44.019531 6.609375 42.21875 7.359375 C 42.40625 7.441406 42.539062 7.507812 42.625 7.5625 C 42.707031 7.625 42.765625 7.675781 42.796875 7.71875 C 50.097656 11.40625 57.789062 12.265625 65.875 10.296875 C 67.5625 9.867188 69.179688 9.300781 70.734375 8.59375 C 72.285156 7.882812 73.726562 6.984375 75.0625 5.890625 C 76.707031 4.554688 77.671875 2.90625 77.953125 0.9375 C 78.109375 -0.0820312 78.03125 -0.785156 77.71875 -1.171875 C 77.40625 -1.566406 76.738281 -1.820312 75.71875 -1.9375 C 74.96875 -2.019531 74.226562 -2.050781 73.5 -2.03125 C 72.78125 -2.007812 72.046875 -1.960938 71.296875 -1.890625 C 68.035156 -1.609375 64.851562 -0.992188 61.75 -0.046875 C 58.65625 0.890625 55.597656 1.945312 52.578125 3.125 Z M 52.578125 3.125 "/></g></g></g><g fill="#252b39" fill-opacity="1"><g transform="translate(82.451909, 78.366483)"><g><path d="M 26.5 -10.125 C 26.769531 -10.28125 27.0625 -10.382812 27.375 -10.4375 C 27.6875 -10.5 28.039062 -10.394531 28.4375 -10.125 C 25.800781 -8.945312 23.503906 -7.492188 21.546875 -5.765625 C 20.679688 -5.023438 19.835938 -4.25 19.015625 -3.4375 C 18.191406 -2.632812 17.367188 -1.84375 16.546875 -1.0625 C 14.859375 0.582031 13.148438 2.21875 11.421875 3.84375 C 9.691406 5.476562 7.90625 7.039062 6.0625 8.53125 C 5.4375 9.039062 4.804688 9.53125 4.171875 10 C 3.546875 10.476562 2.863281 10.894531 2.125 11.25 C 1.882812 11.320312 1.644531 11.40625 1.40625 11.5 C 1.175781 11.601562 0.941406 11.695312 0.703125 11.78125 C -0.515625 12.09375 -1.632812 12.003906 -2.65625 11.515625 C -3.675781 11.023438 -4.421875 10.191406 -4.890625 9.015625 C -5.429688 7.710938 -5.703125 6.394531 -5.703125 5.0625 C -5.703125 3.21875 -5.515625 1.429688 -5.140625 -0.296875 C -4.773438 -2.023438 -4.296875 -3.734375 -3.703125 -5.421875 C -3.078125 -7.179688 -2.378906 -8.90625 -1.609375 -10.59375 C -0.847656 -12.28125 -0.0351562 -13.953125 0.828125 -15.609375 C 2.078125 -18.148438 3.378906 -20.675781 4.734375 -23.1875 C 6.085938 -25.707031 7.492188 -28.203125 8.953125 -30.671875 C 10.203125 -32.867188 11.492188 -35.035156 12.828125 -37.171875 C 14.171875 -39.316406 15.507812 -41.46875 16.84375 -43.625 C 18.21875 -45.707031 19.609375 -47.757812 21.015625 -49.78125 C 22.429688 -51.800781 23.925781 -53.773438 25.5 -55.703125 C 26.832031 -57.347656 28.179688 -58.960938 29.546875 -60.546875 C 30.921875 -62.140625 32.316406 -63.722656 33.734375 -65.296875 C 33.929688 -65.523438 34.15625 -65.75 34.40625 -65.96875 C 34.664062 -66.1875 34.910156 -66.394531 35.140625 -66.59375 C 35.492188 -66.863281 35.835938 -66.867188 36.171875 -66.609375 C 36.503906 -66.359375 36.757812 -66.003906 36.9375 -65.546875 C 37.113281 -65.097656 37.144531 -64.71875 37.03125 -64.40625 C 36.988281 -63.695312 36.546875 -62.457031 35.703125 -60.6875 C 34.859375 -58.925781 33.707031 -56.789062 32.25 -54.28125 C 30.800781 -51.769531 29.101562 -49.003906 27.15625 -45.984375 C 25.21875 -42.960938 23.101562 -39.832031 20.8125 -36.59375 C 18.519531 -33.351562 16.113281 -30.132812 13.59375 -26.9375 C 11.082031 -23.738281 8.550781 -20.707031 6 -17.84375 L 5.953125 -17.84375 C 5.628906 -17.207031 5.289062 -16.578125 4.9375 -15.953125 C 4.59375 -15.328125 4.257812 -14.679688 3.9375 -14.015625 C 2.882812 -11.972656 1.894531 -9.878906 0.96875 -7.734375 C 0.0507812 -5.597656 -0.78125 -3.410156 -1.53125 -1.171875 C -1.925781 0.117188 -2.289062 1.429688 -2.625 2.765625 C -2.957031 4.097656 -3.101562 5.472656 -3.0625 6.890625 C -3.0625 7.398438 -3.03125 7.898438 -2.96875 8.390625 C -2.914062 8.878906 -2.789062 9.359375 -2.59375 9.828125 C -2.351562 10.335938 -2.125 10.640625 -1.90625 10.734375 C -1.695312 10.835938 -1.316406 10.851562 -0.765625 10.78125 C 0.453125 10.5 1.609375 9.988281 2.703125 9.25 C 4.078125 8.34375 5.351562 7.347656 6.53125 6.265625 C 7.707031 5.191406 8.867188 4.101562 10.015625 3 C 11.503906 1.625 12.984375 0.242188 14.453125 -1.140625 C 15.921875 -2.535156 17.421875 -3.882812 18.953125 -5.1875 C 20.097656 -6.207031 21.304688 -7.117188 22.578125 -7.921875 C 23.847656 -8.722656 25.15625 -9.457031 26.5 -10.125 Z M 10.296875 -25.84375 C 10.023438 -25.332031 9.734375 -24.789062 9.421875 -24.21875 C 9.109375 -23.65625 8.796875 -23.097656 8.484375 -22.546875 C 11.503906 -26.160156 14.601562 -30.144531 17.78125 -34.5 C 20.957031 -38.851562 24 -43.328125 26.90625 -47.921875 C 29.0625 -51.296875 30.835938 -54.207031 32.234375 -56.65625 C 33.628906 -59.113281 34.660156 -61.070312 35.328125 -62.53125 C 34.972656 -62.09375 34.617188 -61.648438 34.265625 -61.203125 C 33.910156 -60.753906 33.554688 -60.3125 33.203125 -59.875 C 31.359375 -57.476562 29.503906 -55.09375 27.640625 -52.71875 C 25.773438 -50.34375 24 -47.898438 22.3125 -45.390625 C 20.195312 -42.171875 18.132812 -38.941406 16.125 -35.703125 C 14.125 -32.460938 12.179688 -29.175781 10.296875 -25.84375 Z M 10.296875 -25.84375 "/></g></g></g><g fill="#252b39" fill-opacity="1"><g transform="translate(103.88021, 78.366483)"><g/></g></g><g fill="#252b39" fill-opacity="1"><g transform="translate(122.718222, 78.366483)"><g><path d="M -1.703125 26.203125 C -2.679688 28.472656 -3.671875 30.785156 -4.671875 33.140625 C -5.679688 35.492188 -6.789062 37.769531 -8 39.96875 C -9.613281 42.957031 -11.34375 45.875 -13.1875 48.71875 C -15.03125 51.5625 -17.171875 54.203125 -19.609375 56.640625 C -20.984375 58.046875 -22.453125 59.328125 -24.015625 60.484375 C -25.585938 61.648438 -27.296875 62.585938 -29.140625 63.296875 C -34.710938 65.492188 -39.972656 64.941406 -44.921875 61.640625 C -46.140625 60.816406 -47.082031 59.816406 -47.75 58.640625 C -48.414062 57.460938 -48.984375 56.226562 -49.453125 54.9375 C -50.203125 52.8125 -50.582031 50.671875 -50.59375 48.515625 C -50.613281 46.359375 -50.390625 44.179688 -49.921875 41.984375 C -49.378906 39.429688 -48.5 37.0625 -47.28125 34.875 C -46.0625 32.695312 -44.644531 30.628906 -43.03125 28.671875 C -40.25 25.335938 -37.160156 22.429688 -33.765625 19.953125 C -30.367188 17.484375 -26.726562 15.347656 -22.84375 13.546875 C -20.132812 12.285156 -17.359375 11.257812 -14.515625 10.46875 C -11.671875 9.6875 -8.753906 9.160156 -5.765625 8.890625 C -4.671875 8.804688 -3.582031 8.773438 -2.5 8.796875 C -1.425781 8.816406 -0.335938 8.867188 0.765625 8.953125 C 1.359375 8.992188 1.722656 8.972656 1.859375 8.890625 C 1.992188 8.804688 2.160156 8.507812 2.359375 8 C 3.648438 4.976562 5.019531 2 6.46875 -0.9375 C 7.925781 -3.882812 9.5 -6.75 11.1875 -9.53125 C 11.382812 -9.851562 11.578125 -10.160156 11.765625 -10.453125 C 11.960938 -10.742188 12.082031 -11.085938 12.125 -11.484375 C 11.414062 -11.085938 10.773438 -10.613281 10.203125 -10.0625 C 9.640625 -9.519531 9.066406 -8.972656 8.484375 -8.421875 C 7.265625 -7.203125 6.046875 -5.960938 4.828125 -4.703125 C 3.609375 -3.453125 2.375 -2.238281 1.125 -1.0625 C 0.6875 -0.664062 0.175781 -0.3125 -0.40625 0 C -1.351562 0.507812 -2.25 0.5 -3.09375 -0.03125 C -3.9375 -0.5625 -4.335938 -1.351562 -4.296875 -2.40625 C -4.296875 -3.3125 -4.140625 -4.164062 -3.828125 -4.96875 C -3.515625 -5.78125 -3.160156 -6.554688 -2.765625 -7.296875 C -0.921875 -10.828125 1.566406 -13.691406 4.703125 -15.890625 C 5.140625 -16.210938 5.59375 -16.476562 6.0625 -16.6875 C 6.53125 -16.90625 7.019531 -17.09375 7.53125 -17.25 C 9.300781 -17.84375 10.988281 -17.550781 12.59375 -16.375 C 12.90625 -16.09375 13.160156 -15.972656 13.359375 -16.015625 C 13.554688 -16.054688 13.796875 -16.175781 14.078125 -16.375 C 14.503906 -16.757812 14.941406 -17.117188 15.390625 -17.453125 C 15.847656 -17.785156 16.3125 -18.109375 16.78125 -18.421875 C 17.132812 -18.660156 17.703125 -18.738281 18.484375 -18.65625 C 19.273438 -18.582031 19.804688 -18.410156 20.078125 -18.140625 C 20.234375 -17.972656 20.289062 -17.832031 20.25 -17.71875 C 20.207031 -17.601562 20.148438 -17.503906 20.078125 -17.421875 C 19.835938 -17.109375 19.585938 -16.796875 19.328125 -16.484375 C 19.078125 -16.171875 18.851562 -15.859375 18.65625 -15.546875 C 17.519531 -13.859375 16.429688 -12.148438 15.390625 -10.421875 C 14.347656 -8.691406 13.359375 -6.925781 12.421875 -5.125 C 11.328125 -3.039062 10.269531 -0.941406 9.25 1.171875 C 8.226562 3.296875 7.222656 5.414062 6.234375 7.53125 C 5.878906 8.28125 5.671875 8.800781 5.609375 9.09375 C 5.554688 9.382812 5.675781 9.5625 5.96875 9.625 C 6.269531 9.6875 6.773438 9.773438 7.484375 9.890625 C 8.660156 10.003906 9.816406 10.25 10.953125 10.625 C 12.085938 11 13.207031 11.398438 14.3125 11.828125 C 14.3125 11.828125 14.390625 11.867188 14.546875 11.953125 C 14.617188 12.023438 14.722656 12.101562 14.859375 12.1875 C 15.003906 12.269531 15.035156 12.390625 14.953125 12.546875 C 14.910156 12.703125 14.820312 12.785156 14.6875 12.796875 C 14.550781 12.816406 14.425781 12.828125 14.3125 12.828125 C 13.757812 12.753906 13.21875 12.6875 12.6875 12.625 C 12.15625 12.570312 11.613281 12.503906 11.0625 12.421875 C 10.164062 12.265625 9.265625 12.109375 8.359375 11.953125 C 7.453125 11.796875 6.550781 11.617188 5.65625 11.421875 C 4.988281 11.265625 4.515625 11.539062 4.234375 12.25 C 3.253906 14.5625 2.273438 16.882812 1.296875 19.21875 C 0.316406 21.550781 -0.679688 23.878906 -1.703125 26.203125 Z M 11.296875 -14.125 C 11.421875 -14.207031 11.53125 -14.296875 11.625 -14.390625 C 11.726562 -14.492188 11.738281 -14.625 11.65625 -14.78125 C 11.539062 -15.050781 11.285156 -15.226562 10.890625 -15.3125 C 10.648438 -15.3125 10.421875 -15.269531 10.203125 -15.1875 C 9.992188 -15.113281 9.789062 -15.035156 9.59375 -14.953125 C 8.726562 -14.554688 7.90625 -14.082031 7.125 -13.53125 C 6.34375 -12.988281 5.617188 -12.382812 4.953125 -11.71875 C 3.691406 -10.582031 2.539062 -9.351562 1.5 -8.03125 C 0.457031 -6.71875 -0.394531 -5.273438 -1.0625 -3.703125 C -1.21875 -3.390625 -1.351562 -3.066406 -1.46875 -2.734375 C -1.59375 -2.398438 -1.613281 -2 -1.53125 -1.53125 C -1.019531 -1.84375 -0.585938 -2.15625 -0.234375 -2.46875 C 0.117188 -2.78125 0.472656 -3.097656 0.828125 -3.421875 C 2.628906 -5.140625 4.351562 -6.941406 6 -8.828125 C 7.65625 -10.710938 9.421875 -12.476562 11.296875 -14.125 Z M -18.3125 50.875 C -16.269531 47.96875 -14.40625 44.929688 -12.71875 41.765625 C -11.03125 38.609375 -9.457031 35.421875 -8 32.203125 C -6.75 29.378906 -5.503906 26.535156 -4.265625 23.671875 C -3.023438 20.804688 -1.800781 17.941406 -0.59375 15.078125 C -0.351562 14.523438 -0.117188 13.972656 0.109375 13.421875 C 0.347656 12.867188 0.585938 12.320312 0.828125 11.78125 C 0.984375 11.425781 1.019531 11.1875 0.9375 11.0625 C 0.863281 10.945312 0.628906 10.867188 0.234375 10.828125 C -0.347656 10.753906 -0.929688 10.71875 -1.515625 10.71875 C -2.109375 10.71875 -2.722656 10.738281 -3.359375 10.78125 C -6.378906 10.8125 -9.320312 11.21875 -12.1875 12 C -15.050781 12.789062 -17.859375 13.816406 -20.609375 15.078125 C -24.609375 16.835938 -28.351562 18.953125 -31.84375 21.421875 C -35.34375 23.898438 -38.503906 26.847656 -41.328125 30.265625 C -43.484375 32.890625 -45.191406 35.703125 -46.453125 38.703125 C -47.710938 41.710938 -48.359375 44.960938 -48.390625 48.453125 C -48.515625 51.242188 -47.945312 53.953125 -46.6875 56.578125 C -46.257812 57.554688 -45.75 58.488281 -45.15625 59.375 C -44.570312 60.257812 -43.785156 60.992188 -42.796875 61.578125 C -40.835938 62.753906 -38.660156 63.304688 -36.265625 63.234375 C -34.460938 63.148438 -32.765625 62.796875 -31.171875 62.171875 C -29.585938 61.546875 -28.085938 60.703125 -26.671875 59.640625 C -25.023438 58.421875 -23.515625 57.078125 -22.140625 55.609375 C -20.765625 54.140625 -19.488281 52.5625 -18.3125 50.875 Z M -18.3125 50.875 "/></g></g></g><g fill="#252b39" fill-opacity="1"><g transform="translate(145.088451, 78.366483)"><g><path d="M -4.296875 18.65625 C -5.160156 18.625 -5.960938 18.320312 -6.703125 17.75 C -7.453125 17.175781 -7.96875 16.476562 -8.25 15.65625 C -8.632812 14.363281 -8.769531 13.085938 -8.65625 11.828125 C -8.539062 10.578125 -8.265625 9.34375 -7.828125 8.125 C -7.273438 6.675781 -6.613281 5.28125 -5.84375 3.9375 C -5.082031 2.601562 -4.273438 1.269531 -3.421875 -0.0625 C -2.941406 -0.800781 -2.46875 -1.550781 -2 -2.3125 C -1.53125 -3.082031 -1.0625 -3.84375 -0.59375 -4.59375 C -0.28125 -5.0625 -0.0234375 -5.550781 0.171875 -6.0625 C 0.367188 -6.570312 0.488281 -7.101562 0.53125 -7.65625 C 0.601562 -7.96875 0.597656 -8.238281 0.515625 -8.46875 C 0.441406 -8.707031 0.25 -8.925781 -0.0625 -9.125 C -0.445312 -9.394531 -0.707031 -9.753906 -0.84375 -10.203125 C -0.988281 -10.660156 -1.003906 -11.125 -0.890625 -11.59375 C -0.609375 -12.738281 0.140625 -13.425781 1.359375 -13.65625 C 2.253906 -13.8125 3.019531 -13.519531 3.65625 -12.78125 C 3.925781 -12.582031 3.984375 -12.265625 3.828125 -11.828125 C 3.785156 -11.671875 3.722656 -11.503906 3.640625 -11.328125 C 3.566406 -11.148438 3.472656 -11.023438 3.359375 -10.953125 C 2.847656 -10.515625 2.492188 -10.070312 2.296875 -9.625 C 2.097656 -9.175781 2.3125 -8.632812 2.9375 -8 C 3.257812 -7.726562 3.378906 -7.375 3.296875 -6.9375 C 3.210938 -6.507812 3.113281 -6.097656 3 -5.703125 C 2.800781 -5.003906 2.535156 -4.335938 2.203125 -3.703125 C 1.867188 -3.078125 1.507812 -2.453125 1.125 -1.828125 C 0.0195312 -0.140625 -1.085938 1.566406 -2.203125 3.296875 C -3.328125 5.023438 -4.335938 6.832031 -5.234375 8.71875 C -5.671875 9.65625 -6.046875 10.613281 -6.359375 11.59375 C -6.671875 12.570312 -6.828125 13.570312 -6.828125 14.59375 C -6.867188 16.125 -6.503906 17.144531 -5.734375 17.65625 C -4.972656 18.164062 -3.90625 18.109375 -2.53125 17.484375 C -1.976562 17.242188 -1.4375 16.976562 -0.90625 16.6875 C -0.382812 16.394531 0.113281 16.050781 0.59375 15.65625 C 0.707031 15.539062 0.84375 15.453125 1 15.390625 C 1.15625 15.335938 1.3125 15.410156 1.46875 15.609375 C 1.625 15.765625 1.632812 15.898438 1.5 16.015625 C 1.363281 16.128906 1.253906 16.226562 1.171875 16.3125 C 0.785156 16.695312 0.25 17.085938 -0.4375 17.484375 C -1.125 17.878906 -1.820312 18.179688 -2.53125 18.390625 C -3.238281 18.609375 -3.828125 18.695312 -4.296875 18.65625 Z M -4.296875 18.65625 "/></g></g></g><g fill="#252b39" fill-opacity="1"><g transform="translate(155.978968, 78.366483)"><g><path d="M 4.125 -1.890625 C 4.082031 -2.078125 4.0625 -2.296875 4.0625 -2.546875 C 4.0625 -2.804688 4.003906 -3.078125 3.890625 -3.359375 C 3.535156 -3.003906 3.191406 -2.671875 2.859375 -2.359375 C 2.523438 -2.046875 2.203125 -1.726562 1.890625 -1.40625 C 1.453125 -0.9375 0.941406 -0.546875 0.359375 -0.234375 C -0.390625 0.117188 -1.144531 0.0976562 -1.90625 -0.296875 C -2.675781 -0.691406 -3.0625 -1.300781 -3.0625 -2.125 C -3.101562 -4.550781 -2.628906 -6.742188 -1.640625 -8.703125 C -0.660156 -10.671875 0.882812 -12.320312 3 -13.65625 C 3.90625 -14.207031 4.796875 -14.453125 5.671875 -14.390625 C 6.554688 -14.335938 7.429688 -14.054688 8.296875 -13.546875 C 8.535156 -13.390625 8.757812 -13.25 8.96875 -13.125 C 9.1875 -13.007812 9.453125 -13.007812 9.765625 -13.125 C 9.960938 -13.207031 10.148438 -13.195312 10.328125 -13.09375 C 10.503906 -13 10.671875 -12.910156 10.828125 -12.828125 C 11.460938 -12.554688 11.816406 -12.273438 11.890625 -11.984375 C 11.972656 -11.691406 11.859375 -11.226562 11.546875 -10.59375 C 11.109375 -9.851562 10.65625 -9.097656 10.1875 -8.328125 C 9.71875 -7.566406 9.328125 -6.773438 9.015625 -5.953125 C 8.179688 -3.910156 7.785156 -1.867188 7.828125 0.171875 C 7.828125 1.117188 8.003906 2.003906 8.359375 2.828125 C 8.671875 3.566406 9.28125 3.976562 10.1875 4.0625 C 11.09375 4.0625 11.9375 3.921875 12.71875 3.640625 C 13.5 3.367188 14.265625 3.039062 15.015625 2.65625 C 15.992188 2.175781 17.265625 1.472656 18.828125 0.546875 C 20.398438 -0.367188 22.109375 -1.382812 23.953125 -2.5 C 25.804688 -3.625 27.664062 -4.722656 29.53125 -5.796875 C 31.394531 -6.878906 33.128906 -7.84375 34.734375 -8.6875 C 36.347656 -9.53125 37.722656 -10.128906 38.859375 -10.484375 C 39.992188 -10.835938 40.71875 -10.816406 41.03125 -10.421875 C 41.03125 -10.421875 41.070312 -10.285156 41.15625 -10.015625 C 39.695312 -9.847656 38.054688 -9.320312 36.234375 -8.4375 C 34.410156 -7.5625 32.503906 -6.492188 30.515625 -5.234375 C 28.535156 -3.984375 26.566406 -2.691406 24.609375 -1.359375 C 22.648438 -0.0234375 20.796875 1.195312 19.046875 2.3125 C 17.296875 3.4375 15.734375 4.296875 14.359375 4.890625 C 12.671875 5.597656 10.941406 5.710938 9.171875 5.234375 C 7.410156 4.765625 6.019531 3.585938 5 1.703125 C 4.726562 1.160156 4.53125 0.585938 4.40625 -0.015625 C 4.289062 -0.628906 4.195312 -1.253906 4.125 -1.890625 Z M 0.828125 -2.59375 C 2.203125 -3.769531 3.378906 -5.09375 4.359375 -6.5625 C 5.335938 -8.03125 6.296875 -9.515625 7.234375 -11.015625 C 7.398438 -11.242188 7.441406 -11.445312 7.359375 -11.625 C 7.273438 -11.800781 7.175781 -11.96875 7.0625 -12.125 C 6.945312 -12.320312 6.800781 -12.421875 6.625 -12.421875 C 6.445312 -12.421875 6.28125 -12.382812 6.125 -12.3125 C 5.882812 -12.144531 5.632812 -12.003906 5.375 -11.890625 C 5.125 -11.773438 4.898438 -11.617188 4.703125 -11.421875 C 3.609375 -10.484375 2.664062 -9.441406 1.875 -8.296875 C 1.09375 -7.160156 0.425781 -5.90625 -0.125 -4.53125 C -0.28125 -4.132812 -0.414062 -3.691406 -0.53125 -3.203125 C -0.644531 -2.710938 -0.703125 -2.132812 -0.703125 -1.46875 C -0.390625 -1.707031 -0.109375 -1.914062 0.140625 -2.09375 C 0.398438 -2.269531 0.628906 -2.4375 0.828125 -2.59375 Z M 0.828125 -2.59375 "/></g></g></g><g fill="#252b39" fill-opacity="1"><g transform="translate(191.006327, 78.366483)"><g><path d="M 37.96875 -11.125 C 38.289062 -11.125 38.53125 -10.945312 38.6875 -10.59375 C 38.757812 -10.363281 38.71875 -10.207031 38.5625 -10.125 C 38.40625 -10.050781 38.269531 -9.972656 38.15625 -9.890625 C 37.332031 -9.421875 36.503906 -8.945312 35.671875 -8.46875 C 34.847656 -8 34.003906 -7.53125 33.140625 -7.0625 C 31.492188 -6.082031 29.863281 -5.09375 28.25 -4.09375 C 26.644531 -3.09375 24.976562 -2.140625 23.25 -1.234375 C 22.382812 -0.722656 21.484375 -0.265625 20.546875 0.140625 C 19.609375 0.554688 18.644531 0.941406 17.65625 1.296875 C 16.519531 1.691406 15.53125 1.738281 14.6875 1.4375 C 13.84375 1.144531 13.1875 0.628906 12.71875 -0.109375 C 12.25 -0.859375 11.972656 -1.6875 11.890625 -2.59375 C 11.617188 -5.726562 12.304688 -8.726562 13.953125 -11.59375 C 14.378906 -12.34375 14.828125 -13.097656 15.296875 -13.859375 C 15.773438 -14.628906 16.210938 -15.484375 16.609375 -16.421875 C 15.617188 -16.109375 14.789062 -15.695312 14.125 -15.1875 C 13.457031 -14.675781 12.789062 -14.144531 12.125 -13.59375 C 10.550781 -12.257812 9.066406 -10.847656 7.671875 -9.359375 C 6.285156 -7.867188 4.867188 -6.398438 3.421875 -4.953125 C 3.253906 -4.785156 3.0625 -4.625 2.84375 -4.46875 C 2.632812 -4.3125 2.429688 -4.15625 2.234375 -4 C 1.296875 -3.289062 0.429688 -3.390625 -0.359375 -4.296875 C -1.097656 -5.160156 -1.488281 -6.125 -1.53125 -7.1875 C -1.570312 -8.988281 -1.238281 -10.601562 -0.53125 -12.03125 C 0.175781 -13.46875 1.140625 -14.796875 2.359375 -16.015625 C 2.785156 -16.441406 3.296875 -16.476562 3.890625 -16.125 C 5.296875 -15.226562 5.488281 -14.128906 4.46875 -12.828125 C 3.957031 -12.085938 3.457031 -11.3125 2.96875 -10.5 C 2.476562 -9.695312 2.039062 -8.863281 1.65625 -8 C 1.488281 -7.6875 1.347656 -7.363281 1.234375 -7.03125 C 1.117188 -6.695312 1.039062 -6.316406 1 -5.890625 C 1.46875 -6.003906 1.847656 -6.1875 2.140625 -6.4375 C 2.441406 -6.695312 2.726562 -6.960938 3 -7.234375 C 4.488281 -8.734375 5.988281 -10.226562 7.5 -11.71875 C 9.007812 -13.207031 10.550781 -14.660156 12.125 -16.078125 C 12.5625 -16.503906 13.015625 -16.90625 13.484375 -17.28125 C 13.953125 -17.65625 14.441406 -17.976562 14.953125 -18.25 C 15.421875 -18.519531 15.890625 -18.703125 16.359375 -18.796875 C 16.835938 -18.898438 17.332031 -18.738281 17.84375 -18.3125 C 18.351562 -17.875 18.722656 -17.378906 18.953125 -16.828125 C 19.191406 -16.285156 19.210938 -15.679688 19.015625 -15.015625 C 18.703125 -13.953125 18.328125 -12.988281 17.890625 -12.125 C 17.421875 -11.226562 16.953125 -10.316406 16.484375 -9.390625 C 16.015625 -8.460938 15.5625 -7.53125 15.125 -6.59375 C 14.8125 -5.96875 14.535156 -5.3125 14.296875 -4.625 C 14.066406 -3.9375 13.894531 -3.21875 13.78125 -2.46875 C 13.78125 -2.425781 13.78125 -2.363281 13.78125 -2.28125 C 13.78125 -2.207031 13.78125 -2.132812 13.78125 -2.0625 C 13.695312 -1.113281 13.789062 -0.503906 14.0625 -0.234375 C 14.34375 0.0351562 14.972656 0.09375 15.953125 -0.0625 C 16.859375 -0.21875 17.742188 -0.476562 18.609375 -0.84375 C 19.472656 -1.21875 20.316406 -1.601562 21.140625 -2 C 22.785156 -2.78125 24.382812 -3.632812 25.9375 -4.5625 C 27.488281 -5.488281 29.03125 -6.421875 30.5625 -7.359375 C 31.65625 -8.023438 32.769531 -8.648438 33.90625 -9.234375 C 35.050781 -9.828125 36.191406 -10.398438 37.328125 -10.953125 C 37.398438 -10.992188 37.492188 -11.03125 37.609375 -11.0625 C 37.734375 -11.101562 37.851562 -11.125 37.96875 -11.125 Z M 37.96875 -11.125 "/></g></g></g><g fill="#252b39" fill-opacity="1"><g transform="translate(223.384513, 78.366483)"><g/></g></g><g fill="#252b39" fill-opacity="1"><g transform="translate(242.222518, 78.366483)"><g><path d="M 0.59375 1.125 C -0.195312 1.75 -1.117188 1.960938 -2.171875 1.765625 C -2.921875 1.691406 -3.460938 1.46875 -3.796875 1.09375 C -4.128906 0.71875 -4.316406 0.15625 -4.359375 -0.59375 C -4.398438 -1.570312 -4.289062 -2.507812 -4.03125 -3.40625 C -3.78125 -4.3125 -3.457031 -5.195312 -3.0625 -6.0625 C -2.507812 -7.195312 -1.878906 -8.296875 -1.171875 -9.359375 C -0.472656 -10.421875 0.347656 -11.40625 1.296875 -12.3125 C 2.203125 -13.164062 3.191406 -13.804688 4.265625 -14.234375 C 5.347656 -14.671875 6.554688 -14.789062 7.890625 -14.59375 C 8.753906 -14.476562 9.5 -14.207031 10.125 -13.78125 C 10.519531 -13.582031 10.765625 -13.492188 10.859375 -13.515625 C 10.960938 -13.535156 11.09375 -13.738281 11.25 -14.125 C 11.601562 -15.113281 11.972656 -16.085938 12.359375 -17.046875 C 12.753906 -18.003906 13.148438 -18.957031 13.546875 -19.90625 C 15.304688 -23.976562 17.363281 -27.878906 19.71875 -31.609375 C 22.070312 -35.335938 24.800781 -38.832031 27.90625 -42.09375 C 29.675781 -43.9375 31.484375 -45.734375 33.328125 -47.484375 C 35.171875 -49.234375 37.128906 -50.832031 39.203125 -52.28125 C 40.503906 -53.1875 41.84375 -54.03125 43.21875 -54.8125 C 44.59375 -55.59375 46.023438 -56.238281 47.515625 -56.75 C 49.085938 -57.300781 50.632812 -57.566406 52.15625 -57.546875 C 53.6875 -57.523438 55.203125 -57.125 56.703125 -56.34375 C 58.265625 -55.476562 59.203125 -54.164062 59.515625 -52.40625 C 59.753906 -51.34375 59.851562 -50.28125 59.8125 -49.21875 C 59.78125 -48.15625 59.625 -47.113281 59.34375 -46.09375 C 59.03125 -44.6875 58.550781 -43.34375 57.90625 -42.0625 C 57.257812 -40.789062 56.539062 -39.546875 55.75 -38.328125 C 54.21875 -35.972656 52.519531 -33.742188 50.65625 -31.640625 C 48.789062 -29.546875 46.835938 -27.515625 44.796875 -25.546875 C 42.992188 -23.828125 41.109375 -22.191406 39.140625 -20.640625 C 37.179688 -19.085938 35.144531 -17.625 33.03125 -16.25 C 31.257812 -15.144531 29.453125 -14.140625 27.609375 -13.234375 C 25.765625 -12.335938 23.863281 -11.554688 21.90625 -10.890625 C 20.6875 -10.492188 19.457031 -10.175781 18.21875 -9.9375 C 16.988281 -9.707031 15.703125 -9.671875 14.359375 -9.828125 C 14.085938 -9.867188 13.84375 -9.847656 13.625 -9.765625 C 13.414062 -9.691406 13.269531 -9.5 13.1875 -9.1875 C 12.320312 -6.195312 11.554688 -3.191406 10.890625 -0.171875 C 10.222656 2.847656 9.96875 5.925781 10.125 9.0625 C 10.207031 10.125 10.304688 11.164062 10.421875 12.1875 C 10.535156 13.207031 10.789062 14.226562 11.1875 15.25 C 11.582031 16.15625 12.015625 16.921875 12.484375 17.546875 C 13.304688 18.679688 14.441406 19.070312 15.890625 18.71875 C 17.859375 18.25 19.664062 17.328125 21.3125 15.953125 C 22.6875 14.816406 24 13.617188 25.25 12.359375 C 26.507812 11.109375 27.75 9.832031 28.96875 8.53125 C 30.65625 6.6875 32.367188 4.867188 34.109375 3.078125 C 35.859375 1.296875 37.640625 -0.472656 39.453125 -2.234375 C 41.410156 -4.117188 43.507812 -5.773438 45.75 -7.203125 C 47.988281 -8.640625 50.441406 -9.769531 53.109375 -10.59375 C 53.335938 -10.675781 53.570312 -10.734375 53.8125 -10.765625 C 54.050781 -10.804688 54.304688 -10.710938 54.578125 -10.484375 C 54.460938 -10.285156 54.332031 -10.144531 54.1875 -10.0625 C 54.050781 -9.988281 53.90625 -9.929688 53.75 -9.890625 C 50.257812 -8.472656 47.070312 -6.664062 44.1875 -4.46875 C 41.300781 -2.269531 38.582031 0.160156 36.03125 2.828125 C 34.300781 4.628906 32.59375 6.453125 30.90625 8.296875 C 29.21875 10.140625 27.550781 11.984375 25.90625 13.828125 C 25.15625 14.660156 24.390625 15.445312 23.609375 16.1875 C 22.828125 16.9375 21.984375 17.644531 21.078125 18.3125 C 18.835938 19.914062 16.382812 20.523438 13.71875 20.140625 C 12.425781 19.984375 11.328125 19.566406 10.421875 18.890625 C 9.515625 18.222656 8.75 17.34375 8.125 16.25 C 7.53125 15.226562 7.101562 14.175781 6.84375 13.09375 C 6.59375 12.019531 6.429688 10.910156 6.359375 9.765625 C 6.242188 7.648438 6.3125 5.539062 6.5625 3.4375 C 6.820312 1.34375 7.207031 -0.722656 7.71875 -2.765625 C 7.832031 -3.203125 7.9375 -3.613281 8.03125 -4 C 8.132812 -4.394531 8.222656 -4.789062 8.296875 -5.1875 C 8.296875 -5.21875 8.257812 -5.3125 8.1875 -5.46875 C 7.71875 -5.195312 7.304688 -4.875 6.953125 -4.5 C 6.597656 -4.125 6.222656 -3.78125 5.828125 -3.46875 C 5.160156 -2.925781 4.503906 -2.347656 3.859375 -1.734375 C 3.210938 -1.128906 2.554688 -0.53125 1.890625 0.0625 C 1.691406 0.257812 1.472656 0.4375 1.234375 0.59375 C 1.003906 0.75 0.789062 0.925781 0.59375 1.125 Z M 14.1875 -12.1875 C 13.945312 -11.5625 13.875 -11.171875 13.96875 -11.015625 C 14.070312 -10.859375 14.476562 -10.796875 15.1875 -10.828125 C 16.164062 -10.867188 17.113281 -11.003906 18.03125 -11.234375 C 18.957031 -11.472656 19.875 -11.75 20.78125 -12.0625 C 23.375 -12.96875 25.847656 -14.054688 28.203125 -15.328125 C 30.554688 -16.609375 32.832031 -18.035156 35.03125 -19.609375 C 36.957031 -20.941406 38.78125 -22.363281 40.5 -23.875 C 42.226562 -25.382812 43.878906 -26.960938 45.453125 -28.609375 C 47.253906 -30.453125 48.921875 -32.363281 50.453125 -34.34375 C 51.984375 -36.332031 53.359375 -38.445312 54.578125 -40.6875 C 55.328125 -42.0625 55.9375 -43.460938 56.40625 -44.890625 C 56.875 -46.328125 57.109375 -47.828125 57.109375 -49.390625 C 57.109375 -50.097656 57.066406 -50.804688 56.984375 -51.515625 C 56.910156 -52.222656 56.71875 -52.910156 56.40625 -53.578125 C 56.007812 -54.554688 55.398438 -55.269531 54.578125 -55.71875 C 53.753906 -56.175781 52.8125 -56.328125 51.75 -56.171875 C 50.925781 -56.046875 50.140625 -55.835938 49.390625 -55.546875 C 48.648438 -55.253906 47.925781 -54.929688 47.21875 -54.578125 C 45.925781 -53.910156 44.691406 -53.164062 43.515625 -52.34375 C 42.335938 -51.519531 41.175781 -50.632812 40.03125 -49.6875 C 36.894531 -47.101562 33.988281 -44.304688 31.3125 -41.296875 C 28.644531 -38.296875 26.195312 -35.109375 23.96875 -31.734375 C 21.925781 -28.671875 20.097656 -25.507812 18.484375 -22.25 C 16.878906 -19 15.445312 -15.644531 14.1875 -12.1875 Z M -1.890625 -0.46875 C -1.890625 -0.351562 -1.894531 -0.222656 -1.90625 -0.078125 C -1.925781 0.0546875 -1.859375 0.160156 -1.703125 0.234375 C -1.546875 0.316406 -1.410156 0.304688 -1.296875 0.203125 C -1.179688 0.109375 -1.0625 0.0195312 -0.9375 -0.0625 C -0.738281 -0.21875 -0.539062 -0.363281 -0.34375 -0.5 C -0.15625 -0.632812 0.015625 -0.78125 0.171875 -0.9375 C 1.703125 -2.3125 3.179688 -3.710938 4.609375 -5.140625 C 6.046875 -6.578125 7.550781 -7.960938 9.125 -9.296875 C 9.476562 -9.492188 9.597656 -9.75 9.484375 -10.0625 C 9.398438 -10.5 9.300781 -10.910156 9.1875 -11.296875 C 9.070312 -11.691406 8.875 -12.046875 8.59375 -12.359375 C 8.320312 -12.753906 8.085938 -12.976562 7.890625 -13.03125 C 7.691406 -13.09375 7.378906 -13.046875 6.953125 -12.890625 C 6.203125 -12.660156 5.492188 -12.304688 4.828125 -11.828125 C 3.492188 -10.804688 2.363281 -9.648438 1.4375 -8.359375 C 0.519531 -7.066406 -0.269531 -5.675781 -0.9375 -4.1875 C -1.175781 -3.59375 -1.382812 -2.988281 -1.5625 -2.375 C -1.738281 -1.769531 -1.847656 -1.132812 -1.890625 -0.46875 Z M -1.890625 -0.46875 "/></g></g></g><g fill="#252b39" fill-opacity="1"><g transform="translate(290.613427, 78.366483)"><g><path d="M 4.703125 -14.1875 C 5.410156 -13.601562 5.507812 -12.878906 5 -12.015625 C 4.488281 -11.148438 3.957031 -10.3125 3.40625 -9.5 C 2.863281 -8.695312 2.316406 -7.847656 1.765625 -6.953125 C 0.585938 -4.984375 -0.410156 -2.945312 -1.234375 -0.84375 C -2.054688 1.25 -2.585938 3.453125 -2.828125 5.765625 C -2.867188 6.398438 -2.890625 7.019531 -2.890625 7.625 C -2.890625 8.226562 -2.8125 8.847656 -2.65625 9.484375 C -2.53125 9.992188 -2.359375 10.328125 -2.140625 10.484375 C -1.929688 10.640625 -1.570312 10.695312 -1.0625 10.65625 C -0.351562 10.613281 0.28125 10.4375 0.84375 10.125 C 1.414062 9.8125 1.976562 9.457031 2.53125 9.0625 C 3.507812 8.394531 4.390625 7.640625 5.171875 6.796875 C 5.960938 5.953125 6.769531 5.117188 7.59375 4.296875 C 9.039062 2.765625 10.539062 1.304688 12.09375 -0.078125 C 13.644531 -1.472656 15.320312 -2.722656 17.125 -3.828125 C 18.382812 -4.609375 19.671875 -5.300781 20.984375 -5.90625 C 22.304688 -6.519531 23.613281 -7.140625 24.90625 -7.765625 C 25.570312 -8.085938 26.238281 -8.40625 26.90625 -8.71875 C 27.570312 -9.03125 28.238281 -9.320312 28.90625 -9.59375 C 29.101562 -9.675781 29.289062 -9.753906 29.46875 -9.828125 C 29.644531 -9.910156 29.847656 -9.929688 30.078125 -9.890625 C 30.398438 -9.890625 30.5625 -9.769531 30.5625 -9.53125 C 30.59375 -9.34375 30.453125 -9.207031 30.140625 -9.125 C 28.847656 -8.65625 27.601562 -8.113281 26.40625 -7.5 C 25.207031 -6.894531 23.976562 -6.296875 22.71875 -5.703125 C 20.5625 -4.648438 18.5625 -3.394531 16.71875 -1.9375 C 14.875 -0.488281 13.128906 1.097656 11.484375 2.828125 C 10.148438 4.242188 8.796875 5.65625 7.421875 7.0625 C 6.046875 8.476562 4.613281 9.8125 3.125 11.0625 C 2.96875 11.21875 2.800781 11.375 2.625 11.53125 C 2.445312 11.695312 2.257812 11.835938 2.0625 11.953125 C -0.0625 13.285156 -1.925781 13.007812 -3.53125 11.125 C -3.925781 10.570312 -4.257812 10 -4.53125 9.40625 C -4.8125 8.820312 -5.03125 8.21875 -5.1875 7.59375 C -5.53125 5.988281 -5.585938 4.398438 -5.359375 2.828125 C -5.046875 -0.234375 -4.25 -3.078125 -2.96875 -5.703125 C -1.695312 -8.335938 -0.15625 -10.851562 1.65625 -13.25 C 1.8125 -13.40625 1.957031 -13.550781 2.09375 -13.6875 C 2.226562 -13.820312 2.375 -13.96875 2.53125 -14.125 C 3.238281 -14.789062 3.960938 -14.8125 4.703125 -14.1875 Z M 4.1875 -19.78125 C 3.789062 -19.820312 3.453125 -19.867188 3.171875 -19.921875 C 2.898438 -19.984375 2.726562 -20.132812 2.65625 -20.375 C 2.570312 -20.570312 2.597656 -20.753906 2.734375 -20.921875 C 2.867188 -21.097656 3.015625 -21.269531 3.171875 -21.4375 C 3.804688 -22.101562 4.445312 -22.757812 5.09375 -23.40625 C 5.738281 -24.050781 6.4375 -24.648438 7.1875 -25.203125 C 7.539062 -25.472656 7.921875 -25.664062 8.328125 -25.78125 C 8.742188 -25.90625 9.1875 -25.890625 9.65625 -25.734375 C 10.476562 -25.453125 10.554688 -25.078125 9.890625 -24.609375 C 9.023438 -23.984375 8.207031 -23.296875 7.4375 -22.546875 C 6.675781 -21.804688 5.925781 -21.039062 5.1875 -20.25 C 4.789062 -19.863281 4.457031 -19.707031 4.1875 -19.78125 Z M 4.1875 -19.78125 "/></g></g></g><g fill="#252b39" fill-opacity="1"><g transform="translate(315.632828, 78.366483)"><g><path d="M 4.125 -1.890625 C 4.082031 -2.078125 4.0625 -2.296875 4.0625 -2.546875 C 4.0625 -2.804688 4.003906 -3.078125 3.890625 -3.359375 C 3.535156 -3.003906 3.191406 -2.671875 2.859375 -2.359375 C 2.523438 -2.046875 2.203125 -1.726562 1.890625 -1.40625 C 1.453125 -0.9375 0.941406 -0.546875 0.359375 -0.234375 C -0.390625 0.117188 -1.144531 0.0976562 -1.90625 -0.296875 C -2.675781 -0.691406 -3.0625 -1.300781 -3.0625 -2.125 C -3.101562 -4.550781 -2.628906 -6.742188 -1.640625 -8.703125 C -0.660156 -10.671875 0.882812 -12.320312 3 -13.65625 C 3.90625 -14.207031 4.796875 -14.453125 5.671875 -14.390625 C 6.554688 -14.335938 7.429688 -14.054688 8.296875 -13.546875 C 8.535156 -13.390625 8.757812 -13.25 8.96875 -13.125 C 9.1875 -13.007812 9.453125 -13.007812 9.765625 -13.125 C 9.960938 -13.207031 10.148438 -13.195312 10.328125 -13.09375 C 10.503906 -13 10.671875 -12.910156 10.828125 -12.828125 C 11.460938 -12.554688 11.816406 -12.273438 11.890625 -11.984375 C 11.972656 -11.691406 11.859375 -11.226562 11.546875 -10.59375 C 11.109375 -9.851562 10.65625 -9.097656 10.1875 -8.328125 C 9.71875 -7.566406 9.328125 -6.773438 9.015625 -5.953125 C 8.179688 -3.910156 7.785156 -1.867188 7.828125 0.171875 C 7.828125 1.117188 8.003906 2.003906 8.359375 2.828125 C 8.671875 3.566406 9.28125 3.976562 10.1875 4.0625 C 11.09375 4.0625 11.9375 3.921875 12.71875 3.640625 C 13.5 3.367188 14.265625 3.039062 15.015625 2.65625 C 15.992188 2.175781 17.265625 1.472656 18.828125 0.546875 C 20.398438 -0.367188 22.109375 -1.382812 23.953125 -2.5 C 25.804688 -3.625 27.664062 -4.722656 29.53125 -5.796875 C 31.394531 -6.878906 33.128906 -7.84375 34.734375 -8.6875 C 36.347656 -9.53125 37.722656 -10.128906 38.859375 -10.484375 C 39.992188 -10.835938 40.71875 -10.816406 41.03125 -10.421875 C 41.03125 -10.421875 41.070312 -10.285156 41.15625 -10.015625 C 39.695312 -9.847656 38.054688 -9.320312 36.234375 -8.4375 C 34.410156 -7.5625 32.503906 -6.492188 30.515625 -5.234375 C 28.535156 -3.984375 26.566406 -2.691406 24.609375 -1.359375 C 22.648438 -0.0234375 20.796875 1.195312 19.046875 2.3125 C 17.296875 3.4375 15.734375 4.296875 14.359375 4.890625 C 12.671875 5.597656 10.941406 5.710938 9.171875 5.234375 C 7.410156 4.765625 6.019531 3.585938 5 1.703125 C 4.726562 1.160156 4.53125 0.585938 4.40625 -0.015625 C 4.289062 -0.628906 4.195312 -1.253906 4.125 -1.890625 Z M 0.828125 -2.59375 C 2.203125 -3.769531 3.378906 -5.09375 4.359375 -6.5625 C 5.335938 -8.03125 6.296875 -9.515625 7.234375 -11.015625 C 7.398438 -11.242188 7.441406 -11.445312 7.359375 -11.625 C 7.273438 -11.800781 7.175781 -11.96875 7.0625 -12.125 C 6.945312 -12.320312 6.800781 -12.421875 6.625 -12.421875 C 6.445312 -12.421875 6.28125 -12.382812 6.125 -12.3125 C 5.882812 -12.144531 5.632812 -12.003906 5.375 -11.890625 C 5.125 -11.773438 4.898438 -11.617188 4.703125 -11.421875 C 3.609375 -10.484375 2.664062 -9.441406 1.875 -8.296875 C 1.09375 -7.160156 0.425781 -5.90625 -0.125 -4.53125 C -0.28125 -4.132812 -0.414062 -3.691406 -0.53125 -3.203125 C -0.644531 -2.710938 -0.703125 -2.132812 -0.703125 -1.46875 C -0.390625 -1.707031 -0.109375 -1.914062 0.140625 -2.09375 C 0.398438 -2.269531 0.628906 -2.4375 0.828125 -2.59375 Z M 0.828125 -2.59375 "/></g></g></g></g></g><g clip-path="url(#a060399328)"><g clip-path="url(#f4699c179d)"><g transform="matrix(1, 0, 0, 1, 154, 31)"><g clip-path="url(#905a7f3462)"><g clip-path="url(#b47eb6ff59)"><g clip-path="url(#753a7be4b8)"><g clip-path="url(#e11810b8e9)"><path fill="#252b39" d="M 102 -8.304688 C 101.4375 -7.40625 101.683594 -7.136719 101.253906 -6.753906 C 98.738281 -4.609375 96.078125 -0.375 95.011719 1.199219 C 77.5 26.675781 39.03125 12.671875 4.738281 40.699219 C 4.441406 40.9375 3.339844 41.140625 3.570312 40.03125 C 8.042969 35.402344 13.050781 30.742188 25.132812 25.359375 C 38.445312 19.40625 68.503906 16.636719 79.894531 11.4375 C 94.671875 4.683594 96.027344 -6.488281 101.992188 -8.277344 Z M 102 -8.304688 " fill-opacity="1" fill-rule="evenodd"/></g></g></g></g></g></g></g><g clip-path="url(#e62330d925)"><g clip-path="url(#27656480af)"><g clip-path="url(#9b7ff358db)"><path fill="#252b39" d="M 515.867188 80.125 C 516.628906 80.34375 516.628906 80.617188 517.058594 80.613281 C 519.539062 80.550781 523.148438 81.578125 524.53125 81.921875 C 547.078125 87.355469 561.523438 60.246094 594.714844 58.6875 C 594.996094 58.667969 595.714844 58.230469 595.027344 57.730469 C 590.210938 57.386719 585.082031 57.300781 575.640625 60.355469 C 565.226562 63.710938 547.066406 77.238281 538.101562 80.050781 C 526.46875 83.695312 520.109375 78.144531 515.886719 80.132812 Z M 515.867188 80.125 " fill-opacity="1" fill-rule="evenodd"/></g></g></g></svg>