<svg xmlns="http://www.w3.org/2000/svg" xmlns:xlink="http://www.w3.org/1999/xlink" width="1024" zoomAndPan="magnify" viewBox="0 0 768 149.999998" height="200" preserveAspectRatio="xMidYMid meet" version="1.0"><defs><g/><clipPath id="c2a428598b"><rect x="0" width="197" y="0" height="150"/></clipPath><clipPath id="afb98bdd71"><path d="M 231 32 L 308 32 L 308 87 L 231 87 Z M 231 32 " clip-rule="nonzero"/></clipPath><clipPath id="c6c2880ad0"><path d="M 307.34375 40 L 236.523438 86.550781 L 231.582031 79.03125 L 302.402344 32.480469 Z M 307.34375 40 " clip-rule="nonzero"/></clipPath><clipPath id="dcd1b5f100"><path d="M 0.839844 4 L 75 4 L 75 47 L 0.839844 47 Z M 0.839844 4 " clip-rule="nonzero"/></clipPath><clipPath id="94f9dd59ac"><path d="M 76.34375 8 L 5.523438 54.550781 L 0.582031 47.03125 L 71.402344 0.480469 Z M 76.34375 8 " clip-rule="nonzero"/></clipPath><clipPath id="94772c2d79"><path d="M 0.691406 46.539062 L 71.511719 -0.0117188 L 76.457031 7.507812 L 5.636719 54.058594 Z M 0.691406 46.539062 " clip-rule="nonzero"/></clipPath><clipPath id="680fca4290"><rect x="0" width="77" y="0" height="55"/></clipPath><clipPath id="3bb7f3aed0"><path d="M 472 83 L 497 83 L 497 93 L 472 93 Z M 472 83 " clip-rule="nonzero"/></clipPath><clipPath id="de7a8717d5"><path d="M 472.300781 87.464844 L 495.515625 81.386719 L 496.847656 86.464844 L 473.628906 92.542969 Z M 472.300781 87.464844 " clip-rule="nonzero"/></clipPath><clipPath id="55f7d69d30"><path d="M 447.28125 94.019531 L 495.164062 81.476562 L 496.496094 86.554688 L 448.609375 99.097656 Z M 447.28125 94.019531 " clip-rule="nonzero"/></clipPath></defs><g transform="matrix(1, 0, 0, 1, 286, -0.000000000000007527)"><g clip-path="url(#c2a428598b)"><g fill="#252b39" fill-opacity="1"><g transform="translate(1.597115, 96.631993)"><g><path d="M 5.953125 -23.671875 C 5.828125 -23.234375 5.710938 -22.789062 5.609375 -22.34375 C 5.515625 -21.894531 5.429688 -21.453125 5.359375 -21.015625 C 5.359375 -20.898438 5.378906 -20.765625 5.421875 -20.609375 C 5.804688 -21.503906 6.175781 -22.375 6.53125 -23.21875 C 6.882812 -24.0625 7.238281 -24.898438 7.59375 -25.734375 C 10.695312 -32.640625 14.171875 -39.328125 18.015625 -45.796875 C 21.859375 -52.273438 26.253906 -58.421875 31.203125 -64.234375 C 33.554688 -67.015625 36.066406 -69.625 38.734375 -72.0625 C 41.410156 -74.5 44.316406 -76.675781 47.453125 -78.59375 C 48.785156 -79.414062 50.15625 -80.148438 51.5625 -80.796875 C 52.976562 -81.453125 54.453125 -81.972656 55.984375 -82.359375 C 56.929688 -82.597656 57.9375 -82.71875 59 -82.71875 C 61.820312 -82.800781 64.066406 -82.023438 65.734375 -80.390625 C 67.398438 -78.765625 68.210938 -76.539062 68.171875 -73.71875 C 68.171875 -71.351562 67.945312 -69.023438 67.5 -66.734375 C 67.050781 -64.441406 66.453125 -62.175781 65.703125 -59.9375 C 64.484375 -56.207031 63.066406 -52.554688 61.453125 -48.984375 C 59.847656 -45.410156 58.1875 -41.878906 56.46875 -38.390625 C 54.425781 -34.222656 52.382812 -30.066406 50.34375 -25.921875 C 48.300781 -21.785156 46.414062 -17.5625 44.6875 -13.25 C 44.0625 -11.71875 43.472656 -10.175781 42.921875 -8.625 C 42.367188 -7.070312 41.835938 -5.492188 41.328125 -3.890625 C 41.609375 -3.921875 41.804688 -3.992188 41.921875 -4.109375 C 42.035156 -4.234375 42.148438 -4.351562 42.265625 -4.46875 C 44.234375 -6.195312 46.265625 -7.75 48.359375 -9.125 C 50.460938 -10.5 52.65625 -11.796875 54.9375 -13.015625 C 55.757812 -13.441406 56.597656 -13.769531 57.453125 -14 C 58.316406 -14.238281 59.242188 -14.28125 60.234375 -14.125 C 61.367188 -13.925781 62.25 -13.523438 62.875 -12.921875 C 63.507812 -12.316406 63.90625 -11.425781 64.0625 -10.25 C 64.175781 -9.300781 64.269531 -8.351562 64.34375 -7.40625 C 64.425781 -6.46875 64.523438 -5.53125 64.640625 -4.59375 C 64.679688 -4.320312 64.738281 -4.054688 64.8125 -3.796875 C 64.894531 -3.546875 64.957031 -3.300781 65 -3.0625 C 65.394531 -2.039062 65.894531 -1.332031 66.5 -0.9375 C 67.101562 -0.550781 67.957031 -0.414062 69.0625 -0.53125 C 71.101562 -0.769531 73.082031 -1.203125 75 -1.828125 C 76.925781 -2.453125 78.789062 -3.195312 80.59375 -4.0625 C 82.476562 -4.925781 84.320312 -5.835938 86.125 -6.796875 C 87.9375 -7.765625 89.742188 -8.738281 91.546875 -9.71875 C 91.941406 -9.914062 92.351562 -10.097656 92.78125 -10.265625 C 93.21875 -10.441406 93.632812 -10.613281 94.03125 -10.78125 C 94.457031 -10.9375 94.828125 -10.9375 95.140625 -10.78125 C 95.648438 -10.613281 95.691406 -10.394531 95.265625 -10.125 C 94.984375 -9.96875 94.722656 -9.8125 94.484375 -9.65625 C 94.253906 -9.5 94.003906 -9.34375 93.734375 -9.1875 C 91.023438 -7.769531 88.316406 -6.351562 85.609375 -4.9375 C 82.898438 -3.53125 80.09375 -2.273438 77.1875 -1.171875 C 75.96875 -0.703125 74.71875 -0.300781 73.4375 0.03125 C 72.164062 0.363281 70.882812 0.609375 69.59375 0.765625 C 67.195312 1.035156 65.203125 0.515625 63.609375 -0.796875 C 62.023438 -2.109375 61.132812 -3.960938 60.9375 -6.359375 C 60.894531 -7.140625 60.84375 -7.929688 60.78125 -8.734375 C 60.726562 -9.546875 60.625 -10.34375 60.46875 -11.125 C 60.3125 -11.945312 60.113281 -12.425781 59.875 -12.5625 C 59.632812 -12.707031 59.125 -12.640625 58.34375 -12.359375 C 56.894531 -11.816406 55.53125 -11.140625 54.25 -10.328125 C 52.976562 -9.523438 51.710938 -8.691406 50.453125 -7.828125 C 48.722656 -6.609375 47.082031 -5.3125 45.53125 -3.9375 C 43.988281 -2.570312 42.53125 -1.082031 41.15625 0.53125 C 40.84375 0.925781 40.535156 1.316406 40.234375 1.703125 C 39.941406 2.097656 39.582031 2.429688 39.15625 2.703125 C 38.800781 2.898438 38.492188 3 38.234375 3 C 37.984375 3 37.703125 2.941406 37.390625 2.828125 C 36.753906 2.585938 36.5 2.15625 36.625 1.53125 C 36.738281 0.625 36.863281 -0.273438 37 -1.171875 C 37.132812 -2.078125 37.320312 -2.960938 37.5625 -3.828125 C 38.5 -7.515625 39.703125 -11.09375 41.171875 -14.5625 C 42.648438 -18.039062 44.195312 -21.488281 45.8125 -24.90625 C 48.007812 -29.457031 50.234375 -34 52.484375 -38.53125 C 54.742188 -43.0625 56.851562 -47.644531 58.8125 -52.28125 C 60.113281 -55.300781 61.289062 -58.367188 62.34375 -61.484375 C 63.40625 -64.609375 64.15625 -67.800781 64.59375 -71.0625 C 64.75 -72.195312 64.832031 -73.3125 64.84375 -74.40625 C 64.863281 -75.507812 64.71875 -76.613281 64.40625 -77.71875 C 64.019531 -79.09375 63.453125 -80.039062 62.703125 -80.5625 C 61.953125 -81.09375 60.851562 -81.300781 59.40625 -81.1875 C 58.03125 -81.03125 56.710938 -80.722656 55.453125 -80.265625 C 54.203125 -79.816406 52.96875 -79.257812 51.75 -78.59375 C 48.644531 -76.988281 45.773438 -75.078125 43.140625 -72.859375 C 40.515625 -70.640625 38.023438 -68.253906 35.671875 -65.703125 C 31.671875 -61.421875 28.050781 -56.875 24.8125 -52.0625 C 21.570312 -47.257812 18.5625 -42.289062 15.78125 -37.15625 C 14.09375 -34.050781 12.5 -30.898438 11 -27.703125 C 9.507812 -24.503906 8.175781 -21.234375 7 -17.890625 C 6.019531 -15.023438 5.128906 -12.148438 4.328125 -9.265625 C 3.523438 -6.390625 2.847656 -3.457031 2.296875 -0.46875 C 2.054688 0.820312 1.347656 1.132812 0.171875 0.46875 C -0.140625 0.269531 -0.320312 0.046875 -0.375 -0.203125 C -0.4375 -0.460938 -0.445312 -0.75 -0.40625 -1.0625 C 0.0195312 -4.507812 0.457031 -7.953125 0.90625 -11.390625 C 1.363281 -14.828125 1.925781 -18.234375 2.59375 -21.609375 C 3.570312 -26.585938 4.726562 -31.507812 6.0625 -36.375 C 7.394531 -41.25 9.0625 -46.019531 11.0625 -50.6875 C 11.695312 -52.101562 12.328125 -53.515625 12.953125 -54.921875 C 13.578125 -56.335938 14.265625 -57.710938 15.015625 -59.046875 C 15.210938 -59.398438 15.445312 -59.703125 15.71875 -59.953125 C 15.988281 -60.210938 16.378906 -60.242188 16.890625 -60.046875 C 17.242188 -59.929688 17.476562 -59.785156 17.59375 -59.609375 C 17.71875 -59.429688 17.679688 -59.128906 17.484375 -58.703125 C 16.742188 -57.015625 16.019531 -55.328125 15.3125 -53.640625 C 14.601562 -51.953125 13.894531 -50.242188 13.1875 -48.515625 C 11.582031 -44.503906 10.195312 -40.421875 9.03125 -36.265625 C 7.875 -32.109375 6.847656 -27.910156 5.953125 -23.671875 Z M 5.953125 -23.671875 "/></g></g></g><g fill="#252b39" fill-opacity="1"><g transform="translate(90.373073, 96.631993)"><g><path d="M 4.125 -1.890625 C 4.082031 -2.078125 4.0625 -2.296875 4.0625 -2.546875 C 4.0625 -2.804688 4.003906 -3.078125 3.890625 -3.359375 C 3.535156 -3.003906 3.191406 -2.671875 2.859375 -2.359375 C 2.523438 -2.046875 2.203125 -1.726562 1.890625 -1.40625 C 1.453125 -0.9375 0.941406 -0.546875 0.359375 -0.234375 C -0.390625 0.117188 -1.144531 0.0976562 -1.90625 -0.296875 C -2.675781 -0.691406 -3.0625 -1.300781 -3.0625 -2.125 C -3.101562 -4.550781 -2.628906 -6.742188 -1.640625 -8.703125 C -0.660156 -10.671875 0.882812 -12.320312 3 -13.65625 C 3.90625 -14.207031 4.796875 -14.453125 5.671875 -14.390625 C 6.554688 -14.335938 7.429688 -14.054688 8.296875 -13.546875 C 8.535156 -13.390625 8.757812 -13.25 8.96875 -13.125 C 9.1875 -13.007812 9.453125 -13.007812 9.765625 -13.125 C 9.960938 -13.207031 10.148438 -13.195312 10.328125 -13.09375 C 10.503906 -13 10.671875 -12.910156 10.828125 -12.828125 C 11.460938 -12.554688 11.816406 -12.273438 11.890625 -11.984375 C 11.972656 -11.691406 11.859375 -11.226562 11.546875 -10.59375 C 11.109375 -9.851562 10.65625 -9.097656 10.1875 -8.328125 C 9.71875 -7.566406 9.328125 -6.773438 9.015625 -5.953125 C 8.179688 -3.910156 7.785156 -1.867188 7.828125 0.171875 C 7.828125 1.117188 8.003906 2.003906 8.359375 2.828125 C 8.671875 3.566406 9.28125 3.976562 10.1875 4.0625 C 11.09375 4.0625 11.9375 3.921875 12.71875 3.640625 C 13.5 3.367188 14.265625 3.039062 15.015625 2.65625 C 15.992188 2.175781 17.265625 1.472656 18.828125 0.546875 C 20.398438 -0.367188 22.109375 -1.382812 23.953125 -2.5 C 25.804688 -3.625 27.664062 -4.722656 29.53125 -5.796875 C 31.394531 -6.878906 33.128906 -7.84375 34.734375 -8.6875 C 36.347656 -9.53125 37.722656 -10.128906 38.859375 -10.484375 C 39.992188 -10.835938 40.71875 -10.816406 41.03125 -10.421875 C 41.03125 -10.421875 41.070312 -10.285156 41.15625 -10.015625 C 39.695312 -9.847656 38.054688 -9.320312 36.234375 -8.4375 C 34.410156 -7.5625 32.503906 -6.492188 30.515625 -5.234375 C 28.535156 -3.984375 26.566406 -2.691406 24.609375 -1.359375 C 22.648438 -0.0234375 20.796875 1.195312 19.046875 2.3125 C 17.296875 3.4375 15.734375 4.296875 14.359375 4.890625 C 12.671875 5.597656 10.941406 5.710938 9.171875 5.234375 C 7.410156 4.765625 6.019531 3.585938 5 1.703125 C 4.726562 1.160156 4.53125 0.585938 4.40625 -0.015625 C 4.289062 -0.628906 4.195312 -1.253906 4.125 -1.890625 Z M 0.828125 -2.59375 C 2.203125 -3.769531 3.378906 -5.09375 4.359375 -6.5625 C 5.335938 -8.03125 6.296875 -9.515625 7.234375 -11.015625 C 7.398438 -11.242188 7.441406 -11.445312 7.359375 -11.625 C 7.273438 -11.800781 7.175781 -11.96875 7.0625 -12.125 C 6.945312 -12.320312 6.800781 -12.421875 6.625 -12.421875 C 6.445312 -12.421875 6.28125 -12.382812 6.125 -12.3125 C 5.882812 -12.144531 5.632812 -12.003906 5.375 -11.890625 C 5.125 -11.773438 4.898438 -11.617188 4.703125 -11.421875 C 3.609375 -10.484375 2.664062 -9.441406 1.875 -8.296875 C 1.09375 -7.160156 0.425781 -5.90625 -0.125 -4.53125 C -0.28125 -4.132812 -0.414062 -3.691406 -0.53125 -3.203125 C -0.644531 -2.710938 -0.703125 -2.132812 -0.703125 -1.46875 C -0.390625 -1.707031 -0.109375 -1.914062 0.140625 -2.09375 C 0.398438 -2.269531 0.628906 -2.4375 0.828125 -2.59375 Z M 0.828125 -2.59375 "/></g></g></g><g fill="#252b39" fill-opacity="1"><g transform="translate(125.400431, 96.631993)"><g><path d="M 17.953125 -17.3125 C 18.898438 -16.71875 19.609375 -16.125 20.078125 -15.53125 C 20.546875 -14.945312 20.625 -14.085938 20.3125 -12.953125 C 19.914062 -11.617188 19.394531 -10.332031 18.75 -9.09375 C 18.101562 -7.851562 17.347656 -6.6875 16.484375 -5.59375 C 15.703125 -4.570312 14.867188 -3.570312 13.984375 -2.59375 C 13.097656 -1.613281 12.203125 -0.671875 11.296875 0.234375 C 11.140625 0.390625 11.003906 0.535156 10.890625 0.671875 C 10.773438 0.816406 10.675781 1.023438 10.59375 1.296875 C 12.789062 1.296875 14.96875 0.921875 17.125 0.171875 C 19.289062 -0.566406 21.332031 -1.484375 23.25 -2.578125 C 25.175781 -3.679688 26.90625 -4.789062 28.4375 -5.90625 C 29.96875 -7.03125 31.222656 -8.003906 32.203125 -8.828125 C 33.179688 -9.648438 33.789062 -10.125 34.03125 -10.25 C 34.34375 -10.40625 34.546875 -10.382812 34.640625 -10.1875 C 34.742188 -9.988281 34.597656 -9.734375 34.203125 -9.421875 C 31.960938 -7.617188 29.988281 -6.019531 28.28125 -4.625 C 26.582031 -3.226562 24.914062 -2.03125 23.28125 -1.03125 C 21.65625 -0.03125 19.910156 0.800781 18.046875 1.46875 C 16.179688 2.132812 13.972656 2.644531 11.421875 3 C 10.441406 3.15625 9.441406 3.273438 8.421875 3.359375 C 7.867188 3.398438 7.316406 3.613281 6.765625 4 C 5.554688 4.75 4.3125 5.414062 3.03125 6 C 1.757812 6.59375 0.4375 7.023438 -0.9375 7.296875 C -1.414062 7.378906 -1.75 7.695312 -1.9375 8.25 C -2.6875 10.632812 -3.40625 13.015625 -4.09375 15.390625 C -4.78125 17.765625 -5.515625 20.128906 -6.296875 22.484375 C -7.472656 26.296875 -9.125 29.867188 -11.25 33.203125 C -11.789062 34.066406 -12.351562 34.941406 -12.9375 35.828125 C -13.53125 36.710938 -14.222656 37.503906 -15.015625 38.203125 C -15.210938 38.367188 -15.40625 38.53125 -15.59375 38.6875 C -15.789062 38.84375 -16.007812 39 -16.25 39.15625 C -16.601562 39.382812 -16.960938 39.535156 -17.328125 39.609375 C -17.703125 39.691406 -18.085938 39.597656 -18.484375 39.328125 C -18.878906 39.015625 -19.222656 38.671875 -19.515625 38.296875 C -19.804688 37.921875 -19.9375 37.476562 -19.90625 36.96875 C -19.863281 36.1875 -19.765625 35.429688 -19.609375 34.703125 C -19.453125 33.984375 -19.253906 33.269531 -19.015625 32.5625 C -18.347656 30.789062 -17.648438 29.050781 -16.921875 27.34375 C -16.203125 25.632812 -15.410156 23.957031 -14.546875 22.3125 C -13.328125 19.957031 -12.054688 17.628906 -10.734375 15.328125 C -9.421875 13.035156 -8.117188 10.753906 -6.828125 8.484375 C -6.753906 8.359375 -6.675781 8.238281 -6.59375 8.125 C -6.507812 8.007812 -6.453125 7.890625 -6.421875 7.765625 C -6.179688 7.378906 -6.238281 7.085938 -6.59375 6.890625 C -6.90625 6.691406 -7.195312 6.460938 -7.46875 6.203125 C -7.75 5.953125 -8.007812 5.691406 -8.25 5.421875 C -8.875 4.628906 -9.066406 3.8125 -8.828125 2.96875 C -8.597656 2.125 -7.972656 1.601562 -6.953125 1.40625 C -6.628906 1.375 -6.320312 1.328125 -6.03125 1.265625 C -5.738281 1.203125 -5.457031 1.171875 -5.1875 1.171875 C -4.394531 1.140625 -3.957031 1.070312 -3.875 0.96875 C -3.800781 0.875 -3.6875 0.507812 -3.53125 -0.125 C -2.90625 -2.507812 -2.128906 -4.835938 -1.203125 -7.109375 C -0.285156 -9.390625 0.722656 -11.613281 1.828125 -13.78125 C 2.691406 -15.539062 3.769531 -17.050781 5.0625 -18.3125 C 5.21875 -18.46875 5.375 -18.613281 5.53125 -18.75 C 5.6875 -18.882812 5.84375 -18.992188 6 -19.078125 C 6.476562 -19.347656 6.851562 -19.472656 7.125 -19.453125 C 7.394531 -19.429688 7.726562 -19.265625 8.125 -18.953125 C 8.519531 -18.640625 8.664062 -18.34375 8.5625 -18.0625 C 8.46875 -17.789062 8.300781 -17.441406 8.0625 -17.015625 C 7.988281 -16.898438 7.632812 -16.378906 7 -15.453125 C 6.375 -14.535156 5.617188 -13.316406 4.734375 -11.796875 C 3.859375 -10.285156 2.9375 -8.578125 1.96875 -6.671875 C 1.007812 -4.773438 0.175781 -2.765625 -0.53125 -0.640625 C -0.488281 -0.640625 -0.15625 -1.117188 0.46875 -2.078125 C 1.09375 -3.046875 1.9375 -4.265625 3 -5.734375 C 4.0625 -7.210938 5.25 -8.742188 6.5625 -10.328125 C 7.875 -11.921875 9.21875 -13.351562 10.59375 -14.625 C 11.96875 -15.90625 13.289062 -16.828125 14.5625 -17.390625 C 15.84375 -17.960938 16.972656 -17.9375 17.953125 -17.3125 Z M 17.421875 -15.890625 C 16.796875 -15.859375 16.25 -15.691406 15.78125 -15.390625 C 15.3125 -15.097656 14.859375 -14.816406 14.421875 -14.546875 C 12.691406 -13.367188 11.03125 -12.003906 9.4375 -10.453125 C 7.851562 -8.898438 6.429688 -7.382812 5.171875 -5.90625 C 3.921875 -4.4375 2.921875 -3.191406 2.171875 -2.171875 C 1.429688 -1.148438 1.019531 -0.582031 0.9375 -0.46875 C 0.820312 -0.3125 0.710938 -0.117188 0.609375 0.109375 C 0.515625 0.347656 0.429688 0.566406 0.359375 0.765625 C 0.203125 1.160156 0.359375 1.394531 0.828125 1.46875 C 2.429688 1.863281 3.65625 1.921875 4.5 1.640625 C 5.34375 1.367188 6.316406 0.625 7.421875 -0.59375 C 8.796875 -2.082031 10.097656 -3.628906 11.328125 -5.234375 C 12.566406 -6.847656 13.738281 -8.5 14.84375 -10.1875 C 15.382812 -11.050781 15.898438 -11.941406 16.390625 -12.859375 C 16.878906 -13.785156 17.222656 -14.796875 17.421875 -15.890625 Z M -18.140625 36.921875 C -17.898438 36.992188 -17.550781 36.820312 -17.09375 36.40625 C -16.644531 36 -16.382812 35.773438 -16.3125 35.734375 C -15.050781 34.484375 -13.890625 32.835938 -12.828125 30.796875 C -11.773438 28.753906 -10.816406 26.554688 -9.953125 24.203125 C -9.085938 21.847656 -8.3125 19.550781 -7.625 17.3125 C -6.9375 15.070312 -6.363281 13.085938 -5.90625 11.359375 C -5.457031 9.628906 -5.140625 8.394531 -4.953125 7.65625 C -5.296875 8.164062 -5.65625 8.8125 -6.03125 9.59375 C -6.40625 10.382812 -6.726562 11.101562 -7 11.75 C -7.28125 12.394531 -7.457031 12.773438 -7.53125 12.890625 C -8.320312 14.347656 -9.117188 15.78125 -9.921875 17.1875 C -10.722656 18.601562 -11.5 20.054688 -12.25 21.546875 C -13.226562 23.472656 -14.148438 25.414062 -15.015625 27.375 C -15.878906 29.34375 -16.644531 31.363281 -17.3125 33.4375 C -17.46875 33.988281 -17.632812 34.554688 -17.8125 35.140625 C -17.988281 35.734375 -18.097656 36.328125 -18.140625 36.921875 Z M -4.59375 3.171875 C -4.988281 3.210938 -5.46875 3.210938 -6.03125 3.171875 C -6.601562 3.140625 -7.046875 3.238281 -7.359375 3.46875 C -7.515625 3.625 -7.59375 3.8125 -7.59375 4.03125 C -7.59375 4.25 -7.570312 4.472656 -7.53125 4.703125 C -7.457031 4.898438 -7.300781 5.132812 -7.0625 5.40625 C -6.832031 5.6875 -6.632812 5.847656 -6.46875 5.890625 C -5.882812 6.003906 -5.484375 5.953125 -5.265625 5.734375 C -5.054688 5.523438 -4.867188 5.101562 -4.703125 4.46875 C -4.628906 4.28125 -4.570312 4.085938 -4.53125 3.890625 C -4.488281 3.691406 -4.507812 3.453125 -4.59375 3.171875 Z M -0.765625 4.65625 C -0.296875 4.5 0.125 4.347656 0.5 4.203125 C 0.875 4.066406 1.238281 3.863281 1.59375 3.59375 C 0.644531 3.28125 0.0546875 3.171875 -0.171875 3.265625 C -0.410156 3.367188 -0.609375 3.832031 -0.765625 4.65625 Z M -0.765625 4.65625 "/></g></g></g><g fill="#252b39" fill-opacity="1"><g transform="translate(154.658478, 96.631993)"><g><path d="M 4.125 -1.890625 C 4.082031 -2.078125 4.0625 -2.296875 4.0625 -2.546875 C 4.0625 -2.804688 4.003906 -3.078125 3.890625 -3.359375 C 3.535156 -3.003906 3.191406 -2.671875 2.859375 -2.359375 C 2.523438 -2.046875 2.203125 -1.726562 1.890625 -1.40625 C 1.453125 -0.9375 0.941406 -0.546875 0.359375 -0.234375 C -0.390625 0.117188 -1.144531 0.0976562 -1.90625 -0.296875 C -2.675781 -0.691406 -3.0625 -1.300781 -3.0625 -2.125 C -3.101562 -4.550781 -2.628906 -6.742188 -1.640625 -8.703125 C -0.660156 -10.671875 0.882812 -12.320312 3 -13.65625 C 3.90625 -14.207031 4.796875 -14.453125 5.671875 -14.390625 C 6.554688 -14.335938 7.429688 -14.054688 8.296875 -13.546875 C 8.535156 -13.390625 8.757812 -13.25 8.96875 -13.125 C 9.1875 -13.007812 9.453125 -13.007812 9.765625 -13.125 C 9.960938 -13.207031 10.148438 -13.195312 10.328125 -13.09375 C 10.503906 -13 10.671875 -12.910156 10.828125 -12.828125 C 11.460938 -12.554688 11.816406 -12.273438 11.890625 -11.984375 C 11.972656 -11.691406 11.859375 -11.226562 11.546875 -10.59375 C 11.109375 -9.851562 10.65625 -9.097656 10.1875 -8.328125 C 9.71875 -7.566406 9.328125 -6.773438 9.015625 -5.953125 C 8.179688 -3.910156 7.785156 -1.867188 7.828125 0.171875 C 7.828125 1.117188 8.003906 2.003906 8.359375 2.828125 C 8.671875 3.566406 9.28125 3.976562 10.1875 4.0625 C 11.09375 4.0625 11.9375 3.921875 12.71875 3.640625 C 13.5 3.367188 14.265625 3.039062 15.015625 2.65625 C 15.992188 2.175781 17.265625 1.472656 18.828125 0.546875 C 20.398438 -0.367188 22.109375 -1.382812 23.953125 -2.5 C 25.804688 -3.625 27.664062 -4.722656 29.53125 -5.796875 C 31.394531 -6.878906 33.128906 -7.84375 34.734375 -8.6875 C 36.347656 -9.53125 37.722656 -10.128906 38.859375 -10.484375 C 39.992188 -10.835938 40.71875 -10.816406 41.03125 -10.421875 C 41.03125 -10.421875 41.070312 -10.285156 41.15625 -10.015625 C 39.695312 -9.847656 38.054688 -9.320312 36.234375 -8.4375 C 34.410156 -7.5625 32.503906 -6.492188 30.515625 -5.234375 C 28.535156 -3.984375 26.566406 -2.691406 24.609375 -1.359375 C 22.648438 -0.0234375 20.796875 1.195312 19.046875 2.3125 C 17.296875 3.4375 15.734375 4.296875 14.359375 4.890625 C 12.671875 5.597656 10.941406 5.710938 9.171875 5.234375 C 7.410156 4.765625 6.019531 3.585938 5 1.703125 C 4.726562 1.160156 4.53125 0.585938 4.40625 -0.015625 C 4.289062 -0.628906 4.195312 -1.253906 4.125 -1.890625 Z M 0.828125 -2.59375 C 2.203125 -3.769531 3.378906 -5.09375 4.359375 -6.5625 C 5.335938 -8.03125 6.296875 -9.515625 7.234375 -11.015625 C 7.398438 -11.242188 7.441406 -11.445312 7.359375 -11.625 C 7.273438 -11.800781 7.175781 -11.96875 7.0625 -12.125 C 6.945312 -12.320312 6.800781 -12.421875 6.625 -12.421875 C 6.445312 -12.421875 6.28125 -12.382812 6.125 -12.3125 C 5.882812 -12.144531 5.632812 -12.003906 5.375 -11.890625 C 5.125 -11.773438 4.898438 -11.617188 4.703125 -11.421875 C 3.609375 -10.484375 2.664062 -9.441406 1.875 -8.296875 C 1.09375 -7.160156 0.425781 -5.90625 -0.125 -4.53125 C -0.28125 -4.132812 -0.414062 -3.691406 -0.53125 -3.203125 C -0.644531 -2.710938 -0.703125 -2.132812 -0.703125 -1.46875 C -0.390625 -1.707031 -0.109375 -1.914062 0.140625 -2.09375 C 0.398438 -2.269531 0.628906 -2.4375 0.828125 -2.59375 Z M 0.828125 -2.59375 "/></g></g></g></g></g><g clip-path="url(#afb98bdd71)"><g clip-path="url(#c6c2880ad0)"><g transform="matrix(1, 0, 0, 1, 231, 32)"><g clip-path="url(#680fca4290)"><g clip-path="url(#dcd1b5f100)"><g clip-path="url(#94f9dd59ac)"><g clip-path="url(#94772c2d79)"><path fill="#252b39" d="M 0.859375 46.792969 C 1.671875 46.816406 1.742188 47.085938 2.167969 46.972656 C 4.617188 46.277344 8.460938 46.375 9.921875 46.363281 C 33.703125 46 41.121094 15.394531 73.683594 5.367188 C 73.960938 5.277344 74.558594 4.660156 73.75 4.335938 C 68.878906 5.226562 63.765625 6.449219 55.167969 11.894531 C 45.683594 17.886719 31.105469 35.960938 22.921875 41.042969 C 12.300781 47.628906 4.566406 43.738281 0.878906 46.796875 Z M 0.859375 46.792969 " fill-opacity="1" fill-rule="evenodd"/></g></g></g></g></g></g></g><g clip-path="url(#3bb7f3aed0)"><g clip-path="url(#de7a8717d5)"><g clip-path="url(#55f7d69d30)"><path fill="#252b39" d="M 447.324219 94.191406 C 447.777344 94.355469 447.761719 94.519531 448.023438 94.539062 C 449.519531 94.609375 451.648438 95.390625 452.46875 95.660156 C 465.820312 99.9375 475.730469 84.238281 495.808594 84.773438 C 495.980469 84.773438 496.429688 84.542969 496.039062 84.207031 C 493.152344 83.789062 490.0625 83.507812 484.234375 84.929688 C 477.808594 86.492188 466.261719 93.839844 460.730469 95.136719 C 453.558594 96.8125 449.972656 93.183594 447.335938 94.195312 Z M 447.324219 94.191406 " fill-opacity="1" fill-rule="evenodd"/></g></g></g></svg>