<svg xmlns="http://www.w3.org/2000/svg" xmlns:xlink="http://www.w3.org/1999/xlink" width="1024" zoomAndPan="magnify" viewBox="0 0 768 149.999998" height="200" preserveAspectRatio="xMidYMid meet" version="1.0"><defs><g/><clipPath id="583df7fb0d"><rect x="0" width="364" y="0" height="150"/></clipPath><clipPath id="af2cf624a6"><path d="M 127 32 L 231 32 L 231 92 L 127 92 Z M 127 32 " clip-rule="nonzero"/></clipPath><clipPath id="b4552887c4"><path d="M 127.5 81.003906 L 225.550781 32.257812 L 230.894531 43.003906 L 132.84375 91.75 Z M 127.5 81.003906 " clip-rule="nonzero"/></clipPath><clipPath id="d5278e2040"><path d="M 3 0.398438 L 99 0.398438 L 99 56 L 3 56 Z M 3 0.398438 " clip-rule="nonzero"/></clipPath><clipPath id="2fa66088c1"><path d="M 0.5 49.003906 L 98.550781 0.257812 L 103.894531 11.003906 L 5.84375 59.75 Z M 0.5 49.003906 " clip-rule="nonzero"/></clipPath><clipPath id="51756491a7"><path d="M 98.730469 0.167969 L 0.679688 48.914062 L 6.019531 59.660156 L 104.070312 10.914062 Z M 98.730469 0.167969 " clip-rule="nonzero"/></clipPath><clipPath id="cc3050f685"><rect x="0" width="104" y="0" height="60"/></clipPath><clipPath id="38fb132b1e"><path d="M 551 47 L 618 47 L 618 105 L 551 105 Z M 551 47 " clip-rule="nonzero"/></clipPath><clipPath id="136853df1b"><path d="M 617.3125 56.222656 L 558.714844 104.222656 L 551.585938 95.519531 L 610.183594 47.519531 Z M 617.3125 56.222656 " clip-rule="nonzero"/></clipPath><clipPath id="cdec6a9810"><path d="M 0.519531 0.519531 L 60 0.519531 L 60 57.398438 L 0.519531 57.398438 Z M 0.519531 0.519531 " clip-rule="nonzero"/></clipPath><clipPath id="337df58820"><path d="M 66.3125 9.222656 L 7.714844 57.222656 L 0.585938 48.519531 L 59.183594 0.519531 Z M 66.3125 9.222656 " clip-rule="nonzero"/></clipPath><clipPath id="e815a8bd78"><path d="M 59.132812 0.453125 L -19.773438 65.089844 L -12.644531 73.792969 L 66.261719 9.15625 Z M 59.132812 0.453125 " clip-rule="nonzero"/></clipPath><clipPath id="2ea5a83115"><rect x="0" width="67" y="0" height="58"/></clipPath></defs><g transform="matrix(1, 0, 0, 1, 202, -0.000000000000007522)"><g clip-path="url(#583df7fb0d)"><g fill="#252b39" fill-opacity="1"><g transform="translate(1.001693, 96.652432)"><g><path d="M 79.015625 -39.453125 C 76.929688 -28.847656 72.882812 -19.050781 66.875 -10.0625 C 66.601562 -9.675781 66.3125 -9.226562 66 -8.71875 C 67.882812 -8.789062 69.707031 -8.695312 71.46875 -8.4375 C 73.238281 -8.1875 74.988281 -7.882812 76.71875 -7.53125 C 76.914062 -7.5 77.109375 -7.453125 77.296875 -7.390625 C 77.492188 -7.328125 77.671875 -7.257812 77.828125 -7.1875 C 78.023438 -7.101562 78.222656 -7.003906 78.421875 -6.890625 C 78.617188 -6.773438 78.675781 -6.617188 78.59375 -6.421875 C 78.519531 -6.179688 78.375 -6.070312 78.15625 -6.09375 C 77.9375 -6.113281 77.726562 -6.160156 77.53125 -6.234375 C 77.0625 -6.472656 76.550781 -6.59375 76 -6.59375 C 74.3125 -6.789062 72.625 -6.945312 70.9375 -7.0625 C 69.25 -7.175781 67.546875 -7.175781 65.828125 -7.0625 C 65.234375 -7.0625 64.722656 -6.785156 64.296875 -6.234375 C 62.367188 -3.367188 60.273438 -0.644531 58.015625 1.9375 C 55.765625 4.53125 53.300781 6.90625 50.625 9.0625 C 49.175781 10.238281 47.632812 11.285156 46 12.203125 C 44.375 13.128906 42.617188 13.8125 40.734375 14.25 C 37.679688 14.914062 34.867188 14.671875 32.296875 13.515625 C 29.722656 12.359375 27.648438 10.40625 26.078125 7.65625 C 25.804688 7.144531 25.539062 6.632812 25.28125 6.125 C 25.03125 5.613281 24.804688 5.101562 24.609375 4.59375 C 24.453125 4.195312 24.140625 3.941406 23.671875 3.828125 C 20.140625 3.046875 16.96875 1.734375 14.15625 -0.109375 C 11.351562 -1.960938 8.976562 -4.210938 7.03125 -6.859375 C 5.09375 -9.503906 3.679688 -12.46875 2.796875 -15.75 C 1.910156 -19.03125 1.625 -22.453125 1.9375 -26.015625 C 2.289062 -29.867188 3.09375 -33.539062 4.34375 -37.03125 C 5.601562 -40.519531 7.160156 -43.9375 9.015625 -47.28125 C 11.171875 -51.082031 13.515625 -54.75 16.046875 -58.28125 C 18.578125 -61.8125 21.453125 -65.070312 24.671875 -68.0625 C 27.929688 -71.039062 31.40625 -73.640625 35.09375 -75.859375 C 38.78125 -78.078125 42.800781 -79.71875 47.15625 -80.78125 C 49.820312 -81.40625 52.46875 -81.742188 55.09375 -81.796875 C 57.726562 -81.859375 60.34375 -81.363281 62.9375 -80.3125 C 66.9375 -78.695312 70.234375 -76.40625 72.828125 -73.4375 C 75.421875 -70.476562 77.304688 -66.921875 78.484375 -62.765625 C 79.578125 -58.910156 80.132812 -55.039062 80.15625 -51.15625 C 80.175781 -47.269531 79.796875 -43.367188 79.015625 -39.453125 Z M 57.46875 -1.53125 C 58.09375 -2.3125 58.695312 -3.09375 59.28125 -3.875 C 59.875 -4.664062 60.445312 -5.492188 61 -6.359375 C 60.84375 -6.429688 60.703125 -6.457031 60.578125 -6.4375 C 60.460938 -6.425781 60.347656 -6.398438 60.234375 -6.359375 C 57.878906 -5.960938 55.609375 -5.320312 53.421875 -4.4375 C 51.242188 -3.5625 49.078125 -2.59375 46.921875 -1.53125 C 44.960938 -0.550781 42.988281 0.394531 41 1.3125 C 39.019531 2.238281 36.976562 2.988281 34.875 3.5625 C 32.78125 4.132812 30.578125 4.378906 28.265625 4.296875 C 27.910156 4.253906 27.8125 4.453125 27.96875 4.890625 C 28.394531 5.984375 28.894531 7.039062 29.46875 8.0625 C 30.039062 9.082031 30.753906 10.023438 31.609375 10.890625 C 33.578125 12.890625 35.914062 13.597656 38.625 13.015625 C 39.84375 12.773438 41 12.398438 42.09375 11.890625 C 43.195312 11.378906 44.257812 10.8125 45.28125 10.1875 C 47.707031 8.613281 49.890625 6.804688 51.828125 4.765625 C 53.773438 2.722656 55.65625 0.625 57.46875 -1.53125 Z M 62.765625 -9.015625 C 64.722656 -11.835938 66.503906 -14.757812 68.109375 -17.78125 C 69.722656 -20.800781 71.140625 -23.921875 72.359375 -27.140625 C 73.847656 -31.023438 75.070312 -34.96875 76.03125 -38.96875 C 77 -42.976562 77.460938 -47.140625 77.421875 -51.453125 C 77.460938 -54.242188 77.234375 -57.050781 76.734375 -59.875 C 76.242188 -62.695312 75.332031 -65.425781 74 -68.0625 C 72.550781 -70.96875 70.695312 -73.457031 68.4375 -75.53125 C 66.1875 -77.613281 63.453125 -79.144531 60.234375 -80.125 C 58.234375 -80.71875 56.210938 -80.9375 54.171875 -80.78125 C 52.128906 -80.625 50.101562 -80.289062 48.09375 -79.78125 C 44.050781 -78.71875 40.289062 -77.125 36.8125 -75 C 33.34375 -72.882812 30.117188 -70.394531 27.140625 -67.53125 C 23.453125 -63.957031 20.222656 -60.078125 17.453125 -55.890625 C 14.691406 -51.710938 12.210938 -47.332031 10.015625 -42.75 C 8.328125 -39.175781 7.0625 -35.484375 6.21875 -31.671875 C 5.375 -27.867188 5.164062 -23.960938 5.59375 -19.953125 C 5.90625 -16.972656 6.628906 -14.148438 7.765625 -11.484375 C 8.910156 -8.816406 10.5625 -6.382812 12.71875 -4.1875 C 14.164062 -2.726562 15.710938 -1.429688 17.359375 -0.296875 C 19.015625 0.835938 20.84375 1.679688 22.84375 2.234375 C 23.15625 2.316406 23.390625 2.347656 23.546875 2.328125 C 23.703125 2.304688 23.722656 2.0625 23.609375 1.59375 C 22.703125 -1.550781 22.269531 -4.710938 22.3125 -7.890625 C 22.351562 -11.066406 22.804688 -14.226562 23.671875 -17.375 C 26.296875 -27.0625 30.75 -35.910156 37.03125 -43.921875 C 38.914062 -46.316406 40.847656 -48.660156 42.828125 -50.953125 C 44.816406 -53.253906 46.96875 -55.363281 49.28125 -57.28125 C 50.5 -58.257812 51.753906 -59.160156 53.046875 -59.984375 C 54.335938 -60.816406 55.75 -61.425781 57.28125 -61.8125 C 57.945312 -61.96875 58.582031 -62.023438 59.1875 -61.984375 C 59.800781 -61.953125 60.40625 -61.757812 61 -61.40625 C 61.664062 -61.050781 61.820312 -60.460938 61.46875 -59.640625 C 61.382812 -59.484375 61.285156 -59.351562 61.171875 -59.25 C 61.054688 -59.15625 60.898438 -59.128906 60.703125 -59.171875 C 60.546875 -59.210938 60.4375 -59.289062 60.375 -59.40625 C 60.3125 -59.519531 60.265625 -59.65625 60.234375 -59.8125 C 60.078125 -60.40625 59.914062 -60.75 59.75 -60.84375 C 59.59375 -60.945312 59.242188 -60.898438 58.703125 -60.703125 C 57.640625 -60.347656 56.632812 -59.894531 55.6875 -59.34375 C 54.75 -58.789062 53.828125 -58.179688 52.921875 -57.515625 C 50.691406 -55.828125 48.632812 -53.953125 46.75 -51.890625 C 44.863281 -49.835938 43.054688 -47.710938 41.328125 -45.515625 C 37.640625 -40.878906 34.507812 -36 31.9375 -30.875 C 29.363281 -25.757812 27.507812 -20.296875 26.375 -14.484375 C 25.863281 -11.734375 25.644531 -8.972656 25.71875 -6.203125 C 25.800781 -3.441406 26.238281 -0.707031 27.03125 2 C 27.1875 2.59375 27.554688 2.890625 28.140625 2.890625 C 29.671875 2.921875 31.242188 2.757812 32.859375 2.40625 C 34.890625 1.976562 36.828125 1.320312 38.671875 0.4375 C 40.523438 -0.445312 42.375 -1.335938 44.21875 -2.234375 C 47.039062 -3.609375 49.894531 -4.882812 52.78125 -6.0625 C 55.664062 -7.238281 58.695312 -7.984375 61.875 -8.296875 C 62.15625 -8.335938 62.34375 -8.425781 62.4375 -8.5625 C 62.53125 -8.695312 62.640625 -8.847656 62.765625 -9.015625 Z M 62.765625 -9.015625 "/></g></g></g><g fill="#252b39" fill-opacity="1"><g transform="translate(79.239858, 96.652432)"><g><path d="M 6.953125 5.953125 C 7.304688 4.960938 7.875 4.097656 8.65625 3.359375 C 9.238281 2.804688 9.578125 2.066406 9.671875 1.140625 C 9.773438 0.222656 9.613281 -0.566406 9.1875 -1.234375 C 8.90625 -1.742188 8.492188 -1.941406 7.953125 -1.828125 C 7.203125 -1.671875 6.472656 -1.492188 5.765625 -1.296875 C 5.054688 -1.097656 4.367188 -0.878906 3.703125 -0.640625 C 3.003906 -0.410156 2.300781 -0.234375 1.59375 -0.109375 C 0.882812 0.00390625 0.15625 -0.015625 -0.59375 -0.171875 C -0.664062 -0.210938 -0.800781 -0.234375 -1 -0.234375 C -3.351562 -0.785156 -4.195312 -2.21875 -3.53125 -4.53125 C -2.707031 -7.195312 -1.472656 -9.671875 0.171875 -11.953125 C 0.722656 -12.691406 1.332031 -13.375 2 -14 C 2.664062 -14.632812 3.394531 -15.1875 4.1875 -15.65625 C 5.007812 -16.132812 5.867188 -16.457031 6.765625 -16.625 C 7.671875 -16.800781 8.59375 -16.796875 9.53125 -16.609375 C 11.144531 -16.210938 12.175781 -15.519531 12.625 -14.53125 C 13.082031 -13.550781 13.210938 -12.359375 13.015625 -10.953125 C 12.972656 -10.710938 12.890625 -10.492188 12.765625 -10.296875 C 12.648438 -10.109375 12.4375 -9.972656 12.125 -9.890625 C 11.695312 -9.804688 11.351562 -9.882812 11.09375 -10.125 C 10.84375 -10.363281 10.738281 -10.738281 10.78125 -11.25 C 10.851562 -11.71875 10.859375 -12.175781 10.796875 -12.625 C 10.742188 -13.082031 10.617188 -13.503906 10.421875 -13.890625 C 10.066406 -14.523438 9.710938 -14.898438 9.359375 -15.015625 C 9.003906 -15.128906 8.492188 -15.03125 7.828125 -14.71875 C 6.847656 -14.25 6.015625 -13.648438 5.328125 -12.921875 C 4.640625 -12.191406 3.984375 -11.414062 3.359375 -10.59375 C 2.691406 -9.695312 2.101562 -8.738281 1.59375 -7.71875 C 1.082031 -6.695312 0.609375 -5.632812 0.171875 -4.53125 C 0.0546875 -4.21875 -0.0351562 -3.882812 -0.109375 -3.53125 C -0.191406 -3.175781 -0.234375 -2.800781 -0.234375 -2.40625 C -0.191406 -2.019531 -0.101562 -1.765625 0.03125 -1.640625 C 0.164062 -1.523438 0.429688 -1.507812 0.828125 -1.59375 C 1.335938 -1.75 1.835938 -1.90625 2.328125 -2.0625 C 2.816406 -2.21875 3.316406 -2.375 3.828125 -2.53125 C 4.179688 -2.644531 4.523438 -2.75 4.859375 -2.84375 C 5.191406 -2.945312 5.535156 -3.054688 5.890625 -3.171875 C 6.085938 -3.210938 6.289062 -3.253906 6.5 -3.296875 C 6.71875 -3.335938 6.925781 -3.359375 7.125 -3.359375 C 8.5 -3.515625 9.578125 -3.375 10.359375 -2.9375 C 11.148438 -2.507812 11.859375 -1.664062 12.484375 -0.40625 C 13.148438 -1 13.796875 -1.566406 14.421875 -2.109375 C 15.046875 -2.660156 15.675781 -3.191406 16.3125 -3.703125 C 16.894531 -4.210938 17.5 -4.703125 18.125 -5.171875 C 18.757812 -5.648438 19.390625 -6.082031 20.015625 -6.46875 C 20.210938 -6.59375 20.398438 -6.703125 20.578125 -6.796875 C 20.753906 -6.898438 20.921875 -6.988281 21.078125 -7.0625 C 21.273438 -7.144531 21.46875 -7.175781 21.65625 -7.15625 C 21.851562 -7.132812 21.992188 -7.023438 22.078125 -6.828125 C 22.160156 -6.628906 22.128906 -6.476562 21.984375 -6.375 C 21.847656 -6.28125 21.722656 -6.195312 21.609375 -6.125 C 19.960938 -4.945312 18.398438 -3.679688 16.921875 -2.328125 C 15.453125 -0.972656 13.992188 0.390625 12.546875 1.765625 C 12.390625 1.960938 12.222656 2.164062 12.046875 2.375 C 11.867188 2.59375 11.738281 2.84375 11.65625 3.125 C 11.414062 3.832031 11.082031 4.476562 10.65625 5.0625 C 10.226562 5.65625 9.773438 6.242188 9.296875 6.828125 C 9.179688 6.984375 9.046875 7.117188 8.890625 7.234375 C 8.734375 7.359375 8.554688 7.441406 8.359375 7.484375 C 8.085938 7.515625 7.8125 7.539062 7.53125 7.5625 C 7.257812 7.582031 7.023438 7.472656 6.828125 7.234375 C 6.628906 7.046875 6.578125 6.832031 6.671875 6.59375 C 6.773438 6.351562 6.867188 6.140625 6.953125 5.953125 Z M 6.953125 5.953125 "/></g></g></g><g fill="#252b39" fill-opacity="1"><g transform="translate(97.312552, 96.652432)"><g/></g></g><g fill="#252b39" fill-opacity="1"><g transform="translate(116.150563, 96.652432)"><g><path d="M 11.296875 2.40625 C 8.671875 3.394531 6.445312 3.546875 4.625 2.859375 C 2.800781 2.171875 1.160156 0.648438 -0.296875 -1.703125 C -1.742188 -4.140625 -1.976562 -6.691406 -1 -9.359375 C -0.175781 -11.554688 1.046875 -13.332031 2.671875 -14.6875 C 4.304688 -16.039062 6.222656 -17.03125 8.421875 -17.65625 C 9.285156 -17.9375 10.097656 -17.957031 10.859375 -17.71875 C 11.628906 -17.488281 12.363281 -17.117188 13.0625 -16.609375 C 13.96875 -15.941406 14.164062 -15.097656 13.65625 -14.078125 C 13.457031 -13.679688 13.242188 -13.363281 13.015625 -13.125 C 12.148438 -12.300781 11.234375 -11.554688 10.265625 -10.890625 C 9.304688 -10.222656 8.257812 -9.691406 7.125 -9.296875 C 5.988281 -8.941406 4.867188 -8.90625 3.765625 -9.1875 C 3.367188 -9.300781 3.0625 -9.28125 2.84375 -9.125 C 2.632812 -8.96875 2.453125 -8.734375 2.296875 -8.421875 C 1.546875 -6.804688 1.238281 -5.242188 1.375 -3.734375 C 1.519531 -2.222656 2.140625 -0.742188 3.234375 0.703125 C 3.703125 1.253906 4.238281 1.617188 4.84375 1.796875 C 5.457031 1.972656 6.097656 2.039062 6.765625 2 C 7.710938 1.925781 8.617188 1.757812 9.484375 1.5 C 10.347656 1.25 11.191406 0.925781 12.015625 0.53125 C 12.753906 0.175781 13.8125 -0.390625 15.1875 -1.171875 C 16.5625 -1.960938 18.148438 -2.847656 19.953125 -3.828125 C 21.765625 -4.804688 23.691406 -5.773438 25.734375 -6.734375 C 27.773438 -7.703125 29.832031 -8.535156 31.90625 -9.234375 C 33.988281 -9.941406 35.992188 -10.394531 37.921875 -10.59375 C 38.148438 -10.59375 38.390625 -10.5625 38.640625 -10.5 C 38.898438 -10.445312 39.109375 -10.222656 39.265625 -9.828125 C 36.515625 -9.472656 33.773438 -8.738281 31.046875 -7.625 C 28.328125 -6.507812 25.71875 -5.273438 23.21875 -3.921875 C 20.726562 -2.566406 18.460938 -1.296875 16.421875 -0.109375 C 14.378906 1.066406 12.671875 1.90625 11.296875 2.40625 Z M 11.1875 -15.421875 C 10.476562 -15.460938 9.640625 -15.253906 8.671875 -14.796875 C 7.710938 -14.347656 6.820312 -13.789062 6 -13.125 C 5.175781 -12.457031 4.609375 -11.769531 4.296875 -11.0625 C 5.078125 -10.988281 5.957031 -11.164062 6.9375 -11.59375 C 7.925781 -12.03125 8.820312 -12.597656 9.625 -13.296875 C 10.425781 -14.003906 10.945312 -14.710938 11.1875 -15.421875 Z M 11.1875 -15.421875 "/></g></g></g><g fill="#252b39" fill-opacity="1"><g transform="translate(149.823888, 96.652432)"><g><path d="M 6.953125 5.953125 C 7.304688 4.960938 7.875 4.097656 8.65625 3.359375 C 9.238281 2.804688 9.578125 2.066406 9.671875 1.140625 C 9.773438 0.222656 9.613281 -0.566406 9.1875 -1.234375 C 8.90625 -1.742188 8.492188 -1.941406 7.953125 -1.828125 C 7.203125 -1.671875 6.472656 -1.492188 5.765625 -1.296875 C 5.054688 -1.097656 4.367188 -0.878906 3.703125 -0.640625 C 3.003906 -0.410156 2.300781 -0.234375 1.59375 -0.109375 C 0.882812 0.00390625 0.15625 -0.015625 -0.59375 -0.171875 C -0.664062 -0.210938 -0.800781 -0.234375 -1 -0.234375 C -3.351562 -0.785156 -4.195312 -2.21875 -3.53125 -4.53125 C -2.707031 -7.195312 -1.472656 -9.671875 0.171875 -11.953125 C 0.722656 -12.691406 1.332031 -13.375 2 -14 C 2.664062 -14.632812 3.394531 -15.1875 4.1875 -15.65625 C 5.007812 -16.132812 5.867188 -16.457031 6.765625 -16.625 C 7.671875 -16.800781 8.59375 -16.796875 9.53125 -16.609375 C 11.144531 -16.210938 12.175781 -15.519531 12.625 -14.53125 C 13.082031 -13.550781 13.210938 -12.359375 13.015625 -10.953125 C 12.972656 -10.710938 12.890625 -10.492188 12.765625 -10.296875 C 12.648438 -10.109375 12.4375 -9.972656 12.125 -9.890625 C 11.695312 -9.804688 11.351562 -9.882812 11.09375 -10.125 C 10.84375 -10.363281 10.738281 -10.738281 10.78125 -11.25 C 10.851562 -11.71875 10.859375 -12.175781 10.796875 -12.625 C 10.742188 -13.082031 10.617188 -13.503906 10.421875 -13.890625 C 10.066406 -14.523438 9.710938 -14.898438 9.359375 -15.015625 C 9.003906 -15.128906 8.492188 -15.03125 7.828125 -14.71875 C 6.847656 -14.25 6.015625 -13.648438 5.328125 -12.921875 C 4.640625 -12.191406 3.984375 -11.414062 3.359375 -10.59375 C 2.691406 -9.695312 2.101562 -8.738281 1.59375 -7.71875 C 1.082031 -6.695312 0.609375 -5.632812 0.171875 -4.53125 C 0.0546875 -4.21875 -0.0351562 -3.882812 -0.109375 -3.53125 C -0.191406 -3.175781 -0.234375 -2.800781 -0.234375 -2.40625 C -0.191406 -2.019531 -0.101562 -1.765625 0.03125 -1.640625 C 0.164062 -1.523438 0.429688 -1.507812 0.828125 -1.59375 C 1.335938 -1.75 1.835938 -1.90625 2.328125 -2.0625 C 2.816406 -2.21875 3.316406 -2.375 3.828125 -2.53125 C 4.179688 -2.644531 4.523438 -2.75 4.859375 -2.84375 C 5.191406 -2.945312 5.535156 -3.054688 5.890625 -3.171875 C 6.085938 -3.210938 6.289062 -3.253906 6.5 -3.296875 C 6.71875 -3.335938 6.925781 -3.359375 7.125 -3.359375 C 8.5 -3.515625 9.578125 -3.375 10.359375 -2.9375 C 11.148438 -2.507812 11.859375 -1.664062 12.484375 -0.40625 C 13.148438 -1 13.796875 -1.566406 14.421875 -2.109375 C 15.046875 -2.660156 15.675781 -3.191406 16.3125 -3.703125 C 16.894531 -4.210938 17.5 -4.703125 18.125 -5.171875 C 18.757812 -5.648438 19.390625 -6.082031 20.015625 -6.46875 C 20.210938 -6.59375 20.398438 -6.703125 20.578125 -6.796875 C 20.753906 -6.898438 20.921875 -6.988281 21.078125 -7.0625 C 21.273438 -7.144531 21.46875 -7.175781 21.65625 -7.15625 C 21.851562 -7.132812 21.992188 -7.023438 22.078125 -6.828125 C 22.160156 -6.628906 22.128906 -6.476562 21.984375 -6.375 C 21.847656 -6.28125 21.722656 -6.195312 21.609375 -6.125 C 19.960938 -4.945312 18.398438 -3.679688 16.921875 -2.328125 C 15.453125 -0.972656 13.992188 0.390625 12.546875 1.765625 C 12.390625 1.960938 12.222656 2.164062 12.046875 2.375 C 11.867188 2.59375 11.738281 2.84375 11.65625 3.125 C 11.414062 3.832031 11.082031 4.476562 10.65625 5.0625 C 10.226562 5.65625 9.773438 6.242188 9.296875 6.828125 C 9.179688 6.984375 9.046875 7.117188 8.890625 7.234375 C 8.734375 7.359375 8.554688 7.441406 8.359375 7.484375 C 8.085938 7.515625 7.8125 7.539062 7.53125 7.5625 C 7.257812 7.582031 7.023438 7.472656 6.828125 7.234375 C 6.628906 7.046875 6.578125 6.832031 6.671875 6.59375 C 6.773438 6.351562 6.867188 6.140625 6.953125 5.953125 Z M 6.953125 5.953125 "/></g></g></g><g fill="#252b39" fill-opacity="1"><g transform="translate(167.896589, 96.652432)"><g><path d="M 17.953125 -17.3125 C 18.898438 -16.71875 19.609375 -16.125 20.078125 -15.53125 C 20.546875 -14.945312 20.625 -14.085938 20.3125 -12.953125 C 19.914062 -11.617188 19.394531 -10.332031 18.75 -9.09375 C 18.101562 -7.851562 17.347656 -6.6875 16.484375 -5.59375 C 15.703125 -4.570312 14.867188 -3.570312 13.984375 -2.59375 C 13.097656 -1.613281 12.203125 -0.671875 11.296875 0.234375 C 11.140625 0.390625 11.003906 0.535156 10.890625 0.671875 C 10.773438 0.816406 10.675781 1.023438 10.59375 1.296875 C 12.789062 1.296875 14.96875 0.921875 17.125 0.171875 C 19.289062 -0.566406 21.332031 -1.484375 23.25 -2.578125 C 25.175781 -3.679688 26.90625 -4.789062 28.4375 -5.90625 C 29.96875 -7.03125 31.222656 -8.003906 32.203125 -8.828125 C 33.179688 -9.648438 33.789062 -10.125 34.03125 -10.25 C 34.34375 -10.40625 34.546875 -10.382812 34.640625 -10.1875 C 34.742188 -9.988281 34.597656 -9.734375 34.203125 -9.421875 C 31.960938 -7.617188 29.988281 -6.019531 28.28125 -4.625 C 26.582031 -3.226562 24.914062 -2.03125 23.28125 -1.03125 C 21.65625 -0.03125 19.910156 0.800781 18.046875 1.46875 C 16.179688 2.132812 13.972656 2.644531 11.421875 3 C 10.441406 3.15625 9.441406 3.273438 8.421875 3.359375 C 7.867188 3.398438 7.316406 3.613281 6.765625 4 C 5.554688 4.75 4.3125 5.414062 3.03125 6 C 1.757812 6.59375 0.4375 7.023438 -0.9375 7.296875 C -1.414062 7.378906 -1.75 7.695312 -1.9375 8.25 C -2.6875 10.632812 -3.40625 13.015625 -4.09375 15.390625 C -4.78125 17.765625 -5.515625 20.128906 -6.296875 22.484375 C -7.472656 26.296875 -9.125 29.867188 -11.25 33.203125 C -11.789062 34.066406 -12.351562 34.941406 -12.9375 35.828125 C -13.53125 36.710938 -14.222656 37.503906 -15.015625 38.203125 C -15.210938 38.367188 -15.40625 38.53125 -15.59375 38.6875 C -15.789062 38.84375 -16.007812 39 -16.25 39.15625 C -16.601562 39.382812 -16.960938 39.535156 -17.328125 39.609375 C -17.703125 39.691406 -18.085938 39.597656 -18.484375 39.328125 C -18.878906 39.015625 -19.222656 38.671875 -19.515625 38.296875 C -19.804688 37.921875 -19.9375 37.476562 -19.90625 36.96875 C -19.863281 36.1875 -19.765625 35.429688 -19.609375 34.703125 C -19.453125 33.984375 -19.253906 33.269531 -19.015625 32.5625 C -18.347656 30.789062 -17.648438 29.050781 -16.921875 27.34375 C -16.203125 25.632812 -15.410156 23.957031 -14.546875 22.3125 C -13.328125 19.957031 -12.054688 17.628906 -10.734375 15.328125 C -9.421875 13.035156 -8.117188 10.753906 -6.828125 8.484375 C -6.753906 8.359375 -6.675781 8.238281 -6.59375 8.125 C -6.507812 8.007812 -6.453125 7.890625 -6.421875 7.765625 C -6.179688 7.378906 -6.238281 7.085938 -6.59375 6.890625 C -6.90625 6.691406 -7.195312 6.460938 -7.46875 6.203125 C -7.75 5.953125 -8.007812 5.691406 -8.25 5.421875 C -8.875 4.628906 -9.066406 3.8125 -8.828125 2.96875 C -8.597656 2.125 -7.972656 1.601562 -6.953125 1.40625 C -6.628906 1.375 -6.320312 1.328125 -6.03125 1.265625 C -5.738281 1.203125 -5.457031 1.171875 -5.1875 1.171875 C -4.394531 1.140625 -3.957031 1.070312 -3.875 0.96875 C -3.800781 0.875 -3.6875 0.507812 -3.53125 -0.125 C -2.90625 -2.507812 -2.128906 -4.835938 -1.203125 -7.109375 C -0.285156 -9.390625 0.722656 -11.613281 1.828125 -13.78125 C 2.691406 -15.539062 3.769531 -17.050781 5.0625 -18.3125 C 5.21875 -18.46875 5.375 -18.613281 5.53125 -18.75 C 5.6875 -18.882812 5.84375 -18.992188 6 -19.078125 C 6.476562 -19.347656 6.851562 -19.472656 7.125 -19.453125 C 7.394531 -19.429688 7.726562 -19.265625 8.125 -18.953125 C 8.519531 -18.640625 8.664062 -18.34375 8.5625 -18.0625 C 8.46875 -17.789062 8.300781 -17.441406 8.0625 -17.015625 C 7.988281 -16.898438 7.632812 -16.378906 7 -15.453125 C 6.375 -14.535156 5.617188 -13.316406 4.734375 -11.796875 C 3.859375 -10.285156 2.9375 -8.578125 1.96875 -6.671875 C 1.007812 -4.773438 0.175781 -2.765625 -0.53125 -0.640625 C -0.488281 -0.640625 -0.15625 -1.117188 0.46875 -2.078125 C 1.09375 -3.046875 1.9375 -4.265625 3 -5.734375 C 4.0625 -7.210938 5.25 -8.742188 6.5625 -10.328125 C 7.875 -11.921875 9.21875 -13.351562 10.59375 -14.625 C 11.96875 -15.90625 13.289062 -16.828125 14.5625 -17.390625 C 15.84375 -17.960938 16.972656 -17.9375 17.953125 -17.3125 Z M 17.421875 -15.890625 C 16.796875 -15.859375 16.25 -15.691406 15.78125 -15.390625 C 15.3125 -15.097656 14.859375 -14.816406 14.421875 -14.546875 C 12.691406 -13.367188 11.03125 -12.003906 9.4375 -10.453125 C 7.851562 -8.898438 6.429688 -7.382812 5.171875 -5.90625 C 3.921875 -4.4375 2.921875 -3.191406 2.171875 -2.171875 C 1.429688 -1.148438 1.019531 -0.582031 0.9375 -0.46875 C 0.820312 -0.3125 0.710938 -0.117188 0.609375 0.109375 C 0.515625 0.347656 0.429688 0.566406 0.359375 0.765625 C 0.203125 1.160156 0.359375 1.394531 0.828125 1.46875 C 2.429688 1.863281 3.65625 1.921875 4.5 1.640625 C 5.34375 1.367188 6.316406 0.625 7.421875 -0.59375 C 8.796875 -2.082031 10.097656 -3.628906 11.328125 -5.234375 C 12.566406 -6.847656 13.738281 -8.5 14.84375 -10.1875 C 15.382812 -11.050781 15.898438 -11.941406 16.390625 -12.859375 C 16.878906 -13.785156 17.222656 -14.796875 17.421875 -15.890625 Z M -18.140625 36.921875 C -17.898438 36.992188 -17.550781 36.820312 -17.09375 36.40625 C -16.644531 36 -16.382812 35.773438 -16.3125 35.734375 C -15.050781 34.484375 -13.890625 32.835938 -12.828125 30.796875 C -11.773438 28.753906 -10.816406 26.554688 -9.953125 24.203125 C -9.085938 21.847656 -8.3125 19.550781 -7.625 17.3125 C -6.9375 15.070312 -6.363281 13.085938 -5.90625 11.359375 C -5.457031 9.628906 -5.140625 8.394531 -4.953125 7.65625 C -5.296875 8.164062 -5.65625 8.8125 -6.03125 9.59375 C -6.40625 10.382812 -6.726562 11.101562 -7 11.75 C -7.28125 12.394531 -7.457031 12.773438 -7.53125 12.890625 C -8.320312 14.347656 -9.117188 15.78125 -9.921875 17.1875 C -10.722656 18.601562 -11.5 20.054688 -12.25 21.546875 C -13.226562 23.472656 -14.148438 25.414062 -15.015625 27.375 C -15.878906 29.34375 -16.644531 31.363281 -17.3125 33.4375 C -17.46875 33.988281 -17.632812 34.554688 -17.8125 35.140625 C -17.988281 35.734375 -18.097656 36.328125 -18.140625 36.921875 Z M -4.59375 3.171875 C -4.988281 3.210938 -5.46875 3.210938 -6.03125 3.171875 C -6.601562 3.140625 -7.046875 3.238281 -7.359375 3.46875 C -7.515625 3.625 -7.59375 3.8125 -7.59375 4.03125 C -7.59375 4.25 -7.570312 4.472656 -7.53125 4.703125 C -7.457031 4.898438 -7.300781 5.132812 -7.0625 5.40625 C -6.832031 5.6875 -6.632812 5.847656 -6.46875 5.890625 C -5.882812 6.003906 -5.484375 5.953125 -5.265625 5.734375 C -5.054688 5.523438 -4.867188 5.101562 -4.703125 4.46875 C -4.628906 4.28125 -4.570312 4.085938 -4.53125 3.890625 C -4.488281 3.691406 -4.507812 3.453125 -4.59375 3.171875 Z M -0.765625 4.65625 C -0.296875 4.5 0.125 4.347656 0.5 4.203125 C 0.875 4.066406 1.238281 3.863281 1.59375 3.59375 C 0.644531 3.28125 0.0546875 3.171875 -0.171875 3.265625 C -0.410156 3.367188 -0.609375 3.832031 -0.765625 4.65625 Z M -0.765625 4.65625 "/></g></g></g><g fill="#252b39" fill-opacity="1"><g transform="translate(197.154651, 96.652432)"><g><path d="M 11.296875 2.40625 C 8.671875 3.394531 6.445312 3.546875 4.625 2.859375 C 2.800781 2.171875 1.160156 0.648438 -0.296875 -1.703125 C -1.742188 -4.140625 -1.976562 -6.691406 -1 -9.359375 C -0.175781 -11.554688 1.046875 -13.332031 2.671875 -14.6875 C 4.304688 -16.039062 6.222656 -17.03125 8.421875 -17.65625 C 9.285156 -17.9375 10.097656 -17.957031 10.859375 -17.71875 C 11.628906 -17.488281 12.363281 -17.117188 13.0625 -16.609375 C 13.96875 -15.941406 14.164062 -15.097656 13.65625 -14.078125 C 13.457031 -13.679688 13.242188 -13.363281 13.015625 -13.125 C 12.148438 -12.300781 11.234375 -11.554688 10.265625 -10.890625 C 9.304688 -10.222656 8.257812 -9.691406 7.125 -9.296875 C 5.988281 -8.941406 4.867188 -8.90625 3.765625 -9.1875 C 3.367188 -9.300781 3.0625 -9.28125 2.84375 -9.125 C 2.632812 -8.96875 2.453125 -8.734375 2.296875 -8.421875 C 1.546875 -6.804688 1.238281 -5.242188 1.375 -3.734375 C 1.519531 -2.222656 2.140625 -0.742188 3.234375 0.703125 C 3.703125 1.253906 4.238281 1.617188 4.84375 1.796875 C 5.457031 1.972656 6.097656 2.039062 6.765625 2 C 7.710938 1.925781 8.617188 1.757812 9.484375 1.5 C 10.347656 1.25 11.191406 0.925781 12.015625 0.53125 C 12.753906 0.175781 13.8125 -0.390625 15.1875 -1.171875 C 16.5625 -1.960938 18.148438 -2.847656 19.953125 -3.828125 C 21.765625 -4.804688 23.691406 -5.773438 25.734375 -6.734375 C 27.773438 -7.703125 29.832031 -8.535156 31.90625 -9.234375 C 33.988281 -9.941406 35.992188 -10.394531 37.921875 -10.59375 C 38.148438 -10.59375 38.390625 -10.5625 38.640625 -10.5 C 38.898438 -10.445312 39.109375 -10.222656 39.265625 -9.828125 C 36.515625 -9.472656 33.773438 -8.738281 31.046875 -7.625 C 28.328125 -6.507812 25.71875 -5.273438 23.21875 -3.921875 C 20.726562 -2.566406 18.460938 -1.296875 16.421875 -0.109375 C 14.378906 1.066406 12.671875 1.90625 11.296875 2.40625 Z M 11.1875 -15.421875 C 10.476562 -15.460938 9.640625 -15.253906 8.671875 -14.796875 C 7.710938 -14.347656 6.820312 -13.789062 6 -13.125 C 5.175781 -12.457031 4.609375 -11.769531 4.296875 -11.0625 C 5.078125 -10.988281 5.957031 -11.164062 6.9375 -11.59375 C 7.925781 -12.03125 8.820312 -12.597656 9.625 -13.296875 C 10.425781 -14.003906 10.945312 -14.710938 11.1875 -15.421875 Z M 11.1875 -15.421875 "/></g></g></g><g fill="#252b39" fill-opacity="1"><g transform="translate(230.827975, 96.652432)"><g><path d="M -4.296875 18.65625 C -5.160156 18.625 -5.960938 18.320312 -6.703125 17.75 C -7.453125 17.175781 -7.96875 16.476562 -8.25 15.65625 C -8.632812 14.363281 -8.769531 13.085938 -8.65625 11.828125 C -8.539062 10.578125 -8.265625 9.34375 -7.828125 8.125 C -7.273438 6.675781 -6.613281 5.28125 -5.84375 3.9375 C -5.082031 2.601562 -4.273438 1.269531 -3.421875 -0.0625 C -2.941406 -0.800781 -2.46875 -1.550781 -2 -2.3125 C -1.53125 -3.082031 -1.0625 -3.84375 -0.59375 -4.59375 C -0.28125 -5.0625 -0.0234375 -5.550781 0.171875 -6.0625 C 0.367188 -6.570312 0.488281 -7.101562 0.53125 -7.65625 C 0.601562 -7.96875 0.597656 -8.238281 0.515625 -8.46875 C 0.441406 -8.707031 0.25 -8.925781 -0.0625 -9.125 C -0.445312 -9.394531 -0.707031 -9.753906 -0.84375 -10.203125 C -0.988281 -10.660156 -1.003906 -11.125 -0.890625 -11.59375 C -0.609375 -12.738281 0.140625 -13.425781 1.359375 -13.65625 C 2.253906 -13.8125 3.019531 -13.519531 3.65625 -12.78125 C 3.925781 -12.582031 3.984375 -12.265625 3.828125 -11.828125 C 3.785156 -11.671875 3.722656 -11.503906 3.640625 -11.328125 C 3.566406 -11.148438 3.472656 -11.023438 3.359375 -10.953125 C 2.847656 -10.515625 2.492188 -10.070312 2.296875 -9.625 C 2.097656 -9.175781 2.3125 -8.632812 2.9375 -8 C 3.257812 -7.726562 3.378906 -7.375 3.296875 -6.9375 C 3.210938 -6.507812 3.113281 -6.097656 3 -5.703125 C 2.800781 -5.003906 2.535156 -4.335938 2.203125 -3.703125 C 1.867188 -3.078125 1.507812 -2.453125 1.125 -1.828125 C 0.0195312 -0.140625 -1.085938 1.566406 -2.203125 3.296875 C -3.328125 5.023438 -4.335938 6.832031 -5.234375 8.71875 C -5.671875 9.65625 -6.046875 10.613281 -6.359375 11.59375 C -6.671875 12.570312 -6.828125 13.570312 -6.828125 14.59375 C -6.867188 16.125 -6.503906 17.144531 -5.734375 17.65625 C -4.972656 18.164062 -3.90625 18.109375 -2.53125 17.484375 C -1.976562 17.242188 -1.4375 16.976562 -0.90625 16.6875 C -0.382812 16.394531 0.113281 16.050781 0.59375 15.65625 C 0.707031 15.539062 0.84375 15.453125 1 15.390625 C 1.15625 15.335938 1.3125 15.410156 1.46875 15.609375 C 1.625 15.765625 1.632812 15.898438 1.5 16.015625 C 1.363281 16.128906 1.253906 16.226562 1.171875 16.3125 C 0.785156 16.695312 0.25 17.085938 -0.4375 17.484375 C -1.125 17.878906 -1.820312 18.179688 -2.53125 18.390625 C -3.238281 18.609375 -3.828125 18.695312 -4.296875 18.65625 Z M -4.296875 18.65625 "/></g></g></g><g fill="#252b39" fill-opacity="1"><g transform="translate(241.718492, 96.652432)"><g><path d="M 4.125 -1.890625 C 4.082031 -2.078125 4.0625 -2.296875 4.0625 -2.546875 C 4.0625 -2.804688 4.003906 -3.078125 3.890625 -3.359375 C 3.535156 -3.003906 3.191406 -2.671875 2.859375 -2.359375 C 2.523438 -2.046875 2.203125 -1.726562 1.890625 -1.40625 C 1.453125 -0.9375 0.941406 -0.546875 0.359375 -0.234375 C -0.390625 0.117188 -1.144531 0.0976562 -1.90625 -0.296875 C -2.675781 -0.691406 -3.0625 -1.300781 -3.0625 -2.125 C -3.101562 -4.550781 -2.628906 -6.742188 -1.640625 -8.703125 C -0.660156 -10.671875 0.882812 -12.320312 3 -13.65625 C 3.90625 -14.207031 4.796875 -14.453125 5.671875 -14.390625 C 6.554688 -14.335938 7.429688 -14.054688 8.296875 -13.546875 C 8.535156 -13.390625 8.757812 -13.25 8.96875 -13.125 C 9.1875 -13.007812 9.453125 -13.007812 9.765625 -13.125 C 9.960938 -13.207031 10.148438 -13.195312 10.328125 -13.09375 C 10.503906 -13 10.671875 -12.910156 10.828125 -12.828125 C 11.460938 -12.554688 11.816406 -12.273438 11.890625 -11.984375 C 11.972656 -11.691406 11.859375 -11.226562 11.546875 -10.59375 C 11.109375 -9.851562 10.65625 -9.097656 10.1875 -8.328125 C 9.71875 -7.566406 9.328125 -6.773438 9.015625 -5.953125 C 8.179688 -3.910156 7.785156 -1.867188 7.828125 0.171875 C 7.828125 1.117188 8.003906 2.003906 8.359375 2.828125 C 8.671875 3.566406 9.28125 3.976562 10.1875 4.0625 C 11.09375 4.0625 11.9375 3.921875 12.71875 3.640625 C 13.5 3.367188 14.265625 3.039062 15.015625 2.65625 C 15.992188 2.175781 17.265625 1.472656 18.828125 0.546875 C 20.398438 -0.367188 22.109375 -1.382812 23.953125 -2.5 C 25.804688 -3.625 27.664062 -4.722656 29.53125 -5.796875 C 31.394531 -6.878906 33.128906 -7.84375 34.734375 -8.6875 C 36.347656 -9.53125 37.722656 -10.128906 38.859375 -10.484375 C 39.992188 -10.835938 40.71875 -10.816406 41.03125 -10.421875 C 41.03125 -10.421875 41.070312 -10.285156 41.15625 -10.015625 C 39.695312 -9.847656 38.054688 -9.320312 36.234375 -8.4375 C 34.410156 -7.5625 32.503906 -6.492188 30.515625 -5.234375 C 28.535156 -3.984375 26.566406 -2.691406 24.609375 -1.359375 C 22.648438 -0.0234375 20.796875 1.195312 19.046875 2.3125 C 17.296875 3.4375 15.734375 4.296875 14.359375 4.890625 C 12.671875 5.597656 10.941406 5.710938 9.171875 5.234375 C 7.410156 4.765625 6.019531 3.585938 5 1.703125 C 4.726562 1.160156 4.53125 0.585938 4.40625 -0.015625 C 4.289062 -0.628906 4.195312 -1.253906 4.125 -1.890625 Z M 0.828125 -2.59375 C 2.203125 -3.769531 3.378906 -5.09375 4.359375 -6.5625 C 5.335938 -8.03125 6.296875 -9.515625 7.234375 -11.015625 C 7.398438 -11.242188 7.441406 -11.445312 7.359375 -11.625 C 7.273438 -11.800781 7.175781 -11.96875 7.0625 -12.125 C 6.945312 -12.320312 6.800781 -12.421875 6.625 -12.421875 C 6.445312 -12.421875 6.28125 -12.382812 6.125 -12.3125 C 5.882812 -12.144531 5.632812 -12.003906 5.375 -11.890625 C 5.125 -11.773438 4.898438 -11.617188 4.703125 -11.421875 C 3.609375 -10.484375 2.664062 -9.441406 1.875 -8.296875 C 1.09375 -7.160156 0.425781 -5.90625 -0.125 -4.53125 C -0.28125 -4.132812 -0.414062 -3.691406 -0.53125 -3.203125 C -0.644531 -2.710938 -0.703125 -2.132812 -0.703125 -1.46875 C -0.390625 -1.707031 -0.109375 -1.914062 0.140625 -2.09375 C 0.398438 -2.269531 0.628906 -2.4375 0.828125 -2.59375 Z M 0.828125 -2.59375 "/></g></g></g><g fill="#252b39" fill-opacity="1"><g transform="translate(276.745836, 96.652432)"><g><path d="M 50.6875 -10.25 C 50.96875 -10.363281 51.164062 -10.320312 51.28125 -10.125 C 51.4375 -9.882812 51.378906 -9.648438 51.109375 -9.421875 C 50.472656 -9.023438 49.84375 -8.628906 49.21875 -8.234375 C 48.59375 -7.847656 47.945312 -7.4375 47.28125 -7 C 46.0625 -6.257812 44.820312 -5.503906 43.5625 -4.734375 C 42.3125 -3.972656 41.054688 -3.238281 39.796875 -2.53125 C 38.421875 -1.75 37 -1.0625 35.53125 -0.46875 C 34.0625 0.113281 32.519531 0.566406 30.90625 0.890625 C 30.007812 1.078125 29.164062 0.972656 28.375 0.578125 C 27.59375 0.191406 26.960938 -0.367188 26.484375 -1.109375 C 26.015625 -1.859375 25.820312 -2.644531 25.90625 -3.46875 C 25.945312 -3.90625 25.972656 -4.316406 25.984375 -4.703125 C 26.003906 -5.097656 26.035156 -5.53125 26.078125 -6 C 25.765625 -6.082031 25.46875 -6.050781 25.1875 -5.90625 C 24.914062 -5.769531 24.664062 -5.625 24.4375 -5.46875 C 23.414062 -4.957031 22.429688 -4.359375 21.484375 -3.671875 C 20.546875 -2.992188 19.625 -2.28125 18.71875 -1.53125 C 18.488281 -1.375 18.265625 -1.1875 18.046875 -0.96875 C 17.828125 -0.75 17.539062 -0.722656 17.1875 -0.890625 C 16.800781 -1.078125 16.476562 -1.316406 16.21875 -1.609375 C 15.96875 -1.910156 15.820312 -2.296875 15.78125 -2.765625 C 15.738281 -3.160156 15.765625 -3.535156 15.859375 -3.890625 C 15.960938 -4.242188 16.070312 -4.578125 16.1875 -4.890625 C 16.851562 -6.804688 17.640625 -8.644531 18.546875 -10.40625 C 19.453125 -12.175781 20.453125 -13.910156 21.546875 -15.609375 C 22.609375 -17.210938 23.71875 -18.769531 24.875 -20.28125 C 26.03125 -21.789062 27.082031 -23.390625 28.03125 -25.078125 C 28.257812 -25.515625 28.5 -25.9375 28.75 -26.34375 C 29.007812 -26.757812 29.238281 -27.160156 29.4375 -27.546875 C 29.59375 -27.867188 29.726562 -28.195312 29.84375 -28.53125 C 29.96875 -28.863281 30.046875 -29.222656 30.078125 -29.609375 C 29.535156 -29.691406 29.035156 -29.671875 28.578125 -29.546875 C 28.128906 -29.429688 27.691406 -29.296875 27.265625 -29.140625 C 25.648438 -28.554688 24.125 -27.800781 22.6875 -26.875 C 21.257812 -25.957031 19.859375 -24.96875 18.484375 -23.90625 C 15.378906 -21.425781 12.617188 -18.664062 10.203125 -15.625 C 7.796875 -12.582031 5.550781 -9.375 3.46875 -6 C 3.082031 -5.375 2.703125 -4.738281 2.328125 -4.09375 C 1.953125 -3.445312 1.550781 -2.804688 1.125 -2.171875 C 0.6875 -1.546875 0.191406 -1.46875 -0.359375 -1.9375 C -0.628906 -2.21875 -0.851562 -2.523438 -1.03125 -2.859375 C -1.207031 -3.191406 -1.273438 -3.570312 -1.234375 -4 C -1.035156 -5.53125 -0.804688 -7.050781 -0.546875 -8.5625 C -0.296875 -10.070312 0.140625 -11.554688 0.765625 -13.015625 C 0.960938 -13.398438 1.164062 -13.757812 1.375 -14.09375 C 1.59375 -14.425781 1.820312 -14.753906 2.0625 -15.078125 C 2.488281 -15.660156 2.957031 -15.796875 3.46875 -15.484375 C 3.820312 -15.285156 4.078125 -15.007812 4.234375 -14.65625 C 4.390625 -14.300781 4.375 -13.96875 4.1875 -13.65625 C 3.90625 -13.1875 3.65625 -12.707031 3.4375 -12.21875 C 3.226562 -11.726562 3.003906 -11.226562 2.765625 -10.71875 C 2.648438 -10.4375 2.53125 -10.140625 2.40625 -9.828125 C 2.289062 -9.515625 2.234375 -9.160156 2.234375 -8.765625 C 2.546875 -8.929688 2.769531 -9.117188 2.90625 -9.328125 C 3.050781 -9.546875 3.203125 -9.753906 3.359375 -9.953125 C 4.378906 -11.441406 5.398438 -12.910156 6.421875 -14.359375 C 7.441406 -15.816406 8.539062 -17.210938 9.71875 -18.546875 C 11.445312 -20.472656 13.210938 -22.347656 15.015625 -24.171875 C 16.816406 -25.992188 18.757812 -27.648438 20.84375 -29.140625 C 23 -30.628906 25.3125 -31.671875 27.78125 -32.265625 C 28.769531 -32.492188 29.664062 -32.382812 30.46875 -31.9375 C 31.269531 -31.488281 31.882812 -30.84375 32.3125 -30 C 32.75 -29.15625 32.847656 -28.257812 32.609375 -27.3125 C 32.421875 -26.488281 32.140625 -25.710938 31.765625 -24.984375 C 31.390625 -24.265625 30.988281 -23.570312 30.5625 -22.90625 C 29.695312 -21.601562 28.820312 -20.3125 27.9375 -19.03125 C 27.050781 -17.757812 26.15625 -16.5 25.25 -15.25 C 24.425781 -14.070312 23.671875 -12.863281 22.984375 -11.625 C 22.296875 -10.382812 21.660156 -9.140625 21.078125 -7.890625 C 20.878906 -7.421875 20.632812 -6.988281 20.34375 -6.59375 C 20.050781 -6.195312 19.863281 -5.742188 19.78125 -5.234375 C 20.019531 -5.117188 20.195312 -5.117188 20.3125 -5.234375 C 20.425781 -5.359375 20.546875 -5.4375 20.671875 -5.46875 C 21.410156 -5.945312 22.144531 -6.441406 22.875 -6.953125 C 23.601562 -7.460938 24.335938 -7.910156 25.078125 -8.296875 C 25.515625 -8.492188 25.925781 -8.660156 26.3125 -8.796875 C 26.707031 -8.941406 27.140625 -8.851562 27.609375 -8.53125 C 28.554688 -7.832031 29.007812 -6.890625 28.96875 -5.703125 C 28.925781 -5.359375 28.851562 -5.007812 28.75 -4.65625 C 28.65625 -4.300781 28.570312 -3.945312 28.5 -3.59375 C 28.457031 -3.476562 28.425781 -3.359375 28.40625 -3.234375 C 28.382812 -3.117188 28.351562 -3.003906 28.3125 -2.890625 C 28.15625 -2.097656 28.164062 -1.570312 28.34375 -1.3125 C 28.519531 -1.0625 29.039062 -0.9375 29.90625 -0.9375 C 31.238281 -0.90625 32.523438 -1.046875 33.765625 -1.359375 C 35.003906 -1.671875 36.226562 -2.082031 37.4375 -2.59375 C 39.007812 -3.257812 40.507812 -4.03125 41.9375 -4.90625 C 43.375 -5.789062 44.820312 -6.664062 46.28125 -7.53125 C 46.945312 -7.96875 47.625 -8.390625 48.3125 -8.796875 C 49 -9.210938 49.675781 -9.617188 50.34375 -10.015625 C 50.414062 -10.085938 50.53125 -10.164062 50.6875 -10.25 Z M 50.6875 -10.25 "/></g></g></g><g fill="#252b39" fill-opacity="1"><g transform="translate(322.781953, 96.652432)"><g><path d="M 3.65625 -5.234375 C 3.65625 -5.234375 3.65625 -5.210938 3.65625 -5.171875 C 3.65625 -5.140625 3.632812 -5.066406 3.59375 -4.953125 C 3.59375 -4.953125 4.171875 -4.929688 5.328125 -4.890625 C 6.484375 -4.847656 8.203125 -5.039062 10.484375 -5.46875 C 10.753906 -5.550781 11.332031 -5.71875 12.21875 -5.96875 C 13.101562 -6.226562 14.132812 -6.570312 15.3125 -7 C 16.488281 -7.4375 17.703125 -7.921875 18.953125 -8.453125 C 20.210938 -8.984375 21.332031 -9.539062 22.3125 -10.125 C 22.550781 -10.28125 22.765625 -10.316406 22.953125 -10.234375 C 23.148438 -10.160156 23.289062 -10.101562 23.375 -10.0625 C 20.707031 -8.414062 18.023438 -7.0625 15.328125 -6 C 12.640625 -4.945312 10.207031 -4.253906 8.03125 -3.921875 C 5.851562 -3.585938 4.195312 -3.632812 3.0625 -4.0625 C 2.789062 -4.101562 2.535156 -4.003906 2.296875 -3.765625 C 1.941406 -3.410156 1.566406 -3.085938 1.171875 -2.796875 C 0.785156 -2.503906 0.394531 -2.203125 0 -1.890625 C -0.0820312 -1.847656 -0.160156 -1.796875 -0.234375 -1.734375 C -0.316406 -1.679688 -0.394531 -1.632812 -0.46875 -1.59375 C -1.21875 -1.125 -1.9375 -1.082031 -2.625 -1.46875 C -3.3125 -1.863281 -3.671875 -2.515625 -3.703125 -3.421875 C -3.703125 -3.960938 -3.625 -4.488281 -3.46875 -5 C -3.3125 -5.507812 -3.097656 -6 -2.828125 -6.46875 C -2.546875 -6.945312 -2.566406 -7.421875 -2.890625 -7.890625 C -3.828125 -9.335938 -4.257812 -10.96875 -4.1875 -12.78125 C -4.144531 -13.320312 -4.015625 -13.847656 -3.796875 -14.359375 C -3.578125 -14.867188 -3.289062 -15.34375 -2.9375 -15.78125 C -1.570312 -17.539062 0.226562 -18.582031 2.46875 -18.90625 C 3.800781 -19.09375 4.9375 -18.800781 5.875 -18.03125 C 6.820312 -17.269531 7.375 -16.222656 7.53125 -14.890625 C 7.613281 -14.023438 7.578125 -13.203125 7.421875 -12.421875 C 7.265625 -11.640625 7.03125 -10.851562 6.71875 -10.0625 C 6.363281 -9.195312 5.957031 -8.390625 5.5 -7.640625 C 5.050781 -6.898438 4.492188 -6.195312 3.828125 -5.53125 C 3.785156 -5.488281 3.753906 -5.445312 3.734375 -5.40625 C 3.710938 -5.375 3.6875 -5.316406 3.65625 -5.234375 Z M 0.53125 -4.359375 C 0.6875 -4.515625 0.664062 -4.671875 0.46875 -4.828125 C 0.3125 -4.910156 0.15625 -5 0 -5.09375 C -0.15625 -5.1875 -0.3125 -5.273438 -0.46875 -5.359375 C -0.75 -5.554688 -0.96875 -5.515625 -1.125 -5.234375 C -1.507812 -4.535156 -1.800781 -3.789062 -2 -3 C -2.039062 -2.84375 -2.019531 -2.707031 -1.9375 -2.59375 C -1.394531 -2.75 -0.9375 -2.984375 -0.5625 -3.296875 C -0.1875 -3.609375 0.175781 -3.960938 0.53125 -4.359375 Z M 2.0625 -6.0625 C 2.84375 -6.925781 3.457031 -7.878906 3.90625 -8.921875 C 4.363281 -9.960938 4.710938 -11.03125 4.953125 -12.125 C 5.265625 -13.539062 5.234375 -14.570312 4.859375 -15.21875 C 4.484375 -15.863281 4.066406 -16.273438 3.609375 -16.453125 C 3.160156 -16.628906 2.9375 -16.71875 2.9375 -16.71875 C 1.84375 -16.800781 0.863281 -16.546875 0 -15.953125 C -0.863281 -15.367188 -1.539062 -14.613281 -2.03125 -13.6875 C -2.519531 -12.769531 -2.773438 -11.804688 -2.796875 -10.796875 C -2.816406 -9.796875 -2.53125 -8.90625 -1.9375 -8.125 C -1.75 -8.4375 -1.546875 -8.71875 -1.328125 -8.96875 C -1.109375 -9.226562 -0.921875 -9.476562 -0.765625 -9.71875 C -0.296875 -10.382812 0.269531 -10.929688 0.9375 -11.359375 C 1.644531 -11.796875 2.273438 -11.617188 2.828125 -10.828125 C 3.023438 -10.554688 3.101562 -10.34375 3.0625 -10.1875 C 3.019531 -10.03125 2.800781 -9.796875 2.40625 -9.484375 C 2.019531 -9.171875 1.640625 -8.835938 1.265625 -8.484375 C 0.890625 -8.128906 0.546875 -7.734375 0.234375 -7.296875 C -0.00390625 -6.941406 -0.125 -6.722656 -0.125 -6.640625 C -0.125 -6.566406 0.25 -6.335938 1 -5.953125 C 1.3125 -5.785156 1.5 -5.691406 1.5625 -5.671875 C 1.625 -5.660156 1.691406 -5.671875 1.765625 -5.703125 C 1.847656 -5.742188 1.90625 -5.800781 1.9375 -5.875 C 1.976562 -5.957031 2.019531 -6.019531 2.0625 -6.0625 Z M 2.0625 -6.0625 "/></g></g></g><g fill="#252b39" fill-opacity="1"><g transform="translate(340.207071, 96.652432)"><g><path d="M 6.953125 5.953125 C 7.304688 4.960938 7.875 4.097656 8.65625 3.359375 C 9.238281 2.804688 9.578125 2.066406 9.671875 1.140625 C 9.773438 0.222656 9.613281 -0.566406 9.1875 -1.234375 C 8.90625 -1.742188 8.492188 -1.941406 7.953125 -1.828125 C 7.203125 -1.671875 6.472656 -1.492188 5.765625 -1.296875 C 5.054688 -1.097656 4.367188 -0.878906 3.703125 -0.640625 C 3.003906 -0.410156 2.300781 -0.234375 1.59375 -0.109375 C 0.882812 0.00390625 0.15625 -0.015625 -0.59375 -0.171875 C -0.664062 -0.210938 -0.800781 -0.234375 -1 -0.234375 C -3.351562 -0.785156 -4.195312 -2.21875 -3.53125 -4.53125 C -2.707031 -7.195312 -1.472656 -9.671875 0.171875 -11.953125 C 0.722656 -12.691406 1.332031 -13.375 2 -14 C 2.664062 -14.632812 3.394531 -15.1875 4.1875 -15.65625 C 5.007812 -16.132812 5.867188 -16.457031 6.765625 -16.625 C 7.671875 -16.800781 8.59375 -16.796875 9.53125 -16.609375 C 11.144531 -16.210938 12.175781 -15.519531 12.625 -14.53125 C 13.082031 -13.550781 13.210938 -12.359375 13.015625 -10.953125 C 12.972656 -10.710938 12.890625 -10.492188 12.765625 -10.296875 C 12.648438 -10.109375 12.4375 -9.972656 12.125 -9.890625 C 11.695312 -9.804688 11.351562 -9.882812 11.09375 -10.125 C 10.84375 -10.363281 10.738281 -10.738281 10.78125 -11.25 C 10.851562 -11.71875 10.859375 -12.175781 10.796875 -12.625 C 10.742188 -13.082031 10.617188 -13.503906 10.421875 -13.890625 C 10.066406 -14.523438 9.710938 -14.898438 9.359375 -15.015625 C 9.003906 -15.128906 8.492188 -15.03125 7.828125 -14.71875 C 6.847656 -14.25 6.015625 -13.648438 5.328125 -12.921875 C 4.640625 -12.191406 3.984375 -11.414062 3.359375 -10.59375 C 2.691406 -9.695312 2.101562 -8.738281 1.59375 -7.71875 C 1.082031 -6.695312 0.609375 -5.632812 0.171875 -4.53125 C 0.0546875 -4.21875 -0.0351562 -3.882812 -0.109375 -3.53125 C -0.191406 -3.175781 -0.234375 -2.800781 -0.234375 -2.40625 C -0.191406 -2.019531 -0.101562 -1.765625 0.03125 -1.640625 C 0.164062 -1.523438 0.429688 -1.507812 0.828125 -1.59375 C 1.335938 -1.75 1.835938 -1.90625 2.328125 -2.0625 C 2.816406 -2.21875 3.316406 -2.375 3.828125 -2.53125 C 4.179688 -2.644531 4.523438 -2.75 4.859375 -2.84375 C 5.191406 -2.945312 5.535156 -3.054688 5.890625 -3.171875 C 6.085938 -3.210938 6.289062 -3.253906 6.5 -3.296875 C 6.71875 -3.335938 6.925781 -3.359375 7.125 -3.359375 C 8.5 -3.515625 9.578125 -3.375 10.359375 -2.9375 C 11.148438 -2.507812 11.859375 -1.664062 12.484375 -0.40625 C 13.148438 -1 13.796875 -1.566406 14.421875 -2.109375 C 15.046875 -2.660156 15.675781 -3.191406 16.3125 -3.703125 C 16.894531 -4.210938 17.5 -4.703125 18.125 -5.171875 C 18.757812 -5.648438 19.390625 -6.082031 20.015625 -6.46875 C 20.210938 -6.59375 20.398438 -6.703125 20.578125 -6.796875 C 20.753906 -6.898438 20.921875 -6.988281 21.078125 -7.0625 C 21.273438 -7.144531 21.46875 -7.175781 21.65625 -7.15625 C 21.851562 -7.132812 21.992188 -7.023438 22.078125 -6.828125 C 22.160156 -6.628906 22.128906 -6.476562 21.984375 -6.375 C 21.847656 -6.28125 21.722656 -6.195312 21.609375 -6.125 C 19.960938 -4.945312 18.398438 -3.679688 16.921875 -2.328125 C 15.453125 -0.972656 13.992188 0.390625 12.546875 1.765625 C 12.390625 1.960938 12.222656 2.164062 12.046875 2.375 C 11.867188 2.59375 11.738281 2.84375 11.65625 3.125 C 11.414062 3.832031 11.082031 4.476562 10.65625 5.0625 C 10.226562 5.65625 9.773438 6.242188 9.296875 6.828125 C 9.179688 6.984375 9.046875 7.117188 8.890625 7.234375 C 8.734375 7.359375 8.554688 7.441406 8.359375 7.484375 C 8.085938 7.515625 7.8125 7.539062 7.53125 7.5625 C 7.257812 7.582031 7.023438 7.472656 6.828125 7.234375 C 6.628906 7.046875 6.578125 6.832031 6.671875 6.59375 C 6.773438 6.351562 6.867188 6.140625 6.953125 5.953125 Z M 6.953125 5.953125 "/></g></g></g></g></g><g clip-path="url(#af2cf624a6)"><g clip-path="url(#b4552887c4)"><g transform="matrix(1, 0, 0, 1, 127, 32)"><g clip-path="url(#cc3050f685)"><g clip-path="url(#d5278e2040)"><g clip-path="url(#2fa66088c1)"><g clip-path="url(#51756491a7)"><path fill="#252b39" d="M 98.90625 0.527344 C 98.398438 1.457031 98.660156 1.710938 98.253906 2.117188 C 95.867188 4.40625 93.460938 8.789062 92.492188 10.425781 C 76.511719 36.890625 37.285156 25.175781 4.699219 55.175781 C 4.417969 55.429688 3.332031 55.699219 3.496094 54.578125 C 7.6875 49.695312 12.410156 44.75 24.15625 38.660156 C 37.097656 31.933594 66.9375 27.398438 78.003906 21.535156 C 92.355469 13.925781 93.050781 2.691406 98.898438 0.554688 Z M 98.90625 0.527344 " fill-opacity="1" fill-rule="evenodd"/></g></g></g></g></g></g></g><g clip-path="url(#38fb132b1e)"><g clip-path="url(#136853df1b)"><g transform="matrix(1, 0, 0, 1, 551, 47)"><g clip-path="url(#2ea5a83115)"><g clip-path="url(#cdec6a9810)"><g clip-path="url(#337df58820)"><g clip-path="url(#e815a8bd78)"><path fill="#252b39" d="M 59.367188 0.742188 C 59.097656 1.691406 59.386719 1.867188 59.101562 2.320312 C 57.410156 4.898438 56.136719 9.378906 55.59375 11.066406 C 46.578125 38.433594 8.5 35.949219 -14.867188 69.980469 C -15.070312 70.269531 -16.003906 70.738281 -16.085938 69.6875 C -13.292969 64.378906 -10.03125 58.902344 -0.625 50.929688 C 9.734375 42.125 35.902344 31.800781 44.738281 24.175781 C 56.199219 14.277344 54.496094 3.925781 59.363281 0.765625 Z M 59.367188 0.742188 " fill-opacity="1" fill-rule="evenodd"/></g></g></g></g></g></g></g></svg>