<svg xmlns="http://www.w3.org/2000/svg" xmlns:xlink="http://www.w3.org/1999/xlink" width="1024" zoomAndPan="magnify" viewBox="0 0 768 149.999998" height="200" preserveAspectRatio="xMidYMid meet" version="1.0"><defs><g/><clipPath id="96624c9d61"><rect x="0" width="216" y="0" height="146"/></clipPath><clipPath id="9208fa7c33"><path d="M 243 53 L 305 53 L 305 108 L 243 108 Z M 243 53 " clip-rule="nonzero"/></clipPath><clipPath id="2a51c1b4b7"><path d="M 242.929688 107.136719 L 296.492188 53.574219 L 304.449219 61.527344 L 250.886719 115.09375 Z M 242.929688 107.136719 " clip-rule="nonzero"/></clipPath><clipPath id="b0d6d68836"><path d="M 242.929688 107.136719 L 315.054688 35.011719 L 323.011719 42.96875 L 250.886719 115.09375 Z M 242.929688 107.136719 " clip-rule="nonzero"/></clipPath><clipPath id="c6c3035194"><path d="M 477 53 L 532 53 L 532 84 L 477 84 Z M 477 53 " clip-rule="nonzero"/></clipPath><clipPath id="5c8557c5ab"><path d="M 477.636719 72.71875 L 528 53.234375 L 532.058594 63.726562 L 481.695312 83.210938 Z M 477.636719 72.71875 " clip-rule="nonzero"/></clipPath><clipPath id="2763524182"><path d="M 0.601562 8 L 54.839844 8 L 54.839844 30.28125 L 0.601562 30.28125 Z M 0.601562 8 " clip-rule="nonzero"/></clipPath><clipPath id="06b85b125e"><path d="M 0.636719 19.71875 L 51 0.234375 L 55.058594 10.726562 L 4.695312 30.210938 Z M 0.636719 19.71875 " clip-rule="nonzero"/></clipPath><clipPath id="59e670f87f"><path d="M 54.816406 10.910156 L -40.316406 47.707031 L -44.375 37.214844 L 50.757812 0.417969 Z M 54.816406 10.910156 " clip-rule="nonzero"/></clipPath><clipPath id="3203a432c7"><rect x="0" width="55" y="0" height="31"/></clipPath></defs><g transform="matrix(1, 0, 0, 1, 276, -0.000000000000007527)"><g clip-path="url(#96624c9d61)"><g fill="#252b39" fill-opacity="1"><g transform="translate(0.348394, 77.788683)"><g><path d="M 16.546875 4.890625 C 16.265625 6.265625 15.890625 7.609375 15.421875 8.921875 C 14.953125 10.234375 14.5625 11.554688 14.25 12.890625 C 14.207031 13.085938 14.15625 13.300781 14.09375 13.53125 C 14.039062 13.769531 13.992188 13.988281 13.953125 14.1875 C 13.953125 14.425781 13.972656 14.671875 14.015625 14.921875 C 14.054688 15.179688 13.859375 15.3125 13.421875 15.3125 C 12.554688 15.3125 12.066406 14.957031 11.953125 14.25 C 11.910156 13.625 11.910156 12.992188 11.953125 12.359375 C 12.734375 3.648438 14.144531 -4.910156 16.1875 -13.328125 C 18.226562 -21.753906 20.625 -30.085938 23.375 -38.328125 C 24.863281 -42.679688 26.617188 -46.898438 28.640625 -50.984375 C 30.660156 -55.066406 32.988281 -58.972656 35.625 -62.703125 C 36.644531 -64.117188 37.734375 -65.460938 38.890625 -66.734375 C 40.046875 -68.003906 41.367188 -69.132812 42.859375 -70.125 C 43.210938 -70.351562 43.582031 -70.546875 43.96875 -70.703125 C 44.363281 -70.859375 44.78125 -70.898438 45.21875 -70.828125 C 45.289062 -70.785156 45.382812 -70.753906 45.5 -70.734375 C 45.625 -70.710938 45.6875 -70.644531 45.6875 -70.53125 C 45.6875 -70.414062 45.644531 -70.335938 45.5625 -70.296875 C 45.488281 -70.253906 45.410156 -70.195312 45.328125 -70.125 C 44.234375 -69.570312 43.289062 -68.851562 42.5 -67.96875 C 41.71875 -67.082031 40.957031 -66.171875 40.21875 -65.234375 C 38.289062 -62.921875 36.648438 -60.445312 35.296875 -57.8125 C 33.941406 -55.1875 32.65625 -52.476562 31.4375 -49.6875 C 30.0625 -46.46875 28.820312 -43.171875 27.71875 -39.796875 C 26.625 -36.421875 25.628906 -33.046875 24.734375 -29.671875 C 24.691406 -29.515625 24.660156 -29.375 24.640625 -29.25 C 24.617188 -29.132812 24.585938 -29 24.546875 -28.84375 C 24.585938 -28.84375 24.609375 -28.832031 24.609375 -28.8125 C 24.609375 -28.800781 24.628906 -28.796875 24.671875 -28.796875 C 25.492188 -30.203125 26.316406 -31.609375 27.140625 -33.015625 C 27.960938 -34.429688 28.769531 -35.847656 29.5625 -37.265625 C 31.875 -41.429688 34.53125 -45.316406 37.53125 -48.921875 C 40.53125 -52.535156 43.957031 -55.773438 47.8125 -58.640625 C 50.363281 -60.566406 53.0625 -62.15625 55.90625 -63.40625 C 58.75 -64.664062 61.78125 -65.472656 65 -65.828125 C 66.644531 -66.015625 68.289062 -66.050781 69.9375 -65.9375 C 71.59375 -65.820312 73.203125 -65.453125 74.765625 -64.828125 C 76.960938 -64.035156 78.695312 -62.742188 79.96875 -60.953125 C 81.25 -59.171875 81.929688 -57.125 82.015625 -54.8125 C 82.054688 -52.695312 81.820312 -50.65625 81.3125 -48.6875 C 80.800781 -46.726562 80.050781 -44.828125 79.0625 -42.984375 C 76.675781 -38.429688 73.800781 -34.289062 70.4375 -30.5625 C 67.082031 -26.832031 63.363281 -23.4375 59.28125 -20.375 C 55.476562 -17.507812 51.535156 -14.9375 47.453125 -12.65625 C 43.367188 -10.382812 38.992188 -8.617188 34.328125 -7.359375 C 34.171875 -7.316406 34.015625 -7.265625 33.859375 -7.203125 C 33.703125 -7.148438 33.71875 -6.96875 33.90625 -6.65625 C 34.925781 -5.195312 35.789062 -3.671875 36.5 -2.078125 C 37.207031 -0.492188 37.9375 1.097656 38.6875 2.703125 C 38.957031 3.253906 39.257812 3.796875 39.59375 4.328125 C 39.925781 4.859375 40.289062 5.359375 40.6875 5.828125 C 42.175781 7.359375 43.941406 7.867188 45.984375 7.359375 C 47.359375 7.003906 48.648438 6.503906 49.859375 5.859375 C 51.078125 5.210938 52.257812 4.476562 53.40625 3.65625 C 55.832031 1.925781 58.144531 0.0390625 60.34375 -2 C 62.539062 -4.039062 64.738281 -6.0625 66.9375 -8.0625 C 67.175781 -8.300781 67.410156 -8.523438 67.640625 -8.734375 C 67.878906 -8.953125 68.117188 -9.179688 68.359375 -9.421875 C 68.742188 -9.816406 69.078125 -9.851562 69.359375 -9.53125 C 69.515625 -9.375 69.519531 -9.238281 69.375 -9.125 C 69.238281 -9.007812 69.132812 -8.910156 69.0625 -8.828125 C 66.550781 -6.359375 64.046875 -3.859375 61.546875 -1.328125 C 59.054688 1.203125 56.300781 3.453125 53.28125 5.421875 C 51.945312 6.285156 50.550781 7 49.09375 7.5625 C 47.644531 8.132812 46.117188 8.457031 44.515625 8.53125 C 42.941406 8.613281 41.546875 8.3125 40.328125 7.625 C 39.109375 6.9375 38.050781 5.960938 37.15625 4.703125 C 36.519531 3.804688 35.976562 2.863281 35.53125 1.875 C 35.082031 0.894531 34.601562 -0.0820312 34.09375 -1.0625 C 33.695312 -1.882812 33.28125 -2.695312 32.84375 -3.5 C 32.414062 -4.300781 31.96875 -5.078125 31.5 -5.828125 C 31.144531 -6.378906 30.632812 -6.59375 29.96875 -6.46875 C 28.238281 -6.195312 26.507812 -6.082031 24.78125 -6.125 C 23.0625 -6.164062 21.375 -6.554688 19.71875 -7.296875 C 19.289062 -7.492188 19.066406 -7.460938 19.046875 -7.203125 C 19.023438 -6.953125 18.992188 -6.75 18.953125 -6.59375 C 18.566406 -4.664062 18.164062 -2.75 17.75 -0.84375 C 17.332031 1.050781 16.929688 2.960938 16.546875 4.890625 Z M 21.953125 -16.375 C 21.722656 -15.738281 21.5 -15.097656 21.28125 -14.453125 C 21.0625 -13.804688 20.816406 -13.148438 20.546875 -12.484375 C 20.972656 -12.523438 21.382812 -12.550781 21.78125 -12.5625 C 22.175781 -12.582031 22.550781 -12.59375 22.90625 -12.59375 C 24.632812 -12.59375 26.234375 -12.328125 27.703125 -11.796875 C 29.171875 -11.273438 30.515625 -10.382812 31.734375 -9.125 C 32.046875 -8.769531 32.359375 -8.570312 32.671875 -8.53125 C 32.984375 -8.5 33.335938 -8.539062 33.734375 -8.65625 C 39.148438 -10.226562 44.273438 -12.546875 49.109375 -15.609375 C 54.328125 -18.898438 59.101562 -22.632812 63.4375 -26.8125 C 67.769531 -31 71.46875 -35.816406 74.53125 -41.265625 C 75.59375 -43.191406 76.457031 -45.175781 77.125 -47.21875 C 77.789062 -49.257812 78.203125 -51.378906 78.359375 -53.578125 C 78.554688 -56.359375 77.957031 -58.710938 76.5625 -60.640625 C 75.175781 -62.566406 73.207031 -63.785156 70.65625 -64.296875 C 70.0625 -64.410156 69.476562 -64.492188 68.90625 -64.546875 C 68.34375 -64.609375 67.765625 -64.625 67.171875 -64.59375 C 65.410156 -64.507812 63.703125 -64.25 62.046875 -63.8125 C 60.398438 -63.382812 58.796875 -62.816406 57.234375 -62.109375 C 53.660156 -60.460938 50.410156 -58.390625 47.484375 -55.890625 C 44.554688 -53.398438 41.878906 -50.609375 39.453125 -47.515625 C 32.109375 -38.054688 26.273438 -27.675781 21.953125 -16.375 Z M 19.78125 -9.890625 C 19.707031 -9.492188 19.765625 -9.226562 19.953125 -9.09375 C 20.148438 -8.957031 20.347656 -8.8125 20.546875 -8.65625 C 20.972656 -8.382812 21.441406 -8.148438 21.953125 -7.953125 C 22.460938 -7.753906 22.972656 -7.597656 23.484375 -7.484375 C 24.546875 -7.285156 25.597656 -7.234375 26.640625 -7.328125 C 27.679688 -7.429688 28.75 -7.597656 29.84375 -7.828125 C 29.257812 -8.453125 28.671875 -9.007812 28.078125 -9.5 C 27.492188 -10 26.867188 -10.382812 26.203125 -10.65625 C 25.378906 -11.007812 24.535156 -11.242188 23.671875 -11.359375 C 22.804688 -11.484375 21.921875 -11.425781 21.015625 -11.1875 C 20.347656 -11.03125 19.9375 -10.597656 19.78125 -9.890625 Z M 19.78125 -9.890625 "/></g></g></g><g fill="#252b39" fill-opacity="1"><g transform="translate(62.927055, 77.788683)"><g><path d="M 11.296875 2.40625 C 8.671875 3.394531 6.445312 3.546875 4.625 2.859375 C 2.800781 2.171875 1.160156 0.648438 -0.296875 -1.703125 C -1.742188 -4.140625 -1.976562 -6.691406 -1 -9.359375 C -0.175781 -11.554688 1.046875 -13.332031 2.671875 -14.6875 C 4.304688 -16.039062 6.222656 -17.03125 8.421875 -17.65625 C 9.285156 -17.9375 10.097656 -17.957031 10.859375 -17.71875 C 11.628906 -17.488281 12.363281 -17.117188 13.0625 -16.609375 C 13.96875 -15.941406 14.164062 -15.097656 13.65625 -14.078125 C 13.457031 -13.679688 13.242188 -13.363281 13.015625 -13.125 C 12.148438 -12.300781 11.234375 -11.554688 10.265625 -10.890625 C 9.304688 -10.222656 8.257812 -9.691406 7.125 -9.296875 C 5.988281 -8.941406 4.867188 -8.90625 3.765625 -9.1875 C 3.367188 -9.300781 3.0625 -9.28125 2.84375 -9.125 C 2.632812 -8.96875 2.453125 -8.734375 2.296875 -8.421875 C 1.546875 -6.804688 1.238281 -5.242188 1.375 -3.734375 C 1.519531 -2.222656 2.140625 -0.742188 3.234375 0.703125 C 3.703125 1.253906 4.238281 1.617188 4.84375 1.796875 C 5.457031 1.972656 6.097656 2.039062 6.765625 2 C 7.710938 1.925781 8.617188 1.757812 9.484375 1.5 C 10.347656 1.25 11.191406 0.925781 12.015625 0.53125 C 12.753906 0.175781 13.8125 -0.390625 15.1875 -1.171875 C 16.5625 -1.960938 18.148438 -2.847656 19.953125 -3.828125 C 21.765625 -4.804688 23.691406 -5.773438 25.734375 -6.734375 C 27.773438 -7.703125 29.832031 -8.535156 31.90625 -9.234375 C 33.988281 -9.941406 35.992188 -10.394531 37.921875 -10.59375 C 38.148438 -10.59375 38.390625 -10.5625 38.640625 -10.5 C 38.898438 -10.445312 39.109375 -10.222656 39.265625 -9.828125 C 36.515625 -9.472656 33.773438 -8.738281 31.046875 -7.625 C 28.328125 -6.507812 25.71875 -5.273438 23.21875 -3.921875 C 20.726562 -2.566406 18.460938 -1.296875 16.421875 -0.109375 C 14.378906 1.066406 12.671875 1.90625 11.296875 2.40625 Z M 11.1875 -15.421875 C 10.476562 -15.460938 9.640625 -15.253906 8.671875 -14.796875 C 7.710938 -14.347656 6.820312 -13.789062 6 -13.125 C 5.175781 -12.457031 4.609375 -11.769531 4.296875 -11.0625 C 5.078125 -10.988281 5.957031 -11.164062 6.9375 -11.59375 C 7.925781 -12.03125 8.820312 -12.597656 9.625 -13.296875 C 10.425781 -14.003906 10.945312 -14.710938 11.1875 -15.421875 Z M 11.1875 -15.421875 "/></g></g></g><g fill="#252b39" fill-opacity="1"><g transform="translate(96.600387, 77.788683)"><g><path d="M -1.703125 26.203125 C -2.679688 28.472656 -3.671875 30.785156 -4.671875 33.140625 C -5.679688 35.492188 -6.789062 37.769531 -8 39.96875 C -9.613281 42.957031 -11.34375 45.875 -13.1875 48.71875 C -15.03125 51.5625 -17.171875 54.203125 -19.609375 56.640625 C -20.984375 58.046875 -22.453125 59.328125 -24.015625 60.484375 C -25.585938 61.648438 -27.296875 62.585938 -29.140625 63.296875 C -34.710938 65.492188 -39.972656 64.941406 -44.921875 61.640625 C -46.140625 60.816406 -47.082031 59.816406 -47.75 58.640625 C -48.414062 57.460938 -48.984375 56.226562 -49.453125 54.9375 C -50.203125 52.8125 -50.582031 50.671875 -50.59375 48.515625 C -50.613281 46.359375 -50.390625 44.179688 -49.921875 41.984375 C -49.378906 39.429688 -48.5 37.0625 -47.28125 34.875 C -46.0625 32.695312 -44.644531 30.628906 -43.03125 28.671875 C -40.25 25.335938 -37.160156 22.429688 -33.765625 19.953125 C -30.367188 17.484375 -26.726562 15.347656 -22.84375 13.546875 C -20.132812 12.285156 -17.359375 11.257812 -14.515625 10.46875 C -11.671875 9.6875 -8.753906 9.160156 -5.765625 8.890625 C -4.671875 8.804688 -3.582031 8.773438 -2.5 8.796875 C -1.425781 8.816406 -0.335938 8.867188 0.765625 8.953125 C 1.359375 8.992188 1.722656 8.972656 1.859375 8.890625 C 1.992188 8.804688 2.160156 8.507812 2.359375 8 C 3.648438 4.976562 5.019531 2 6.46875 -0.9375 C 7.925781 -3.882812 9.5 -6.75 11.1875 -9.53125 C 11.382812 -9.851562 11.578125 -10.160156 11.765625 -10.453125 C 11.960938 -10.742188 12.082031 -11.085938 12.125 -11.484375 C 11.414062 -11.085938 10.773438 -10.613281 10.203125 -10.0625 C 9.640625 -9.519531 9.066406 -8.972656 8.484375 -8.421875 C 7.265625 -7.203125 6.046875 -5.960938 4.828125 -4.703125 C 3.609375 -3.453125 2.375 -2.238281 1.125 -1.0625 C 0.6875 -0.664062 0.175781 -0.3125 -0.40625 0 C -1.351562 0.507812 -2.25 0.5 -3.09375 -0.03125 C -3.9375 -0.5625 -4.335938 -1.351562 -4.296875 -2.40625 C -4.296875 -3.3125 -4.140625 -4.164062 -3.828125 -4.96875 C -3.515625 -5.78125 -3.160156 -6.554688 -2.765625 -7.296875 C -0.921875 -10.828125 1.566406 -13.691406 4.703125 -15.890625 C 5.140625 -16.210938 5.59375 -16.476562 6.0625 -16.6875 C 6.53125 -16.90625 7.019531 -17.09375 7.53125 -17.25 C 9.300781 -17.84375 10.988281 -17.550781 12.59375 -16.375 C 12.90625 -16.09375 13.160156 -15.972656 13.359375 -16.015625 C 13.554688 -16.054688 13.796875 -16.175781 14.078125 -16.375 C 14.503906 -16.757812 14.941406 -17.117188 15.390625 -17.453125 C 15.847656 -17.785156 16.3125 -18.109375 16.78125 -18.421875 C 17.132812 -18.660156 17.703125 -18.738281 18.484375 -18.65625 C 19.273438 -18.582031 19.804688 -18.410156 20.078125 -18.140625 C 20.234375 -17.972656 20.289062 -17.832031 20.25 -17.71875 C 20.207031 -17.601562 20.148438 -17.503906 20.078125 -17.421875 C 19.835938 -17.109375 19.585938 -16.796875 19.328125 -16.484375 C 19.078125 -16.171875 18.851562 -15.859375 18.65625 -15.546875 C 17.519531 -13.859375 16.429688 -12.148438 15.390625 -10.421875 C 14.347656 -8.691406 13.359375 -6.925781 12.421875 -5.125 C 11.328125 -3.039062 10.269531 -0.941406 9.25 1.171875 C 8.226562 3.296875 7.222656 5.414062 6.234375 7.53125 C 5.878906 8.28125 5.671875 8.800781 5.609375 9.09375 C 5.554688 9.382812 5.675781 9.5625 5.96875 9.625 C 6.269531 9.6875 6.773438 9.773438 7.484375 9.890625 C 8.660156 10.003906 9.816406 10.25 10.953125 10.625 C 12.085938 11 13.207031 11.398438 14.3125 11.828125 C 14.3125 11.828125 14.390625 11.867188 14.546875 11.953125 C 14.617188 12.023438 14.722656 12.101562 14.859375 12.1875 C 15.003906 12.269531 15.035156 12.390625 14.953125 12.546875 C 14.910156 12.703125 14.820312 12.785156 14.6875 12.796875 C 14.550781 12.816406 14.425781 12.828125 14.3125 12.828125 C 13.757812 12.753906 13.21875 12.6875 12.6875 12.625 C 12.15625 12.570312 11.613281 12.503906 11.0625 12.421875 C 10.164062 12.265625 9.265625 12.109375 8.359375 11.953125 C 7.453125 11.796875 6.550781 11.617188 5.65625 11.421875 C 4.988281 11.265625 4.515625 11.539062 4.234375 12.25 C 3.253906 14.5625 2.273438 16.882812 1.296875 19.21875 C 0.316406 21.550781 -0.679688 23.878906 -1.703125 26.203125 Z M 11.296875 -14.125 C 11.421875 -14.207031 11.53125 -14.296875 11.625 -14.390625 C 11.726562 -14.492188 11.738281 -14.625 11.65625 -14.78125 C 11.539062 -15.050781 11.285156 -15.226562 10.890625 -15.3125 C 10.648438 -15.3125 10.421875 -15.269531 10.203125 -15.1875 C 9.992188 -15.113281 9.789062 -15.035156 9.59375 -14.953125 C 8.726562 -14.554688 7.90625 -14.082031 7.125 -13.53125 C 6.34375 -12.988281 5.617188 -12.382812 4.953125 -11.71875 C 3.691406 -10.582031 2.539062 -9.351562 1.5 -8.03125 C 0.457031 -6.71875 -0.394531 -5.273438 -1.0625 -3.703125 C -1.21875 -3.390625 -1.351562 -3.066406 -1.46875 -2.734375 C -1.59375 -2.398438 -1.613281 -2 -1.53125 -1.53125 C -1.019531 -1.84375 -0.585938 -2.15625 -0.234375 -2.46875 C 0.117188 -2.78125 0.472656 -3.097656 0.828125 -3.421875 C 2.628906 -5.140625 4.351562 -6.941406 6 -8.828125 C 7.65625 -10.710938 9.421875 -12.476562 11.296875 -14.125 Z M -18.3125 50.875 C -16.269531 47.96875 -14.40625 44.929688 -12.71875 41.765625 C -11.03125 38.609375 -9.457031 35.421875 -8 32.203125 C -6.75 29.378906 -5.503906 26.535156 -4.265625 23.671875 C -3.023438 20.804688 -1.800781 17.941406 -0.59375 15.078125 C -0.351562 14.523438 -0.117188 13.972656 0.109375 13.421875 C 0.347656 12.867188 0.585938 12.320312 0.828125 11.78125 C 0.984375 11.425781 1.019531 11.1875 0.9375 11.0625 C 0.863281 10.945312 0.628906 10.867188 0.234375 10.828125 C -0.347656 10.753906 -0.929688 10.71875 -1.515625 10.71875 C -2.109375 10.71875 -2.722656 10.738281 -3.359375 10.78125 C -6.378906 10.8125 -9.320312 11.21875 -12.1875 12 C -15.050781 12.789062 -17.859375 13.816406 -20.609375 15.078125 C -24.609375 16.835938 -28.351562 18.953125 -31.84375 21.421875 C -35.34375 23.898438 -38.503906 26.847656 -41.328125 30.265625 C -43.484375 32.890625 -45.191406 35.703125 -46.453125 38.703125 C -47.710938 41.710938 -48.359375 44.960938 -48.390625 48.453125 C -48.515625 51.242188 -47.945312 53.953125 -46.6875 56.578125 C -46.257812 57.554688 -45.75 58.488281 -45.15625 59.375 C -44.570312 60.257812 -43.785156 60.992188 -42.796875 61.578125 C -40.835938 62.753906 -38.660156 63.304688 -36.265625 63.234375 C -34.460938 63.148438 -32.765625 62.796875 -31.171875 62.171875 C -29.585938 61.546875 -28.085938 60.703125 -26.671875 59.640625 C -25.023438 58.421875 -23.515625 57.078125 -22.140625 55.609375 C -20.765625 54.140625 -19.488281 52.5625 -18.3125 50.875 Z M -18.3125 50.875 "/></g></g></g><g fill="#252b39" fill-opacity="1"><g transform="translate(118.970616, 77.788683)"><g><path d="M 4.125 -1.890625 C 4.082031 -2.078125 4.0625 -2.296875 4.0625 -2.546875 C 4.0625 -2.804688 4.003906 -3.078125 3.890625 -3.359375 C 3.535156 -3.003906 3.191406 -2.671875 2.859375 -2.359375 C 2.523438 -2.046875 2.203125 -1.726562 1.890625 -1.40625 C 1.453125 -0.9375 0.941406 -0.546875 0.359375 -0.234375 C -0.390625 0.117188 -1.144531 0.0976562 -1.90625 -0.296875 C -2.675781 -0.691406 -3.0625 -1.300781 -3.0625 -2.125 C -3.101562 -4.550781 -2.628906 -6.742188 -1.640625 -8.703125 C -0.660156 -10.671875 0.882812 -12.320312 3 -13.65625 C 3.90625 -14.207031 4.796875 -14.453125 5.671875 -14.390625 C 6.554688 -14.335938 7.429688 -14.054688 8.296875 -13.546875 C 8.535156 -13.390625 8.757812 -13.25 8.96875 -13.125 C 9.1875 -13.007812 9.453125 -13.007812 9.765625 -13.125 C 9.960938 -13.207031 10.148438 -13.195312 10.328125 -13.09375 C 10.503906 -13 10.671875 -12.910156 10.828125 -12.828125 C 11.460938 -12.554688 11.816406 -12.273438 11.890625 -11.984375 C 11.972656 -11.691406 11.859375 -11.226562 11.546875 -10.59375 C 11.109375 -9.851562 10.65625 -9.097656 10.1875 -8.328125 C 9.71875 -7.566406 9.328125 -6.773438 9.015625 -5.953125 C 8.179688 -3.910156 7.785156 -1.867188 7.828125 0.171875 C 7.828125 1.117188 8.003906 2.003906 8.359375 2.828125 C 8.671875 3.566406 9.28125 3.976562 10.1875 4.0625 C 11.09375 4.0625 11.9375 3.921875 12.71875 3.640625 C 13.5 3.367188 14.265625 3.039062 15.015625 2.65625 C 15.992188 2.175781 17.265625 1.472656 18.828125 0.546875 C 20.398438 -0.367188 22.109375 -1.382812 23.953125 -2.5 C 25.804688 -3.625 27.664062 -4.722656 29.53125 -5.796875 C 31.394531 -6.878906 33.128906 -7.84375 34.734375 -8.6875 C 36.347656 -9.53125 37.722656 -10.128906 38.859375 -10.484375 C 39.992188 -10.835938 40.71875 -10.816406 41.03125 -10.421875 C 41.03125 -10.421875 41.070312 -10.285156 41.15625 -10.015625 C 39.695312 -9.847656 38.054688 -9.320312 36.234375 -8.4375 C 34.410156 -7.5625 32.503906 -6.492188 30.515625 -5.234375 C 28.535156 -3.984375 26.566406 -2.691406 24.609375 -1.359375 C 22.648438 -0.0234375 20.796875 1.195312 19.046875 2.3125 C 17.296875 3.4375 15.734375 4.296875 14.359375 4.890625 C 12.671875 5.597656 10.941406 5.710938 9.171875 5.234375 C 7.410156 4.765625 6.019531 3.585938 5 1.703125 C 4.726562 1.160156 4.53125 0.585938 4.40625 -0.015625 C 4.289062 -0.628906 4.195312 -1.253906 4.125 -1.890625 Z M 0.828125 -2.59375 C 2.203125 -3.769531 3.378906 -5.09375 4.359375 -6.5625 C 5.335938 -8.03125 6.296875 -9.515625 7.234375 -11.015625 C 7.398438 -11.242188 7.441406 -11.445312 7.359375 -11.625 C 7.273438 -11.800781 7.175781 -11.96875 7.0625 -12.125 C 6.945312 -12.320312 6.800781 -12.421875 6.625 -12.421875 C 6.445312 -12.421875 6.28125 -12.382812 6.125 -12.3125 C 5.882812 -12.144531 5.632812 -12.003906 5.375 -11.890625 C 5.125 -11.773438 4.898438 -11.617188 4.703125 -11.421875 C 3.609375 -10.484375 2.664062 -9.441406 1.875 -8.296875 C 1.09375 -7.160156 0.425781 -5.90625 -0.125 -4.53125 C -0.28125 -4.132812 -0.414062 -3.691406 -0.53125 -3.203125 C -0.644531 -2.710938 -0.703125 -2.132812 -0.703125 -1.46875 C -0.390625 -1.707031 -0.109375 -1.914062 0.140625 -2.09375 C 0.398438 -2.269531 0.628906 -2.4375 0.828125 -2.59375 Z M 0.828125 -2.59375 "/></g></g></g><g fill="#252b39" fill-opacity="1"><g transform="translate(153.997967, 77.788683)"><g><path d="M 26.5 -10.125 C 26.769531 -10.28125 27.0625 -10.382812 27.375 -10.4375 C 27.6875 -10.5 28.039062 -10.394531 28.4375 -10.125 C 25.800781 -8.945312 23.503906 -7.492188 21.546875 -5.765625 C 20.679688 -5.023438 19.835938 -4.25 19.015625 -3.4375 C 18.191406 -2.632812 17.367188 -1.84375 16.546875 -1.0625 C 14.859375 0.582031 13.148438 2.21875 11.421875 3.84375 C 9.691406 5.476562 7.90625 7.039062 6.0625 8.53125 C 5.4375 9.039062 4.804688 9.53125 4.171875 10 C 3.546875 10.476562 2.863281 10.894531 2.125 11.25 C 1.882812 11.320312 1.644531 11.40625 1.40625 11.5 C 1.175781 11.601562 0.941406 11.695312 0.703125 11.78125 C -0.515625 12.09375 -1.632812 12.003906 -2.65625 11.515625 C -3.675781 11.023438 -4.421875 10.191406 -4.890625 9.015625 C -5.429688 7.710938 -5.703125 6.394531 -5.703125 5.0625 C -5.703125 3.21875 -5.515625 1.429688 -5.140625 -0.296875 C -4.773438 -2.023438 -4.296875 -3.734375 -3.703125 -5.421875 C -3.078125 -7.179688 -2.378906 -8.90625 -1.609375 -10.59375 C -0.847656 -12.28125 -0.0351562 -13.953125 0.828125 -15.609375 C 2.078125 -18.148438 3.378906 -20.675781 4.734375 -23.1875 C 6.085938 -25.707031 7.492188 -28.203125 8.953125 -30.671875 C 10.203125 -32.867188 11.492188 -35.035156 12.828125 -37.171875 C 14.171875 -39.316406 15.507812 -41.46875 16.84375 -43.625 C 18.21875 -45.707031 19.609375 -47.757812 21.015625 -49.78125 C 22.429688 -51.800781 23.925781 -53.773438 25.5 -55.703125 C 26.832031 -57.347656 28.179688 -58.960938 29.546875 -60.546875 C 30.921875 -62.140625 32.316406 -63.722656 33.734375 -65.296875 C 33.929688 -65.523438 34.15625 -65.75 34.40625 -65.96875 C 34.664062 -66.1875 34.910156 -66.394531 35.140625 -66.59375 C 35.492188 -66.863281 35.835938 -66.867188 36.171875 -66.609375 C 36.503906 -66.359375 36.757812 -66.003906 36.9375 -65.546875 C 37.113281 -65.097656 37.144531 -64.71875 37.03125 -64.40625 C 36.988281 -63.695312 36.546875 -62.457031 35.703125 -60.6875 C 34.859375 -58.925781 33.707031 -56.789062 32.25 -54.28125 C 30.800781 -51.769531 29.101562 -49.003906 27.15625 -45.984375 C 25.21875 -42.960938 23.101562 -39.832031 20.8125 -36.59375 C 18.519531 -33.351562 16.113281 -30.132812 13.59375 -26.9375 C 11.082031 -23.738281 8.550781 -20.707031 6 -17.84375 L 5.953125 -17.84375 C 5.628906 -17.207031 5.289062 -16.578125 4.9375 -15.953125 C 4.59375 -15.328125 4.257812 -14.679688 3.9375 -14.015625 C 2.882812 -11.972656 1.894531 -9.878906 0.96875 -7.734375 C 0.0507812 -5.597656 -0.78125 -3.410156 -1.53125 -1.171875 C -1.925781 0.117188 -2.289062 1.429688 -2.625 2.765625 C -2.957031 4.097656 -3.101562 5.472656 -3.0625 6.890625 C -3.0625 7.398438 -3.03125 7.898438 -2.96875 8.390625 C -2.914062 8.878906 -2.789062 9.359375 -2.59375 9.828125 C -2.351562 10.335938 -2.125 10.640625 -1.90625 10.734375 C -1.695312 10.835938 -1.316406 10.851562 -0.765625 10.78125 C 0.453125 10.5 1.609375 9.988281 2.703125 9.25 C 4.078125 8.34375 5.351562 7.347656 6.53125 6.265625 C 7.707031 5.191406 8.867188 4.101562 10.015625 3 C 11.503906 1.625 12.984375 0.242188 14.453125 -1.140625 C 15.921875 -2.535156 17.421875 -3.882812 18.953125 -5.1875 C 20.097656 -6.207031 21.304688 -7.117188 22.578125 -7.921875 C 23.847656 -8.722656 25.15625 -9.457031 26.5 -10.125 Z M 10.296875 -25.84375 C 10.023438 -25.332031 9.734375 -24.789062 9.421875 -24.21875 C 9.109375 -23.65625 8.796875 -23.097656 8.484375 -22.546875 C 11.503906 -26.160156 14.601562 -30.144531 17.78125 -34.5 C 20.957031 -38.851562 24 -43.328125 26.90625 -47.921875 C 29.0625 -51.296875 30.835938 -54.207031 32.234375 -56.65625 C 33.628906 -59.113281 34.660156 -61.070312 35.328125 -62.53125 C 34.972656 -62.09375 34.617188 -61.648438 34.265625 -61.203125 C 33.910156 -60.753906 33.554688 -60.3125 33.203125 -59.875 C 31.359375 -57.476562 29.503906 -55.09375 27.640625 -52.71875 C 25.773438 -50.34375 24 -47.898438 22.3125 -45.390625 C 20.195312 -42.171875 18.132812 -38.941406 16.125 -35.703125 C 14.125 -32.460938 12.179688 -29.175781 10.296875 -25.84375 Z M 10.296875 -25.84375 "/></g></g></g><g fill="#252b39" fill-opacity="1"><g transform="translate(175.426262, 77.788683)"><g><path d="M 3.65625 -5.234375 C 3.65625 -5.234375 3.65625 -5.210938 3.65625 -5.171875 C 3.65625 -5.140625 3.632812 -5.066406 3.59375 -4.953125 C 3.59375 -4.953125 4.171875 -4.929688 5.328125 -4.890625 C 6.484375 -4.847656 8.203125 -5.039062 10.484375 -5.46875 C 10.753906 -5.550781 11.332031 -5.71875 12.21875 -5.96875 C 13.101562 -6.226562 14.132812 -6.570312 15.3125 -7 C 16.488281 -7.4375 17.703125 -7.921875 18.953125 -8.453125 C 20.210938 -8.984375 21.332031 -9.539062 22.3125 -10.125 C 22.550781 -10.28125 22.765625 -10.316406 22.953125 -10.234375 C 23.148438 -10.160156 23.289062 -10.101562 23.375 -10.0625 C 20.707031 -8.414062 18.023438 -7.0625 15.328125 -6 C 12.640625 -4.945312 10.207031 -4.253906 8.03125 -3.921875 C 5.851562 -3.585938 4.195312 -3.632812 3.0625 -4.0625 C 2.789062 -4.101562 2.535156 -4.003906 2.296875 -3.765625 C 1.941406 -3.410156 1.566406 -3.085938 1.171875 -2.796875 C 0.785156 -2.503906 0.394531 -2.203125 0 -1.890625 C -0.0820312 -1.847656 -0.160156 -1.796875 -0.234375 -1.734375 C -0.316406 -1.679688 -0.394531 -1.632812 -0.46875 -1.59375 C -1.21875 -1.125 -1.9375 -1.082031 -2.625 -1.46875 C -3.3125 -1.863281 -3.671875 -2.515625 -3.703125 -3.421875 C -3.703125 -3.960938 -3.625 -4.488281 -3.46875 -5 C -3.3125 -5.507812 -3.097656 -6 -2.828125 -6.46875 C -2.546875 -6.945312 -2.566406 -7.421875 -2.890625 -7.890625 C -3.828125 -9.335938 -4.257812 -10.96875 -4.1875 -12.78125 C -4.144531 -13.320312 -4.015625 -13.847656 -3.796875 -14.359375 C -3.578125 -14.867188 -3.289062 -15.34375 -2.9375 -15.78125 C -1.570312 -17.539062 0.226562 -18.582031 2.46875 -18.90625 C 3.800781 -19.09375 4.9375 -18.800781 5.875 -18.03125 C 6.820312 -17.269531 7.375 -16.222656 7.53125 -14.890625 C 7.613281 -14.023438 7.578125 -13.203125 7.421875 -12.421875 C 7.265625 -11.640625 7.03125 -10.851562 6.71875 -10.0625 C 6.363281 -9.195312 5.957031 -8.390625 5.5 -7.640625 C 5.050781 -6.898438 4.492188 -6.195312 3.828125 -5.53125 C 3.785156 -5.488281 3.753906 -5.445312 3.734375 -5.40625 C 3.710938 -5.375 3.6875 -5.316406 3.65625 -5.234375 Z M 0.53125 -4.359375 C 0.6875 -4.515625 0.664062 -4.671875 0.46875 -4.828125 C 0.3125 -4.910156 0.15625 -5 0 -5.09375 C -0.15625 -5.1875 -0.3125 -5.273438 -0.46875 -5.359375 C -0.75 -5.554688 -0.96875 -5.515625 -1.125 -5.234375 C -1.507812 -4.535156 -1.800781 -3.789062 -2 -3 C -2.039062 -2.84375 -2.019531 -2.707031 -1.9375 -2.59375 C -1.394531 -2.75 -0.9375 -2.984375 -0.5625 -3.296875 C -0.1875 -3.609375 0.175781 -3.960938 0.53125 -4.359375 Z M 2.0625 -6.0625 C 2.84375 -6.925781 3.457031 -7.878906 3.90625 -8.921875 C 4.363281 -9.960938 4.710938 -11.03125 4.953125 -12.125 C 5.265625 -13.539062 5.234375 -14.570312 4.859375 -15.21875 C 4.484375 -15.863281 4.066406 -16.273438 3.609375 -16.453125 C 3.160156 -16.628906 2.9375 -16.71875 2.9375 -16.71875 C 1.84375 -16.800781 0.863281 -16.546875 0 -15.953125 C -0.863281 -15.367188 -1.539062 -14.613281 -2.03125 -13.6875 C -2.519531 -12.769531 -2.773438 -11.804688 -2.796875 -10.796875 C -2.816406 -9.796875 -2.53125 -8.90625 -1.9375 -8.125 C -1.75 -8.4375 -1.546875 -8.71875 -1.328125 -8.96875 C -1.109375 -9.226562 -0.921875 -9.476562 -0.765625 -9.71875 C -0.296875 -10.382812 0.269531 -10.929688 0.9375 -11.359375 C 1.644531 -11.796875 2.273438 -11.617188 2.828125 -10.828125 C 3.023438 -10.554688 3.101562 -10.34375 3.0625 -10.1875 C 3.019531 -10.03125 2.800781 -9.796875 2.40625 -9.484375 C 2.019531 -9.171875 1.640625 -8.835938 1.265625 -8.484375 C 0.890625 -8.128906 0.546875 -7.734375 0.234375 -7.296875 C -0.00390625 -6.941406 -0.125 -6.722656 -0.125 -6.640625 C -0.125 -6.566406 0.25 -6.335938 1 -5.953125 C 1.3125 -5.785156 1.5 -5.691406 1.5625 -5.671875 C 1.625 -5.660156 1.691406 -5.671875 1.765625 -5.703125 C 1.847656 -5.742188 1.90625 -5.800781 1.9375 -5.875 C 1.976562 -5.957031 2.019531 -6.019531 2.0625 -6.0625 Z M 2.0625 -6.0625 "/></g></g></g><g fill="#252b39" fill-opacity="1"><g transform="translate(192.851393, 77.788683)"><g><path d="M 6.953125 5.953125 C 7.304688 4.960938 7.875 4.097656 8.65625 3.359375 C 9.238281 2.804688 9.578125 2.066406 9.671875 1.140625 C 9.773438 0.222656 9.613281 -0.566406 9.1875 -1.234375 C 8.90625 -1.742188 8.492188 -1.941406 7.953125 -1.828125 C 7.203125 -1.671875 6.472656 -1.492188 5.765625 -1.296875 C 5.054688 -1.097656 4.367188 -0.878906 3.703125 -0.640625 C 3.003906 -0.410156 2.300781 -0.234375 1.59375 -0.109375 C 0.882812 0.00390625 0.15625 -0.015625 -0.59375 -0.171875 C -0.664062 -0.210938 -0.800781 -0.234375 -1 -0.234375 C -3.351562 -0.785156 -4.195312 -2.21875 -3.53125 -4.53125 C -2.707031 -7.195312 -1.472656 -9.671875 0.171875 -11.953125 C 0.722656 -12.691406 1.332031 -13.375 2 -14 C 2.664062 -14.632812 3.394531 -15.1875 4.1875 -15.65625 C 5.007812 -16.132812 5.867188 -16.457031 6.765625 -16.625 C 7.671875 -16.800781 8.59375 -16.796875 9.53125 -16.609375 C 11.144531 -16.210938 12.175781 -15.519531 12.625 -14.53125 C 13.082031 -13.550781 13.210938 -12.359375 13.015625 -10.953125 C 12.972656 -10.710938 12.890625 -10.492188 12.765625 -10.296875 C 12.648438 -10.109375 12.4375 -9.972656 12.125 -9.890625 C 11.695312 -9.804688 11.351562 -9.882812 11.09375 -10.125 C 10.84375 -10.363281 10.738281 -10.738281 10.78125 -11.25 C 10.851562 -11.71875 10.859375 -12.175781 10.796875 -12.625 C 10.742188 -13.082031 10.617188 -13.503906 10.421875 -13.890625 C 10.066406 -14.523438 9.710938 -14.898438 9.359375 -15.015625 C 9.003906 -15.128906 8.492188 -15.03125 7.828125 -14.71875 C 6.847656 -14.25 6.015625 -13.648438 5.328125 -12.921875 C 4.640625 -12.191406 3.984375 -11.414062 3.359375 -10.59375 C 2.691406 -9.695312 2.101562 -8.738281 1.59375 -7.71875 C 1.082031 -6.695312 0.609375 -5.632812 0.171875 -4.53125 C 0.0546875 -4.21875 -0.0351562 -3.882812 -0.109375 -3.53125 C -0.191406 -3.175781 -0.234375 -2.800781 -0.234375 -2.40625 C -0.191406 -2.019531 -0.101562 -1.765625 0.03125 -1.640625 C 0.164062 -1.523438 0.429688 -1.507812 0.828125 -1.59375 C 1.335938 -1.75 1.835938 -1.90625 2.328125 -2.0625 C 2.816406 -2.21875 3.316406 -2.375 3.828125 -2.53125 C 4.179688 -2.644531 4.523438 -2.75 4.859375 -2.84375 C 5.191406 -2.945312 5.535156 -3.054688 5.890625 -3.171875 C 6.085938 -3.210938 6.289062 -3.253906 6.5 -3.296875 C 6.71875 -3.335938 6.925781 -3.359375 7.125 -3.359375 C 8.5 -3.515625 9.578125 -3.375 10.359375 -2.9375 C 11.148438 -2.507812 11.859375 -1.664062 12.484375 -0.40625 C 13.148438 -1 13.796875 -1.566406 14.421875 -2.109375 C 15.046875 -2.660156 15.675781 -3.191406 16.3125 -3.703125 C 16.894531 -4.210938 17.5 -4.703125 18.125 -5.171875 C 18.757812 -5.648438 19.390625 -6.082031 20.015625 -6.46875 C 20.210938 -6.59375 20.398438 -6.703125 20.578125 -6.796875 C 20.753906 -6.898438 20.921875 -6.988281 21.078125 -7.0625 C 21.273438 -7.144531 21.46875 -7.175781 21.65625 -7.15625 C 21.851562 -7.132812 21.992188 -7.023438 22.078125 -6.828125 C 22.160156 -6.628906 22.128906 -6.476562 21.984375 -6.375 C 21.847656 -6.28125 21.722656 -6.195312 21.609375 -6.125 C 19.960938 -4.945312 18.398438 -3.679688 16.921875 -2.328125 C 15.453125 -0.972656 13.992188 0.390625 12.546875 1.765625 C 12.390625 1.960938 12.222656 2.164062 12.046875 2.375 C 11.867188 2.59375 11.738281 2.84375 11.65625 3.125 C 11.414062 3.832031 11.082031 4.476562 10.65625 5.0625 C 10.226562 5.65625 9.773438 6.242188 9.296875 6.828125 C 9.179688 6.984375 9.046875 7.117188 8.890625 7.234375 C 8.734375 7.359375 8.554688 7.441406 8.359375 7.484375 C 8.085938 7.515625 7.8125 7.539062 7.53125 7.5625 C 7.257812 7.582031 7.023438 7.472656 6.828125 7.234375 C 6.628906 7.046875 6.578125 6.832031 6.671875 6.59375 C 6.773438 6.351562 6.867188 6.140625 6.953125 5.953125 Z M 6.953125 5.953125 "/></g></g></g></g></g><g clip-path="url(#9208fa7c33)"><g clip-path="url(#2a51c1b4b7)"><g clip-path="url(#b0d6d68836)"><path fill="#252b39" d="M 243.191406 107.398438 C 244.164062 107.226562 244.3125 107.53125 244.792969 107.292969 C 247.523438 105.867188 252.109375 105.039062 253.84375 104.664062 C 281.96875 98.402344 283.261719 60.265625 319.4375 40.378906 C 319.742188 40.203125 320.300781 39.324219 319.261719 39.136719 C 313.703125 41.390625 307.933594 44.097656 299.070312 52.667969 C 289.285156 62.105469 276.421875 87.125 267.957031 95.160156 C 256.972656 105.585938 246.84375 102.867188 243.21875 107.398438 Z M 243.191406 107.398438 " fill-opacity="1" fill-rule="evenodd"/></g></g></g><g clip-path="url(#c6c3035194)"><g clip-path="url(#5c8557c5ab)"><g transform="matrix(1, 0, 0, 1, 477, 53)"><g clip-path="url(#3203a432c7)"><g clip-path="url(#2763524182)"><g clip-path="url(#06b85b125e)"><g clip-path="url(#59e670f87f)"><path fill="#252b39" d="M 54.683594 10.566406 C 53.722656 10.332031 53.710938 9.992188 53.175781 10.015625 C 50.101562 10.214844 45.574219 9.117188 43.835938 8.757812 C 15.582031 3.113281 -1.023438 37.46875 -42.152344 41.03125 C -42.503906 41.0625 -43.371094 41.640625 -42.496094 42.234375 C -36.5 42.421875 -30.128906 42.28125 -18.554688 38.027344 C -5.789062 33.351562 16.09375 15.671875 27.082031 11.742188 C 41.34375 6.652344 49.511719 13.234375 54.660156 10.554688 Z M 54.683594 10.566406 " fill-opacity="1" fill-rule="evenodd"/></g></g></g></g></g></g></g></svg>